Music_Opening:
	channel_count 4
	channel 1, Music_Opening_Ch1
	channel 2, Music_Opening_Ch2
	channel 3, Music_Opening_Ch3
	channel 4, Music_Opening_Ch4

Music_Opening_Ch1:
	volume $7, $7
	stereo_panning TRUE, TRUE
	tempo $F8
	duty_cycle 3
	pitch_offset $0002
	octave 1
	note_type $C, $0, -1
	note A_, 8
	volume_envelope $B, 8
	note A_, 16
	volume_envelope $B, 7
	note A_, 16
	rest 8
	duty_cycle 2
	volume_envelope $B, 2
	octave 5
	note C_, 4
	octave 7
	note_type $4, $B, 2
	note D#, 1
	note C_, 1
	octave 6
	note A_, 1
	note F_, 1
	note C_, 1
	octave 5
	note A_, 1
	note F_, 1
	note D#, 1
	note C_, 1
	octave 4
	note A_, 1
	note F_, 1
	note D#, 1
	octave 6
	note C_, 12
	octave 5
	note_type $C, $B, 2
	note A_, 8
	octave 6
	note C_, 4
	volume_envelope $B, 7
	note D#, 16
	rest 16
	rest 8
	tempo $80
	rest 4
	octave 1
	note A_, 4
	octave 2
	note_type $8, $B, 7
	note A_, 2
	octave 3
	note A_, 2
	octave 2
	note A#, 2
	octave 3
	note A#, 2
	note C_, 2
	octave 4
	note C_, 2
	octave 2
	note A#, 2
	octave 3
	note A#, 2
	note C_, 2
	octave 4
	note C_, 2
	octave 3
	note D_, 2
	octave 4
	note D_, 2
	octave 3
	note C_, 2
	octave 4
	note C_, 2
	octave 3
	note D_, 2
	octave 4
	note D_, 2
	octave 3
	note E_, 2
	octave 4
	note E_, 2
	note D_, 2
	note G_, 2
	octave 5
	note C#, 2
	note E_, 2
	note G_, 2
	note E_, 2
	note F#, 4
	note G_, 2
	note A_, 6
	note D_, 4
	note E_, 2
	note F#, 6
	octave 2
	note F_, 2
	octave 5
	note F_, 4
	octave 2
	note D_, 2
	octave 5
	note D_, 4
	octave 1
	note B_, 2
	octave 4
	note B_, 4
	octave 2
	note D_, 2
	octave 5
	note D_, 4
	octave 3
	note A_, 2
	octave 4
	note D_, 2
	note E_, 2
	note A_, 2
	note D_, 2
	note E_, 2
	octave 5
	note D_, 2
	octave 4
	note D_, 2
	note E_, 2
	note E_, 2
	octave 5
	note A_, 4
	octave 3
	note G_, 2
	octave 4
	note C#, 2
	note F_, 2
	note A_, 2
	octave 5
	note C#, 2
	note F_, 2
	octave 3
	note A#, 2
	octave 4
	note G_, 2
	octave 5
	note C#, 2
	note A#, 6
	octave 1
	note_type $C, $B, 7
	note A_, 12
	duty_cycle 3
	tempo $90
	volume_envelope $B, 2
	octave 3
	note A_, 1
	octave 4
	note C#, 1
	note E_, 1
	note G_, 1
	duty_cycle 0
	octave 5
	note_type $8, $B, 1
	note E_, 1
	note D_, 1
	note C#, 1
	octave 4
	note B_, 1
	note A_, 1
	note G_, 1
	note B_, 1
	note A_, 1
	note G_, 1
	note F#, 1
	note E_, 1
	note D_, 1
	note G_, 1
	note F#, 1
	note E_, 1
	note D_, 1
	note C#, 1
	octave 3
	note B_, 1
	octave 4
	note E_, 1
	note D_, 1
	note C#, 1
	octave 3
	note B_, 1
	note A_, 1
	note G_, 1
	duty_cycle 3
	octave 2
	note_type $C, $B, 2
	note G_, 1
	octave 3
	note C_, 1
	octave 2
	note E_, 1
	note G_, 1
	octave 3
	note C_, 1
	note E_, 1
	octave 2
	note G_, 1
	octave 3
	note C_, 1
	note E_, 1
	note G_, 1
	note D_, 1
	note E_, 1
	note_type $6, $B, 2
	note C_, 1
	note G_, 1
	octave 4
	note C_, 1
	note E_, 1
	note C_, 1
	note E_, 1
	note G_, 1
	octave 5
	note C_, 1
	duty_cycle 0
	note_type $8, $B, 1
	note F_, 1
	note E_, 1
	note D_, 1
	note C_, 1
	octave 4
	note A#, 1
	note A_, 1
	octave 5
	note D_, 1
	note C_, 1
	octave 4
	note A#, 1
	note A_, 1
	note G_, 1
	note F_, 1
	note A#, 1
	note A_, 1
	note G_, 1
	note F_, 1
	note D#, 1
	note D_, 1
	note F_, 1
	note D#, 1
	note D_, 1
	note C_, 1
	octave 3
	note A#, 1
	note A_, 1
	duty_cycle 3
	note_type $C, $B, 2
	note C_, 1
	note E_, 1
	octave 2
	note G_, 1
	octave 3
	note C_, 1
	note E_, 1
	note G_, 1
	note D_, 1
	note E_, 1
	note G_, 1
	octave 4
	note C_, 1
	octave 3
	note E_, 1
	note G_, 1
	octave 4
	note C_, 2
	octave 3
	note A#, 2
	duty_cycle 0
	volume_envelope $A, 3
	note F#, 3
	note F#, 3
	note F#, 6
	note F#, 1
	note F#, 3
	note G_, 3
	note G_, 3
	note G_, 6
	note G_, 1
	note G_, 3
	octave 2
	note F_, 1
	note B_, 2
	octave 3
	note D_, 2
	note F_, 1
	note D_, 3
	octave 2
	note B_, 1
	octave 4
	note F_, 4
	octave 3
	note E_, 1
	note D_, 1
	note C_, 1
	note D_, 2
	note E_, 9
	note C#, 1
	note C#, 3
	note F#, 3
	note F#, 3
	note F#, 6
	note F#, 1
	note F#, 3
	note G_, 3
	note G_, 3
	note G_, 6
	note G_, 1
	note G_, 3
	octave 2
	note F_, 1
	octave 3
	note D_, 1
	octave 2
	note F_, 1
	note A#, 1
	note D_, 1
	note A#, 1
	octave 1
	note A#, 1
	octave 2
	note C_, 1
	note D_, 1
	note A#, 1
	octave 1
	note A#, 1
	octave 2
	note C_, 1
	note D_, 1
	note D#, 1
	note F_, 1
	note G_, 1
	note_type $6, $A, 3
	note G#, 1
	note A_, 5
	note E_, 7
	note C#, 11
	octave 3
	note C#, 2
	note C#, 6
	note F#, 6
	note F#, 6
	note F#, 12
	note F#, 2
	note F#, 6
	note G_, 6
	note G_, 6
	note G_, 12
	note G_, 2
	note G_, 6
	volume_envelope $B, 1
	octave 4
	note F_, 2
	note F_, 2
	note E_, 2
	note F_, 6
	note F_, 2
	note F_, 2
	note E_, 2
	note F_, 6
	note F_, 2
	note F_, 2
	note G_, 2
	note F_, 2
	note E_, 2
	note F_, 4
	note_type $C, $B, 1
	note G_, 9
	note A_, 1
	note A_, 5
	note A_, 1
	note_type $2, $B, 1
	note G_, 1
	note F_, 1
	note_type $3, $B, 1
	note E_, 1
	note_type $2, $B, 1
	note D_, 1
	note_type $B, $B, 1
	note C_, 9
	note_type $C, $B, 1
	note F_, 1
	note F_, 1
	note E_, 1
	note F_, 1
	note E_, 1
	note F_, 2
	note G_, 9
	duty_cycle 3
	volume_envelope $A, 7
	octave 3
	note A_, 1
	note G#, 2
	note A_, 1
	note B_, 7
	octave 4
	note D_, 1
	octave 3
	note B_, 10
	duty_cycle 0
	volume_envelope $A, 1
	octave 4
	note A_, 1
	note_type $2, $A, 1
	note G_, 1
	note F_, 1
	note_type $3, $A, 1
	note E_, 1
	note_type $2, $A, 1
	note D_, 1
	note C_, 16
	rest 9
	note_type $1, $A, 1
	rest 1
	note_type $2, $A, 1
	tempo $94
	note D_, 6
	note D_, 6
	note C#, 6
	note D_, 6
	note E_, 6
	note E_, 6
	note D_, 6
	note E_, 6
	tempo $98
	octave 3
	note A_, 6
	note A#, 6
	octave 4
	note_type $C, $A, 1
	note C_, 4
	octave 3
	note A_, 2
	note F_, 1
	note G_, 1
	note A_, 2
	octave 4
	note D_, 4
	note C_, 4
	octave 3
	note A_, 4
	note F_, 1
	note G_, 1
	note A_, 2
	octave 4
	note C_, 4
	octave 3
	note B_, 6
	note G_, 2
	note G_, 2
	note F#, 4
	note G_, 10
	tempo $A8
	octave 4
	note D_, 1
	note D_, 3
	tempo $B0
	octave 3
	note B_, 1
	note B_, 1
	note A_, 2
	duty_cycle 2
	octave 4
	note A_, 1
	note C#, 1
	note F_, 1
	octave 3
	note A#, 1
	tempo $B4
	note G_, 1
	octave 4
	note C#, 1
	octave 3
	note A#, 1
	octave 4
	note E_, 1
	tempo $B8
	octave 3
	note A#, 1
	note F_, 1
	note G_, 1
	note C#, 1
	tempo $BC
	octave 2
	note A#, 1
	octave 3
	note C#, 1
	note G_, 1
	octave 4
	note C#, 1
	tempo $C0
	note D_, 1
	octave 3
	note G#, 1
	note B_, 1
	note F_, 1
	octave 2
	note B_, 1
	octave 3
	note D_, 1
	note F_, 1
	note G#, 1
	tempo $BC
	octave 2
	note G#, 1
	note B_, 1
	note A_, 1
	note G#, 1
	tempo $B4
	note G_, 2
	note G#, 2
	tempo $98
	octave 1
	note A_, 1
	note E_, 1
	octave 2
	note C_, 1
	octave 1
	note A_, 1
	octave 2
	note E_, 1
	note A_, 1
	note D#, 1
	note E_, 1
	octave 1
	note A_, 1
	note F_, 1
	octave 2
	note C_, 1
	note F_, 1
	note A_, 1
	octave 3
	note C_, 1
	octave 2
	note E_, 1
	note F_, 1
	octave 1
	note A_, 1
	note F#, 1
	octave 2
	note F#, 1
	note C_, 1
	note D#, 1
	octave 3
	note C_, 1
	octave 2
	note A_, 1
	note F#, 1
	note G_, 1
	note D_, 1
	octave 1
	note F#, 1
	octave 2
	note G_, 1
	note D_, 1
	octave 1
	note B_, 1
	octave 2
	note_type $6, $A, 1
	note D#, 1
	note F#, 1
	note A#, 1
	octave 3
	note D#, 1
	note E_, 2
	note C_, 2
	octave 2
	note A_, 2
	note E_, 2
	note C_, 2
	note A_, 2
	note E_, 2
	note A_, 2
	octave 3
	note C_, 2
	octave 2
	note F_, 2
	note A_, 2
	note D#, 2
	note F_, 2
	note D#, 2
	note C_, 2
	octave 1
	note A_, 2
	note F#, 2
	note A_, 2
	note D#, 2
	octave 2
	note C_, 2
	octave 1
	note F#, 2
	note A_, 2
	note D#, 2
	note C_, 2
	note A#, 2
	note C#, 2
	note D_, 2
	note G_, 2
	note D_, 2
	note G_, 2
	note G#, 2
	note F_, 2
	octave 2
	note A_, 2
	note E_, 2
	note C_, 2
	note A_, 2
	note G#, 2
	note A_, 2
	octave 3
	note C_, 2
	note E_, 2
	note F_, 2
	note D_, 2
	octave 2
	note B_, 2
	note G#, 2
	note F_, 2
	note B_, 2
	note D_, 2
	note F_, 2
	note C_, 2
	note F#, 2
	note C_, 2
	note C_, 2
	octave 1
	note D#, 2
	note F#, 2
	note A_, 2
	octave 2
	note C_, 2
	octave 1
	note G_, 2
	note C_, 2
	note C_, 2
	note G_, 2
	octave 2
	note C_, 2
	octave 1
	note A_, 2
	octave 2
	note C_, 2
	note D_, 2
	volume_envelope $C, 2
	note E_, 12
	note E_, 12
	note_type $F, $C, 2
	note E_, 16
	volume_envelope $B, 7
	octave 3
	note_type $6, $B, 7
	note C_, 1
	octave 2
	note A_, 1
	note F#, 1
	note D#, 1
	note F#, 1
	note A_, 1
	octave 3
	note C_, 1
	note D#, 1
	note_type $C, $B, 7
	note A_, 12
	tempo $B8
	octave 4
	note_type $8, $B, 7
	note C_, 1
	octave 3
	note A_, 1
	note F#, 1
	tempo $BC
	note E_, 1
	note C_, 1
	octave 2
	note A_, 1
	tempo $80
	octave 3
	note_type $C, $B, 7
	note E_, 16
	sound_ret

Music_Opening_Ch2:
	duty_cycle 3
	pitch_offset $0001
	octave 2
	note_type $C, $0, -1
	note A_, 8
	volume_envelope $B, 8
	note A_, 16
	note_type $B, $B, 7
	note A_, 8
	duty_cycle 2
	octave 5
	note_type $4, $B, 1
	note G_, 1
	note B_, 1
	octave 6
	note F_, 2
	octave 5
	note G_, 2
	note_type $A, $B, 1
	note B_, 8
	note_type $C, $B, 8
	note C_, 8
	octave 4
	note A_, 8
	octave 5
	note C_, 4
	octave 4
	note A_, 8
	octave 5
	note C_, 4
	note D#, 16
	note D#, 16
	volume_envelope $B, 7
	note D#, 8
	rest 6
	duty_cycle 0
	vibrato $08, $3, $6
	octave 4
	note_type $8, $B, 7
	note G_, 1
	note A_, 1
	note B_, 1
	octave 5
	note_type $C, $B, 8
	note C_, 16
	volume_envelope $B, 7
	octave 4
	note A#, 4
	note_type $8, $B, 7
	note A#, 2
	octave 5
	note C_, 2
	octave 4
	note A#, 2
	note_type $6, $B, 7
	note A_, 1
	volume_envelope $B, 8
	note A#, 12
	note_type $1, $B, 8
	note A#, 2
	note_type $8, $B, 8
	note G_, 2
	note F#, 4
	note G_, 2
	note_type $C, $B, 8
	note A_, 12
	note_type $6, $B, 2
	note B_, 1
	octave 5
	note_type $E, $B, 2
	note C_, 1
	note_type $C, $B, 2
	rest 1
	note_type $8, $B, 2
	note C_, 2
	volume_envelope $B, 7
	octave 4
	note A#, 6
	note F_, 2
	note D_, 2
	note F_, 2
	note G_, 6
	note_type $A, $B, 7
	note F_, 2
	note_type $C, $B, 7
	rest 1
	note_type $8, $B, 7
	note E_, 2
	note F_, 12
	note F_, 2
	note G_, 2
	note F_, 2
	note F_, 12
	note_type $F, $B, 7
	note G_, 16
	note_type $C, $B, 7
	note G_, 1
	note E_, 1
	note C#, 1
	octave 3
	note_type $E, $B, 7
	note A_, 1
	octave 4
	note D_, 12
	note_type $C, $B, 7
	note F#, 1
	note D_, 1
	note C_, 1
	note D_, 1
	rest 1
	note E_, 9
	note E_, 1
	note E_, 1
	note D_, 1
	note E_, 1
	note F_, 12
	volume_envelope $B, 1
	note A_, 1
	note_type $A, $B, 7
	note A_, 1
	note_type $C, $B, 7
	note G_, 1
	note_type $E, $B, 7
	note F_, 1
	note_type $C, $B, 7
	note E_, 1
	note F_, 1
	rest 1
	note_type $E, $B, 7
	note G_, 11
	duty_cycle 3
	octave 3
	note_type $C, $B, 8
	note D_, 6
	note F#, 1
	rest 1
	note A_, 16
	note_type $6, $B, 8
	note B_, 1
	octave 4
	note C_, 11
	octave 3
	note B_, 2
	note A#, 2
	note_type $C, $B, 8
	note A_, 16
	volume_envelope $B, 7
	note A_, 16
	volume_envelope $B, 8
	note_type $6, $B, 8
	note C#, 1
	note D_, 3
	octave 2
	note A_, 4
	octave 3
	note D_, 2
	note F#, 2
	rest 2
	note_type $C, $B, 8
	note A_, 16
	rest 1
	note G_, 3
	note E_, 3
	note G_, 1
	note A_, 16
	volume_envelope $B, 7
	note A_, 13
	octave 4
	note_type $6, $B, 7
	note G_, 1
	note A_, 1
	note G_, 2
	note E_, 2
	note C#, 2
	note D#, 1
	note D_, 13
	note F#, 2
	note_type $C, $B, 7
	note A_, 16
	note C_, 2
	octave 5
	note C_, 1
	rest 1
	note_type $6, $B, 7
	note C_, 1
	octave 4
	note B_, 1
	note A#, 2
	note G_, 2
	note A_, 16
	rest 16
	rest 16
	rest 16
	rest 2
	octave 3
	note D_, 12
	note F_, 4
	note_type $F, $B, 7
	note A_, 16
	octave 4
	note_type $C, $B, 7
	note C_, 1
	octave 3
	note B_, 2
	octave 4
	note C_, 1
	note D_, 7
	note F_, 1
	note D_, 16
	note_type $6, $B, 7
	note D#, 1
	note E_, 7
	octave 3
	note F_, 1
	note G_, 1
	note A_, 1
	note A#, 1
	note B_, 1
	octave 4
	note C_, 1
	note D_, 1
	note E_, 1
	note F_, 12
	note C_, 4
	note C_, 2
	octave 3
	note B_, 2
	octave 4
	note_type $E, $B, 7
	note C_, 12
	note_type $C, $B, 7
	note E_, 4
	note F_, 4
	note G_, 6
	note D_, 1
	rest 1
	note D_, 2
	note C#, 4
	note D_, 9
	octave 3
	note G_, 1
	octave 4
	note G_, 4
	note G#, 4
	octave 3
	note A#, 4
	rest 3
	octave 4
	note C#, 1
	octave 3
	note G_, 4
	rest 3
	note A#, 1
	note F_, 4
	rest 3
	note B_, 1
	note G#, 4
	rest 2
	note B_, 2
	volume_envelope $D, 2
	octave 4
	note A_, 16
	rest 8
	note G_, 3
	note G_, 3
	note G#, 2
	note A_, 3
	note A_, 9
	note A_, 12
	note G_, 3
	note G_, 3
	note G#, 2
	note A_, 6
	note A_, 6
	note A_, 12
	note G_, 3
	note G_, 3
	note G#, 2
	note A_, 6
	note A_, 6
	note_type $F, $D, 7
	note A_, 16
	duty_cycle 2
	octave 2
	note_type $6, $B, 7
	note D#, 1
	note C_, 1
	octave 1
	note A_, 1
	note F#, 1
	note A_, 1
	octave 2
	note C_, 1
	note D#, 1
	note F#, 1
	note_type $C, $B, 7
	note A_, 12
	octave 5
	note_type $8, $B, 7
	note E_, 1
	note C_, 1
	octave 4
	note A_, 1
	note E_, 1
	note C_, 1
	octave 3
	note A_, 1
	octave 2
	note_type $C, $B, 7
	note E_, 16
	sound_ret

Music_Opening_Ch3:
	note_type $C, $1, $5
	rest 16
	rest 16
	note_type $1, $1, $5
	rest 4
	note_type $C, $1, $5
	octave 7
	note_type $8, $1, $5
	note C_, 1
	note E_, 1
	octave 6
	note F#, 1
	note_type $C, $2, $5
	rest 1
	note_type $8, $2, $5
	note F#, 1
	note_type $C, $3, $5
	rest 1
	note_type $8, $3, $5
	note F#, 1
	note_type $C, $3, $5
	rest 1
	note_type $4, $3, $5
	note F#, 1
	rest 3
	octave 4
	note_type $C, $1, $5
	note D#, 8
	note C_, 8
	note D#, 4
	note C_, 8
	note D#, 4
	note_type $B, $1, $5
	note F#, 16
	note_type $8, $1, $5
	note F_, 1
	note E_, 1
	note_type $C, $1, $5
	note D#, 12
	volume_envelope $2, $5
	note D#, 4
	volume_envelope $3, $5
	note D#, 4
	rest 4
	rest 4
	volume_envelope $1, $4
	octave 1
	note A_, 4
	note A_, 4
	octave 2
	note A_, 8
	octave 1
	note A_, 8
	note A_, 8
	note_type $8, $1, $4
	note A_, 4
	octave 2
	note E_, 2
	note C_, 6
	note C_, 6
	octave 1
	note B_, 6
	note B_, 12
	note G_, 10
	note G_, 2
	note G#, 6
	note A_, 4
	octave 2
	note A_, 2
	octave 1
	note G_, 4
	octave 2
	note G_, 2
	octave 1
	note F_, 4
	octave 2
	note F_, 2
	octave 1
	note A_, 2
	note A_, 2
	note A_, 2
	note_type $C, $1, $4
	note A_, 16
	note A_, 12
	octave 2
	note A_, 1
	note G_, 1
	note E_, 1
	note C#, 1
	note D_, 3
	octave 1
	note A_, 2
	note_type $6, $1, $4
	note B_, 1
	octave 2
	note C#, 1
	note D_, 12
	note D_, 2
	note D_, 6
	note C_, 6
	octave 1
	note G_, 4
	note A_, 1
	note A#, 1
	octave 2
	note C_, 12
	note C_, 2
	note C_, 6
	octave 1
	note A#, 6
	note F_, 4
	note G_, 1
	note A_, 1
	note A#, 12
	note A#, 2
	note A#, 6
	octave 2
	note C_, 6
	octave 1
	note G_, 4
	note A_, 1
	note A#, 1
	octave 2
	note C_, 12
	note A_, 2
	note A_, 2
	note G_, 4
	note D_, 4
	note A_, 2
	octave 1
	note A_, 4
	octave 2
	note A_, 2
	note D_, 12
	note D_, 2
	note D_, 6
	note C_, 4
	note G_, 2
	octave 1
	note G_, 4
	octave 3
	note C_, 2
	octave 2
	note C_, 12
	note C_, 2
	octave 3
	note C_, 2
	octave 1
	note G_, 4
	note B_, 4
	octave 2
	note B_, 2
	octave 1
	note G_, 4
	octave 2
	note B_, 2
	note D_, 2
	note B_, 2
	octave 1
	note B_, 8
	note B_, 2
	octave 2
	note B_, 2
	octave 1
	note G_, 4
	note B_, 2
	octave 2
	note E_, 2
	octave 3
	note C_, 2
	octave 2
	note A#, 4
	note A_, 2
	note G_, 4
	note F_, 4
	note E_, 4
	note A_, 2
	note A_, 2
	note C_, 2
	note C#, 2
	note D_, 6
	octave 1
	note A_, 6
	octave 2
	note D_, 12
	note D_, 2
	note D_, 6
	note C_, 4
	octave 3
	note C_, 2
	octave 1
	note G_, 4
	octave 3
	note C_, 2
	octave 2
	note C_, 12
	note C_, 2
	note C_, 2
	octave 1
	note G_, 4
	note A#, 6
	note F_, 6
	note A#, 12
	note A#, 2
	note A#, 6
	note A_, 6
	note E_, 6
	note A_, 4
	note A_, 8
	octave 2
	note C#, 2
	note C#, 2
	octave 1
	note A_, 4
	octave 2
	note D_, 8
	note D_, 6
	octave 1
	note A_, 2
	octave 2
	note D_, 4
	note D_, 12
	note C_, 4
	octave 3
	note C_, 2
	octave 1
	note G_, 4
	octave 3
	note C_, 2
	octave 2
	note C_, 12
	note C_, 2
	note C_, 6
	octave 1
	note A#, 8
	note A#, 6
	note F_, 2
	note A#, 4
	note A#, 6
	octave 2
	note A#, 2
	octave 1
	note A#, 2
	note B_, 2
	octave 2
	note C_, 4
	octave 3
	note C_, 2
	octave 1
	note G_, 4
	octave 3
	note C_, 2
	octave 2
	note C_, 12
	note A_, 2
	note A_, 2
	octave 1
	note G#, 2
	octave 2
	note C#, 2
	note D_, 6
	octave 3
	note D_, 2
	octave 2
	note D_, 6
	octave 1
	note A_, 2
	octave 2
	note D_, 4
	note D_, 6
	octave 3
	note D_, 2
	octave 2
	note D_, 4
	note C_, 4
	octave 3
	note C_, 2
	octave 1
	note G_, 4
	octave 3
	note C_, 2
	octave 2
	note C_, 12
	note C_, 2
	note G#, 4
	note A_, 2
	note B_, 8
	note B_, 6
	note F_, 2
	note B_, 4
	note B_, 6
	octave 3
	note B_, 2
	note D_, 2
	octave 2
	note B_, 2
	note G_, 4
	octave 3
	note G_, 2
	octave 2
	note D_, 4
	octave 3
	note G_, 2
	octave 2
	note G_, 4
	note A#, 2
	note A#, 2
	note A_, 2
	note A#, 2
	octave 3
	note C_, 6
	note C_, 2
	octave 2
	note A_, 12
	note G_, 4
	note F_, 4
	note C_, 8
	note B_, 2
	octave 3
	note C_, 2
	octave 2
	note C_, 12
	note C_, 4
	octave 3
	note C_, 4
	octave 2
	note C_, 8
	note B_, 2
	octave 3
	note C_, 2
	octave 2
	note G_, 8
	note F_, 4
	note E_, 4
	note D_, 4
	octave 1
	note B_, 8
	octave 2
	note G_, 4
	note D_, 6
	note D_, 6
	note D_, 4
	note G_, 8
	note G#, 8
	note C#, 8
	note G_, 8
	note F_, 8
	note A#, 8
	octave 3
	note D_, 8
	octave 2
	note B_, 8
	note G#, 8
	note E_, 2
	note E_, 2
	octave 1
	note B_, 4
	octave 2
	note A_, 2
	note A_, 2
	octave 1
	note A_, 2
	note A_, 6
	note A_, 8
	note A_, 2
	note A_, 2
	octave 2
	note E_, 2
	note F_, 2
	note C_, 2
	octave 1
	note A_, 2
	note A_, 4
	note A_, 6
	octave 2
	note F#, 6
	note E_, 4
	note E_, 2
	note E_, 2
	note C_, 4
	note G#, 2
	note A_, 2
	octave 1
	note A_, 6
	note A_, 2
	octave 2
	note A_, 4
	note E_, 4
	octave 1
	note A_, 4
	note A_, 4
	octave 2
	note_type $C, $1, $4
	note D#, 12
	note D_, 6
	octave 1
	note A#, 2
	note A_, 2
	note A_, 4
	octave 2
	note A_, 2
	octave 1
	note G#, 1
	note A_, 1
	note A_, 1
	note A_, 1
	octave 2
	note C_, 4
	octave 1
	note A_, 2
	note A_, 3
	octave 2
	note F#, 3
	note F_, 2
	note F_, 2
	note E_, 2
	note D#, 2
	octave 1
	note A_, 6
	note A_, 6
	octave 2
	note A_, 4
	octave 1
	note A_, 16
	rest 16
	octave 3
	note_type $8, $1, $5
	note E_, 1
	note C_, 1
	octave 2
	note A_, 1
	note F#, 1
	note E_, 1
	note C_, 1
	note E_, 6
	volume_envelope $2, $5
	note E_, 6
	volume_envelope $3, $5
	note E_, 6
	sound_ret

Music_Opening_Ch4:
	drum_speed $C
	rest 16
	rest 16
	rest 16
	rest 16
	rest 16
	rest 16
	rest 16
	rest 4
	toggle_noise 3
	drum_speed $8
	drum_note 4, 2
	drum_note 4, 2
	drum_note 4, 2
	drum_note 12, 16
	rest 16
	rest 16
	rest 16
	rest 16
	rest 16
	rest 16
	rest 16
	rest 16
	rest 16
	rest 2
	rest 6
	drum_speed $C
	drum_note 2, 1
	drum_note 2, 2
	drum_note 2, 1
	drum_speed $6
	drum_note 2, 1
	drum_note 2, 1
	drum_note 2, 1
	drum_note 2, 1
	drum_note 2, 2
	drum_note 2, 2
	drum_note 2, 2
	drum_note 2, 2
	drum_note 2, 1
	drum_note 2, 1
	drum_note 2, 1
	drum_note 2, 1
	drum_note 2, 2
	drum_note 2, 2
	drum_note 2, 1
	drum_note 2, 1
	drum_note 2, 1
	drum_note 2, 1
	drum_note 2, 2
	drum_note 2, 4
	drum_note 2, 2
	drum_note 2, 1
	drum_note 2, 1
	drum_note 2, 1
	drum_note 2, 1
	drum_note 2, 2
	drum_note 2, 2
	drum_note 2, 2
	drum_note 2, 2
	drum_note 2, 1
	drum_note 2, 1
	drum_note 2, 1
	drum_note 2, 1
	drum_note 2, 2
	drum_note 2, 2
	drum_note 2, 1
	drum_note 2, 1
	drum_note 2, 1
	drum_note 2, 1
	drum_note 2, 2
	drum_note 2, 4
	drum_note 2, 2
	drum_note 2, 1
	drum_note 2, 1
	drum_note 2, 1
	drum_note 2, 1
	drum_note 2, 2
	drum_note 2, 2
	drum_note 2, 2
	drum_note 2, 2
	drum_note 2, 1
	drum_note 2, 1
	drum_note 2, 1
	drum_note 2, 1
	drum_note 2, 2
	drum_note 2, 2
	drum_note 2, 1
	drum_note 2, 1
	drum_note 2, 1
	drum_note 2, 1
	drum_note 2, 2
	drum_note 2, 4
	drum_note 2, 2
	drum_note 2, 1
	drum_note 2, 1
	drum_note 2, 1
	drum_note 2, 1
	drum_note 2, 2
	drum_note 2, 2
	drum_note 2, 2
	drum_note 2, 2
	drum_note 2, 1
	drum_note 2, 1
	drum_note 2, 1
	drum_note 2, 1
	drum_note 2, 2
	drum_note 2, 2
	drum_note 2, 1
	drum_note 2, 1
	drum_note 2, 1
	drum_note 2, 1
	drum_note 2, 2
	drum_note 2, 4
	drum_note 2, 2
	drum_note 2, 1
	drum_note 2, 1
	drum_note 2, 1
	drum_note 2, 1
	drum_note 2, 2
	drum_note 2, 2
	drum_note 2, 2
	drum_note 2, 2
	drum_note 2, 1
	drum_note 2, 1
	drum_note 2, 1
	drum_note 2, 1
	drum_note 2, 2
	drum_note 2, 2
	drum_note 2, 1
	drum_note 2, 1
	drum_note 2, 1
	drum_note 2, 1
	drum_note 2, 2
	drum_note 2, 4
	drum_note 2, 2
	drum_note 2, 1
	drum_note 2, 1
	drum_note 2, 1
	drum_note 2, 1
	drum_note 2, 2
	drum_note 2, 2
	drum_note 2, 2
	drum_note 2, 2
	drum_note 2, 1
	drum_note 2, 1
	drum_note 2, 1
	drum_note 2, 1
	drum_note 2, 2
	drum_note 2, 2
	drum_note 2, 1
	drum_note 2, 1
	drum_note 2, 1
	drum_note 2, 1
	drum_note 2, 2
	drum_note 2, 4
	drum_note 2, 2
	drum_note 2, 1
	drum_note 2, 1
	drum_note 2, 1
	drum_note 2, 1
	drum_note 2, 2
	drum_note 2, 2
	drum_note 2, 2
	drum_note 2, 2
	drum_note 2, 1
	drum_note 2, 1
	drum_note 2, 1
	drum_note 2, 1
	drum_note 2, 2
	drum_note 2, 2
	drum_note 2, 1
	drum_note 2, 1
	drum_note 2, 1
	drum_note 2, 1
	drum_note 2, 2
	drum_note 2, 4
	drum_note 2, 2
	drum_note 2, 1
	drum_note 2, 1
	drum_note 2, 1
	drum_note 2, 1
	drum_note 2, 2
	drum_note 2, 2
	drum_note 2, 2
	drum_note 2, 2
	drum_note 2, 1
	drum_note 2, 1
	drum_note 2, 1
	drum_note 2, 1
	drum_note 2, 2
	drum_note 2, 2
	drum_note 2, 1
	drum_note 2, 1
	drum_note 2, 1
	drum_note 2, 1
	drum_note 2, 2
	drum_note 2, 4
	drum_note 2, 2
	drum_note 2, 1
	drum_note 2, 1
	drum_note 2, 1
	drum_note 2, 1
	drum_note 2, 2
	drum_note 2, 2
	drum_note 2, 2
	drum_note 2, 2
	drum_note 2, 1
	drum_note 2, 1
	drum_note 2, 1
	drum_note 2, 1
	drum_note 2, 2
	drum_note 2, 2
	drum_note 2, 1
	drum_note 2, 1
	drum_note 2, 1
	drum_note 2, 1
	drum_note 2, 2
	drum_note 2, 4
	drum_note 2, 2
	drum_note 2, 1
	drum_note 2, 1
	drum_note 2, 1
	drum_note 2, 1
	drum_note 2, 2
	drum_note 2, 2
	drum_note 2, 2
	drum_note 2, 2
	drum_note 2, 1
	drum_note 2, 1
	drum_note 2, 1
	drum_note 2, 1
	drum_note 2, 2
	drum_note 2, 2
	drum_note 2, 1
	drum_note 2, 1
	drum_note 2, 1
	drum_note 2, 1
	drum_note 2, 2
	drum_note 2, 4
	drum_note 2, 2
	drum_note 2, 1
	drum_note 2, 1
	drum_note 2, 1
	drum_note 2, 1
	drum_note 2, 2
	drum_note 2, 2
	drum_note 2, 2
	drum_note 2, 2
	drum_note 2, 1
	drum_note 2, 1
	drum_note 2, 1
	drum_note 2, 1
	drum_note 2, 2
	drum_note 2, 2
	drum_note 2, 1
	drum_note 2, 1
	drum_note 2, 1
	drum_note 2, 1
	drum_note 2, 2
	drum_note 2, 4
	drum_note 2, 2
	drum_note 2, 1
	drum_note 2, 1
	drum_note 2, 1
	drum_note 2, 1
	drum_note 2, 2
	drum_note 2, 2
	drum_note 2, 2
	drum_note 2, 6
	drum_note 2, 8
	drum_note 4, 6
	drum_note 1, 1
	drum_note 1, 1
	drum_note 1, 4
	drum_note 4, 2
	drum_note 1, 2
	drum_note 4, 4
	drum_note 4, 4
	drum_note 1, 1
	drum_note 1, 1
	drum_note 1, 4
	drum_note 4, 2
	drum_note 4, 6
	drum_note 1, 1
	drum_note 1, 1
	drum_note 1, 2
	drum_note 4, 2
	drum_note 1, 4
	drum_note 4, 4
	drum_note 4, 4
	drum_note 1, 2
	drum_note 1, 4
	drum_note 4, 2
	drum_note 4, 6
	drum_note 1, 1
	drum_note 1, 1
	drum_note 1, 4
	drum_note 4, 2
	drum_note 1, 2
	drum_note 4, 4
	drum_note 4, 4
	drum_note 1, 1
	drum_note 1, 1
	drum_note 1, 4
	drum_note 4, 2
	drum_note 4, 6
	drum_note 1, 1
	drum_note 1, 1
	drum_note 1, 2
	drum_note 4, 2
	drum_note 1, 4
	drum_note 4, 4
	drum_note 4, 4
	drum_note 1, 2
	drum_note 1, 4
	drum_note 4, 2
	drum_note 4, 6
	drum_note 1, 1
	drum_note 1, 1
	drum_note 1, 4
	drum_note 4, 2
	drum_note 1, 2
	drum_note 4, 4
	drum_note 4, 4
	drum_note 1, 1
	drum_note 1, 1
	drum_note 1, 4
	drum_note 4, 2
	drum_note 4, 6
	drum_note 1, 1
	drum_note 1, 1
	drum_note 1, 2
	drum_note 4, 2
	drum_note 1, 4
	drum_note 4, 4
	drum_note 4, 4
	drum_note 1, 2
	drum_note 1, 4
	drum_note 4, 2
	drum_note 4, 6
	drum_note 1, 1
	drum_note 1, 1
	drum_note 1, 4
	drum_note 4, 2
	drum_note 1, 2
	drum_note 4, 4
	drum_note 4, 4
	drum_note 1, 1
	drum_note 1, 1
	drum_note 1, 4
	drum_note 4, 2
	drum_note 4, 6
	drum_note 1, 1
	drum_note 1, 1
	drum_note 1, 2
	drum_note 4, 2
	drum_note 1, 4
	drum_note 4, 4
	drum_note 4, 4
	drum_note 1, 2
	drum_note 1, 4
	drum_note 4, 2
	drum_note 4, 12
	drum_note 4, 4
	drum_note 4, 4
	drum_note 4, 8
	drum_note 1, 2
	drum_note 1, 2
	drum_note 4, 12
	drum_note 4, 4
	drum_note 1, 1
	drum_note 1, 3
	drum_note 1, 8
	drum_note 4, 4
	drum_note 4, 8
	drum_note 4, 4
	drum_note 4, 4
	drum_note 1, 1
	drum_note 1, 7
	drum_note 4, 4
	drum_note 1, 1
	drum_note 1, 3
	drum_note 4, 6
	drum_note 4, 6
	drum_note 4, 4
	drum_note 1, 1
	drum_note 1, 3
	drum_note 4, 4
	rest 2
	drum_note 4, 4
	drum_note 4, 2
	drum_note 12, 8
	rest 8
	rest 8
	rest 8
	rest 16
	rest 8
	rest 8
	drum_note 4, 4
	drum_note 4, 4
	drum_note 1, 8
	drum_note 4, 4
	drum_note 4, 2
	drum_note 4, 2
	drum_note 1, 4
	drum_note 4, 2
	drum_note 4, 12
	drum_note 4, 2
	drum_note 1, 4
	drum_note 4, 6
	drum_note 4, 2
	drum_note 1, 4
	drum_note 1, 4
	drum_note 4, 6
	drum_note 4, 2
	drum_note 1, 8
	drum_note 4, 4
	drum_note 4, 2
	drum_note 4, 2
	drum_note 1, 4
	drum_note 4, 2
	drum_note 4, 10
	drum_note 1, 1
	drum_note 1, 3
	drum_note 1, 4
	drum_note 4, 6
	drum_note 4, 2
	drum_note 1, 4
	drum_note 4, 4
	drum_note 4, 4
	drum_note 4, 4
	drum_note 1, 8
	drum_note 4, 2
	drum_note 1, 1
	drum_note 1, 3
	drum_note 4, 2
	drum_note 1, 4
	drum_note 4, 2
	drum_note 1, 10
	drum_note 1, 1
	drum_note 1, 3
	drum_note 1, 4
	drum_note 4, 6
	drum_note 4, 2
	drum_note 1, 4
	drum_note 4, 4
	drum_note 1, 1
	drum_note 1, 3
	drum_note 4, 4
	drum_note 4, 4
	drum_note 1, 4
	drum_note 4, 4
	drum_note 4, 4
	drum_note 1, 2
	drum_note 1, 2
	drum_note 4, 4
	drum_note 4, 16
	sound_ret

