Music_Intro:
	channel_count 4
	channel 1, Music_Intro_Ch1
	channel 2, Music_Intro_Ch2
	channel 3, Music_Intro_Ch3
	channel 4, Music_Intro_Ch4

Music_Intro_Ch1:
	volume $7, $7
	stereo_panning TRUE, TRUE
	tempo $B8
	pitch_offset $0002
	duty_cycle 2
	volume_envelope $A, 1
	octave 1
	note_type $8, $A, 1
	note A_, 2
	octave 2
	note E_, 2
	note A_, 2
	note B_, 2
	note A_, 2
	note B_, 2
	octave 3
	note E_, 2
	octave 2
	note B_, 2
	note A_, 2
	note E_, 2
	note F#, 2
	note E_, 2
	octave 1
	note A_, 2
	octave 2
	note E_, 2
	note A_, 2
	note B_, 2
	note A_, 2
	note B_, 2
	octave 3
	note E_, 2
	octave 2
	note B_, 2
	note A_, 2
Music_Intro_Ch1_loop:
	note E_, 2
	octave 1
	note A_, 2
	octave 2
	note E_, 2
	note A_, 2
	note E_, 2
	note A_, 2
	note B_, 2
	note A_, 2
	note B_, 2
	octave 3
	note E_, 2
	octave 2
	note B_, 2
	note A_, 2
	note E_, 2
	octave 1
	note A_, 2
	octave 2
	note F#, 2
	note A_, 2
	note F#, 2
	note A_, 2
	note B_, 2
	note A_, 2
	note B_, 2
	octave 3
	note D#, 2
	octave 2
	note B_, 2
	note A_, 2
	note F#, 2
	octave 1
	note A_, 2
	octave 2
	note F#, 2
	note A_, 2
	note F#, 2
	note A_, 2
	note B_, 2
	note G#, 2
	note B_, 2
	octave 3
	note D_, 2
	octave 2
	note B_, 2
	note G#, 2
	note D_, 2
	octave 1
	note A_, 2
	octave 2
	note E_, 2
	note A_, 2
	note E_, 2
	note A_, 2
	note B_, 2
	note A_, 2
	note B_, 2
	octave 3
	note E_, 2
	octave 2
	note B_, 2
	note A_, 2
	note E_, 2
	octave 1
	note A_, 2
	octave 2
	note E_, 2
	note A_, 2
	note E_, 2
	note A_, 2
	note B_, 2
	note A_, 2
	note B_, 2
	octave 3
	note E_, 2
	octave 2
	note B_, 2
	note A_, 2
	note E_, 2
	octave 1
	note A_, 2
	octave 2
	note F#, 2
	note A_, 2
	note F#, 2
	note A_, 2
	note B_, 2
	note A_, 2
	note B_, 2
	octave 3
	note D#, 2
	octave 2
	note B_, 2
	note A_, 2
	note F#, 2
	octave 1
	note A_, 2
	octave 2
	note F#, 2
	note A_, 2
	note F#, 2
	note A_, 2
	note B_, 2
	note G#, 2
	note B_, 2
	octave 3
	note D_, 2
	octave 2
	note B_, 2
	note G#, 2
	note D_, 2
	octave 1
	note A_, 2
	octave 2
	note E_, 2
	note A_, 2
	note E_, 2
	note A_, 2
	note B_, 2
	note A_, 2
	note B_, 2
	octave 3
	note E_, 2
	octave 2
	note B_, 2
	note A_, 2
	note E_, 2
	octave 1
	note A_, 2
	octave 2
	note E_, 2
	note A_, 2
	note E_, 2
	note A_, 2
	note B_, 2
	note A_, 2
	note B_, 2
	octave 3
	note E_, 2
	octave 2
	note B_, 2
	note A_, 2
	note E_, 2
	octave 1
	note A_, 2
	octave 2
	note F#, 2
	note A_, 2
	note F#, 2
	note A_, 2
	note B_, 2
	note A_, 2
	note B_, 2
	octave 3
	note D#, 2
	octave 2
	note B_, 2
	note A_, 2
	note F#, 2
	octave 1
	note A_, 2
	octave 2
	note F#, 2
	note A_, 2
	note F#, 2
	note A_, 2
	note B_, 2
	note G#, 2
	note B_, 2
	octave 3
	note D_, 2
	octave 2
	note B_, 2
	note G#, 2
	note D_, 2
	octave 1
	note A_, 2
	octave 2
	note E_, 2
	note A_, 2
	note E_, 2
	note A_, 2
	note B_, 2
	note A_, 2
	note B_, 2
	octave 3
	note E_, 2
	octave 2
	note B_, 2
	note A_, 2
	note E_, 2
	octave 1
	note A_, 2
	octave 2
	note E_, 2
	note A_, 2
	note E_, 2
	note A_, 2
	note B_, 2
	note A_, 2
	note B_, 2
	octave 3
	note E_, 2
	octave 2
	note B_, 2
	note A_, 2
	note E_, 2
	octave 1
	note A_, 2
	octave 2
	note F#, 2
	note A_, 2
	note F#, 2
	note A_, 2
	note B_, 2
	note A_, 2
	note B_, 2
	octave 3
	note D#, 2
	octave 2
	note B_, 2
	note A_, 2
	note F#, 2
	octave 1
	note A_, 2
	octave 2
	note F#, 2
	note A_, 2
	note F#, 2
	note A_, 2
	note B_, 2
	note G#, 2
	note B_, 2
	octave 3
	note D_, 2
	octave 2
	note B_, 2
	note G#, 2
	note D_, 2
	octave 1
	note A_, 2
	octave 2
	note E_, 2
	note A_, 2
	note E_, 2
	note A_, 2
	note B_, 2
	note A_, 2
	note B_, 2
	octave 3
	note E_, 2
	octave 2
	note B_, 2
	note A_, 2
	note E_, 2
	duty_cycle 3
	volume_envelope $8, 7
	note F#, 6
	note D_, 6
	note F#, 6
	note B_, 6
	note G#, 6
	note B_, 6
	note G#, 6
	note B_, 6
	note_type $C, $8, 7
	note F#, 16
	note F#, 4
	note A#, 4
	note E_, 4
	note G_, 4
	note D_, 8
	octave 1
	note B_, 8
	octave 2
	note E_, 8
	note G#, 8
	note F#, 8
	note F_, 8
	note E_, 8
	note D#, 8
	note D_, 4
	octave 1
	note B_, 4
	octave 2
	note D_, 4
	note F#, 4
	note E_, 8
	note D_, 4
	octave 1
	note B_, 4
	duty_cycle 2
	volume_envelope $A, 1
	octave 2
	note_type $8, $A, 1
	note E_, 2
	note A_, 2
	note B_, 2
	note A_, 2
	note B_, 2
	octave 3
	note E_, 2
	octave 2
	note B_, 2
	note A_, 2
	note E_, 2
	note F#, 2
	note E_, 2
	octave 1
	note A_, 2
	octave 2
	note E_, 2
	note A_, 2
	note B_, 2
	note A_, 2
	note B_, 2
	octave 3
	note E_, 2
	octave 2
	note B_, 2
	note A_, 2
	sound_loop 0, Music_Intro_Ch1_loop

Music_Intro_Ch2:
	volume_envelope $7, 1
	octave 4
	note_type $8, $7, 1
	note E_, 2
	note A_, 2
	note B_, 2
	note E_, 2
	note A_, 2
	note B_, 2
	note E_, 2
	note A_, 2
	note B_, 2
	note E_, 2
	note A_, 2
	note B_, 2
	note E_, 2
	note A_, 2
	note B_, 2
	note E_, 2
	note A_, 2
	note B_, 2
	note E_, 2
	note A_, 2
	note B_, 2
Music_Intro_Ch2_loop:
	note E_, 2
	note A_, 2
	note B_, 2
	note E_, 2
	note A_, 2
	note B_, 2
	note E_, 2
	note A_, 2
	note B_, 2
	note E_, 2
	note A_, 2
	note B_, 2
	note E_, 2
	note A_, 2
	note B_, 2
	note E_, 2
	note A_, 2
	note B_, 2
	note E_, 2
	note A_, 2
	note B_, 2
	note D#, 2
	note A_, 2
	note B_, 2
	note D#, 2
	note F#, 2
	note B_, 2
	note D_, 2
	note F#, 2
	note B_, 2
	note D_, 2
	note A_, 2
	note B_, 2
	note D_, 2
	note A_, 2
	note B_, 2
	note D_, 2
	note A_, 2
	note B_, 2
	note E_, 2
	note A_, 2
	note B_, 2
	note E_, 2
	note A_, 2
	note B_, 2
	note E_, 2
	note A_, 2
	note B_, 2
	note E_, 2
	note A_, 2
	note B_, 2
	note E_, 2
	note A_, 2
	note B_, 2
	note E_, 2
	note A_, 2
	note B_, 2
	note E_, 2
	note A_, 2
	note B_, 2
	note E_, 2
	note A_, 2
	note B_, 2
	note D#, 2
	note A_, 2
	note B_, 2
	note D#, 2
	note A_, 2
	note B_, 2
	note D#, 2
	note A_, 2
	note B_, 2
	note D#, 2
	note F#, 2
	note B_, 2
	note D_, 2
	note F#, 2
	note B_, 2
	note D_, 2
	note A_, 2
	note B_, 2
	note E_, 2
	note_type $9, $7, 1
	note A_, 2
	note_type $E, $7, 1
	note B_, 1
	note_type $8, $7, 1
	note E_, 2
	note A_, 2
	note B_, 2
	note E_, 2
	note A_, 2
	note B_, 2
	note E_, 2
	note A_, 2
	note B_, 2
	note E_, 2
	note A_, 2
	note B_, 2
	note E_, 2
	note A_, 2
	note B_, 2
	note E_, 2
	note A_, 2
	note B_, 2
	note E_, 2
	note A_, 2
	note B_, 2
	note E_, 2
	note A_, 2
	note B_, 2
	note E_, 2
	note A_, 2
	note B_, 2
	note E_, 2
	note A_, 2
	note B_, 2
	note E_, 2
	note A_, 2
	note B_, 2
	note D#, 2
	note A_, 2
	note B_, 2
	note D#, 2
	note F#, 2
	note B_, 2
	note D_, 2
	note F#, 2
	note B_, 2
	note D_, 2
	note A_, 2
	note B_, 2
	note D_, 2
	note A_, 2
	note B_, 2
	note D_, 2
	note A_, 2
	note B_, 2
	note E_, 2
	note A_, 2
	note B_, 2
	note E_, 2
	note A_, 2
	note B_, 2
	note E_, 2
	note A_, 2
	note B_, 2
	note E_, 2
	note A_, 2
	note B_, 2
	note E_, 2
	note A_, 2
	note B_, 2
	note E_, 2
	note A_, 2
	note B_, 2
	note E_, 2
	note A_, 2
	note B_, 2
	note E_, 2
	note A_, 2
	note B_, 2
	note D#, 2
	note A_, 2
	note B_, 2
	note D#, 2
	note A_, 2
	note B_, 2
	note D#, 2
	note A_, 2
	note B_, 2
	note D#, 2
	note F#, 2
	note B_, 2
	note D_, 2
	note F#, 2
	note B_, 2
	note D_, 2
	note A_, 2
	note B_, 2
	note D_, 2
	note A_, 4
	note D_, 2
	note A_, 2
	note B_, 2
	note E_, 2
	note A_, 2
	note B_, 2
	note E_, 2
	note A_, 2
	note B_, 2
	note E_, 2
	note A_, 2
	note B_, 2
	note E_, 2
	duty_cycle 1
	volume_envelope $9, 7
	octave 2
	note A_, 6
	note F#, 6
	note B_, 6
	octave 3
	note D_, 6
	octave 2
	note B_, 6
	octave 3
	note E_, 6
	octave 2
	note B_, 6
	octave 3
	note D_, 6
	octave 2
	note A_, 6
	note G#, 6
	note B_, 6
	note G#, 6
	note A#, 6
	octave 3
	note C#, 6
	octave 2
	note G_, 6
	note A#, 6
	note A_, 12
	note F#, 12
	note B_, 12
	octave 3
	note D_, 12
	note_type $C, $9, 7
	note C#, 16
	note C#, 16
	octave 2
	note A_, 4
	note F#, 4
	note B_, 4
	octave 3
	note E_, 4
	octave 2
	note B_, 8
	note G#, 8
	duty_cycle 0
	volume_envelope $7, 1
	octave 4
	note_type $8, $7, 1
	note A_, 2
	note B_, 2
	note E_, 2
	note A_, 2
	note B_, 2
	note E_, 2
	note A_, 2
	note B_, 2
	note E_, 2
	note A_, 2
	note B_, 2
	note E_, 2
	note A_, 2
	note B_, 2
	note E_, 2
	note A_, 2
	note B_, 2
	note E_, 2
	note A_, 2
	note B_, 2
	sound_loop 0, Music_Intro_Ch2_loop

Music_Intro_Ch3:
	note_type $C, $0, $0
	rest 16
	rest 11
	note_type $1, $0, $0
	rest 3
	note_type $C, $0, $0
	pitch_offset $0001
	volume_envelope $1, $0
	vibrato $16, $2, $4
	octave 4
	note A_, 1
Music_Intro_Ch3_loop:
	note B_, 1
	octave 5
	note C#, 12
	note E_, 3
	note_type $6, $1, $0
	note D#, 1
	rest 1
	note D#, 12
	note C#, 2
	note C_, 2
	octave 4
	note B_, 12
	note B_, 2
	octave 5
	note C#, 2
	note_type $E, $1, $0
	note D_, 12
	note_type $C, $1, $0
	note C#, 1
	octave 4
	note B_, 1
	octave 5
	note C#, 12
	rest 4
	note C#, 12
	note E_, 2
	note D#, 1
	note E_, 1
	note F#, 1
	rest 1
	note D#, 10
	rest 2
	octave 4
	note B_, 1
	octave 5
	note C#, 1
	note D_, 8
	note E_, 6
	note C#, 1
	octave 4
	note B_, 1
	octave 5
	note C#, 1
	rest 1
	octave 4
	note A_, 10
	rest 4
	octave 5
	note C#, 12
	note E_, 3
	note_type $6, $1, $0
	note D#, 1
	rest 1
	note D#, 12
	note C#, 2
	note C_, 2
	octave 4
	note B_, 12
	note B_, 2
	octave 5
	note C#, 2
	note_type $E, $1, $0
	note D_, 12
	note_type $C, $1, $0
	note C#, 1
	octave 4
	note B_, 1
	octave 5
	note C#, 12
	rest 4
	note C#, 12
	note E_, 2
	note D#, 1
	note E_, 1
	note F#, 1
	rest 1
	note D#, 10
	rest 2
	octave 4
	note B_, 1
	octave 5
	note C#, 1
	note D_, 8
	note E_, 6
	note C#, 1
	octave 4
	note B_, 1
	octave 5
	note C#, 1
	rest 1
	octave 4
	note A_, 10
	rest 2
	volume_envelope $1, $2
	note C#, 1
	note E_, 1
	note B_, 2
	note A_, 2
	octave 5
	note C#, 2
	octave 4
	note B_, 2
	octave 5
	note E_, 2
	note D_, 2
	octave 4
	note A_, 2
	note G#, 1
	note A_, 1
	octave 5
	note C#, 4
	octave 4
	note B_, 4
	octave 5
	note F#, 2
	note E_, 2
	octave 4
	note B_, 2
	octave 5
	note D_, 2
	note C#, 9
	note D_, 1
	note C#, 1
	note D_, 1
	note C#, 2
	octave 4
	note A#, 1
	note B_, 1
	octave 5
	note C#, 10
	note E_, 2
	note D_, 2
	note C#, 2
	octave 4
	note A_, 6
	note F#, 1
	note G#, 1
	note A_, 2
	octave 5
	note C#, 2
	octave 4
	note B_, 2
	note A_, 2
	octave 5
	note C#, 10
	octave 4
	note B_, 2
	octave 5
	note D_, 2
	note C#, 2
	octave 4
	note A_, 5
	note G#, 1
	note F#, 1
	note G#, 1
	note A_, 10
	note G#, 2
	note B_, 2
	note A_, 2
	octave 5
	note F#, 2
	note C#, 2
	octave 4
	note B_, 2
	octave 5
	note C#, 2
	octave 4
	note A_, 16
	rest 2
	note E_, 2
	note F#, 2
	note E_, 2
	note G#, 2
	note E_, 2
	note B_, 2
	octave 5
	note C#, 2
	octave 4
	note A_, 16
	rest 9
	rest 1
	note_type $C, $1, $0
	note A_, 1
	sound_loop 0, Music_Intro_Ch3_loop

Music_Intro_Ch4:
	toggle_noise 0
	drum_speed $C
	rest 16
Music_Intro_Ch4_loop:
	rest 16
	rest 16
	rest 16
	rest 16
	rest 13
	drum_speed $4
	rest 1
	drum_speed $C
	drum_note 1, 6
	drum_note 2, 1
	drum_note 4, 1
	drum_note 1, 7
	drum_note 4, 1
	drum_note 1, 6
	drum_note 2, 1
	drum_note 4, 1
	drum_note 1, 2
	drum_note 1, 2
	drum_speed $6
	drum_note 1, 1
	drum_note 4, 1
	drum_note 4, 1
	drum_note 4, 1
	drum_note 4, 1
	drum_note 4, 1
	drum_note 4, 1
	drum_note 4, 1
	drum_note 1, 12
	drum_note 2, 2
	drum_note 4, 2
	drum_note 1, 14
	drum_note 4, 2
	drum_note 1, 12
	drum_note 2, 2
	drum_note 4, 2
	drum_note 1, 4
	drum_note 1, 4
	drum_note 1, 1
	drum_note 4, 1
	drum_note 4, 1
	drum_note 4, 1
	drum_note 4, 1
	drum_note 4, 1
	drum_note 4, 1
	drum_note 4, 1
	drum_note 1, 12
	drum_note 2, 2
	drum_note 4, 2
	drum_note 1, 14
	drum_note 4, 2
	drum_note 1, 12
	drum_note 2, 2
	drum_note 4, 2
	drum_note 1, 4
	drum_note 1, 4
	drum_note 1, 1
	drum_note 4, 1
	drum_note 4, 1
	drum_note 4, 1
	drum_note 4, 1
	drum_note 4, 1
	drum_note 4, 1
	drum_note 4, 1
	drum_note 1, 12
	drum_note 2, 2
	drum_note 4, 2
	drum_note 1, 14
	drum_note 4, 2
	drum_note 1, 12
	drum_note 2, 2
	drum_note 4, 2
	drum_note 1, 4
	drum_note 1, 4
	drum_note 1, 1
	drum_note 4, 1
	drum_note 4, 1
	drum_note 4, 1
	drum_note 4, 1
	drum_note 4, 1
	drum_note 4, 1
	drum_note 4, 1
	drum_note 1, 12
	drum_note 2, 2
	drum_note 4, 2
	drum_note 1, 14
	drum_note 4, 2
	drum_note 1, 12
	drum_note 2, 2
	drum_note 4, 2
	drum_note 1, 4
	drum_note 1, 4
	drum_note 1, 1
	drum_note 4, 1
	drum_note 4, 1
	drum_note 4, 1
	drum_note 4, 1
	drum_note 4, 1
	drum_note 4, 1
	drum_note 4, 1
	drum_note 1, 12
	drum_note 2, 2
	drum_note 4, 2
	drum_note 1, 14
	drum_note 4, 2
	drum_note 1, 12
	drum_note 2, 2
	drum_note 4, 2
	drum_note 1, 4
	drum_note 1, 4
	drum_note 1, 1
	drum_note 4, 1
	drum_note 4, 1
	drum_note 4, 1
	drum_note 4, 1
	drum_note 4, 1
	drum_note 4, 1
	drum_note 4, 6
	drum_speed $C
	rest 2
	drum_speed $6
	rest 16
	rest 16
	rest 16
	rest 16
	rest 16
	rest 16
	rest 16
	rest 16
	rest 16
	rest 16
	rest 16
	rest 16
	rest 16
	rest 16
	rest 16
	rest 16
	rest 16
	rest 16
	rest 16
	rest 16
	rest 16
	rest 4
	drum_speed $2
	rest 1
	drum_speed $C
	sound_loop 0, Music_Intro_Ch4_loop
