Music_Rival:
	channel_count 4
	channel 1, Music_Rival_Ch1
	channel 2, Music_Rival_Ch2
	channel 3, Music_Rival_Ch3
	channel 4, Music_Rival_Ch4

Music_Rival_Ch1:
	volume $7, $7
	stereo_panning TRUE, TRUE
	tempo $8C
	pitch_offset $0002
	note_type $C, $A, 1
	rest 8
	octave 1
	note G_, 1
	octave 2
	note G_, 1
	octave 3
	note C_, 1
	octave 2
	note G_, 1
	octave 3
	note C_, 1
	note D_, 2
	octave 2
	note A_, 1
	note_type $6, $A, 1
	note G_, 1
	note A_, 1
	note G_, 2
	note F_, 2
	note F#, 2
	note G_, 1
	note A_, 1
	note F_, 2
	octave 1
	note B_, 2
	octave 2
	note C_, 2
Music_Rival_Ch1_loop:
	octave 1
	note D_, 2
	octave 2
	note D_, 2
	octave 3
	note C_, 2
	octave 2
	note A_, 2
	note D_, 2
	note B_, 2
	note G_, 2
	note D_, 2
	octave 3
	note C_, 2
	octave 2
	note A_, 2
	octave 1
	note D_, 2
	octave 2
	note B_, 2
	note G_, 2
	note D_, 2
	octave 3
	note C_, 2
	octave 2
	note A_, 2
	octave 1
	note G_, 2
	octave 2
	note D_, 2
	octave 3
	note C_, 2
	octave 2
	note A_, 2
	note D_, 2
	note B_, 2
	note G_, 2
	note D_, 2
	octave 3
	note C_, 4
	octave 2
	note B_, 2
	note D_, 2
	octave 3
	note C_, 2
	octave 2
	note A_, 2
	octave 3
	note C_, 2
	note D_, 2
	octave 1
	note D_, 2
	octave 2
	note D_, 2
	octave 3
	note C_, 2
	octave 2
	note A_, 2
	note D_, 2
	note B_, 2
	note G_, 2
	note D_, 2
	octave 3
	note C_, 2
	octave 2
	note A_, 2
	octave 1
	note D_, 2
	octave 2
	note B_, 2
	note G_, 2
	note D_, 2
	octave 3
	note C_, 2
	octave 2
	note A_, 2
	octave 1
	note D_, 2
	octave 2
	note C#, 2
	note A_, 2
	note G_, 2
	note C#, 2
	note G_, 2
	note G_, 2
	note C#, 2
	note A_, 4
	note G_, 2
	note C#, 2
	note A_, 2
	note G_, 2
	note A_, 2
	octave 3
	note C#, 2
	octave 1
	note D_, 2
	octave 2
	note D_, 2
	octave 3
	note C_, 2
	octave 2
	note A_, 2
	note D_, 2
	note B_, 2
	note G_, 2
	note D_, 2
	octave 3
	note C_, 2
	octave 2
	note A_, 2
	octave 1
	note D_, 2
	octave 2
	note B_, 2
	note G_, 2
	note D_, 2
	octave 3
	note C_, 2
	octave 2
	note A_, 2
	octave 1
	note G_, 2
	octave 2
	note D_, 2
	octave 3
	note C_, 2
	octave 2
	note A_, 2
	note D_, 2
	note B_, 2
	note G_, 2
	note D_, 2
	octave 3
	note C_, 4
	octave 2
	note B_, 2
	note D_, 2
	octave 3
	note C_, 2
	octave 2
	note A_, 2
	octave 3
	note C_, 2
	note D_, 2
	octave 1
	note C_, 2
	octave 2
	note C_, 2
	note B_, 2
	note G_, 2
	note C_, 2
	note A_, 2
	note G_, 2
	note C_, 2
	note B_, 2
	note G_, 2
	octave 1
	note C_, 2
	octave 2
	note A_, 2
	note G_, 2
	note C_, 2
	note B_, 2
	note G_, 2
	octave 1
	note C_, 2
	octave 2
	note C_, 2
	note B_, 2
	note F#, 2
	note C_, 2
	note A_, 2
	note F#, 2
	note C_, 2
	note B_, 4
	note A_, 2
	note C_, 2
	note B_, 2
	note F#, 2
	note B_, 2
	octave 3
	note C_, 2
	duty_cycle 2
	volume_envelope $A, 7
	note D_, 12
	note F_, 2
	note D_, 4
	note F_, 4
	note D_, 2
	note C_, 4
	note D_, 4
	note E_, 12
	note G_, 2
	note E_, 4
	note G_, 4
	note F_, 4
	note E_, 4
	note G_, 2
	note F_, 12
	note A_, 2
	note F_, 4
	note A_, 4
	note G_, 4
	note F_, 4
	note A_, 2
	note F#, 12
	note A_, 2
	note F#, 4
	note F#, 4
	note E_, 4
	note D_, 4
	note E_, 2
	duty_cycle 0
	volume_envelope $A, 1
	octave 1
	note G_, 2
	note G_, 2
	octave 3
	note D_, 2
	note F_, 2
	octave 1
	note G_, 2
	octave 3
	note D_, 2
	note F_, 2
	octave 1
	note G_, 2
	note G_, 2
	note G_, 2
	octave 3
	note E_, 2
	octave 2
	note G_, 2
	octave 1
	note G_, 2
	octave 3
	note E_, 2
	octave 2
	note G_, 2
	octave 3
	note E_, 2
	octave 1
	note F#, 2
	note F#, 2
	octave 3
	note C#, 2
	note E_, 2
	octave 1
	note F#, 2
	octave 3
	note C#, 2
	note E_, 2
	octave 1
	note F#, 2
	note F#, 2
	note F#, 2
	octave 3
	note D#, 2
	octave 2
	note F#, 2
	octave 1
	note F#, 2
	octave 3
	note D#, 2
	octave 2
	note F#, 2
	octave 1
	note F#, 2
	note E_, 2
	note E_, 2
	octave 2
	note B_, 2
	octave 3
	note D_, 2
	octave 1
	note E_, 2
	octave 2
	note B_, 2
	octave 3
	note D_, 2
	octave 1
	note E_, 2
	note E_, 2
	note E_, 2
	octave 3
	note D_, 2
	octave 2
	note E_, 2
	octave 1
	note E_, 2
	octave 3
	note D_, 2
	octave 2
	note E_, 2
	octave 1
	note E_, 2
	note A_, 2
	octave 4
	note C#, 2
	octave 1
	note A_, 2
	octave 4
	note C#, 4
	octave 2
	note A_, 2
	note G_, 2
	note A_, 2
	note G_, 1
	note A_, 1
	note E_, 2
	note D_, 2
	note C#, 2
	octave 1
	note A_, 1
	octave 2
	note C#, 1
	octave 1
	note A_, 2
	note G_, 2
	note E_, 2
	sound_loop 0, Music_Rival_Ch1_loop

Music_Rival_Ch2:
	pitch_offset $0001
	vibrato $08, $1, $4
	octave 4
	note_type $6, $B, 7
	note D_, 1
	rest 1
	note D_, 1
	rest 1
	note C_, 2
	rest 2
	octave 3
	note B_, 2
	rest 2
	octave 4
	note C_, 2
	octave 3
	note_type $C, $B, 7
	note B_, 13
	note G_, 1
	note_type $6, $B, 7
	note G#, 1
	rest 1
	note A_, 2
	octave 4
	note C_, 1
	rest 1
	note D_, 2
	rest 2
Music_Rival_Ch2_loop:
	duty_cycle 3
	note C#, 1
	note D_, 3
	note F_, 4
	octave 5
	note C_, 4
	octave 4
	note B_, 4
	note A_, 8
	note G_, 2
	note A_, 2
	note A#, 1
	note B_, 5
	note G_, 2
	rest 4
	note D_, 15
	rest 1
	note D_, 2
	note E_, 2
	note F_, 4
	note F_, 1
	rest 1
	note F_, 2
	rest 2
	note F_, 2
	rest 2
	note F_, 1
	rest 1
	note E_, 2
	note F_, 1
	rest 1
	note F_, 1
	rest 1
	note F_, 1
	rest 1
	note G_, 4
	note G#, 4
	note A#, 1
	note A_, 7
	note G#, 1
	note A_, 7
	note G#, 2
	note A_, 1
	rest 1
	note A_, 1
	rest 1
	note A_, 1
	rest 1
	note G#, 2
	note A_, 1
	rest 1
	note A_, 1
	rest 1
	note A_, 1
	rest 5
	note C#, 1
	note D_, 3
	note F_, 4
	octave 5
	note C_, 4
	octave 4
	note B_, 4
	octave 5
	note C_, 2
	note D_, 2
	rest 4
	note C_, 4
	octave 4
	note B_, 4
	note A_, 2
	note G_, 6
	note A_, 2
	note B_, 14
	octave 5
	note C_, 2
	note D_, 2
	note E_, 12
	note F_, 2
	note G_, 2
	note E_, 12
	note F_, 2
	note G_, 2
	note E_, 8
	note D#, 2
	note E_, 1
	rest 1
	note E_, 2
	note E_, 1
	rest 1
	note D#, 2
	note E_, 1
	rest 1
	note E_, 2
	note E_, 1
	rest 1
	note D#, 2
	note E_, 1
	rest 1
	note D_, 2
	note E_, 1
	rest 1
	duty_cycle 2
	octave 4
	note E_, 1
	note F_, 5
	note D_, 2
	rest 4
	octave 3
	note A#, 14
	octave 4
	note F_, 2
	note E_, 2
	note D_, 2
	note D#, 1
	note E_, 5
	note F_, 6
	note G_, 12
	rest 8
	note G_, 6
	note E_, 2
	rest 4
	note C_, 4
	octave 3
	note B_, 2
	octave 4
	note C_, 2
	rest 2
	note C_, 1
	rest 1
	note D#, 2
	note E_, 1
	rest 1
	note G_, 1
	rest 1
	note G_, 1
	rest 1
	note F#, 2
	rest 2
	note E_, 2
	rest 2
	note D_, 2
	rest 2
	note E_, 2
	note D_, 2
	rest 2
	note D_, 1
	rest 3
	note D_, 1
	rest 1
	note C#, 2
	note D_, 1
	rest 1
	note D_, 1
	rest 1
	note D_, 1
	rest 1
	note C#, 1
	note D_, 11
	note F_, 2
	note D_, 2
	note E_, 6
	note F_, 2
	note E_, 8
	note E_, 12
	note A_, 2
	note E_, 2
	note F#, 6
	note G_, 2
	note F#, 8
	note B_, 6
	note F#, 2
	rest 4
	note E_, 2
	rest 2
	note D_, 8
	note F_, 2
	note E_, 2
	note D_, 2
	rest 2
	note E_, 2
	duty_cycle 3
	octave 3
	note C#, 2
	rest 2
	note C#, 2
	rest 14
	rest 14
	octave 4
	sound_loop 0, Music_Rival_Ch2_loop

Music_Rival_Ch3:
	note_type $C, $1, $2
	rest 8
	octave 2
	note G_, 1
	note_type $6, $1, $2
	note D_, 1
	rest 3
	note D_, 1
	rest 1
	note G_, 3
	rest 5
	note G_, 2
	note F_, 2
	rest 2
	octave 3
	note C_, 2
	note D_, 8
Music_Rival_Ch3_loop:
	octave 2
	note D_, 3
	rest 9
	note C_, 2
	note D_, 1
	rest 1
	note D_, 2
	rest 2
	note D_, 4
	rest 4
	note F_, 4
	note G_, 3
	rest 9
	note F_, 2
	note G_, 1
	rest 1
	note F_, 2
	note G_, 1
	rest 3
	note G_, 2
	note F_, 2
	rest 2
	note E_, 4
	note D_, 3
	rest 9
	note C_, 2
	note D_, 1
	rest 1
	note D_, 2
	rest 2
	note D_, 4
	rest 4
	note F_, 4
	octave 1
	note A_, 3
	rest 9
	note A_, 3
	rest 1
	note G#, 2
	note A_, 2
	rest 2
	note A_, 2
	note G#, 2
	note A_, 1
	rest 1
	octave 2
	note C#, 4
	note D_, 3
	rest 9
	note C_, 2
	note D_, 1
	rest 1
	note D_, 2
	rest 2
	note D_, 4
	rest 4
	note F_, 4
	note G_, 3
	rest 9
	note F_, 2
	note G_, 1
	rest 1
	note F_, 2
	note G_, 1
	rest 3
	note G_, 2
	note F_, 2
	rest 2
	note E_, 4
	note C_, 3
	rest 9
	octave 1
	note A#, 2
	octave 2
	note C_, 1
	rest 1
	note C_, 1
	rest 3
	note C_, 4
	rest 4
	note D#, 4
	note F#, 4
	rest 2
	note F#, 2
	rest 4
	note E_, 2
	note F#, 1
	rest 1
	note E_, 2
	note F#, 1
	rest 3
	note F#, 2
	note B_, 2
	rest 2
	note E_, 4
	note G_, 4
	rest 2
	note G_, 2
	rest 4
	note D_, 2
	note F_, 2
	note G_, 6
	note F_, 2
	note G_, 2
	rest 2
	note F_, 2
	note D_, 2
	note C_, 6
	octave 3
	note C_, 1
	rest 3
	note C_, 1
	rest 3
	note C_, 1
	rest 1
	octave 2
	note A#, 2
	note G_, 4
	note E_, 2
	note C_, 4
	note E_, 4
	note F_, 6
	octave 3
	note C_, 1
	rest 5
	note C_, 1
	rest 1
	note C_, 1
	rest 1
	octave 2
	note F_, 2
	octave 3
	note C_, 4
	octave 2
	note B_, 2
	octave 3
	note C_, 2
	octave 2
	note C_, 6
	note D_, 4
	rest 2
	note D_, 2
	note C_, 4
	rest 2
	note C_, 2
	octave 1
	note A#, 4
	rest 2
	note A#, 2
	note A_, 4
	rest 2
	note A_, 2
	octave 2
	note G_, 2
	rest 4
	octave 3
	note G_, 2
	octave 2
	note G_, 2
	rest 6
	note G_, 2
	rest 6
	octave 3
	note C#, 2
	note D_, 2
	octave 2
	note G_, 4
	note F#, 2
	rest 6
	note F#, 2
	rest 6
	note D#, 2
	note F#, 2
	note B_, 2
	note D#, 2
	note A#, 2
	note B_, 2
	note F#, 4
	note E_, 2
	rest 6
	note E_, 2
	rest 6
	note E_, 2
	rest 6
	note E_, 2
	rest 6
	note A_, 2
	octave 3
	note G_, 2
	rest 2
	note G_, 2
	rest 16
	octave 2
	note A_, 1
	octave 3
	note C#, 3
	octave 2
	note C#, 4
	sound_loop 0, Music_Rival_Ch3_loop

Music_Rival_Ch4:
	toggle_noise 3
	drum_speed $C
	rest 6
	drum_note 1, 1
	drum_note 1, 1
	drum_note 4, 4
	drum_note 4, 4
	drum_note 4, 1
	drum_note 4, 2
	drum_note 4, 1
	drum_note 1, 1
	drum_note 1, 1
	drum_note 1, 1
	drum_note 1, 1
Music_Rival_Ch4_loop:
	drum_note 4, 4
	drum_note 1, 2
	drum_note 4, 1
	drum_note 1, 1
	drum_note 4, 1
	drum_note 1, 1
	drum_note 4, 1
	drum_note 1, 2
	drum_note 4, 1
	drum_note 1, 1
	drum_note 4, 1
	drum_note 4, 4
	drum_note 1, 2
	drum_note 4, 1
	drum_note 1, 1
	drum_note 1, 1
	drum_note 1, 1
	drum_note 4, 1
	drum_note 4, 1
	drum_note 1, 2
	drum_note 1, 1
	drum_note 4, 1
	drum_note 1, 1
	drum_note 4, 2
	drum_note 4, 1
	drum_note 1, 2
	drum_note 4, 1
	drum_note 1, 1
	drum_note 4, 2
	drum_note 4, 3
	drum_note 4, 1
	drum_note 1, 1
	drum_note 4, 1
	drum_note 4, 4
	drum_note 1, 2
	drum_note 4, 1
	drum_note 1, 7
	drum_note 1, 1
	drum_note 1, 1
	drum_note 4, 4
	drum_note 1, 2
	drum_note 4, 1
	drum_note 1, 1
	drum_note 4, 1
	drum_note 1, 1
	drum_note 4, 1
	drum_note 1, 2
	drum_note 4, 1
	drum_note 1, 1
	drum_note 4, 1
	drum_note 4, 4
	drum_note 1, 2
	drum_note 4, 1
	drum_note 1, 2
	drum_note 4, 2
	drum_note 4, 1
	drum_note 4, 2
	drum_note 1, 1
	drum_note 1, 1
	drum_note 4, 4
	drum_note 1, 2
	drum_note 4, 1
	drum_note 1, 1
	drum_note 4, 2
	drum_note 4, 2
	drum_note 1, 1
	drum_note 4, 2
	drum_note 4, 1
	drum_note 4, 1
	drum_note 1, 2
	drum_note 1, 1
	drum_note 4, 1
	drum_note 1, 1
	drum_note 1, 1
	drum_note 1, 8
	drum_note 4, 1
	drum_note 4, 6
	drum_note 4, 1
	drum_note 4, 9
	drum_note 4, 6
	drum_note 4, 1
	drum_note 4, 9
	drum_note 4, 6
	drum_note 4, 1
	drum_note 4, 9
	drum_note 4, 6
	drum_note 4, 2
	drum_note 4, 2
	drum_note 4, 2
	drum_note 1, 1
	drum_note 1, 1
	drum_note 1, 1
	drum_note 4, 1
	drum_note 4, 3
	drum_note 4, 1
	drum_note 4, 4
	drum_note 4, 3
	drum_note 4, 1
	drum_note 4, 3
	drum_note 4, 1
	drum_note 4, 3
	drum_note 4, 1
	drum_note 4, 4
	drum_note 4, 3
	drum_note 4, 1
	drum_note 4, 3
	drum_note 4, 1
	drum_note 4, 3
	drum_note 4, 1
	drum_note 4, 4
	drum_note 4, 3
	drum_note 4, 1
	drum_note 4, 3
	drum_note 4, 1
	drum_note 4, 12
	drum_speed $6
	drum_note 1, 1
	drum_note 1, 1
	drum_note 1, 2
	drum_note 1, 2
	drum_note 1, 2
	drum_speed $C
	sound_loop 0, Music_Rival_Ch4_loop
