Music_Lake:
	channel_count 4
	channel 1, Music_Lake_Ch1
	channel 2, Music_Lake_Ch2
	channel 3, Music_Lake_Ch3
	channel 4, Music_Lake_Ch4

Music_Lake_Ch1:
	volume $7, $7
	stereo_panning TRUE, TRUE
	tempo $B8
	duty_cycle 1
	pitch_offset $0002
	octave 3
	note_type $C, $A, 2
	note D_, 1
	note F#, 1
	note A_, 1
	note B_, 1
	octave 4
	note D_, 1
	note F#, 1
	note A_, 1
	note B_, 1
	octave 5
	note D_, 1
	note F#, 1
	note A_, 1
	note B_, 1
Music_Lake_Ch1_loop:
	octave 6
	note F_, 1
	note C_, 1
	note D_, 1
	octave 5
	note A_, 1
	octave 6
	note C_, 1
	octave 5
	note G_, 1
	note A_, 1
	note F_, 1
	note G_, 1
	note D_, 1
	note F_, 1
	note C_, 1
	note_type $6, $A, 2
	note D_, 1
	note F_, 1
	note A_, 16
	rest 6
	octave 6
	note E_, 2
	note C_, 2
	note D_, 2
	octave 5
	note A_, 2
	octave 6
	note C_, 2
	octave 5
	note G_, 2
	note A_, 2
	note E_, 2
	note G_, 2
	note D_, 2
	note F_, 2
	note C_, 2
	note E_, 4
	note G_, 4
	octave 6
	note C_, 4
	note D_, 2
	note D_, 2
	note C_, 4
	octave 5
	note G_, 2
	note B_, 2
	octave 6
	note C_, 2
	octave 5
	note G_, 2
	note A_, 2
	note E_, 2
	note G_, 2
	note D_, 2
	note E_, 2
	note C_, 2
	note D_, 2
	octave 4
	note A_, 2
	octave 5
	note C_, 2
	octave 4
	note G_, 2
	note A_, 1
	octave 5
	note C_, 1
	note E_, 16
	rest 6
	note B_, 2
	note G_, 2
	note A_, 2
	note E_, 2
	note G_, 2
	note D_, 2
	note E_, 2
	octave 4
	note B_, 2
	octave 5
	note D_, 2
	octave 4
	note A_, 2
	octave 5
	note C_, 2
	octave 4
	note G_, 2
	note B_, 4
	octave 5
	note E_, 4
	note A_, 4
	note B_, 4
	octave 6
	note C_, 4
	octave 5
	note B_, 2
	octave 6
	note D_, 2
	note F_, 2
	note C_, 2
	note D_, 2
	octave 5
	note A_, 2
	octave 6
	note C_, 2
	octave 5
	note G_, 2
	note A_, 2
	note F_, 2
	note G_, 2
	note D_, 2
	note F_, 2
	note C_, 2
	note D_, 1
	note F_, 1
	note A_, 16
	rest 6
	octave 6
	note E_, 2
	note C_, 2
	note D_, 2
	octave 5
	note A_, 2
	octave 6
	note C_, 2
	octave 5
	note G_, 2
	note A_, 2
	note E_, 2
	note G_, 2
	note D_, 2
	note F_, 2
	note C_, 2
	note E_, 1
	note A_, 1
	octave 6
	note C_, 16
	rest 6
	note C_, 2
	octave 5
	note G_, 2
	note A_, 2
	note E_, 2
	note G_, 2
	note D_, 2
	note E_, 2
	note C_, 2
	note D_, 2
	octave 4
	note A_, 2
	octave 5
	note C_, 2
	octave 4
	note G_, 2
	note A_, 1
	octave 5
	note C_, 1
	note E_, 16
	rest 6
	note B_, 2
	note G_, 2
	note A_, 2
	note E_, 2
	note G_, 2
	note D_, 2
	note E_, 2
	octave 4
	note B_, 2
	octave 5
	note D_, 2
	octave 4
	note A_, 2
	octave 5
	note C_, 2
	octave 4
	note G_, 2
	note B_, 1
	octave 5
	note E_, 1
	note B_, 16
	rest 6
	octave 6
	note F_, 2
	note C_, 2
	note D_, 2
	octave 5
	note A_, 2
	octave 6
	note C_, 2
	octave 5
	note G_, 2
	note A_, 2
	note F_, 2
	note G_, 2
	note D_, 2
	note F_, 2
	note C_, 2
	note D_, 1
	note F_, 1
	note A_, 16
	rest 6
	octave 6
	note E_, 2
	note C_, 2
	note D_, 2
	octave 5
	note A_, 2
	octave 6
	note C_, 2
	octave 5
	note G_, 2
	note A_, 2
	note E_, 2
	note G_, 2
	note D_, 2
	note F_, 2
	note C_, 2
	note E_, 1
	note A_, 1
	octave 6
	note C_, 16
	rest 6
	note C_, 2
	octave 5
	note G_, 2
	note A_, 2
	note E_, 2
	note G_, 2
	note D_, 2
	note E_, 2
	note C_, 2
	note D_, 2
	octave 4
	note A_, 2
	octave 5
	note C_, 2
	octave 4
	note G_, 2
	note A_, 1
	octave 5
	note C_, 1
	note E_, 16
	rest 6
	note B_, 2
	note G_, 2
	note A_, 2
	note E_, 2
	note G_, 2
	note D_, 2
	note E_, 2
	octave 4
	note B_, 2
	octave 5
	note D_, 2
	octave 4
	note A_, 2
	octave 5
	note C_, 2
	octave 4
	note G_, 2
	note B_, 1
	octave 5
	note E_, 1
	note B_, 6
	octave 3
	note F_, 2
	note A_, 2
	note B_, 2
	octave 4
	note E_, 2
	note F_, 1
	note A_, 1
	note B_, 1
	octave 5
	note E_, 1
	octave 4
	note A_, 1
	note B_, 1
	octave 5
	note E_, 1
	note A_, 1
	note F#, 4
	note D_, 2
	note E_, 2
	octave 4
	note B_, 2
	octave 5
	note D_, 4
	octave 4
	note A_, 2
	note B_, 2
	note G_, 2
	note A_, 4
	note F#, 2
	note D_, 2
	note F#, 2
	note A_, 2
	octave 5
	note F_, 4
	note D_, 2
	note E_, 2
	octave 4
	note A#, 2
	octave 5
	note D_, 2
	octave 4
	note G_, 4
	note A#, 2
	note F_, 2
	note D_, 2
	octave 3
	note A#, 2
	note G_, 1
	note A#, 1
	octave 4
	note D_, 1
	note F_, 1
	note A_, 1
	note A#, 1
	octave 5
	note D_, 1
	note F_, 1
	note E_, 1
	note C#, 1
	octave 4
	note A_, 1
	note F#, 1
	octave 5
	note C#, 1
	octave 4
	note A_, 1
	note F#, 1
	note E_, 1
	note A_, 1
	note F#, 1
	note E_, 1
	note C#, 1
	note F#, 1
	note E_, 1
	note C#, 1
	octave 3
	note A_, 1
	octave 4
	note E_, 1
	note C#, 1
	octave 3
	note A_, 1
	note F#, 1
	octave 4
	note C#, 1
	octave 3
	note A_, 1
	note F#, 1
	note E_, 1
	note C#, 1
	note E_, 1
	note F#, 1
	note A_, 1
	octave 4
	note C#, 1
	note D_, 1
	note F#, 1
	note A_, 1
	octave 5
	note D#, 1
	note C_, 1
	octave 4
	note A_, 1
	note F#, 1
	octave 5
	note C_, 1
	octave 4
	note A_, 1
	note F#, 1
	note D#, 1
	note A_, 1
	note F#, 1
	note D#, 1
	note C_, 1
	note F#, 1
	note D#, 1
	note C_, 1
	octave 3
	note A_, 1
	octave 4
	note D#, 1
	note C_, 1
	octave 3
	note A_, 1
	note F#, 1
	octave 4
	note C_, 1
	octave 3
	note A_, 1
	note F#, 1
	note D#, 1
	note C_, 1
	note D#, 1
	note F#, 1
	note A_, 1
	octave 4
	note C_, 1
	note D#, 1
	note F#, 1
	note A_, 1
	octave 5
	note G_, 4
	note D_, 2
	note E_, 2
	octave 4
	note B_, 2
	octave 5
	note D_, 4
	octave 4
	note A_, 2
	note B_, 2
	note G_, 2
	note A_, 4
	note E_, 2
	note G_, 2
	note B_, 2
	octave 5
	note D_, 2
	note G_, 4
	note C#, 2
	note E_, 2
	octave 4
	note A#, 2
	octave 5
	note C#, 2
	octave 4
	note G_, 4
	note A#, 2
	note E_, 2
	note C#, 2
	octave 3
	note A#, 2
	note G_, 1
	note A#, 1
	octave 4
	note C#, 1
	note G_, 1
	note A#, 1
	octave 5
	note C#, 1
	note E_, 1
	note G_, 1
	note E_, 1
	note C#, 1
	octave 4
	note A_, 1
	note F#, 1
	octave 5
	note C#, 1
	octave 4
	note A_, 1
	note F#, 1
	note E_, 1
	note A_, 1
	note F#, 1
	note E_, 1
	note C#, 1
	note F#, 1
	note E_, 1
	note C#, 1
	octave 3
	note A_, 1
	octave 4
	note E_, 1
	note C#, 1
	octave 3
	note A_, 1
	note F#, 1
	octave 4
	note C#, 1
	octave 3
	note A_, 1
	note F#, 1
	note E_, 1
	note C#, 1
	note E_, 1
	note F#, 1
	note A_, 1
	octave 4
	note C#, 1
	note D_, 1
	note F#, 1
	note A_, 1
	octave 5
	note F_, 1
	note D_, 1
	octave 4
	note A_, 1
	note F_, 1
	octave 5
	note D_, 1
	octave 4
	note A_, 1
	note F_, 1
	note D_, 1
	note A_, 1
	note F_, 1
	note D_, 1
	note C_, 1
	note F_, 1
	note D_, 1
	note C_, 1
	octave 3
	note A_, 1
	octave 4
	note D_, 1
	note C_, 1
	octave 3
	note A_, 1
	note F_, 1
	octave 4
	note C_, 1
	octave 3
	note A_, 1
	note F_, 1
	note D_, 1
	octave 4
	note C_, 1
	note F_, 1
	note A_, 1
	octave 5
	note C_, 1
	note E_, 1
	note F_, 1
	note A_, 1
	octave 6
	note C_, 1
	note_type $C, $A, 2
	sound_loop 0, Music_Lake_Ch1_loop

Music_Lake_Ch2:
	duty_cycle 2
	octave 2
	note_type $C, $0, -1
	note G_, 12
Music_Lake_Ch2_loop:
	octave 2
	volume_envelope $C, 7
	note A#, 1
	octave 1
	note A#, 15
	volume_envelope $0, -1
	octave 2
	note A#, 8
	volume_envelope $C, 7
	note A#, 1
	octave 1
	note A#, 15
	volume_envelope $0, -1
	octave 2
	note A#, 8
	volume_envelope $C, 7
	note F_, 1
	octave 1
	note F_, 15
	volume_envelope $0, -1
	octave 2
	note F_, 8
	volume_envelope $C, 7
	note F_, 1
	octave 1
	note F_, 15
	volume_envelope $0, -1
	octave 2
	note F_, 8
	volume_envelope $C, 7
	note A#, 1
	octave 1
	note A#, 15
	volume_envelope $0, -1
	octave 2
	note A#, 8
	volume_envelope $C, 7
	note A#, 1
	octave 1
	note A#, 15
	volume_envelope $0, -1
	octave 2
	note A#, 8
	volume_envelope $C, 7
	note F_, 1
	octave 1
	note F_, 15
	volume_envelope $0, -1
	octave 2
	note F_, 8
	volume_envelope $C, 7
	note F_, 1
	octave 1
	note F_, 15
	volume_envelope $0, -1
	octave 2
	note F_, 8
	volume_envelope $C, 7
	note A#, 1
	octave 1
	note A#, 15
	volume_envelope $0, -1
	octave 2
	note A#, 8
	volume_envelope $C, 7
	note A#, 1
	octave 1
	note A#, 15
	volume_envelope $0, -1
	octave 2
	note A#, 8
	volume_envelope $C, 7
	note F_, 1
	octave 1
	note F_, 15
	volume_envelope $0, -1
	octave 2
	note F_, 8
	volume_envelope $C, 7
	note F_, 1
	octave 1
	note F_, 15
	volume_envelope $0, -1
	octave 2
	note F_, 8
	volume_envelope $B, 1
	octave 1
	note_type $6, $B, 1
	note G_, 1
	note G_, 1
	octave 2
	note G_, 2
	note G_, 2
	octave 1
	note G_, 2
	note G_, 4
	note G_, 1
	note G_, 1
	note G_, 2
	octave 2
	note G_, 2
	octave 1
	note G_, 2
	note G_, 4
	octave 2
	note F#, 2
	note D_, 2
	octave 1
	note B_, 2
	note G_, 2
	note G_, 1
	note G_, 1
	note G_, 2
	note G_, 2
	note D_, 2
	note D_, 4
	note G_, 1
	note G_, 1
	note G_, 2
	note G_, 2
	note D_, 2
	note D_, 4
	note G_, 2
	note A#, 2
	octave 2
	note C_, 2
	note D_, 2
	note F#, 1
	note F#, 1
	octave 1
	note F#, 2
	note F#, 2
	note F#, 2
	note F#, 4
	octave 2
	note E_, 1
	note E_, 1
	octave 1
	note F#, 1
	note F#, 3
	note F#, 2
	note F#, 4
	note F#, 2
	octave 2
	note C#, 2
	octave 1
	note A_, 2
	octave 2
	note F#, 2
	note F#, 1
	note F#, 1
	octave 1
	note F#, 2
	note F#, 2
	note F#, 2
	note F#, 4
	octave 2
	note E_, 1
	note E_, 1
	octave 1
	note F#, 1
	note F#, 3
	note F#, 2
	note F#, 4
	note F#, 2
	octave 2
	note C_, 2
	octave 1
	note A_, 2
	octave 2
	note F#, 2
	octave 1
	note E_, 1
	note E_, 1
	octave 2
	note E_, 2
	note E_, 2
	octave 1
	note E_, 2
	note E_, 4
	note E_, 1
	note E_, 1
	note E_, 2
	octave 2
	note E_, 2
	octave 1
	note E_, 2
	note E_, 4
	octave 2
	note E_, 2
	octave 1
	note B_, 2
	note G_, 2
	note D#, 2
	note G_, 1
	note G_, 1
	note G_, 2
	note G_, 2
	note D_, 2
	note D_, 4
	note G_, 1
	note G_, 1
	note G_, 2
	note G_, 2
	note D_, 2
	note D_, 4
	note E_, 2
	note G_, 2
	note A#, 2
	octave 2
	note C#, 2
	note D_, 1
	note D_, 1
	octave 1
	note D_, 2
	note D_, 2
	note D_, 2
	note D_, 4
	octave 2
	note D_, 1
	note D_, 1
	octave 1
	note D_, 1
	note D_, 3
	note D_, 2
	note D_, 4
	note D_, 2
	note A_, 2
	note F#, 2
	octave 2
	note D_, 2
	note G_, 1
	note G_, 1
	octave 1
	note G_, 2
	note G_, 2
	note G_, 2
	note G_, 4
	octave 2
	note G_, 1
	note G_, 1
	octave 1
	note G_, 1
	note G_, 3
	note G_, 2
	note G_, 4
	note G_, 2
	octave 2
	note D_, 2
	octave 1
	note A_, 2
	octave 2
	note F_, 2
	note_type $C, $A, 1
	sound_loop 0, Music_Lake_Ch2_loop

Music_Lake_Ch3:
	pitch_offset $0001
	vibrato $10, $2, $4
	note_type $C, $1, $0
	rest 12
Music_Lake_Ch3_loop:
	rest 16
	rest 16
	rest 16
	rest 16
	rest 16
	rest 14
	octave 5
	note G_, 1
	note D_, 1
	note E_, 11
	note F_, 1
	note E_, 11
	note F_, 1
	note E_, 11
	note F_, 1
	note G_, 9
	note F_, 1
	note E_, 1
	note D_, 1
	note_type $6, $1, $0
	note D#, 1
	note E_, 2
	rest 1
	note_type $F, $1, $0
	note C_, 16
	octave 4
	note_type $C, $1, $0
	note A_, 1
	note A#, 1
	note B_, 11
	note A_, 1
	octave 5
	note_type $6, $1, $0
	note D#, 1
	note E_, 11
	note G_, 2
	note F_, 2
	note E_, 2
	note D_, 2
	note C_, 2
	note D_, 2
	note D#, 1
	note_type $E, $1, $0
	note E_, 9
	note_type $C, $1, $0
	note F_, 1
	note_type $6, $1, $0
	note D#, 1
	note_type $E, $1, $0
	note E_, 9
	note_type $C, $1, $0
	note F_, 1
	note_type $6, $1, $0
	note D#, 1
	note_type $E, $1, $0
	note E_, 9
	note_type $C, $1, $0
	note F_, 1
	note G_, 9
	note F_, 1
	note E_, 1
	note D_, 1
	note_type $6, $1, $0
	note D#, 1
	note E_, 2
	rest 1
	note_type $F, $1, $0
	note C_, 16
	octave 4
	note_type $C, $1, $0
	note A_, 1
	note A#, 1
	note B_, 3
	note A_, 1
	octave 5
	note E_, 3
	note D_, 1
	note G_, 3
	note F_, 1
	note B_, 3
	note A_, 1
	note G_, 3
	note F_, 1
	rest 2
	volume_envelope $1, $2
	note G_, 1
	note G#, 1
	note A_, 3
	note F#, 1
	note D_, 8
	octave 4
	note A_, 1
	octave 5
	note D_, 1
	octave 4
	note B_, 1
	octave 5
	note F#, 1
	note F_, 3
	note D_, 1
	note_type $6, $1, $2
	note A_, 1
	note A#, 15
	note A#, 2
	note A_, 2
	note G_, 2
	note A#, 2
	note A_, 16
	note A_, 16
	note A_, 16
	note A_, 8
	note B_, 2
	note A_, 2
	note G_, 2
	note B_, 2
	note A_, 6
	note F#, 2
	note D_, 16
	octave 4
	note A_, 2
	octave 5
	note D_, 2
	octave 4
	note B_, 2
	octave 5
	note G_, 2
	note E_, 6
	note F#, 2
	note G_, 16
	note F#, 4
	note C#, 4
	note_type $E, $1, $2
	note E_, 12
	note_type $C, $1, $2
	note D_, 1
	note E_, 1
	note F_, 16
	volume_envelope $1, $0
	sound_loop 0, Music_Lake_Ch3_loop

Music_Lake_Ch4:
	drum_speed $C
	toggle_noise 3
	rest 12
Music_Lake_Ch4_loop:
	drum_note 4, 6
	drum_note 8, 4
	drum_note 4, 2
	drum_note 4, 6
	drum_note 8, 2
	drum_note 4, 4
	drum_note 4, 6
	drum_note 8, 4
	drum_note 4, 2
	drum_note 4, 3
	drum_note 4, 1
	drum_note 4, 2
	drum_note 8, 2
	drum_note 4, 4
	drum_note 4, 6
	drum_note 8, 4
	drum_note 4, 2
	drum_note 4, 6
	drum_note 8, 2
	drum_note 4, 4
	drum_note 4, 1
	drum_note 4, 5
	drum_note 8, 4
	drum_note 4, 2
	drum_note 4, 3
	drum_note 4, 1
	drum_note 4, 2
	drum_note 8, 2
	drum_note 4, 2
	drum_note 4, 2
	drum_note 4, 6
	drum_note 8, 4
	drum_note 4, 2
	drum_note 4, 6
	drum_note 8, 2
	drum_note 4, 4
	drum_note 4, 6
	drum_note 8, 4
	drum_note 4, 2
	drum_note 4, 3
	drum_note 4, 1
	drum_note 4, 2
	drum_note 8, 2
	drum_note 4, 4
	drum_note 4, 3
	drum_note 4, 3
	drum_note 8, 4
	drum_note 4, 2
	drum_note 4, 6
	drum_note 8, 2
	drum_note 4, 4
	drum_note 4, 6
	drum_note 8, 4
	drum_note 4, 2
	drum_note 4, 3
	drum_note 4, 1
	drum_note 4, 2
	drum_note 8, 2
	drum_note 4, 4
	drum_note 4, 6
	drum_note 8, 4
	drum_note 4, 2
	drum_note 4, 6
	drum_note 8, 2
	drum_note 4, 4
	drum_note 4, 6
	drum_note 8, 4
	drum_note 4, 2
	drum_note 4, 3
	drum_note 4, 1
	drum_note 4, 2
	drum_note 8, 2
	drum_note 4, 4
	drum_note 4, 6
	drum_note 8, 4
	drum_note 4, 2
	drum_note 4, 6
	drum_note 8, 2
	drum_note 4, 4
	drum_note 4, 1
	drum_note 4, 2
	drum_note 4, 1
	drum_note 4, 2
	drum_note 8, 2
	drum_note 4, 2
	drum_note 4, 2
	drum_note 4, 1
	drum_note 4, 3
	drum_note 4, 1
	drum_note 4, 1
	drum_note 8, 6
	drum_note 4, 1
	drum_note 4, 5
	drum_note 4, 1
	drum_note 4, 3
	drum_note 8, 2
	drum_note 4, 4
	drum_note 4, 1
	drum_note 4, 5
	drum_note 4, 1
	drum_note 4, 5
	drum_note 8, 4
	drum_note 4, 1
	drum_note 4, 5
	drum_note 4, 1
	drum_note 4, 3
	drum_note 8, 2
	drum_note 4, 4
	drum_note 4, 1
	drum_note 4, 5
	drum_note 4, 1
	drum_note 4, 3
	drum_note 8, 2
	drum_note 4, 4
	drum_note 4, 1
	drum_note 4, 5
	drum_note 4, 1
	drum_note 4, 3
	drum_note 8, 2
	drum_note 4, 4
	drum_note 4, 1
	drum_note 4, 5
	drum_note 4, 1
	drum_note 4, 5
	drum_note 8, 4
	drum_note 4, 1
	drum_note 4, 5
	drum_note 4, 1
	drum_note 4, 3
	drum_note 8, 2
	drum_note 4, 4
	drum_note 4, 1
	drum_note 4, 5
	drum_note 4, 1
	drum_note 4, 3
	drum_note 8, 2
	drum_note 4, 4
	sound_loop 0, Music_Lake_Ch4_loop
