Music_Sandgem:
	channel_count 4
	channel 1, Music_Sandgem_Ch1
	channel 2, Music_Sandgem_Ch2
	channel 3, Music_Sandgem_Ch3
	channel 4, Music_Sandgem_Ch4

Music_Sandgem_Ch1:
	volume $7, $7
	stereo_panning TRUE, TRUE
	tempo $A8
	pitch_offset $0002
Music_Sandgem_Ch1_loop:
	octave 3
	note_type $C, $A, 2
	note A_, 4
	note F_, 4
	note G_, 4
	note F_, 4
	note E_, 4
	note C_, 4
	note C#, 4
	note D#, 5
	note_type $6, $A, 2
	note G#, 1
	note A_, 1
	note B_, 1
	octave 4
	note C#, 1
	note D#, 1
	note E_, 1
	note F#, 6
	note B_, 2
	note E_, 2
	note D#, 2
	note E_, 12
	note D#, 4
	note D_, 1
	note D#, 7
	note E_, 8
	note C#, 4
	note D#, 4
	note E_, 6
	octave 3
	note A#, 1
	note B_, 1
	octave 4
	note C#, 1
	note D#, 1
	note F_, 1
	note F#, 1
	note G#, 6
	octave 3
	note A_, 2
	octave 4
	note A_, 2
	note G#, 4
	note A_, 10
	note B_, 4
	note A_, 4
	note G#, 2
	note A_, 2
	note F#, 2
	note C#, 6
	octave 3
	note F_, 14
	note A#, 1
	note B_, 1
	octave 4
	note C#, 1
	note D#, 1
	note F_, 1
	note F#, 1
	note G#, 6
	note B_, 2
	note F#, 2
	note E_, 2
	note F#, 12
	note E_, 2
	note D#, 2
	note E_, 6
	note F#, 4
	note E_, 2
	note D#, 4
	note C#, 4
	octave 3
	note B_, 2
	octave 4
	note C#, 6
	duty_cycle 3
	volume_envelope $A, 6
	octave 3
	note B_, 12
	note A_, 12
	note D_, 8
	note E_, 12
	note F#, 8
	note A_, 8
	note B_, 6
	duty_cycle 0
	volume_envelope $A, 2
	note G#, 1
	note A_, 1
	note B_, 1
	octave 4
	note C#, 1
	note D#, 1
	note E_, 1
	note F#, 10
	note E_, 4
	octave 3
	note B_, 2
	octave 4
	note D#, 2
	note E_, 6
	note D#, 4
	note D_, 1
	note D#, 7
	note E_, 8
	note C#, 4
	note D#, 4
	note E_, 6
	octave 3
	note A#, 1
	note B_, 1
	octave 4
	note C#, 1
	note D#, 1
	note F_, 1
	note F#, 1
	note G#, 6
	octave 3
	note A_, 4
	octave 4
	note G#, 4
	note C#, 2
	note G#, 2
	note A_, 6
	note B_, 4
	note A_, 4
	note G#, 2
	note A_, 2
	note F#, 2
	note C#, 2
	duty_cycle 2
	note F_, 2
	note C#, 2
	octave 3
	note B_, 2
	note G#, 2
	note F_, 2
	note B_, 2
	note G#, 2
	octave 4
	note C#, 4
	duty_cycle 0
	octave 3
	note A#, 1
	note B_, 1
	octave 4
	note C#, 1
	note D#, 1
	note F_, 1
	note F#, 1
	note G#, 6
	note B_, 2
	note F#, 2
	note E_, 2
	note F#, 12
	note E_, 2
	note D#, 2
	note E_, 6
	note F#, 4
	note E_, 2
	note D#, 4
	note C#, 4
	octave 3
	note B_, 2
	octave 4
	note C#, 6
	duty_cycle 3
	volume_envelope $A, 6
	octave 3
	note B_, 12
	note A_, 12
	note D_, 8
	note E_, 12
	note F#, 8
	note A_, 8
	note B_, 4
	duty_cycle 0
	volume_envelope $A, 4
	octave 4
	note G#, 8
	note E_, 8
	note F#, 6
	octave 5
	note C_, 2
	octave 4
	note A_, 2
	note E_, 6
	note F#, 8
	note G#, 8
	note A_, 8
	note B_, 8
	note A_, 8
	note B_, 8
	note F#, 6
	note A_, 2
	note F#, 2
	note D#, 6
	note E_, 8
	note F#, 8
	note G#, 8
	note B_, 8
	note G#, 16
	note F#, 8
	note F#, 8
	note F#, 8
	note F#, 8
	note B_, 8
	note G#, 8
	note A_, 8
	note F#, 8
	note D#, 8
	note F#, 8
	sound_loop 0, Music_Sandgem_Ch1_loop

Music_Sandgem_Ch2:
	pitch_offset $0001
	vibrato $08, $2, $4
Music_Sandgem_Ch2_loop:
	duty_cycle 1
	octave 4
	note_type $C, $B, 6
	note E_, 4
	note C_, 4
	note D_, 4
	note C_, 4
	octave 3
	note B_, 4
	note G_, 4
	note A_, 4
	note B_, 4
	octave 4
	note F_, 1
	note F#, 6
	note E_, 1
	note E_, 8
	note D#, 2
	note D#, 4
	note E_, 4
	note C#, 2
	note D#, 2
	note E_, 2
	note_type $6, $B, 6
	note G_, 1
	note G#, 11
	note A_, 4
	note_type $F, $B, 6
	note C#, 16
	note_type $C, $B, 6
	note C#, 4
	note G#, 6
	note F#, 2
	note F#, 6
	note E_, 2
	note_type $6, $B, 6
	note D#, 1
	note E_, 13
	note D#, 2
	note D#, 10
	note C#, 6
	octave 3
	note B_, 8
	note D_, 4
	octave 4
	note D_, 8
	note C_, 4
	octave 3
	note B_, 4
	note A_, 4
	note G_, 4
	note F#, 4
	note E_, 4
	note F#, 8
	note A_, 4
	note E_, 1
	note F#, 1
	note G#, 1
	note A_, 1
	note B_, 1
	octave 4
	note C#, 1
	note D#, 1
	note E_, 1
	note F#, 14
	note G#, 2
	note E_, 2
	note D#, 2
	note E_, 12
	note D#, 4
	note D#, 8
	note E_, 8
	note C#, 4
	note D#, 4
	note E_, 4
	note G#, 14
	note A_, 2
	note_type $F, $B, 6
	note C#, 16
	note_type $C, $B, 6
	note C#, 4
	note G#, 7
	note B_, 1
	note F#, 6
	note E_, 2
	note_type $6, $B, 6
	note D#, 1
	note E_, 11
	note D#, 4
	note D#, 4
	note C#, 4
	octave 3
	note B_, 2
	octave 4
	note C#, 6
	octave 3
	note B_, 8
	note D_, 4
	octave 4
	note D_, 8
	note C_, 4
	octave 3
	note B_, 4
	note A_, 4
	note G_, 4
	note F#, 4
	note E_, 4
	note F#, 8
	note A_, 4
	note B_, 2
	octave 4
	note D#, 2
	duty_cycle 2
	note B_, 2
	octave 5
	note C_, 2
	note C#, 6
	octave 4
	note A_, 6
	note E_, 16
	octave 5
	note C#, 2
	note D#, 2
	octave 4
	note B_, 10
	note D#, 4
	note E_, 2
	note B_, 12
	note A_, 2
	note G#, 2
	note A_, 6
	note E_, 6
	note C#, 4
	note D#, 6
	octave 3
	note B_, 6
	octave 5
	note C#, 2
	note D#, 2
	octave 4
	note B_, 10
	note D#, 4
	note E_, 2
	note B_, 12
	note A_, 2
	note B_, 2
	octave 5
	note C#, 6
	octave 4
	note A_, 6
	note E_, 2
	octave 5
	note E_, 6
	note F#, 4
	note D#, 4
	note C#, 4
	octave 4
	note B_, 6
	note G#, 6
	octave 5
	note D_, 4
	note C#, 12
	octave 4
	note A_, 2
	note G#, 2
	note A_, 6
	note E_, 6
	note C#, 4
	octave 3
	note B_, 6
	octave 4
	note F#, 6
	note D#, 4
	sound_loop 0, Music_Sandgem_Ch2_loop

Music_Sandgem_Ch3:
Music_Sandgem_Ch3_loop:
	note_type $C, $1, $2
	octave 2
	note F_, 8
	rest 3
	octave 3
	note F_, 3
	note D_, 2
	note C_, 1
	octave 2
	note C_, 1
	rest 1
	note C_, 1
	octave 3
	note C_, 1
	note D_, 1
	note C_, 2
	octave 2
	note B_, 1
	octave 1
	note B_, 1
	rest 1
	note B_, 1
	note B_, 2
	octave 2
	note D#, 2
	note E_, 2
	rest 5
	note D#, 1
	note E_, 2
	rest 5
	note D#, 1
	note E_, 1
	rest 1
	note E_, 2
	note E_, 1
	octave 3
	note_type $6, $1, $2
	note E_, 1
	rest 1
	octave 2
	note B_, 2
	note F#, 2
	note E_, 2
	rest 2
	octave 1
	note B_, 4
	rest 4
	octave 2
	note F_, 4
	note F#, 4
	rest 10
	note F_, 2
	note F#, 4
	rest 8
	note F_, 4
	note F#, 4
	note C#, 2
	rest 2
	note F_, 4
	rest 2
	note F#, 2
	rest 4
	note C#, 8
	note A#, 4
	note B_, 4
	rest 10
	note A#, 2
	note B_, 5
	rest 9
	note A#, 2
	note B_, 2
	rest 2
	note B_, 4
	rest 2
	note B_, 2
	rest 2
	octave 3
	note F#, 2
	octave 2
	note F#, 4
	note E_, 2
	rest 2
	note D#, 2
	note C#, 6
	note D_, 8
	rest 4
	note D_, 8
	octave 3
	note D_, 2
	octave 2
	note B_, 2
	note D_, 8
	octave 1
	note B_, 8
	rest 4
	octave 2
	note B_, 8
	note A_, 2
	note B_, 2
	note F#, 4
	note F_, 2
	note F#, 2
	note E_, 5
	rest 9
	note D#, 2
	note E_, 4
	rest 10
	note D#, 2
	note E_, 2
	rest 2
	note E_, 4
	note E_, 2
	octave 3
	note E_, 1
	rest 1
	octave 2
	note B_, 2
	note F#, 2
	note E_, 2
	rest 2
	octave 1
	note B_, 4
	rest 4
	octave 2
	note F_, 4
	note F#, 4
	rest 10
	note F_, 2
	note F#, 4
	rest 8
	note F_, 4
	note F#, 4
	note C#, 2
	rest 2
	note F_, 4
	rest 2
	note F#, 2
	rest 4
	note C#, 8
	note A#, 4
	note B_, 4
	rest 10
	note A#, 2
	note B_, 5
	rest 9
	note A#, 2
	note B_, 2
	rest 2
	note B_, 4
	rest 2
	octave 3
	note F#, 2
	rest 2
	octave 2
	note B_, 2
	note F#, 4
	note E_, 2
	rest 2
	note D#, 2
	note C#, 6
	note D_, 8
	rest 4
	note D_, 8
	octave 3
	note D_, 2
	octave 2
	note B_, 2
	note D_, 8
	octave 1
	note B_, 8
	rest 4
	octave 2
	note B_, 7
	rest 1
	note A_, 2
	note B_, 2
	note F_, 2
	note F#, 2
	note A#, 2
	note B_, 2
	note A_, 4
	rest 2
	note A_, 10
	note A_, 4
	rest 2
	note E_, 2
	note A_, 4
	note B_, 2
	octave 3
	note C#, 2
	octave 2
	note G#, 5
	rest 1
	note G#, 2
	rest 8
	note B_, 2
	note G#, 2
	rest 2
	octave 3
	note D_, 6
	note E_, 4
	octave 2
	note F#, 4
	rest 2
	note F#, 2
	rest 8
	note F#, 4
	rest 2
	octave 1
	note B_, 2
	octave 2
	note D#, 2
	note F#, 2
	note B_, 4
	note E_, 4
	rest 2
	note E_, 2
	note E_, 2
	octave 3
	note E_, 2
	rest 2
	octave 2
	note B_, 2
	note G#, 2
	note B_, 2
	rest 2
	octave 3
	note D_, 6
	note C#, 2
	octave 2
	note G#, 2
	note A_, 2
	octave 3
	note C#, 2
	rest 2
	note E_, 8
	note C#, 2
	octave 2
	note A_, 4
	rest 2
	note E_, 2
	rest 2
	octave 3
	note C_, 2
	rest 2
	octave 2
	note A_, 2
	note G#, 5
	rest 1
	note G#, 2
	rest 8
	note G#, 4
	rest 2
	note F_, 2
	rest 4
	note G#, 2
	octave 3
	note C#, 2
	octave 2
	note F#, 4
	rest 2
	note F#, 2
	rest 8
	note F#, 4
	rest 2
	note F#, 2
	rest 2
	note D#, 4
	note F#, 2
	sound_loop 0, Music_Sandgem_Ch3_loop

Music_Sandgem_Ch4:
	drum_speed $C
	rest 16
	toggle_noise 3
Music_Sandgem_Ch4_loop:
	drum_note 7, 4
	drum_note 7, 4
	drum_note 7, 2
	drum_note 11, 1
	drum_note 11, 1
	drum_note 1, 4
	drum_note 11, 2
	drum_note 8, 2
	drum_note 1, 2
	drum_note 8, 1
	drum_note 11, 1
	drum_note 11, 2
	drum_note 8, 2
	drum_note 1, 2
	drum_note 8, 1
	drum_note 11, 1
	drum_note 11, 2
	drum_note 1, 1
	drum_note 8, 1
	drum_note 11, 1
	drum_note 1, 1
	drum_note 8, 1
	drum_note 11, 1
	drum_note 8, 4
	drum_note 11, 4
	drum_note 11, 2
	drum_note 8, 2
	drum_note 1, 2
	drum_note 8, 1
	drum_note 11, 1
	drum_note 8, 2
	drum_note 11, 2
	drum_note 1, 2
	drum_note 8, 2
	drum_note 11, 2
	drum_note 11, 1
	drum_note 8, 1
	drum_note 11, 1
	drum_note 8, 1
	drum_note 11, 1
	drum_note 1, 1
	drum_note 8, 2
	drum_note 11, 2
	drum_note 1, 4
	drum_note 11, 2
	drum_note 8, 2
	drum_note 1, 2
	drum_note 8, 1
	drum_note 11, 1
	drum_note 11, 2
	drum_note 8, 2
	drum_note 1, 2
	drum_note 8, 1
	drum_note 11, 1
	drum_note 11, 2
	drum_note 11, 2
	drum_note 1, 1
	drum_note 11, 1
	drum_note 8, 1
	drum_note 11, 1
	drum_note 11, 2
	drum_note 8, 2
	drum_note 1, 3
	drum_note 11, 1
	drum_note 11, 4
	drum_note 11, 4
	drum_note 11, 4
	drum_note 11, 4
	drum_note 11, 4
	drum_note 11, 4
	drum_note 11, 4
	drum_note 1, 1
	drum_note 1, 1
	drum_note 1, 1
	drum_note 1, 1
	drum_note 11, 2
	drum_note 8, 2
	drum_note 1, 2
	drum_note 8, 1
	drum_note 11, 1
	drum_note 11, 2
	drum_note 8, 2
	drum_note 1, 2
	drum_note 8, 1
	drum_note 11, 1
	drum_note 11, 2
	drum_note 1, 1
	drum_note 8, 1
	drum_note 11, 1
	drum_note 1, 1
	drum_note 8, 1
	drum_note 11, 1
	drum_note 8, 4
	drum_note 11, 4
	drum_note 11, 2
	drum_note 8, 2
	drum_note 1, 2
	drum_note 8, 1
	drum_note 11, 1
	drum_note 8, 2
	drum_note 11, 2
	drum_note 1, 2
	drum_note 8, 2
	drum_note 11, 2
	drum_note 11, 1
	drum_note 8, 1
	drum_note 11, 1
	drum_note 8, 1
	drum_note 11, 1
	drum_note 1, 1
	drum_note 8, 2
	drum_note 11, 2
	drum_note 1, 2
	drum_note 8, 1
	drum_note 8, 1
	drum_note 11, 2
	drum_note 8, 2
	drum_note 1, 2
	drum_note 8, 1
	drum_note 11, 1
	drum_note 11, 2
	drum_note 8, 2
	drum_note 1, 2
	drum_note 8, 1
	drum_note 11, 1
	drum_note 11, 2
	drum_note 11, 2
	drum_note 1, 1
	drum_note 11, 1
	drum_note 8, 1
	drum_note 11, 1
	drum_note 11, 2
	drum_note 8, 2
	drum_note 1, 3
	drum_note 11, 1
	drum_note 11, 4
	drum_note 11, 4
	drum_note 11, 4
	drum_note 11, 4
	drum_note 11, 4
	drum_note 11, 4
	drum_note 11, 4
	drum_note 1, 1
	drum_note 1, 1
	drum_note 1, 1
	drum_note 1, 1
	drum_note 11, 1
	drum_note 7, 1
	drum_note 5, 1
	drum_note 11, 1
	drum_note 1, 2
	drum_note 11, 2
	drum_note 7, 1
	drum_note 7, 1
	drum_note 5, 1
	drum_note 11, 1
	drum_note 1, 2
	drum_note 5, 2
	drum_note 11, 1
	drum_note 7, 1
	drum_note 7, 1
	drum_note 11, 1
	drum_note 1, 2
	drum_note 11, 2
	drum_note 7, 1
	drum_note 7, 1
	drum_note 5, 1
	drum_note 11, 1
	drum_note 1, 2
	drum_note 11, 1
	drum_note 1, 1
	drum_note 11, 1
	drum_note 7, 1
	drum_note 5, 1
	drum_note 11, 1
	drum_note 1, 2
	drum_note 11, 2
	drum_note 7, 1
	drum_note 7, 1
	drum_note 5, 1
	drum_note 11, 1
	drum_note 1, 2
	drum_note 5, 2
	drum_note 11, 1
	drum_note 7, 1
	drum_note 5, 1
	drum_note 11, 1
	drum_note 1, 2
	drum_note 11, 1
	drum_note 1, 1
	drum_note 11, 1
	drum_note 1, 1
	drum_note 5, 1
	drum_note 11, 1
	drum_note 1, 2
	drum_note 1, 1
	drum_note 1, 1
	drum_note 11, 1
	drum_note 11, 1
	drum_note 1, 1
	drum_note 11, 1
	drum_note 1, 2
	drum_note 1, 1
	drum_note 1, 2
	drum_note 7, 1
	drum_note 5, 1
	drum_note 11, 1
	drum_note 1, 2
	drum_note 5, 2
	drum_note 11, 1
	drum_note 7, 1
	drum_note 7, 1
	drum_note 11, 1
	drum_note 1, 2
	drum_note 11, 1
	drum_note 1, 1
	drum_note 7, 1
	drum_note 7, 1
	drum_note 5, 1
	drum_note 11, 1
	drum_note 1, 2
	drum_note 11, 1
	drum_note 1, 1
	drum_note 11, 1
	drum_note 7, 1
	drum_note 5, 1
	drum_note 11, 1
	drum_note 1, 2
	drum_note 11, 2
	drum_note 7, 1
	drum_note 7, 1
	drum_note 5, 1
	drum_note 11, 1
	drum_note 1, 2
	drum_note 5, 2
	drum_note 11, 1
	drum_note 7, 1
	drum_note 7, 1
	drum_note 11, 1
	drum_note 1, 2
	drum_note 11, 1
	drum_note 1, 1
	drum_note 7, 1
	drum_note 7, 1
	drum_note 5, 1
	drum_note 11, 1
	drum_note 1, 2
	drum_note 11, 1
	drum_note 1, 1
	sound_loop 0, Music_Sandgem_Ch4_loop
