Music_FollowMe:
	channel_count 4
	channel 1, Music_FollowMe_Ch1
	channel 2, Music_FollowMe_Ch2
	channel 3, Music_FollowMe_Ch3
	channel 4, Music_FollowMe_Ch4

Music_FollowMe_Ch1:
	volume $7, $7
	stereo_panning TRUE, TRUE
	tempo $A0
	duty_cycle 2
	pitch_offset $0002
	octave 4
	note_type $C, $A, 2
	note E_, 2
	note C#, 2
	octave 3
	note A_, 2
	octave 4
	note C#, 2
	octave 3
	note A_, 2
	note G_, 2
	note E_, 2
	octave 2
	note A_, 2
	octave 3
	note C#, 2
	rest 2
	note E_, 1
	note A_, 1
	octave 4
	note C#, 1
	note E_, 1
	note G_, 1
	octave 2
	note A_, 2
	note A_, 1
	note A_, 1
	note A#, 1
	note B_, 1
	octave 3
	note C#, 1
Music_FollowMe_Ch1_loop:
	octave 2
	note A_, 2
	octave 3
	note D_, 2
	note F#, 1
	octave 2
	note A_, 2
	note A_, 1
	octave 3
	note D_, 2
	note G_, 2
	note B_, 1
	note D_, 2
	note D_, 1
	octave 2
	note A_, 2
	octave 3
	note D_, 2
	note F#, 1
	octave 2
	note A_, 2
	note A_, 1
	octave 3
	note E_, 2
	note D_, 2
	octave 2
	note A_, 1
	note A_, 1
	note B_, 1
	octave 3
	note C#, 1
	octave 2
	note F#, 2
	note A_, 2
	octave 3
	note D_, 1
	octave 2
	note A_, 2
	note A_, 1
	octave 3
	note D_, 2
	note G_, 2
	note B_, 1
	note D_, 1
	note B_, 1
	note G_, 1
	note A_, 2
	note E_, 2
	note G_, 2
	note A_, 2
	note F#, 1
	rest 1
	note F#, 1
	rest 1
	note F#, 1
	note G_, 1
	note G#, 1
	note_type $9, $A, 2
	note A_, 2
	volume_envelope $8, 1
	note_type $C, $8, 1
	note D_, 2
	note F#, 2
	note A_, 1
	note A_, 1
	octave 4
	note A_, 2
	octave 2
	note A_, 2
	octave 3
	note C#, 2
	note E_, 1
	note E_, 1
	octave 5
	note_type $9, $8, 1
	note C#, 2
	volume_envelope $A, 2
	octave 3
	note_type $C, $A, 2
	note D_, 2
	note F#, 2
	note A_, 1
	octave 4
	note D_, 1
	note F#, 1
	note A_, 1
	octave 3
	note D_, 2
	note G_, 2
	note B_, 1
	octave 4
	note D_, 1
	note G_, 1
	note B_, 1
	octave 3
	note D_, 2
	note F#, 2
	note A_, 1
	octave 4
	note D_, 1
	note F#, 1
	note D_, 1
	note C#, 1
	note C_, 1
	octave 3
	note B_, 1
	note A#, 1
	note A_, 1
	note A#, 1
	note B_, 1
	octave 4
	note C#, 1
	octave 3
	note D_, 2
	note F#, 2
	note A_, 1
	octave 4
	note D_, 1
	note F#, 1
	note D_, 1
	octave 3
	note D_, 2
	note G_, 2
	note B_, 1
	octave 4
	note D_, 1
	note F#, 1
	note D_, 1
	note C#, 1
	note C_, 1
	octave 3
	note B_, 1
	note A#, 1
	note A_, 1
	note G_, 1
	note F#, 1
	note E_, 1
	note F#, 1
	rest 1
	note G_, 1
	rest 1
	note F#, 1
	octave 2
	note A_, 1
	note B_, 1
	octave 3
	note C#, 1
	sound_loop 0, Music_FollowMe_Ch1_loop

Music_FollowMe_Ch2:
	duty_cycle 2
	pitch_offset $0001
	octave 4
	note_type $C, $B, 2
	note A_, 2
	note G_, 2
	note F#, 2
	note G_, 2
	note F#, 2
	note E_, 2
	note D_, 2
	note C#, 2
	octave 3
	note A_, 2
	rest 2
	note A_, 1
	octave 4
	note C#, 1
	note E_, 1
	note G_, 1
	note A_, 1
	octave 3
	note A_, 2
	note A_, 1
	note A_, 2
	octave 4
	note A_, 2
Music_FollowMe_Ch2_loop:
	octave 3
	note D_, 2
	note F#, 2
	note A_, 2
	rest 2
	note G_, 2
	note B_, 2
	octave 4
	note D_, 2
	rest 2
	octave 3
	note D_, 2
	note F#, 2
	note A_, 2
	rest 2
	note G_, 2
	note F#, 2
	note E_, 2
	rest 2
	note D_, 2
	note F#, 2
	note A_, 2
	rest 2
	note G_, 2
	note B_, 2
	octave 4
	note D_, 2
	note D_, 2
	note C#, 2
	octave 3
	note A_, 2
	note B_, 2
	octave 4
	note C#, 2
	note D_, 1
	rest 1
	note D_, 1
	rest 1
	note D_, 1
	rest 3
	duty_cycle 3
	volume_envelope $B, 1
	octave 3
	note D_, 2
	note F#, 2
	note A_, 1
	note A_, 1
	octave 4
	note A_, 2
	octave 2
	note A_, 2
	octave 3
	note C#, 2
	note E_, 1
	note E_, 1
	octave 5
	note C#, 2
	duty_cycle 2
	volume_envelope $B, 2
	octave 4
	note F#, 2
	note D_, 2
	note D_, 2
	rest 2
	note B_, 2
	note D_, 2
	note D_, 2
	rest 2
	note A_, 2
	note D_, 2
	note D_, 2
	rest 2
	note E_, 2
	note C#, 2
	note C#, 2
	rest 2
	note F#, 2
	note D_, 2
	note D_, 2
	rest 2
	note B_, 2
	note D_, 2
	note D_, 2
	note A_, 2
	note G_, 2
	note E_, 2
	note D_, 2
	note C#, 2
	note D_, 1
	rest 1
	note D_, 1
	rest 1
	note D_, 1
	rest 3
	sound_loop 0, Music_FollowMe_Ch2_loop

Music_FollowMe_Ch3:
	octave 2
	note_type $C, $1, $3
	note A_, 1
	rest 3
	note A_, 1
	rest 3
	note A_, 1
	rest 3
	note A_, 1
	rest 3
	note A_, 1
	rest 3
	note A_, 1
	octave 3
	note C#, 1
	note E_, 1
	note G_, 1
	octave 2
	note A_, 1
	note A_, 1
	rest 1
	note A_, 1
	note A_, 1
	note G_, 1
	note F#, 1
	note E_, 1
Music_FollowMe_Ch3_loop:
	note D_, 1
	rest 2
	note D_, 1
	octave 3
	note D_, 1
	rest 1
	octave 2
	note D_, 1
	rest 1
	note G_, 1
	rest 2
	note G_, 1
	octave 3
	note D_, 1
	rest 1
	octave 2
	note G_, 1
	rest 1
	note D_, 1
	rest 2
	note D_, 1
	octave 3
	note D_, 1
	rest 1
	octave 2
	note D_, 1
	rest 1
	note A_, 1
	rest 1
	note A_, 1
	rest 1
	note B_, 1
	rest 1
	octave 3
	note C#, 1
	rest 1
	note D_, 1
	rest 2
	note D_, 1
	octave 2
	note A_, 1
	rest 1
	note D_, 1
	rest 1
	octave 3
	note D_, 1
	rest 2
	note D_, 1
	octave 2
	note G_, 1
	rest 1
	note B_, 1
	rest 1
	note A_, 1
	rest 1
	note A_, 1
	rest 1
	note G_, 1
	rest 1
	note E_, 1
	rest 1
	note D_, 1
	rest 1
	note D_, 1
	rest 1
	octave 3
	note D_, 1
	rest 1
	octave 2
	note A_, 1
	rest 1
	note D_, 1
	rest 1
	note D_, 1
	rest 1
	note A_, 1
	rest 1
	octave 3
	note D_, 1
	rest 1
	octave 1
	note A_, 1
	rest 1
	note A_, 1
	rest 1
	octave 2
	note E_, 1
	rest 1
	octave 3
	note C#, 1
	rest 1
	octave 2
	note D_, 1
	rest 1
	note A_, 1
	rest 1
	octave 3
	note D_, 1
	octave 2
	note D_, 1
	rest 1
	note A_, 1
	note G_, 1
	rest 1
	note B_, 1
	rest 1
	octave 3
	note D_, 1
	octave 2
	note D_, 1
	rest 1
	note B_, 1
	note D_, 1
	rest 1
	note A_, 2
	octave 3
	note D_, 1
	octave 2
	note D_, 1
	rest 1
	note A_, 1
	octave 3
	note C#, 1
	note C_, 1
	octave 2
	note B_, 1
	note A#, 1
	note A_, 1
	note G_, 1
	note F#, 1
	note E_, 1
	note D_, 1
	rest 1
	note A_, 1
	rest 1
	octave 3
	note D_, 1
	octave 2
	note D_, 1
	rest 1
	note A_, 1
	note G_, 1
	rest 1
	note B_, 1
	rest 1
	octave 3
	note D_, 1
	octave 2
	note G_, 2
	note B_, 1
	note A_, 1
	rest 1
	note A#, 1
	rest 1
	note B_, 1
	rest 1
	octave 3
	note C#, 1
	rest 1
	note D_, 1
	rest 1
	note D_, 1
	rest 1
	note D_, 1
	octave 2
	note A_, 1
	note G_, 1
	note E_, 1
	sound_loop 0, Music_FollowMe_Ch3_loop

Music_FollowMe_Ch4:
	toggle_noise 3
	drum_speed $C
	drum_note 3, 2
	drum_note 4, 2
	drum_note 3, 2
	drum_note 4, 2
	drum_note 3, 2
	drum_note 4, 2
	drum_note 3, 2
	drum_note 4, 2
	drum_note 3, 2
	drum_note 4, 2
	drum_note 3, 2
	drum_note 4, 2
	drum_note 4, 2
	drum_note 3, 2
	drum_note 3, 1
	drum_note 3, 1
	drum_note 4, 2
Music_FollowMe_Ch4_loop:
	drum_note 4, 2
	drum_note 4, 2
	drum_note 3, 2
	drum_note 4, 2
	drum_note 4, 2
	drum_note 4, 2
	drum_note 3, 2
	drum_note 4, 2
	drum_note 4, 2
	drum_note 4, 2
	drum_note 3, 2
	drum_note 4, 2
	drum_note 4, 2
	drum_note 4, 2
	drum_note 3, 2
	drum_note 4, 2
	drum_note 4, 2
	drum_note 4, 2
	drum_note 3, 2
	drum_note 4, 2
	drum_note 4, 2
	drum_note 4, 2
	drum_note 3, 2
	drum_note 4, 2
	drum_note 4, 2
	drum_note 4, 2
	drum_note 3, 2
	drum_note 4, 2
	drum_note 3, 2
	drum_note 3, 2
	drum_note 3, 2
	drum_note 4, 2
	drum_note 3, 2
	drum_note 4, 2
	drum_note 3, 2
	drum_note 4, 2
	drum_note 4, 2
	drum_note 3, 2
	drum_note 3, 1
	drum_note 3, 1
	drum_note 4, 2
	drum_note 4, 2
	drum_note 4, 2
	drum_note 3, 2
	drum_note 4, 2
	drum_note 4, 2
	drum_note 4, 2
	drum_note 3, 2
	drum_note 4, 2
	drum_note 4, 2
	drum_note 4, 2
	drum_note 3, 2
	drum_note 4, 2
	drum_note 4, 2
	drum_note 4, 2
	drum_note 3, 2
	drum_note 4, 2
	drum_note 4, 2
	drum_note 4, 2
	drum_note 3, 2
	drum_note 4, 2
	drum_note 4, 2
	drum_note 4, 2
	drum_note 3, 2
	drum_note 4, 2
	drum_note 4, 2
	drum_note 4, 2
	drum_note 3, 2
	drum_note 4, 2
	drum_note 3, 2
	drum_note 3, 2
	drum_note 3, 2
	drum_note 4, 2
	sound_loop 0, Music_FollowMe_Ch4_loop
