Music_PokemonCenter:
	channel_count 4
	channel 1, Music_PokemonCenter_Ch1
	channel 2, Music_PokemonCenter_Ch2
	channel 3, Music_PokemonCenter_Ch3
	channel 4, Music_PokemonCenter_Ch4

Music_PokemonCenter_Ch1:
	volume $7, $7
	stereo_panning TRUE, TRUE
	tempo $A8
	pitch_offset $0002
Music_PokemonCenter_Ch1_loop:
	octave 5
	note_type $C, $A, 1
	rest 1
	octave 4
	note E_, 1
	rest 1
	note B_, 1
	rest 3
	note B_, 1
	note E_, 1
	rest 3
	note E_, 2
	note B_, 1
	rest 2
	octave 3
	note B_, 1
	rest 1
	octave 4
	note F#, 1
	rest 1
	note B_, 1
	rest 1
	note F#, 1
	rest 1
	note F#, 1
	rest 1
	note D#, 1
	note A_, 1
	rest 1
	note B_, 1
	rest 2
	note F#, 1
	rest 1
	note B_, 1
	rest 1
	octave 3
	note B_, 1
	rest 1
	octave 4
	note B_, 1
	rest 1
	note A_, 1
	rest 1
	note F#, 1
	note D#, 1
	rest 1
	note B_, 1
	rest 2
	octave 3
	note B_, 1
	rest 1
	octave 4
	note E_, 1
	rest 1
	note G#, 1
	rest 1
	octave 3
	note B_, 1
	rest 1
	octave 4
	note E_, 1
	rest 1
	note E_, 1
	rest 1
	note G#, 1
	rest 1
	note B_, 1
	rest 1
	note G#, 1
	rest 1
	note E_, 1
	rest 2
	note E_, 1
	octave 3
	note B_, 1
	octave 4
	note E_, 1
	note B_, 1
	rest 2
	note E_, 1
	note B_, 1
	rest 3
	note A_, 1
	rest 1
	note E_, 1
	rest 2
	note E_, 1
	note C#, 1
	note E_, 1
	octave 5
	note C#, 1
	rest 1
	octave 4
	note A_, 1
	rest 1
	note A_, 1
	octave 5
	note C#, 1
	rest 2
	octave 4
	note F#, 1
	rest 1
	octave 3
	note B_, 1
	rest 2
	octave 4
	note F#, 1
	note A_, 1
	note B_, 1
	note D#, 1
	rest 2
	octave 3
	note B_, 1
	octave 4
	note A_, 1
	rest 5
	note E_, 1
	rest 1
	octave 3
	note B_, 1
	rest 1
	note E_, 1
	octave 2
	note B_, 1
	octave 3
	note E_, 1
	note G#, 1
	note B_, 1
	note E_, 1
	note G#, 1
	note B_, 1
	octave 4
	note E_, 3
	octave 3
	note B_, 1
	rest 2
	note B_, 3
	rest 2
	note B_, 1
	rest 2
	note B_, 3
	rest 2
	octave 4
	note C#, 1
	rest 2
	note C#, 3
	rest 2
	note C_, 1
	rest 2
	note C_, 3
	note D#, 1
	note D#, 1
	rest 1
	octave 3
	note B_, 1
	rest 1
	note B_, 2
	rest 1
	octave 4
	note C_, 1
	note C_, 1
	rest 1
	note F#, 1
	rest 1
	note F#, 2
	rest 1
	note G#, 1
	note G#, 1
	rest 1
	note C#, 1
	rest 1
	note C#, 2
	note C#, 1
	note D_, 1
	note D_, 1
	rest 1
	octave 3
	note B_, 1
	rest 1
	note B_, 1
	rest 1
	octave 4
	note E_, 1
	rest 2
	octave 2
	note B_, 1
	octave 3
	note B_, 1
	rest 2
	octave 2
	note G#, 1
	octave 3
	note G#, 1
	rest 2
	octave 2
	note E_, 1
	octave 3
	note E_, 1
	rest 2
	note D_, 1
	octave 4
	note D_, 1
	note C#, 1
	note C#, 1
	octave 3
	note A_, 1
	note A_, 1
	octave 4
	note C#, 1
	note C#, 1
	note E_, 1
	note E_, 1
	octave 3
	note A#, 1
	note G_, 1
	note E_, 1
	octave 2
	note A#, 1
	note G_, 1
	rest 3
	note B_, 2
	note B_, 2
	rest 2
	note B_, 2
	rest 2
	note B_, 6
	note B_, 1
	rest 1
	note B_, 1
	rest 1
	octave 3
	note C#, 1
	rest 1
	note D#, 1
	rest 1
	note E_, 1
	rest 1
	octave 2
	note E_, 1
	rest 1
	note G#, 1
	rest 1
	note B_, 1
	rest 1
	duty_cycle 2
	volume_envelope $9, 5
	octave 4
	note A_, 3
	note E_, 3
	note E_, 4
	note E_, 2
	note A_, 2
	note A_, 2
	note G#, 3
	note E_, 3
	note E_, 4
	note E_, 3
	note G#, 2
	note G#, 1
	note B_, 2
	note B_, 2
	note A#, 2
	note A_, 4
	note G#, 4
	note E_, 2
	note D#, 2
	note F#, 2
	note B_, 2
	note G#, 10
	duty_cycle 0
	sound_loop 0, Music_PokemonCenter_Ch1_loop

Music_PokemonCenter_Ch2:
	pitch_offset $0001
	vibrato $10, $2, $5
	duty_cycle 1
Music_PokemonCenter_Ch2_loop:
	octave 3
	note_type $C, $C, 2
	note E_, 2
	octave 2
	note B_, 2
	octave 3
	note E_, 2
	note B_, 4
	note A_, 3
	note G#, 3
	note F#, 2
	note D#, 14
	note D#, 2
	octave 2
	note B_, 2
	octave 3
	note D#, 2
	note G#, 4
	note F#, 3
	note D#, 3
	note E_, 2
	note G#, 14
	note E_, 2
	octave 2
	note B_, 2
	octave 3
	note E_, 1
	note B_, 5
	note A_, 4
	note G#, 2
	note F#, 1
	note D#, 15
	note D#, 2
	octave 2
	note B_, 2
	octave 3
	note D#, 1
	note G#, 5
	note F#, 4
	note D#, 2
	note D#, 1
	note E_, 15
	volume_envelope $B, 7
	octave 4
	note G#, 8
	note B_, 8
	note A_, 2
	note B_, 2
	note A_, 2
	note G#, 2
	note F#, 8
	note D#, 8
	note F#, 8
	note G#, 2
	note A_, 2
	note G#, 2
	note F#, 2
	note E_, 8
	note G#, 2
	note G#, 4
	note B_, 4
	note B_, 6
	note A_, 2
	note G#, 2
	note A_, 2
	note B_, 2
	octave 5
	note C#, 8
	octave 4
	note B_, 4
	note A_, 2
	note G#, 2
	note A_, 8
	note G#, 2
	note A_, 2
	note G#, 2
	note F#, 2
	note E_, 2
	note G#, 2
	note B_, 2
	octave 5
	note E_, 2
	duty_cycle 2
	note E_, 3
	note C#, 3
	note C#, 4
	note C#, 2
	note E_, 2
	note E_, 2
	note E_, 3
	octave 4
	note B_, 3
	note B_, 4
	note B_, 3
	octave 5
	note E_, 2
	note E_, 1
	note D#, 2
	note D#, 2
	note D_, 2
	note C#, 4
	octave 4
	note B_, 4
	note G#, 2
	note A_, 2
	note B_, 2
	octave 5
	note D#, 2
	note E_, 4
	octave 4
	note B_, 3
	duty_cycle 1
	octave 3
	note B_, 3
	sound_loop 0, Music_PokemonCenter_Ch2_loop

Music_PokemonCenter_Ch3:
	note_type $C, $1, $2
Music_PokemonCenter_Ch3_loop:
	octave 2
	note E_, 1
	rest 1
	note E_, 1
	rest 1
	note F#, 1
	note G#, 1
	rest 1
	note E_, 1
	rest 1
	note E_, 1
	note B_, 1
	rest 2
	note C#, 1
	rest 1
	octave 1
	note B_, 1
	octave 2
	note D#, 1
	rest 1
	note D#, 1
	rest 1
	note F#, 1
	note B_, 1
	rest 1
	note D#, 1
	rest 1
	note D#, 1
	note B_, 1
	rest 2
	note C#, 1
	rest 1
	octave 1
	note B_, 1
	octave 2
	note F#, 1
	rest 2
	note F#, 1
	note A_, 1
	note B_, 1
	rest 1
	note F#, 1
	rest 1
	note D#, 1
	note B_, 1
	rest 2
	octave 1
	note B_, 1
	rest 1
	octave 2
	note D#, 1
	note E_, 1
	rest 1
	note E_, 1
	rest 1
	note G#, 1
	note B_, 1
	rest 1
	note E_, 1
	rest 1
	note E_, 1
	note B_, 1
	rest 2
	note C#, 1
	rest 1
	octave 1
	note B_, 1
	octave 2
	note E_, 1
	rest 1
	note E_, 1
	rest 1
	note G#, 1
	note B_, 1
	rest 1
	note E_, 1
	rest 2
	note E_, 1
	rest 2
	note E_, 1
	note C#, 1
	octave 1
	note B_, 1
	octave 2
	note E_, 1
	rest 1
	note E_, 1
	rest 1
	note A_, 1
	octave 3
	note C#, 1
	rest 1
	octave 2
	note E_, 1
	rest 2
	note E_, 1
	rest 2
	note E_, 1
	note C#, 1
	octave 1
	note A_, 1
	octave 2
	note F#, 1
	rest 1
	octave 1
	note B_, 1
	rest 1
	octave 2
	note A_, 1
	note B_, 1
	rest 1
	octave 1
	note B_, 1
	octave 2
	note D#, 1
	rest 1
	octave 1
	note B_, 1
	rest 1
	octave 2
	note A_, 1
	note B_, 1
	rest 1
	octave 1
	note B_, 1
	octave 2
	note E_, 1
	note E_, 1
	rest 1
	note F#, 1
	rest 1
	note G#, 1
	rest 1
	note E_, 1
	rest 1
	note E_, 1
	note B_, 1
	rest 2
	note C#, 1
	rest 1
	note D#, 1
	note E_, 1
	octave 3
	note E_, 2
	octave 2
	note E_, 1
	note B_, 1
	octave 3
	note E_, 1
	note E_, 1
	octave 2
	note B_, 1
	note F_, 1
	octave 3
	note F_, 2
	octave 2
	note F_, 1
	note B_, 1
	octave 3
	note F_, 1
	note F_, 1
	octave 2
	note B_, 1
	note F#, 1
	octave 3
	note F#, 2
	octave 2
	note F#, 1
	octave 3
	note C#, 1
	note F#, 1
	note F#, 1
	note C#, 1
	octave 2
	note E_, 1
	octave 3
	note E_, 2
	octave 2
	note E_, 1
	octave 3
	note C_, 1
	note E_, 1
	note E_, 1
	note C_, 1
	octave 1
	note B_, 1
	note B_, 1
	octave 3
	note D#, 1
	octave 2
	note F#, 1
	octave 3
	note D#, 1
	octave 2
	note F#, 1
	octave 1
	note B_, 1
	octave 3
	note D#, 1
	octave 2
	note C_, 1
	note C_, 1
	octave 3
	note D#, 1
	octave 2
	note F#, 1
	octave 3
	note D#, 1
	octave 2
	note F#, 1
	note C_, 1
	octave 3
	note D#, 1
	octave 2
	note C#, 1
	note C#, 1
	octave 3
	note E_, 1
	octave 2
	note G#, 1
	octave 3
	note E_, 1
	octave 2
	note G#, 1
	note C#, 1
	octave 3
	note E_, 1
	octave 1
	note B_, 1
	octave 2
	note D_, 1
	note E_, 1
	note B_, 1
	note E_, 1
	note G#, 1
	note B_, 1
	octave 3
	note D_, 1
	note E_, 1
	note E_, 1
	rest 1
	octave 2
	note B_, 1
	rest 1
	note E_, 1
	rest 2
	octave 3
	note D_, 1
	note D_, 1
	rest 1
	octave 2
	note B_, 1
	rest 1
	note E_, 1
	rest 1
	note G#, 1
	note A_, 1
	note A_, 1
	note E_, 1
	note E_, 1
	note A_, 1
	note A_, 1
	octave 3
	note C#, 1
	note C#, 1
	octave 2
	note A#, 1
	rest 4
	octave 3
	note E_, 1
	note C#, 1
	octave 2
	note A#, 1
	note B_, 1
	rest 1
	note B_, 1
	rest 1
	octave 3
	note E_, 1
	note F#, 1
	rest 1
	octave 2
	note B_, 1
	rest 1
	note A_, 1
	octave 1
	note B_, 1
	octave 2
	note F#, 1
	octave 1
	note B_, 1
	octave 2
	note E_, 1
	octave 1
	note B_, 1
	octave 2
	note A_, 1
	note B_, 1
	rest 1
	note B_, 1
	rest 1
	note A_, 1
	note B_, 1
	rest 1
	note F#, 1
	note E_, 1
	note E_, 1
	octave 1
	note B_, 1
	octave 3
	note E_, 1
	rest 1
	octave 2
	note B_, 1
	note E_, 1
	note B_, 1
	note A_, 1
	note A_, 2
	octave 3
	note C#, 1
	rest 2
	octave 2
	note E_, 1
	rest 1
	note A_, 1
	note A_, 2
	octave 3
	note C#, 1
	rest 2
	octave 2
	note E_, 1
	rest 1
	note G#, 1
	note G#, 2
	note B_, 1
	rest 2
	note E_, 1
	rest 1
	note G#, 1
	note G#, 2
	note B_, 1
	rest 2
	octave 3
	note E_, 1
	rest 1
	octave 2
	note B_, 1
	rest 1
	note B_, 1
	rest 1
	note A#, 1
	rest 1
	note A_, 1
	rest 3
	note G#, 1
	rest 2
	note E_, 1
	rest 1
	note E_, 1
	note B_, 1
	note B_, 1
	rest 2
	note F#, 1
	note B_, 1
	rest 1
	note E_, 1
	rest 1
	note E_, 1
	rest 1
	octave 3
	note E_, 1
	rest 1
	octave 2
	note B_, 1
	octave 1
	note B_, 1
	octave 2
	note B_, 1
	sound_loop 0, Music_PokemonCenter_Ch3_loop

Music_PokemonCenter_Ch4:
	toggle_noise 3
	drum_speed $C
Music_PokemonCenter_Ch4_loop:
	drum_note 4, 2
	drum_note 4, 2
	drum_note 1, 2
	drum_note 4, 2
	drum_note 4, 2
	drum_note 4, 2
	drum_note 1, 1
	drum_note 4, 2
	drum_note 4, 1
	drum_note 4, 2
	drum_note 4, 2
	drum_note 1, 1
	drum_note 4, 2
	drum_note 4, 2
	drum_note 1, 1
	drum_note 4, 2
	drum_note 1, 1
	drum_note 4, 3
	drum_note 4, 2
	drum_note 4, 2
	drum_note 1, 2
	drum_note 4, 2
	drum_note 4, 2
	drum_note 4, 2
	drum_note 1, 1
	drum_note 4, 2
	drum_note 4, 1
	drum_note 4, 2
	drum_note 4, 2
	drum_note 1, 1
	drum_note 4, 2
	drum_note 4, 1
	drum_note 4, 1
	drum_note 1, 2
	drum_note 4, 1
	drum_note 1, 1
	drum_note 4, 2
	drum_note 1, 1
	drum_note 4, 2
	drum_note 4, 2
	drum_note 1, 1
	drum_note 4, 2
	drum_note 4, 1
	drum_note 4, 2
	drum_note 1, 2
	drum_note 1, 1
	drum_note 4, 2
	drum_note 1, 1
	drum_note 4, 1
	drum_note 4, 2
	drum_note 4, 1
	drum_note 1, 2
	drum_note 4, 2
	drum_note 4, 2
	drum_note 4, 2
	drum_note 4, 1
	drum_note 1, 2
	drum_note 4, 1
	drum_note 4, 2
	drum_note 1, 2
	drum_note 1, 1
	drum_note 1, 2
	drum_note 4, 1
	drum_note 4, 2
	drum_note 4, 2
	drum_note 1, 2
	drum_note 4, 2
	drum_note 4, 1
	drum_note 4, 1
	drum_note 1, 2
	drum_note 4, 2
	drum_note 1, 2
	drum_note 1, 1
	drum_note 1, 1
	drum_note 4, 1
	drum_note 4, 1
	drum_note 1, 1
	drum_note 1, 1
	drum_note 4, 1
	drum_note 1, 1
	drum_note 4, 4
	drum_note 1, 2
	drum_note 4, 2
	drum_note 4, 4
	drum_note 1, 4
	drum_note 4, 4
	drum_note 1, 2
	drum_note 4, 2
	drum_note 4, 4
	drum_note 1, 4
	drum_note 4, 4
	drum_note 1, 2
	drum_note 4, 2
	drum_note 4, 4
	drum_note 1, 4
	drum_note 4, 4
	drum_note 1, 2
	drum_note 4, 2
	drum_note 4, 2
	drum_note 1, 2
	drum_note 4, 2
	drum_note 1, 2
	drum_note 4, 2
	drum_note 4, 2
	drum_note 1, 2
	drum_note 4, 2
	drum_note 1, 2
	drum_note 4, 2
	drum_note 1, 1
	drum_note 4, 1
	drum_note 1, 2
	drum_note 4, 2
	drum_note 4, 2
	drum_note 4, 2
	drum_note 4, 2
	drum_note 4, 8
	drum_note 4, 2
	drum_note 5, 1
	drum_note 4, 2
	drum_note 4, 1
	drum_note 5, 2
	drum_note 4, 2
	drum_note 5, 1
	drum_note 5, 1
	drum_note 4, 1
	drum_note 5, 1
	drum_note 4, 2
	drum_note 4, 2
	drum_note 4, 2
	drum_note 5, 1
	drum_note 5, 1
	drum_note 4, 2
	drum_note 4, 1
	drum_note 5, 3
	drum_note 5, 1
	drum_note 5, 3
	drum_note 4, 3
	drum_note 4, 1
	drum_note 1, 3
	drum_note 4, 3
	drum_note 4, 2
	drum_note 1, 3
	drum_note 4, 1
	drum_note 4, 3
	drum_note 4, 1
	drum_note 1, 3
	drum_note 4, 3
	drum_note 4, 2
	drum_note 1, 3
	drum_note 4, 1
	drum_note 4, 2
	drum_note 4, 2
	drum_note 4, 2
	drum_note 4, 2
	drum_note 1, 1
	drum_note 1, 1
	drum_note 4, 2
	drum_note 1, 1
	drum_note 4, 2
	drum_note 1, 1
	drum_note 1, 2
	drum_note 1, 2
	drum_note 1, 2
	drum_note 1, 2
	drum_note 4, 2
	drum_note 4, 2
	drum_note 1, 1
	drum_note 4, 2
	drum_note 1, 1
	sound_loop 0, Music_PokemonCenter_Ch4_loop
