Music_WinTrainerSinnoh:
	channel_count 3
	channel 1, Music_WinTrainerSinnoh_Ch1
	channel 2, Music_WinTrainerSinnoh_Ch2
	channel 3, Music_WinTrainerSinnoh_Ch3

Music_WinTrainerSinnoh_Ch1:
	tempo $7C
	volume $7, $7
	pitch_offset $0002
	note_type $C, $A, 2
	duty_cycle 2
	octave 1
	rest 12
	octave 5
	note D#, 1
	octave 4
	note D#, 1
	octave 3
	note D#, 1
	octave 2
	note D#, 1
Music_WinTrainerSinnoh_Ch1_loop:
	octave 1
	note D#, 1
	note D#, 1
	octave 2
	note D#, 1
	note D#, 1
	octave 1
	note D#, 1
	note D#, 1
	octave 3
	note D#, 1
	note D#, 1
	octave 1
	note D#, 1
	note D#, 1
	octave 2
	note D#, 1
	note D#, 1
	octave 1
	note D#, 1
	note D#, 1
	octave 3
	note D#, 1
	note D#, 1
	octave 1
	note D#, 1
	note D#, 1
	octave 2
	note D#, 1
	note D#, 1
	octave 1
	note D#, 1
	note D#, 1
	octave 3
	note D#, 1
	note D#, 1
	octave 1
	note D#, 1
	note D#, 1
	octave 2
	note D#, 1
	note D#, 1
	octave 1
	note D#, 1
	octave 2
	note D#, 1
	octave 3
	note D#, 1
	octave 4
	note D#, 1
	octave 1
	note D#, 1
	note D#, 1
	octave 2
	note D#, 1
	note D#, 1
	octave 1
	note D#, 1
	note D#, 1
	octave 3
	note D#, 1
	note D#, 1
	octave 1
	note D#, 1
	note D#, 1
	octave 2
	note D#, 1
	note D#, 1
	octave 1
	note D#, 1
	note D#, 1
	octave 3
	note D#, 1
	note D#, 1
	octave 1
	note D#, 1
	note D#, 1
	octave 2
	note D#, 1
	note D#, 1
	octave 1
	note D#, 1
	note D#, 1
	octave 3
	note D#, 1
	note D#, 1
	octave 1
	note D#, 1
	note D#, 1
	octave 2
	note D#, 1
	note D#, 1
	octave 1
	note D#, 1
	octave 2
	note D#, 1
	octave 3
	note D#, 1
	octave 4
	note D#, 1
	octave 1
	note D#, 1
	octave 2
	note D#, 1
	octave 1
	note D#, 1
	note D#, 1
	octave 4
	note D#, 1
	octave 3
	note D#, 1
	octave 2
	note D#, 1
	octave 1
	note D#, 1
	note D#, 1
	octave 2
	note D#, 1
	octave 1
	note D#, 1
	note D#, 1
	octave 4
	note D#, 1
	octave 3
	note D#, 1
	octave 2
	note D#, 1
	octave 1
	note D#, 1
	note D#, 1
	octave 2
	note D#, 1
	octave 1
	note D#, 1
	note D#, 1
	octave 4
	note D#, 1
	octave 3
	note D#, 1
	octave 2
	note D#, 1
	octave 1
	note D#, 1
	note D#, 1
	octave 2
	note D#, 1
	octave 1
	note D#, 1
	note D#, 1
	octave 4
	note D#, 1
	octave 3
	note D#, 1
	octave 2
	note D#, 1
	octave 1
	note D#, 1
	note D#, 1
	note D#, 1
	octave 2
	note D#, 1
	octave 3
	note D#, 1
	octave 1
	note D#, 1
	note D#, 1
	octave 2
	note D#, 1
	octave 3
	note D#, 1
	octave 2
	note D#, 1
	octave 1
	note D#, 1
	octave 2
	note D#, 1
	octave 3
	note D#, 1
	octave 4
	note D#, 1
	octave 3
	note D#, 1
	octave 2
	note D#, 1
	octave 1
	note D#, 1
	note D#, 1
	note D#, 1
	octave 2
	note D#, 1
	octave 3
	note D#, 1
	octave 1
	note D#, 1
	note D#, 1
	octave 2
	note D#, 1
	octave 3
	note D#, 1
	octave 2
	note D#, 1
	octave 1
	note D#, 1
	octave 2
	note D#, 1
	octave 3
	note D#, 1
	octave 4
	note D#, 1
	octave 3
	note D#, 1
	octave 2
	note D#, 1
	octave 1
	note D#, 1
	sound_loop 0, Music_WinTrainerSinnoh_Ch1_loop

Music_WinTrainerSinnoh_Ch2:
	note_type $C, $B, 2
	duty_cycle 1
	octave 4
	rest 8
	octave 5
	note G_, 1
	octave 4
	note A#, 1
	note G_, 1
	note D#, 1
	note G_, 1
	note D#, 1
	octave 3
	note A#, 1
	note G_, 1
Music_WinTrainerSinnoh_Ch2_loop:
	volume_envelope $9, 7
	octave 3
	note A#, 7
	octave 4
	note G_, 1
	octave 3
	note A_, 7
	octave 4
	note A_, 1
	octave 3
	note A#, 7
	octave 4
	note A#, 1
	octave 3
	note G#, 7
	octave 4
	note G#, 1
	octave 3
	note G_, 1
	octave 4
	note G_, 1
	octave 3
	note G_, 5
	octave 4
	note G_, 1
	octave 3
	note A_, 1
	octave 4
	note A_, 1
	octave 3
	note A_, 5
	octave 4
	note A_, 1
	octave 3
	note A#, 1
	octave 4
	note A#, 1
	octave 3
	note A#, 5
	octave 4
	note A#, 1
	octave 3
	note F#, 1
	octave 4
	note F#, 1
	octave 3
	note F#, 5
	volume_envelope $B, 1
	octave 5
	note F#, 1
	note G_, 1
	note G_, 1
	octave 4
	note A#, 1
	note A#, 1
	octave 5
	note D#, 1
	note D#, 1
	octave 4
	note A#, 1
	note A#, 1
	octave 5
	note G#, 1
	note G#, 1
	note C_, 1
	note C_, 1
	note F_, 1
	note F_, 1
	note C_, 1
	note C_, 1
	note A#, 1
	note A#, 1
	note C#, 1
	note C#, 1
	note F#, 1
	note F#, 1
	note C#, 1
	note C#, 1
	octave 6
	note C_, 1
	note C_, 1
	octave 5
	note D#, 1
	note D#, 1
	note G#, 1
	note G#, 1
	note D#, 1
	note D#, 1
	note A#, 1
	note A#, 1
	octave 4
	note A#, 1
	note A#, 1
	octave 5
	note D#, 1
	note D#, 1
	octave 4
	note D#, 1
	note D#, 1
	octave 5
	note G_, 1
	note G_, 1
	octave 4
	note A#, 1
	note A#, 1
	octave 5
	note D#, 1
	note D#, 1
	octave 4
	note D#, 1
	note D#, 1
	octave 5
	note G#, 1
	note G#, 1
	note C_, 1
	note C_, 1
	note F_, 1
	note F_, 1
	octave 4
	note G#, 1
	note G#, 1
	octave 5
	note D_, 1
	note D_, 1
	octave 4
	note D_, 1
	note D_, 1
	octave 5
	note G#, 1
	note G#, 1
	octave 4
	note G#, 1
	note G#, 1
	sound_loop 0, Music_WinTrainerSinnoh_Ch2_loop

Music_WinTrainerSinnoh_Ch3:
	note_type $C, $1, $2
	pitch_offset $0001
	vibrato $0E, $2, $5
	octave 5
	note A#, 1
	note_type $4, $1, $2
	rest 1
	note A#, 3
	rest 1
	note A#, 3
	rest 1
	note A#, 3
	rest 1
	octave 6
	note C_, 4
	note D_, 4
	note_type $C, $1, $2
	note D#, 8
Music_WinTrainerSinnoh_Ch3_loop:
	octave 5
	note D#, 4
	octave 4
	note A#, 2
	octave 5
	note D#, 2
	note F_, 4
	note C_, 2
	note F_, 2
	note G_, 4
	note G#, 2
	note A#, 2
	note F_, 4
	note G_, 2
	note G#, 2
	note D#, 3
	octave 4
	note A#, 3
	octave 5
	note D#, 2
	note F_, 3
	note C_, 3
	note F_, 2
	note G_, 3
	note G#, 3
	note A#, 2
	note F#, 3
	note G#, 3
	note A#, 2
	note D#, 2
	octave 4
	note A#, 2
	octave 5
	note D#, 2
	octave 4
	note A#, 2
	octave 5
	note F_, 2
	note C_, 2
	note F_, 2
	note C_, 2
	note F#, 2
	note C#, 2
	note F#, 2
	note C#, 2
	note G#, 2
	note D#, 2
	note G#, 2
	note D#, 2
	note G_, 16
	note F_, 16
	sound_loop 0, Music_WinTrainerSinnoh_Ch3_loop
