Music_JubilifeCity:
	channel_count 4
	channel 1, Music_JubilifeCity_Ch1
	channel 2, Music_JubilifeCity_Ch2
	channel 3, Music_JubilifeCity_Ch3
	channel 4, Music_JubilifeCity_Ch4

Music_JubilifeCity_Ch1:
	tempo 140
	stereo_panning FALSE, TRUE
	volume $7, $7
	pitch_offset $0002
Music_JubilifeCity_Loop1:
	note_type $4, $B, 3
	duty_cycle 2
	rest 16
	rest 16
	rest 4
	octave 3
	note A_, 12
	note D_, 12
	octave 2
	note A_, 12
	octave 3
	note D_, 4
	note D_, 8
	note A_, 16
	rest 16
	rest 16
	note A_, 12
	note C#, 12
	octave 2
	note A_, 12
	octave 3
	note C#, 4
	note C#, 8
	note F#, 16
	rest 4
	note E_, 12
	note G_, 12
	note F#, 8
	note D_, 16
	note F#, 12
	note B_, 8
	note E_, 8
	note A#, 16
	rest 16
	rest 16
	rest 8
	octave 4
	note B_, 4
	note A_, 12
	note G_, 12
	note F#, 12
	note E_, 12
	note D_, 12
	octave 3
	note A_, 16
	rest 16
	octave 4
	note B_, 4
	note A_, 12
	note G_, 12
	note F#, 12
	octave 3
	note D_, 4
	note E_, 4
	note F#, 4
	note G_, 8
	note D_, 8
	octave 4
	note D_, 8
	octave 3
	note G_, 8
	note A_, 8
	octave 4
	note D_, 8
	octave 3
	note G_, 12
	note D_, 12
	octave 2
	note A_, 12
	octave 3
	note C#, 16
	rest 8
	volume_envelope $B, 5
	note E_, 16
	rest 8
	octave 2
	note B_, 16
	rest 8
	octave 3
	note G_, 16
	rest 8
	note G#, 12
	note D#, 16
	rest 4
	note D#, 16
	rest 16
	rest 8
	note D#, 12
	note G#, 12
	note C_, 8
	note D#, 16
	rest 8
	note D#, 16
	rest 16
	rest 8
	note D#, 12
	note C#, 12
	note F#, 8
	note C#, 16
	note D#, 12
	note C_, 16
	rest 8
	note D#, 8
	note D#, 12
	note C_, 16
	rest 16
	rest 8
	octave 2
	note G_, 8
	note G_, 16
	octave 3
	note C_, 8
	note C_, 12
	note D#, 12
	note D#, 4
	note C_, 8
	note C_, 16
	note D#, 16
	rest 16
	rest 16
	note A#, 8
	note A#, 16
	note D#, 16
	rest 8
	note D_, 16
	rest 16
	rest 16
	rest 12
	note A_, 16
	rest 8
	note G_, 12
	sound_loop 0, Music_JubilifeCity_Loop1

Music_JubilifeCity_Ch2:
	stereo_panning TRUE, FALSE
	vibrato $12, $2, $3
	pitch_offset $0001
Music_JubilifeCity_Loop2:
	note_type $4, $C, 2
	duty_cycle 1
	rest 12
	octave 4
	note A_, 12
	note D_, 16
	rest 8
	note G_, 12
	note F#, 12
	note D_, 4
	octave 3
	note A_, 8
	octave 4
	note E_, 16
	rest 8
	note A_, 12
	note D_, 16
	rest 8
	note E_, 12
	note D_, 12
	octave 3
	note A_, 4
	note F#, 8
	note B_, 12
	note A_, 8
	octave 4
	note D_, 12
	note D_, 4
	note E_, 8
	note D_, 8
	octave 3
	note A_, 8
	note A#, 8
	note B_, 12
	octave 4
	note D_, 4
	note E_, 4
	octave 3
	note A#, 8
	octave 4
	note G_, 12
	note F#, 8
	note D_, 16
	octave 3
	note G_, 4
	note F#, 8
	octave 4
	note D_, 16
	rest 16
	rest 16
	rest 4
	note D_, 4
	note E_, 4
	note F#, 12
	note D_, 12
	note G_, 4
	note F#, 8
	note D_, 8
	octave 3
	note A_, 4
	octave 4
	note D_, 12
	octave 3
	note A_, 12
	octave 4
	note D_, 12
	note E_, 4
	note F#, 4
	note G_, 4
	note A_, 8
	note D_, 8
	octave 3
	note A_, 8
	octave 4
	note A_, 8
	note D_, 8
	octave 3
	note A_, 8
	octave 4
	note D_, 16
	rest 8
	note E_, 8
	note E_, 4
	note F#, 4
	note E_, 4
	note D_, 4
	volume_envelope $C, 6
	note C#, 16
	rest 8
	octave 3
	note B_, 16
	rest 8
	octave 4
	note C#, 16
	rest 8
	note D_, 16
	rest 16
	rest 4
	note F_, 12
	note D#, 12
	note F_, 4
	note D#, 4
	note G#, 4
	note A#, 8
	note A#, 8
	note G#, 16
	note D#, 4
	octave 3
	note B_, 4
	octave 4
	note C_, 4
	note C#, 4
	rest 12
	note F_, 12
	note D#, 12
	note F_, 4
	note D#, 4
	note G#, 4
	note A#, 8
	note A#, 8
	note G#, 16
	note D#, 4
	note C_, 4
	note C#, 4
	note D_, 4
	note D#, 8
	note D#, 12
	octave 3
	note G#, 4
	note G#, 16
	octave 4
	note C_, 4
	note C#, 4
	note F_, 8
	note D#, 12
	octave 3
	note G#, 4
	note G#, 8
	octave 4
	note C_, 8
	note C#, 8
	note D#, 16
	note C_, 4
	note D#, 4
	note G#, 16
	rest 8
	note A#, 16
	note C_, 4
	note D#, 4
	note A#, 12
	note G#, 12
	note G_, 8
	note G#, 12
	note G#, 12
	note G_, 8
	note G#, 4
	note A#, 4
	octave 5
	note C_, 12
	octave 4
	note G_, 8
	note G#, 8
	note G_, 8
	note G#, 4
	note A#, 8
	note G_, 16
	rest 4
	note C_, 4
	note C_, 16
	rest 8
	note D_, 4
	rest 4
	note E_, 4
	rest 8
	note F#, 4
	rest 8
	note G_, 4
	rest 12
	sound_loop 0, Music_JubilifeCity_Loop2
Music_JubilifeCity_Ch3:
	stereo_panning TRUE, TRUE
	vibrato $8, $2, $3
	note_type $4, $2, $0
Music_JubilifeCity_Loop3:
	octave 3
	note G_, 16
	note G_, 4
	note G_, 16
	note G_, 16
	note G_, 8
	note G_, 16
	note G_, 8
	note G_, 12
	note F#, 16
	note F#, 4
	note F#, 16
	note F#, 16
	note F#, 8
	note F#, 16
	note F#, 8
	note F#, 12
	note E_, 8
	note E_, 16
	note F#, 8
	note F#, 16
	note B_, 8
	note B_, 16
	note A#, 8
	note A#, 16
	note G_, 12
	note G_, 4
	note D_, 8
	note G_, 8
	note G_, 16
	note G_, 12
	note G_, 4
	note D_, 8
	note G_, 8
	note G_, 16
	note F#, 12
	note F#, 4
	note C#, 8
	note F#, 8
	note F#, 16
	note B_, 8
	note B_, 16
	note A#, 8
	note A#, 16
	note G_, 8
	note G_, 8
	note D_, 8
	note G_, 8
	note G_, 8
	note B_, 8
	note G_, 8
	note G_, 12
	note G_, 4
	note A_, 8
	note A_, 12
	note A_, 4
	note D_, 12
	note D_, 12
	note D_, 12
	note D_, 12
	note A_, 12
	note A_, 12
	note A#, 12
	note A#, 12
	note C#, 16
	note C#, 4
	note C#, 16
	note C#, 16
	note C#, 16
	note C#, 16
	note C#, 12
	note C_, 16
	note C_, 4
	note C_, 16
	note C_, 12
	note F_, 8
	note F_, 16
	note D#, 8
	note D#, 16
	note C#, 12
	note C#, 12
	note F_, 12
	note G#, 12
	note C#, 12
	note F_, 12
	note G#, 12
	note F_, 12
	note C_, 8
	note C_, 16
	note D#, 8
	note D#, 16
	note F_, 8
	note F_, 16
	note D#, 8
	note D#, 16
	note C#, 16
	note C#, 16
	note C#, 16
	note C_, 16
	note C_, 8
	note F_, 16
	note F_, 8
	octave 4
	note C_, 16
	note C_, 16
	note C_, 16
	octave 3
	note B_, 12
	note B_, 12
	note A_, 12
	note A_, 12
	sound_loop 0, Music_JubilifeCity_Loop3
Music_JubilifeCity_Ch4:
	drum_speed $4
	toggle_noise 3
Music_JubilifeCity_Loop4:
	drum_note 12, 12
	drum_note 8, 8
	drum_note 9, 4
	drum_note 8, 12
	drum_note 8, 8
	drum_note 9, 4
	drum_note 8, 12
	drum_note 8, 8
	drum_note 9, 4
	drum_note 8, 4
	drum_note 12, 8
	drum_note 9, 8
	drum_note 8, 4
	drum_note 12, 12
	drum_note 8, 8
	drum_note 9, 4
	drum_note 8, 12
	drum_note 8, 8
	drum_note 9, 4
	drum_note 8, 12
	drum_note 8, 8
	drum_note 9, 4
	drum_note 8, 4
	drum_note 12, 8
	drum_note 9, 8
	drum_note 8, 4
	drum_note 12, 8
	drum_note 8, 8
	drum_note 8, 8
	drum_note 12, 8
	drum_note 8, 8
	drum_note 8, 8
	drum_note 12, 12
	drum_note 9, 8
	drum_note 8, 4
	drum_note 9, 12
	drum_note 9, 8
	drum_note 8, 4
	drum_note 12, 12
	drum_note 8, 8
	drum_note 9, 4
	drum_note 8, 12
	drum_note 8, 8
	drum_note 9, 4
	drum_note 8, 12
	drum_note 8, 8
	drum_note 9, 4
	drum_note 8, 4
	drum_note 12, 8
	drum_note 9, 8
	drum_note 8, 4
	drum_note 12, 12
	drum_note 8, 8
	drum_note 9, 4
	drum_note 8, 12
	drum_note 8, 8
	drum_note 9, 4
	drum_note 8, 12
	drum_note 8, 8
	drum_note 9, 4
	drum_note 8, 4
	drum_note 12, 8
	drum_note 9, 8
	drum_note 8, 4
	drum_note 9, 8
	drum_note 8, 4
	drum_note 12, 12
	drum_note 9, 8
	drum_note 8, 4
	drum_note 12, 12
	drum_note 12, 12
	drum_note 9, 8
	drum_note 8, 4
	drum_note 9, 12
	drum_note 9, 8
	drum_note 8, 4
	drum_note 4, 12
	drum_note 2, 8
	drum_note 4, 4
	drum_note 4, 12
	drum_note 2, 8
	drum_note 4, 4
	drum_note 4, 12
	drum_note 2, 8
	drum_note 4, 4
	drum_note 8, 4
	drum_note 2, 4
	drum_note 4, 4
	drum_note 8, 4
	drum_note 2, 4
	drum_note 4, 4
	drum_note 4, 12
	drum_note 2, 8
	drum_note 2, 4
	drum_note 4, 12
	drum_note 2, 8
	drum_note 2, 4
	drum_note 4, 12
	drum_note 2, 8
	drum_note 2, 4
	drum_note 4, 8
	drum_note 2, 4
	drum_note 8, 4
	drum_note 2, 4
	drum_note 4, 4
	drum_note 4, 12
	drum_note 2, 8
	drum_note 2, 4
	drum_note 4, 12
	drum_note 2, 8
	drum_note 2, 4
	drum_note 4, 12
	drum_note 2, 8
	drum_note 2, 4
	drum_note 4, 8
	drum_note 2, 4
	drum_note 8, 4
	drum_note 2, 4
	drum_note 4, 4
	drum_note 4, 8
	drum_note 4, 4
	drum_note 2, 8
	drum_note 4, 4
	drum_note 4, 12
	drum_note 2, 8
	drum_note 4, 4
	drum_note 4, 8
	drum_note 4, 4
	drum_note 2, 8
	drum_note 4, 4
	drum_note 4, 12
	drum_note 2, 8
	drum_note 4, 4
	drum_note 4, 8
	drum_note 4, 4
	drum_note 2, 8
	drum_note 2, 4
	drum_note 4, 12
	drum_note 2, 8
	drum_note 2, 4
	drum_note 4, 8
	drum_note 4, 4
	drum_note 2, 8
	drum_note 2, 4
	drum_note 4, 12
	drum_note 2, 8
	drum_note 2, 4
	drum_note 12, 12
	drum_note 2, 12
	drum_note 9, 12
	drum_note 2, 12
	drum_note 9, 12
	drum_note 2, 12
	drum_note 9, 12
	drum_note 2, 12
	drum_note 4, 12
	drum_note 4, 12
	drum_note 4, 12
	drum_note 4, 8
	drum_note 4, 4
	drum_note 4, 12
	drum_note 2, 8
	drum_note 4, 4
	drum_note 4, 12
	drum_note 2, 8
	drum_note 4, 4
	sound_loop 0, Music_JubilifeCity_Loop4
