Music_RivalBattle:
	channel_count 4
	channel 1, Music_RivalBattle_Ch1
	channel 2, Music_RivalBattle_Ch2
	channel 3, Music_RivalBattle_Ch3
	channel 4, Music_RivalBattle_Ch4

Music_RivalBattle_Ch1:
	volume $7, $7
	stereo_panning TRUE, TRUE
	tempo $68
	duty_cycle 3
	pitch_offset $0002
	vibrato $08, $1, $5
	octave 3
	note_type $C, $B, 4
	rest 4
	note A#, 1
	note A_, 1
	note G#, 1
	note G_, 1
	note G#, 1
	note G_, 1
	note F#, 1
	note F_, 1
	note F#, 1
	note F_, 1
	note E_, 1
	note D#, 1
	note E_, 1
	note D#, 1
	note D_, 1
	note C#, 1
	note D_, 1
	note C#, 1
	note C_, 1
	octave 2
	note B_, 1
	octave 3
	note C_, 1
	octave 2
	note B_, 1
	note A#, 1
	note A_, 1
	note A#, 1
	note A_, 1
	note G#, 1
	note G_, 3
	note F#, 2
	rest 2
	note F#, 2
	rest 2
	note F#, 2
	rest 2
	note D#, 2
	rest 2
	note F#, 2
	rest 2
	note F#, 2
	rest 2
	note F#, 2
	note B_, 4
	rest 2
	note F#, 2
	rest 2
	note F#, 2
	rest 2
	note F#, 2
	rest 2
	note D#, 2
	rest 2
	note F#, 2
	rest 2
	note F#, 2
	rest 2
	note F#, 2
	note B_, 4
	rest 2
	octave 3
	note G_, 2
	rest 2
	note G_, 2
	rest 2
	note G_, 2
	rest 2
	note E_, 2
	rest 2
	note G_, 2
	rest 2
	note G_, 2
	rest 2
	note G_, 2
	octave 4
	note C_, 4
	rest 2
	octave 3
	note G_, 2
	rest 2
	note G_, 2
	rest 2
	note G_, 2
	rest 2
	note E_, 2
	rest 2
	note G_, 2
	rest 2
	note G_, 2
	rest 2
	note G_, 2
	octave 4
	note C_, 4
Music_RivalBattle_Ch1_loop:
	octave 3
	note C_, 2
	rest 2
	octave 2
	note G_, 2
	rest 4
	note E_, 2
	rest 2
	note G_, 2
	octave 3
	note C_, 1
	rest 1
	octave 2
	note G_, 6
	octave 3
	note C_, 2
	rest 2
	octave 2
	note G_, 2
	rest 2
	note A#, 2
	rest 2
	note F_, 2
	rest 4
	note D_, 4
	note F_, 2
	note A#, 2
	rest 2
	note F_, 2
	rest 4
	note D_, 4
	note G_, 2
	octave 3
	note C_, 2
	rest 2
	octave 2
	note G_, 2
	rest 4
	note E_, 2
	rest 2
	note G_, 2
	octave 3
	note C_, 1
	rest 1
	note C_, 6
	note E_, 2
	rest 2
	note G_, 2
	rest 2
	note G#, 2
	rest 2
	note D#, 2
	rest 4
	note C_, 4
	note D#, 2
	note A#, 2
	rest 2
	note F_, 2
	rest 2
	note D_, 4
	note F_, 2
	rest 2
	note G_, 2
	rest 2
	note E_, 2
	rest 2
	note C_, 4
	note D_, 4
	note E_, 2
	rest 4
	note E_, 2
	rest 2
	note E_, 2
	note E_, 2
	rest 2
	note D_, 6
	octave 2
	note A#, 6
	octave 3
	note D_, 4
	note F_, 6
	note D_, 6
	note F_, 4
	note G_, 4
	octave 4
	note C_, 4
	note E_, 4
	note C_, 4
	octave 3
	note G_, 6
	note F_, 6
	note E_, 4
	note D_, 6
	octave 2
	note A#, 6
	note F_, 2
	note A#, 2
	octave 3
	note F_, 6
	note D_, 6
	octave 2
	note A#, 2
	octave 3
	note D_, 2
	note E_, 4
	note G_, 4
	note A#, 4
	note B_, 4
	octave 4
	note C_, 6
	note D_, 6
	note C_, 4
	note D_, 1
	rest 1
	note D_, 1
	rest 1
	octave 3
	note A#, 12
	note A#, 1
	rest 1
	note A#, 1
	rest 1
	note F_, 8
	note D_, 2
	note D#, 2
	note E_, 6
	note G_, 6
	note F_, 4
	note E_, 6
	note F_, 6
	note E_, 4
	note F_, 1
	rest 1
	note F_, 1
	rest 1
	note A#, 12
	note A#, 1
	rest 1
	note A#, 1
	rest 1
	octave 4
	note D_, 8
	octave 3
	note A#, 2
	note B_, 2
	octave 4
	note C_, 6
	note D_, 6
	note C_, 4
	note E_, 6
	note D_, 6
	note C_, 4
	octave 2
	note G_, 2
	rest 2
	note G_, 2
	rest 2
	note G_, 2
	rest 2
	note E_, 2
	rest 2
	note G_, 2
	rest 2
	note G_, 2
	rest 2
	note G_, 2
	rest 2
	octave 3
	note C_, 2
	rest 2
	octave 2
	note G#, 2
	rest 2
	note G#, 2
	rest 2
	note G#, 2
	rest 2
	note F_, 2
	rest 2
	note G#, 2
	rest 2
	note G#, 2
	rest 2
	note G#, 2
	rest 2
	octave 3
	note C#, 2
	rest 2
	octave 2
	note A_, 2
	rest 2
	note A_, 2
	rest 2
	note A_, 2
	rest 2
	note F#, 2
	rest 2
	note A_, 2
	rest 2
	note A_, 2
	rest 2
	note A_, 2
	rest 2
	octave 3
	note D_, 2
	rest 2
	octave 2
	note B_, 2
	rest 2
	note B_, 2
	rest 2
	note B_, 2
	rest 2
	note G#, 2
	rest 2
	note B_, 2
	rest 2
	note B_, 2
	rest 2
	note B_, 2
	rest 2
	octave 3
	note E_, 2
	rest 2
	note C#, 2
	rest 2
	note C#, 2
	rest 2
	note C#, 2
	rest 2
	octave 2
	note A#, 2
	rest 2
	octave 3
	note C#, 2
	rest 2
	note C#, 2
	rest 2
	note C#, 2
	rest 2
	note F#, 2
	rest 2
	note C#, 2
	rest 2
	note C#, 2
	rest 2
	note C#, 2
	rest 2
	octave 2
	note A#, 2
	rest 2
	octave 3
	note C#, 2
	rest 2
	note C#, 2
	rest 2
	note C#, 2
	rest 2
	note F#, 2
	rest 4
	octave 2
	note G_, 2
	rest 2
	note G_, 2
	rest 2
	note G_, 2
	rest 2
	note E_, 2
	rest 2
	note G_, 2
	rest 2
	note G_, 2
	rest 2
	note G_, 2
	rest 2
	octave 3
	note C_, 2
	sound_loop 0, Music_RivalBattle_Ch1_loop

Music_RivalBattle_Ch2:
	duty_cycle 3
	pitch_offset $0001
	vibrato $08, $2, $6
	octave 4
	note_type $C, $C, 7
	note B_, 1
	octave 5
	note C#, 1
	octave 4
	note B_, 1
	octave 5
	note C#, 1
	octave 4
	note B_, 4
	note B_, 1
	octave 5
	note C#, 1
	octave 4
	note B_, 1
	octave 5
	note C#, 1
	octave 4
	note B_, 4
	note B_, 1
	octave 5
	note C#, 1
	octave 4
	note B_, 1
	octave 5
	note C#, 1
	octave 4
	note B_, 4
	note B_, 1
	octave 5
	note C#, 1
	octave 4
	note B_, 1
	octave 5
	note C#, 1
	octave 4
	note B_, 6
	octave 2
	note B_, 2
	rest 2
	note B_, 2
	rest 2
	note B_, 2
	note F#, 2
	note B_, 2
	rest 2
	note B_, 2
	rest 2
	note B_, 2
	rest 2
	note B_, 2
	octave 3
	note D#, 4
	rest 2
	octave 2
	note B_, 2
	rest 2
	note B_, 2
	rest 2
	note B_, 2
	note F#, 2
	note B_, 2
	rest 2
	note B_, 2
	rest 2
	note B_, 2
	note F#, 2
	note B_, 2
	octave 3
	note D#, 4
	rest 2
	octave 4
	note C_, 2
	rest 2
	note C_, 2
	rest 2
	note C_, 2
	octave 3
	note G_, 2
	octave 4
	note C_, 2
	rest 2
	note C_, 2
	rest 2
	note C_, 2
	rest 2
	note C_, 2
	note E_, 4
	rest 2
	note C_, 2
	rest 2
	note C_, 2
	rest 2
	note C_, 2
	octave 3
	note G_, 2
	octave 4
	note C_, 2
	rest 2
	note C_, 2
	rest 2
	note C_, 2
	octave 3
	note G_, 2
	octave 4
	note C_, 2
	note E_, 4
Music_RivalBattle_Ch2_loop:
	note C_, 16
	note C_, 1
	rest 1
	octave 3
	note G_, 6
	octave 4
	note C_, 2
	rest 2
	note G_, 2
	rest 2
	note F_, 14
	note F_, 1
	note D#, 1
	note D_, 16
	note C_, 16
	note C_, 1
	rest 1
	octave 3
	note G_, 6
	octave 4
	note C_, 2
	rest 2
	note G_, 2
	rest 2
	note G#, 16
	note A#, 6
	note G#, 4
	note G_, 2
	note F_, 2
	note G#, 2
	note G_, 12
	note F_, 4
	note E_, 16
	duty_cycle 2
	octave 3
	note A#, 4
	octave 4
	note D_, 4
	note F_, 4
	note A#, 4
	note D_, 4
	note F_, 4
	note A#, 6
	octave 5
	note D_, 2
	note C_, 14
	note C_, 1
	octave 4
	note G_, 1
	note E_, 16
	note A#, 4
	note F_, 4
	note D_, 4
	octave 3
	note A#, 4
	octave 5
	note D_, 4
	octave 4
	note A#, 4
	note F_, 4
	note D_, 2
	note D#, 2
	note E_, 14
	note E_, 1
	note G_, 1
	octave 5
	note C_, 16
	duty_cycle 0
	octave 4
	note A#, 1
	rest 1
	note A#, 1
	rest 1
	note F_, 12
	note F_, 1
	rest 1
	note F_, 1
	rest 1
	note D_, 8
	note D_, 2
	note D#, 2
	note E_, 16
	rest 16
	note D_, 1
	rest 1
	note D_, 1
	rest 1
	note F_, 12
	note F_, 1
	rest 1
	note F_, 1
	rest 1
	note A#, 8
	note A#, 2
	note B_, 2
	octave 5
	note C_, 16
	rest 16
	duty_cycle 3
	octave 4
	note G_, 2
	rest 2
	octave 5
	note C_, 2
	rest 4
	octave 4
	note E_, 2
	rest 2
	note G_, 2
	octave 5
	note C_, 2
	octave 4
	note G_, 2
	note E_, 2
	note G_, 2
	note E_, 2
	octave 5
	note C_, 2
	octave 4
	note G_, 2
	note E_, 2
	note G#, 2
	rest 2
	octave 5
	note C#, 2
	rest 4
	octave 4
	note F_, 2
	rest 2
	note G#, 2
	octave 5
	note C#, 2
	octave 4
	note G#, 2
	note F_, 2
	note G#, 2
	note F_, 2
	octave 5
	note C#, 2
	octave 4
	note G#, 2
	note F_, 2
	note A_, 2
	rest 2
	octave 5
	note D_, 2
	rest 4
	octave 4
	note F#, 2
	rest 2
	note A_, 2
	octave 5
	note D_, 2
	octave 4
	note A_, 2
	note F#, 2
	note A_, 2
	note F#, 2
	octave 5
	note D_, 2
	octave 4
	note A_, 2
	note F#, 2
	note B_, 2
	rest 2
	octave 5
	note E_, 2
	octave 4
	note B_, 2
	note G#, 2
	rest 2
	note G#, 2
	note B_, 2
	octave 5
	note E_, 2
	octave 4
	note B_, 2
	octave 5
	note E_, 2
	octave 4
	note G#, 2
	note B_, 2
	octave 5
	note E_, 2
	octave 4
	note B_, 2
	note G#, 2
	duty_cycle 2
	note F#, 2
	note F_, 2
	note D#, 2
	note C#, 2
	octave 3
	note B_, 2
	octave 4
	note C#, 2
	note D#, 2
	note F_, 2
	note F#, 2
	note F_, 2
	note D#, 2
	note C#, 2
	octave 3
	note B_, 2
	octave 4
	note C#, 2
	note D#, 2
	note F_, 2
	note F#, 2
	note F_, 2
	note D#, 2
	note C#, 2
	octave 3
	note B_, 2
	octave 4
	note C#, 2
	note D#, 2
	note F_, 2
	note F#, 2
	note F_, 2
	note D#, 2
	note C#, 2
	octave 3
	note B_, 2
	octave 4
	note C#, 2
	note D#, 2
	note F#, 2
	note G_, 16
	rest 16
	duty_cycle 3
	sound_loop 0, Music_RivalBattle_Ch2_loop

Music_RivalBattle_Ch3:
	note_type $C, $1, $4
	rest 16
	octave 2
	note F#, 4
	note F_, 2
	note E_, 2
	note D#, 2
	note D_, 2
	note C#, 2
	note C_, 2
	octave 1
	note B_, 2
	octave 2
	note B_, 2
	octave 1
	note B_, 2
	octave 2
	note B_, 2
	octave 1
	note B_, 2
	octave 2
	note B_, 2
	octave 1
	note B_, 2
	octave 2
	note B_, 2
	octave 1
	note B_, 2
	octave 2
	note B_, 2
	octave 1
	note B_, 2
	octave 2
	note B_, 2
	octave 1
	note B_, 2
	octave 2
	note B_, 2
	octave 1
	note B_, 2
	octave 2
	note B_, 2
	octave 1
	note B_, 2
	octave 2
	note B_, 2
	octave 1
	note B_, 2
	octave 2
	note B_, 2
	octave 1
	note B_, 2
	octave 2
	note B_, 2
	octave 1
	note B_, 2
	octave 2
	note B_, 2
	octave 1
	note B_, 2
	octave 2
	note B_, 2
	octave 1
	note B_, 2
	octave 2
	note B_, 2
	octave 1
	note B_, 2
	octave 2
	note B_, 2
	octave 1
	note B_, 2
	octave 2
	note B_, 2
	note C_, 2
	octave 3
	note C_, 2
	octave 2
	note C_, 2
	octave 3
	note C_, 2
	octave 2
	note C_, 2
	octave 3
	note C_, 2
	octave 2
	note C_, 2
	octave 3
	note C_, 2
	octave 2
	note C_, 2
	octave 3
	note C_, 2
	octave 2
	note C_, 2
	octave 3
	note C_, 2
	octave 2
	note C_, 2
	octave 3
	note C_, 2
	octave 2
	note C_, 2
	octave 3
	note C_, 2
	octave 2
	note C_, 2
	octave 3
	note C_, 2
	octave 2
	note C_, 2
	octave 3
	note C_, 2
	octave 2
	note C_, 2
	octave 3
	note C_, 2
	octave 2
	note C_, 2
	octave 3
	note C_, 2
	note C_, 2
	octave 2
	note C_, 2
	note C_, 2
	octave 3
	note C_, 2
	octave 2
	note B_, 2
	note A_, 2
	note B_, 2
	note G_, 2
Music_RivalBattle_Ch3_loop:
	note C_, 2
	octave 3
	note C_, 2
	octave 2
	note C_, 2
	octave 3
	note C_, 2
	octave 2
	note C_, 2
	octave 3
	note C_, 2
	octave 2
	note C_, 2
	octave 3
	note C_, 2
	octave 2
	note C_, 2
	octave 3
	note C_, 2
	octave 2
	note C_, 2
	octave 3
	note C_, 2
	octave 2
	note C_, 2
	octave 3
	note C_, 2
	octave 2
	note C_, 2
	octave 3
	note C_, 2
	octave 1
	note A#, 2
	octave 2
	note A#, 2
	octave 1
	note A#, 2
	octave 2
	note A#, 2
	octave 1
	note A#, 2
	octave 2
	note A#, 2
	octave 1
	note A#, 2
	octave 2
	note A#, 2
	octave 1
	note G_, 2
	octave 2
	note G_, 2
	octave 1
	note G_, 2
	octave 2
	note G_, 2
	octave 1
	note G_, 2
	octave 2
	note G_, 2
	octave 1
	note G_, 2
	octave 2
	note B_, 2
	note C_, 2
	octave 3
	note C_, 2
	octave 2
	note C_, 2
	octave 3
	note C_, 2
	octave 2
	note C_, 2
	octave 3
	note C_, 2
	octave 2
	note C_, 2
	octave 3
	note C_, 2
	octave 2
	note C_, 2
	octave 3
	note C_, 2
	octave 2
	note C_, 2
	octave 3
	note C_, 2
	octave 2
	note C_, 2
	octave 3
	note C_, 2
	octave 2
	note C_, 2
	octave 3
	note C_, 2
	octave 1
	note G#, 2
	octave 2
	note G#, 2
	octave 1
	note G#, 2
	octave 2
	note G#, 2
	octave 1
	note G#, 2
	octave 2
	note G#, 2
	octave 1
	note G#, 2
	octave 2
	note G#, 2
	octave 1
	note A#, 2
	octave 2
	note A#, 2
	octave 1
	note A#, 2
	octave 2
	note A#, 2
	octave 1
	note A#, 2
	octave 2
	note A#, 2
	octave 1
	note A#, 2
	octave 2
	note B_, 2
	note C_, 2
	octave 3
	note C_, 2
	octave 2
	note C_, 2
	octave 3
	note C_, 2
	octave 2
	note C_, 2
	octave 3
	note C_, 2
	octave 2
	note C_, 2
	octave 3
	note C_, 2
	octave 2
	note C_, 2
	octave 3
	note C_, 2
	octave 2
	note C_, 2
	octave 3
	note C_, 2
	octave 2
	note C_, 2
	octave 3
	note C_, 2
	octave 2
	note C_, 2
	note A_, 2
	octave 1
	note A#, 2
	octave 2
	note A#, 2
	octave 1
	note A#, 2
	octave 2
	note A#, 2
	octave 1
	note A#, 2
	octave 2
	note A#, 2
	octave 1
	note A#, 2
	octave 2
	note A#, 2
	octave 1
	note A#, 2
	octave 2
	note A#, 2
	octave 1
	note A#, 2
	octave 2
	note A#, 2
	octave 1
	note A#, 2
	octave 2
	note A#, 2
	octave 1
	note A#, 2
	octave 2
	note B_, 2
	note C_, 2
	octave 3
	note C_, 2
	octave 2
	note C_, 2
	octave 3
	note C_, 2
	octave 2
	note C_, 2
	octave 3
	note C_, 2
	octave 2
	note C_, 2
	octave 3
	note C_, 2
	octave 2
	note C_, 2
	octave 3
	note C_, 2
	octave 2
	note C_, 2
	octave 3
	note C_, 2
	octave 2
	note C_, 2
	octave 3
	note C_, 2
	octave 2
	note C_, 2
	octave 3
	note C_, 2
	octave 1
	note A#, 2
	octave 2
	note A#, 2
	octave 1
	note A#, 2
	octave 2
	note A#, 2
	octave 1
	note A#, 2
	octave 2
	note A#, 2
	octave 1
	note A#, 2
	octave 2
	note A#, 2
	octave 1
	note A#, 2
	octave 2
	note A#, 2
	octave 1
	note A#, 2
	octave 2
	note A#, 2
	octave 1
	note A#, 2
	octave 2
	note A#, 2
	octave 1
	note A#, 2
	octave 2
	note B_, 2
	note C_, 2
	octave 3
	note C_, 2
	octave 2
	note C_, 2
	octave 3
	note C_, 2
	octave 2
	note C_, 2
	octave 3
	note C_, 2
	octave 2
	note C_, 2
	octave 3
	note C_, 2
	octave 2
	note C_, 2
	octave 3
	note C_, 2
	octave 2
	note C_, 2
	octave 3
	note C_, 2
	octave 2
	note C_, 2
	octave 3
	note C_, 2
	octave 2
	note C_, 2
	octave 3
	note C_, 2
	octave 1
	note A#, 2
	note A#, 2
	octave 2
	note F_, 2
	octave 1
	note A#, 2
	octave 2
	note F_, 2
	octave 1
	note A#, 2
	octave 2
	note F_, 2
	octave 1
	note A#, 2
	note A#, 2
	note A#, 2
	octave 2
	note A#, 2
	octave 1
	note A#, 2
	octave 2
	note A#, 2
	octave 1
	note A#, 2
	octave 2
	note A#, 2
	octave 1
	note B_, 2
	octave 2
	note C_, 2
	octave 3
	note C_, 2
	octave 2
	note C_, 2
	octave 3
	note C_, 2
	octave 2
	note C_, 2
	octave 3
	note C_, 2
	octave 2
	note C_, 2
	octave 3
	note C_, 2
	octave 2
	note C_, 2
	note G_, 2
	octave 3
	note C_, 2
	note D_, 2
	note E_, 2
	note C_, 2
	octave 2
	note G_, 2
	note E_, 2
	octave 1
	note A#, 2
	note A#, 2
	octave 2
	note F_, 2
	octave 1
	note A#, 2
	octave 2
	note F_, 2
	octave 1
	note A#, 2
	octave 2
	note F_, 2
	octave 1
	note A#, 2
	note A#, 2
	note A#, 2
	octave 2
	note A#, 2
	octave 1
	note A#, 2
	octave 2
	note A#, 2
	octave 1
	note A#, 2
	octave 2
	note A#, 2
	octave 1
	note B_, 2
	octave 2
	note C_, 2
	octave 3
	note C_, 2
	octave 2
	note C_, 2
	octave 3
	note C_, 2
	octave 2
	note C_, 2
	octave 3
	note C_, 2
	octave 2
	note C_, 2
	octave 3
	note C_, 2
	octave 2
	note C_, 2
	note G_, 2
	octave 3
	note C_, 2
	note D_, 2
	note E_, 2
	note C_, 2
	octave 2
	note G_, 2
	note E_, 2
	note C_, 2
	octave 3
	note C_, 2
	octave 2
	note C_, 2
	octave 3
	note C_, 2
	octave 2
	note C_, 2
	octave 3
	note C_, 2
	octave 2
	note C_, 2
	octave 3
	note C_, 2
	octave 2
	note C_, 2
	octave 3
	note C_, 2
	octave 2
	note C_, 2
	octave 3
	note C_, 2
	octave 2
	note C_, 2
	octave 3
	note C_, 2
	octave 2
	note C_, 2
	octave 3
	note C_, 2
	octave 2
	note C#, 2
	octave 3
	note C#, 2
	octave 2
	note C#, 2
	octave 3
	note C#, 2
	octave 2
	note C#, 2
	octave 3
	note C#, 2
	octave 2
	note C#, 2
	octave 3
	note C#, 2
	octave 2
	note C#, 2
	octave 3
	note C#, 2
	octave 2
	note C#, 2
	octave 3
	note C#, 2
	octave 2
	note C#, 2
	octave 3
	note C#, 2
	octave 2
	note C#, 2
	octave 3
	note C#, 2
	octave 2
	note D_, 2
	octave 3
	note D_, 2
	octave 2
	note D_, 2
	octave 3
	note D_, 2
	octave 2
	note D_, 2
	octave 3
	note D_, 2
	octave 2
	note D_, 2
	octave 3
	note D_, 2
	octave 2
	note D_, 2
	octave 3
	note D_, 2
	octave 2
	note D_, 2
	octave 3
	note D_, 2
	octave 2
	note D_, 2
	octave 3
	note D_, 2
	octave 2
	note D_, 2
	octave 3
	note D_, 2
	octave 2
	note E_, 2
	octave 3
	note E_, 2
	octave 2
	note E_, 2
	octave 3
	note E_, 2
	octave 2
	note E_, 2
	octave 3
	note E_, 2
	octave 2
	note E_, 2
	octave 3
	note E_, 2
	octave 2
	note E_, 2
	octave 3
	note E_, 2
	octave 2
	note E_, 2
	octave 3
	note E_, 2
	octave 2
	note E_, 2
	octave 3
	note E_, 2
	octave 2
	note E_, 2
	octave 3
	note E_, 2
	octave 2
	note F#, 2
	octave 3
	note C#, 2
	octave 2
	note F#, 2
	octave 3
	note F#, 2
	octave 2
	note F#, 2
	octave 3
	note F#, 2
	octave 2
	note F#, 2
	octave 3
	note C#, 2
	octave 2
	note F#, 2
	octave 3
	note F#, 2
	octave 2
	note F#, 2
	octave 3
	note F#, 2
	octave 2
	note F#, 2
	octave 3
	note F#, 2
	octave 2
	note F#, 2
	octave 3
	note F#, 2
	octave 2
	note F#, 2
	octave 3
	note C#, 2
	octave 2
	note F#, 2
	octave 3
	note F#, 2
	octave 2
	note F#, 2
	octave 3
	note F#, 2
	octave 2
	note F#, 2
	octave 3
	note C#, 2
	octave 2
	note F#, 2
	octave 3
	note F#, 2
	octave 2
	note F#, 2
	octave 3
	note F#, 2
	octave 2
	note F#, 2
	octave 3
	note F#, 2
	octave 2
	note C_, 2
	note B_, 2
	note C_, 2
	octave 3
	note C_, 2
	octave 2
	note C_, 2
	octave 3
	note C_, 2
	octave 2
	note C_, 2
	octave 3
	note C_, 2
	octave 2
	note C_, 2
	octave 3
	note C_, 2
	octave 2
	note C_, 2
	octave 3
	note C_, 2
	octave 2
	note C_, 2
	octave 3
	note C_, 2
	octave 2
	note C_, 2
	octave 3
	note C_, 2
	octave 2
	note C_, 2
	octave 3
	note C_, 2
	octave 2
	sound_loop 0, Music_RivalBattle_Ch3_loop

Music_RivalBattle_Ch4:
	toggle_noise 3
	drum_speed $C
	rest 16
	drum_note 3, 4
	drum_note 3, 4
	drum_note 4, 2
	drum_note 4, 2
	drum_note 3, 2
	drum_note 3, 2
	drum_note 4, 2
	drum_note 1, 2
	drum_note 4, 2
	drum_note 1, 2
	drum_note 4, 2
	drum_note 1, 2
	drum_note 4, 2
	drum_note 1, 2
	drum_note 4, 2
	drum_note 1, 2
	drum_note 4, 2
	drum_note 1, 2
	drum_note 4, 2
	drum_note 1, 2
	drum_note 4, 2
	drum_note 1, 2
	drum_note 4, 2
	drum_note 1, 2
	drum_note 4, 2
	drum_note 1, 2
	drum_note 4, 2
	drum_note 1, 2
	drum_note 4, 2
	drum_note 1, 2
	drum_note 4, 2
	drum_note 1, 2
	drum_note 4, 2
	drum_note 1, 2
	drum_note 4, 2
	drum_note 1, 2
	drum_note 1, 2
	drum_note 1, 2
	drum_note 4, 2
	drum_note 1, 2
	drum_note 4, 2
	drum_note 1, 2
	drum_note 4, 2
	drum_note 1, 2
	drum_note 4, 2
	drum_note 1, 2
	drum_note 4, 2
	drum_note 1, 2
	drum_note 4, 2
	drum_note 1, 2
	drum_note 4, 2
	drum_note 1, 2
	drum_note 4, 2
	drum_note 1, 2
	drum_note 4, 2
	drum_note 1, 2
	drum_note 4, 2
	drum_note 1, 2
	drum_note 4, 2
	drum_note 1, 2
	drum_note 4, 2
	drum_note 1, 2
	drum_note 1, 2
	drum_note 4, 2
	drum_note 4, 2
	drum_note 1, 2
	drum_note 4, 2
	drum_note 1, 2
	drum_note 1, 2
	drum_note 1, 2
Music_RivalBattle_Ch4_loop:
	drum_note 4, 2
	drum_note 1, 2
	drum_note 4, 2
	drum_note 1, 2
	drum_note 4, 2
	drum_note 1, 2
	drum_note 4, 2
	drum_note 1, 2
	drum_note 4, 2
	drum_note 1, 2
	drum_note 4, 2
	drum_note 1, 2
	drum_note 4, 2
	drum_note 1, 2
	drum_note 4, 2
	drum_note 1, 2
	drum_note 4, 2
	drum_note 1, 2
	drum_note 4, 2
	drum_note 1, 2
	drum_note 4, 2
	drum_note 1, 2
	drum_note 4, 2
	drum_note 1, 2
	drum_note 4, 2
	drum_note 1, 2
	drum_note 4, 2
	drum_note 1, 2
	drum_note 4, 2
	drum_note 1, 2
	drum_note 4, 2
	drum_note 1, 2
	drum_note 4, 2
	drum_note 1, 2
	drum_note 4, 2
	drum_note 1, 2
	drum_note 4, 2
	drum_note 1, 2
	drum_note 4, 2
	drum_note 1, 2
	drum_note 4, 2
	drum_note 1, 2
	drum_note 4, 2
	drum_note 1, 2
	drum_note 4, 2
	drum_note 1, 2
	drum_note 4, 2
	drum_note 1, 2
	drum_note 4, 2
	drum_note 1, 2
	drum_note 4, 2
	drum_note 1, 2
	drum_note 4, 2
	drum_note 1, 2
	drum_note 4, 2
	drum_note 1, 2
	drum_note 4, 2
	drum_note 1, 2
	drum_note 4, 2
	drum_note 1, 2
	drum_note 4, 2
	drum_note 1, 2
	drum_note 4, 2
	drum_note 1, 2
	drum_note 4, 2
	drum_note 1, 2
	drum_note 4, 2
	drum_note 1, 2
	drum_note 4, 2
	drum_note 1, 2
	drum_note 4, 2
	drum_note 1, 2
	drum_note 4, 2
	drum_note 1, 2
	drum_note 4, 2
	drum_note 1, 2
	drum_note 4, 2
	drum_note 1, 2
	drum_note 1, 2
	drum_note 1, 2
	drum_note 4, 2
	drum_note 1, 2
	drum_note 4, 2
	drum_note 1, 2
	drum_note 4, 2
	drum_note 1, 2
	drum_note 4, 2
	drum_note 1, 2
	drum_note 4, 2
	drum_note 1, 2
	drum_note 4, 2
	drum_note 1, 2
	drum_note 4, 2
	drum_note 1, 2
	drum_note 4, 2
	drum_note 1, 2
	drum_note 4, 2
	drum_note 1, 2
	drum_note 4, 2
	drum_note 1, 2
	drum_note 4, 2
	drum_note 1, 2
	drum_note 4, 2
	drum_note 1, 2
	drum_note 4, 2
	drum_note 1, 2
	drum_note 4, 2
	drum_note 1, 2
	drum_note 4, 2
	drum_note 1, 2
	drum_note 4, 2
	drum_note 1, 2
	drum_note 4, 2
	drum_note 1, 2
	drum_note 4, 2
	drum_note 1, 2
	drum_note 4, 2
	drum_note 1, 2
	drum_note 4, 2
	drum_note 1, 2
	drum_note 4, 2
	drum_note 1, 2
	drum_note 4, 2
	drum_note 1, 2
	drum_note 4, 2
	drum_note 1, 2
	drum_note 4, 2
	drum_note 1, 2
	drum_note 4, 2
	drum_note 1, 2
	drum_note 4, 2
	drum_note 1, 2
	drum_note 4, 2
	drum_note 1, 2
	drum_note 4, 2
	drum_note 1, 2
	drum_note 4, 2
	drum_note 1, 2
	drum_note 1, 2
	drum_note 4, 2
	drum_note 4, 2
	drum_note 1, 2
	drum_note 1, 2
	drum_note 1, 2
	drum_note 4, 2
	drum_note 4, 2
	drum_note 1, 2
	drum_note 4, 2
	drum_note 1, 2
	drum_note 4, 2
	drum_note 1, 2
	drum_note 4, 2
	drum_note 4, 2
	drum_note 4, 2
	drum_note 1, 2
	drum_note 4, 2
	drum_note 1, 2
	drum_note 4, 2
	drum_note 1, 2
	drum_note 4, 2
	drum_note 4, 4
	drum_note 3, 4
	drum_note 4, 2
	drum_note 4, 2
	drum_note 1, 4
	drum_note 4, 4
	drum_note 3, 2
	drum_note 3, 2
	drum_note 4, 2
	drum_note 4, 2
	drum_note 1, 4
	drum_note 4, 2
	drum_note 4, 2
	drum_note 1, 2
	drum_note 4, 2
	drum_note 1, 2
	drum_note 4, 2
	drum_note 1, 2
	drum_note 4, 2
	drum_note 4, 2
	drum_note 4, 2
	drum_note 1, 2
	drum_note 4, 2
	drum_note 1, 2
	drum_note 4, 2
	drum_note 1, 2
	drum_note 4, 2
	drum_note 4, 4
	drum_note 3, 4
	drum_note 4, 2
	drum_note 4, 2
	drum_note 1, 4
	drum_note 4, 4
	drum_note 3, 2
	drum_note 3, 2
	drum_note 4, 2
	drum_note 4, 2
	drum_note 1, 4
	drum_note 1, 4
	drum_note 1, 6
	drum_note 1, 2
	drum_note 1, 2
	drum_note 1, 4
	drum_note 1, 4
	drum_note 1, 2
	drum_note 1, 4
	drum_note 1, 2
	drum_note 1, 2
	drum_note 1, 4
	drum_note 1, 6
	drum_note 1, 4
	drum_note 1, 2
	drum_note 1, 4
	drum_note 1, 2
	drum_note 4, 2
	drum_note 4, 2
	drum_note 1, 2
	drum_note 1, 2
	drum_note 1, 2
	drum_note 4, 2
	drum_note 1, 2
	drum_note 4, 2
	drum_note 1, 2
	drum_note 4, 2
	drum_note 1, 2
	drum_note 4, 2
	drum_note 1, 2
	drum_note 4, 2
	drum_note 1, 2
	drum_note 4, 2
	drum_note 1, 2
	drum_note 4, 2
	drum_note 1, 2
	drum_note 4, 2
	drum_note 1, 2
	drum_note 4, 2
	drum_note 1, 2
	drum_note 4, 2
	drum_note 1, 2
	drum_note 4, 2
	drum_note 1, 2
	drum_note 4, 2
	drum_note 1, 2
	drum_note 4, 2
	drum_note 1, 2
	drum_note 4, 2
	drum_note 1, 2
	drum_note 4, 2
	drum_note 1, 2
	drum_note 1, 2
	drum_note 1, 2
	drum_note 4, 2
	drum_note 1, 2
	drum_note 4, 2
	drum_note 1, 2
	drum_note 4, 2
	drum_note 1, 2
	drum_note 4, 2
	drum_note 1, 2
	drum_note 4, 2
	drum_note 1, 2
	drum_note 4, 2
	drum_note 1, 2
	drum_note 4, 2
	drum_note 1, 2
	drum_note 4, 2
	drum_note 1, 2
	drum_note 4, 2
	drum_note 1, 2
	drum_note 4, 2
	drum_note 1, 2
	drum_note 4, 2
	drum_note 1, 2
	drum_note 4, 2
	drum_note 1, 2
	drum_note 4, 2
	drum_note 1, 2
	drum_note 4, 2
	drum_note 1, 2
	drum_note 4, 2
	drum_note 1, 2
	drum_note 1, 2
	drum_note 1, 2
	drum_note 4, 2
	drum_note 1, 2
	drum_note 4, 2
	drum_note 1, 2
	drum_note 4, 2
	drum_note 1, 2
	drum_note 4, 2
	drum_note 1, 2
	drum_note 4, 2
	drum_note 1, 2
	drum_note 4, 2
	drum_note 1, 2
	drum_note 4, 2
	drum_note 1, 2
	drum_note 1, 2
	drum_note 4, 2
	sound_loop 0, Music_RivalBattle_Ch4_loop
