Music_Oreburgh:
	channel_count 4
	channel 1, Music_Oreburgh_Ch1
	channel 2, Music_Oreburgh_Ch2
	channel 3, Music_Oreburgh_Ch3
	channel 4, Music_Oreburgh_Ch4

Music_Oreburgh_Ch1:
	tempo $D0
	volume $7, $7
	duty_cycle 0
	pitch_offset $0002
Music_Oreburgh_Ch1_loop:
	note_type $C, $B, 2
	octave 3
	note A#, 3
	note A#, 1
	note A_, 1
	note A#, 2
	note A#, 2
	octave 4
	note D_, 2
	note D_, 1
	note C#, 1
	note D_, 2
	note D_, 1
	note C_, 3
	note C_, 1
	octave 3
	note B_, 1
	octave 4
	note C_, 2
	octave 3
	note E_, 1
	note D_, 2
	note D_, 1
	note D_, 2
	note D_, 2
	note D#, 3
	note E_, 2
	note C_, 4
	note E_, 1
	note E_, 2
	note D_, 3
	note C_, 2
	note F_, 1
	note F_, 2
	octave 4
	note C_, 2
	note C_, 3
	octave 3
	note A#, 1
	note A#, 2
	note G#, 2
	note G#, 3
	volume_envelope $B, 3
	octave 4
	note D_, 3
	note D_, 3
	note C_, 4
	volume_envelope $B, 1
	octave 3
	note B_, 2
	note B_, 4
	volume_envelope $B, 3
	octave 4
	note C_, 3
	note C_, 3
	octave 3
	note A#, 4
	volume_envelope $B, 1
	note G#, 2
	note G#, 6
	volume_envelope $B, 3
	octave 2
	note A_, 2
	octave 3
	note C_, 6
	note D#, 2
	note G_, 6
	octave 2
	note G_, 2
	note A#, 2
	octave 3
	note E_, 2
	octave 4
	note C_, 1
	note C_, 1
	octave 3
	note B_, 1
	note B_, 1
	note A#, 1
	note A#, 1
	note A_, 1
	note A_, 1
	note C_, 1
	note C_, 2
	note C_, 2
	note D_, 1
	note C_, 2
	note C_, 1
	note C_, 2
	note C_, 2
	note D_, 1
	note C_, 2
	note C_, 1
	note C_, 2
	note C_, 2
	note D_, 1
	note C_, 1
	note G_, 1
	note E_, 1
	note E_, 2
	note A#, 2
	note A#, 3
	note A_, 1
	note A_, 2
	note A_, 2
	note A_, 3
	note A_, 1
	note A_, 2
	note A_, 2
	note A_, 2
	note A_, 1
	note G_, 2
	note G_, 3
	note G_, 3
	note E_, 3
	note G_, 5
	volume_envelope $B, 1
	note G_, 2
	note G_, 3
	note G_, 3
	note E_, 3
	note G_, 2
	note E_, 1
	volume_envelope $B, 3
	note C_, 4
	volume_envelope $B, 1
	note F_, 1
	note F_, 2
	note D#, 3
	note D#, 1
	note D#, 2
	volume_envelope $B, 3
	note C_, 7
	volume_envelope $B, 1
	octave 2
	note G_, 2
	note G_, 1
	note G_, 3
	octave 3
	note G_, 2
	note G_, 1
	note G_, 3
	note G_, 2
	sound_loop 0, Music_Oreburgh_Ch1_loop

Music_Oreburgh_Ch2:
	pitch_offset $0001
	duty_cycle 1
Music_Oreburgh_Ch2_loop:
	note_type $C, $C, 5
	octave 4
	note C_, 3
	note G_, 3
	note D_, 2
	note E_, 2
	note F_, 2
	note G_, 2
	octave 5
	note C_, 2
	octave 4
	note A_, 3
	note G_, 3
	note C_, 2
	note D#, 2
	note D_, 2
	note C_, 1
	note D_, 3
	note C_, 3
	note G_, 3
	note D_, 2
	note E_, 2
	note G_, 2
	octave 5
	note D_, 2
	note C_, 2
	octave 4
	note A_, 3
	note G_, 3
	note C_, 2
	note D#, 2
	note D_, 2
	note C_, 1
	note G#, 3
	volume_envelope $C, 3
	note G_, 3
	note G_, 3
	note F#, 4
	volume_envelope $C, 1
	note F_, 2
	note F_, 4
	volume_envelope $C, 3
	note E_, 3
	note E_, 3
	note E_, 4
	volume_envelope $C, 1
	note F_, 2
	note F_, 4
	volume_envelope $C, 3
	note G_, 3
	note G_, 3
	octave 5
	note C_, 4
	note D_, 3
	note C_, 3
	octave 4
	note A#, 2
	note A_, 2
	note G_, 1
	note C_, 2
	note D_, 1
	note E_, 1
	note E_, 1
	note D#, 1
	note D#, 1
	note D_, 1
	note D_, 1
	note C#, 1
	note C#, 1
	volume_envelope $C, 5
	note C_, 3
	octave 3
	note A_, 3
	octave 4
	note C_, 2
	note D_, 1
	note D_, 1
	note C_, 2
	note D#, 1
	note C_, 3
	note E_, 3
	note D#, 3
	note E_, 2
	note A#, 1
	note A#, 1
	note A_, 2
	note G#, 1
	note A_, 3
	note E_, 3
	octave 3
	note A_, 3
	octave 4
	note C_, 2
	note D#, 2
	note C_, 2
	note D_, 1
	note C_, 3
	volume_envelope $C, 2
	note C_, 2
	note C_, 2
	note D_, 1
	note C_, 3
	octave 3
	note G_, 1
	octave 4
	note C_, 1
	note D_, 1
	volume_envelope $C, 3
	note C_, 5
	volume_envelope $C, 2
	note E_, 2
	note E_, 2
	note D#, 1
	note E_, 3
	octave 3
	note G_, 1
	octave 4
	note E_, 1
	note F_, 1
	note E_, 2
	note C_, 1
	octave 3
	note G_, 2
	note A_, 2
	note A_, 1
	octave 4
	note C_, 1
	note D_, 1
	note C_, 3
	note D#, 1
	note C_, 1
	note D_, 1
	note C_, 2
	note C_, 1
	note E_, 1
	note F_, 1
	note G_, 2
	note G_, 2
	octave 3
	note G_, 4
	octave 4
	note G_, 1
	note G_, 2
	octave 3
	note G_, 2
	note G_, 1
	note G_, 2
	sound_loop 0, Music_Oreburgh_Ch2_loop

Music_Oreburgh_Ch3:
Music_Oreburgh_Ch3_loop:
	note_type $C, $1, $2
	octave 2
	note C_, 1
	note C_, 1
	note E_, 1
	note E_, 1
	note G_, 1
	note G_, 1
	note A#, 1
	note G_, 1
	note E_, 1
	note E_, 1
	note G_, 1
	note G_, 1
	note A#, 1
	note A#, 1
	octave 3
	note D_, 1
	octave 2
	note A#, 1
	note F_, 1
	note F_, 1
	note A_, 1
	note A_, 1
	octave 3
	note C_, 1
	note C_, 1
	note E_, 1
	note C_, 1
	octave 1
	note A#, 1
	note A#, 1
	octave 2
	note D_, 1
	note D_, 1
	note F_, 1
	note F_, 1
	note G#, 1
	note F_, 1
	note C_, 1
	note C_, 1
	note E_, 1
	note E_, 1
	note G_, 1
	note G_, 1
	note A#, 1
	note G_, 1
	note E_, 1
	note E_, 1
	note G_, 1
	note G_, 1
	note A#, 1
	note A#, 1
	octave 3
	note D_, 1
	octave 2
	note A#, 1
	note F_, 1
	note F_, 1
	note A_, 1
	note A_, 1
	octave 3
	note C_, 1
	note C_, 1
	note E_, 1
	note C_, 1
	octave 1
	note A#, 1
	note A#, 1
	octave 2
	note D_, 1
	note D_, 1
	note F_, 1
	note F_, 1
	note G#, 1
	note F_, 1
	note D_, 1
	rest 2
	note D_, 1
	rest 2
	note D_, 1
	rest 3
	note G_, 1
	rest 1
	note G_, 1
	rest 3
	note C_, 1
	rest 2
	note C_, 1
	rest 2
	note C_, 1
	rest 3
	note C#, 1
	rest 1
	note C#, 1
	rest 4
	note D_, 1
	rest 1
	note D_, 1
	note D_, 1
	rest 3
	note G_, 1
	rest 1
	note G_, 1
	note G_, 1
	rest 5
	note C_, 1
	rest 1
	note C_, 1
	note C_, 1
	rest 4
	note G_, 1
	rest 2
	note A#, 1
	rest 3
	note F_, 1
	note F_, 1
	note A_, 1
	note A_, 1
	octave 3
	note C_, 1
	note C_, 1
	note D_, 1
	note C_, 1
	octave 2
	note F#, 1
	note F#, 1
	note A_, 1
	note A_, 1
	octave 3
	note C_, 1
	note C_, 1
	note D_, 1
	note C_, 1
	octave 2
	note G_, 1
	note G_, 1
	octave 3
	note C_, 1
	note C_, 1
	note E_, 1
	note E_, 1
	note G_, 1
	note E_, 1
	octave 2
	note A_, 1
	note A_, 1
	octave 3
	note C#, 1
	note C#, 1
	note G_, 1
	note G_, 1
	note A#, 1
	note G_, 1
	octave 2
	note D_, 1
	note D_, 1
	note F_, 1
	note F_, 1
	note A_, 1
	note A_, 1
	octave 3
	note C_, 1
	octave 2
	note A_, 1
	note F_, 1
	note F_, 1
	note A_, 1
	note A_, 1
	octave 3
	note C_, 1
	note C_, 1
	note D#, 1
	note C_, 1
	rest 1
	octave 2
	note C_, 1
	rest 2
	note C_, 1
	note C_, 1
	rest 2
	note C_, 1
	rest 1
	note C_, 1
	note C_, 1
	rest 5
	note C_, 1
	rest 2
	note C_, 1
	note C_, 1
	rest 2
	note C_, 1
	rest 1
	note C_, 1
	note C_, 1
	rest 5
	note F_, 1
	rest 2
	note F_, 1
	note F_, 1
	rest 2
	note F_, 1
	rest 1
	note F_, 1
	note F_, 1
	rest 5
	note C_, 1
	rest 2
	note C_, 1
	note C_, 1
	rest 2
	note G_, 1
	rest 1
	note G_, 1
	note G_, 1
	rest 4
	sound_loop 0, Music_Oreburgh_Ch3_loop

Music_Oreburgh_Ch4:
	toggle_noise 3
Music_Oreburgh_Ch4_loop:
	drum_speed $C
	drum_note 11, 1
	drum_note 9, 1
	drum_note 1, 1
	drum_note 9, 1
	drum_note 11, 1
	drum_note 9, 1
	drum_note 1, 1
	drum_note 9, 1
	drum_note 11, 1
	drum_note 9, 1
	drum_note 1, 1
	drum_note 9, 1
	drum_note 11, 1
	drum_note 9, 1
	drum_note 1, 1
	drum_note 9, 1
	drum_note 11, 1
	drum_note 9, 1
	drum_note 1, 1
	drum_note 9, 1
	drum_note 11, 1
	drum_note 9, 1
	drum_note 1, 1
	drum_note 9, 1
	drum_note 11, 1
	drum_note 9, 1
	drum_note 1, 1
	drum_note 9, 1
	drum_note 11, 1
	drum_note 9, 1
	drum_note 1, 1
	drum_note 9, 1
	drum_note 11, 1
	drum_note 9, 1
	drum_note 1, 1
	drum_note 9, 1
	drum_note 11, 1
	drum_note 9, 1
	drum_note 1, 1
	drum_note 9, 1
	drum_note 11, 1
	drum_note 9, 1
	drum_note 1, 1
	drum_note 9, 1
	drum_note 11, 1
	drum_note 9, 1
	drum_note 1, 1
	drum_note 9, 1
	drum_note 11, 1
	drum_note 9, 1
	drum_note 1, 1
	drum_note 9, 1
	drum_note 11, 1
	drum_note 9, 1
	drum_note 1, 1
	drum_note 9, 1
	drum_note 11, 1
	drum_note 9, 1
	drum_note 1, 1
	drum_note 9, 1
	drum_note 11, 1
	drum_note 9, 1
	drum_note 1, 1
	drum_note 9, 1
	drum_note 1, 2
	drum_note 5, 1
	drum_note 1, 2
	drum_note 5, 1
	drum_note 1, 2
	drum_note 5, 2
	drum_note 1, 2
	drum_note 1, 2
	drum_note 5, 2
	drum_note 1, 2
	drum_note 5, 1
	drum_note 1, 2
	drum_note 5, 1
	drum_note 1, 2
	drum_note 5, 2
	drum_note 1, 2
	drum_note 1, 2
	drum_note 5, 2
	drum_note 1, 2
	drum_note 5, 1
	drum_note 1, 2
	drum_note 5, 1
	drum_note 1, 2
	drum_note 1, 1
	drum_note 9, 2
	drum_note 1, 1
	drum_note 1, 2
	drum_note 9, 1
	drum_note 1, 1
	drum_note 11, 1
	drum_note 9, 1
	drum_note 1, 1
	drum_note 9, 1
	drum_note 11, 1
	drum_note 9, 1
	drum_note 1, 1
	drum_note 9, 1
	drum_note 1, 1
	drum_note 1, 2
	drum_note 1, 1
	drum_note 1, 1
	drum_note 1, 2
	drum_note 1, 1
	drum_note 11, 1
	drum_note 9, 1
	drum_note 1, 1
	drum_note 9, 1
	drum_note 11, 1
	drum_note 9, 1
	drum_note 1, 1
	drum_note 9, 1
	drum_note 11, 1
	drum_note 9, 1
	drum_note 1, 1
	drum_note 9, 1
	drum_note 11, 1
	drum_note 9, 1
	drum_note 1, 1
	drum_note 9, 1
	drum_note 11, 1
	drum_note 9, 1
	drum_note 1, 1
	drum_note 9, 1
	drum_note 11, 1
	drum_note 9, 1
	drum_note 1, 1
	drum_note 9, 1
	drum_note 11, 1
	drum_note 9, 1
	drum_note 1, 1
	drum_note 9, 1
	drum_note 11, 1
	drum_note 9, 1
	drum_note 1, 1
	drum_note 9, 1
	drum_note 11, 1
	drum_note 9, 1
	drum_note 1, 1
	drum_note 9, 1
	drum_note 11, 1
	drum_note 9, 1
	drum_note 1, 1
	drum_note 9, 1
	drum_note 11, 1
	drum_note 9, 1
	drum_note 1, 1
	drum_note 9, 1
	drum_note 1, 1
	drum_note 9, 2
	drum_note 11, 1
	drum_note 11, 2
	drum_note 1, 2
	drum_note 11, 1
	drum_note 1, 3
	drum_note 11, 2
	drum_note 1, 2
	drum_note 11, 1
	drum_note 1, 3
	drum_note 11, 2
	drum_note 1, 2
	drum_note 11, 1
	drum_note 1, 3
	drum_note 11, 2
	drum_note 1, 2
	drum_note 11, 1
	drum_note 1, 3
	drum_note 11, 2
	drum_note 1, 2
	drum_note 11, 1
	drum_note 1, 3
	drum_note 11, 2
	drum_note 1, 2
	drum_note 11, 1
	drum_note 1, 3
	drum_note 11, 2
	drum_note 1, 2
	drum_note 11, 1
	drum_note 1, 3
	drum_note 11, 2
	drum_note 1, 2
	drum_note 11, 1
	drum_note 1, 3
	sound_loop 0, Music_Oreburgh_Ch4_loop
