Music_SinnohGym:
	channel_count 4
	channel 1, Music_SinnohGym_Ch1
	channel 2, Music_SinnohGym_Ch2
	channel 3, Music_SinnohGym_Ch3
	channel 4, Music_SinnohGym_Ch4

Music_SinnohGym_Ch1:
	tempo $A0
	volume $7, $7
	stereo_panning TRUE, TRUE
	note_type $C, $0, 0
	rest 2
	duty_cycle 1
	pitch_offset $0002
	volume_envelope $A, 3
	vibrato $12, $2, $4
	octave 3
	note D#, 2
	note G_, 1
	note G_, 1
	rest 4
	note C#, 2
	note F_, 1
	note F_, 1
	rest 4
	note D#, 2
	note C_, 1
	note C_, 1
	rest 2
	note D#, 1
	note D#, 1
	rest 2
	note_type $8, $A, 3
	note D#, 2
	note E_, 2
	note F_, 6
	octave 2
	note A#, 8
	rest 4
	octave 3
	note C#, 14
	octave 4
	note C_, 2
	octave 3
	note G#, 2
	note D#, 2
	note C_, 2
	note D#, 2
	octave 4
	note C_, 2
	octave 3
	note D#, 2
	note G#, 2
	octave 4
	note C_, 2
	note D#, 6
	octave 2
	note D#, 2
	note G#, 2
	octave 3
	note C_, 2
	note D#, 2
	note D#, 2
	rest 2
	note D#, 2
	note F_, 2
	note F#, 2
Music_SinnohGym_Ch1_loop:
	duty_cycle 2
	octave 2
	note D#, 12
	octave 3
	note D#, 2
	rest 2
	note D#, 2
	octave 2
	note D#, 2
	note G_, 2
	note D#, 2
	octave 3
	note C#, 6
	octave 2
	note G#, 2
	rest 2
	note F_, 2
	note G#, 6
	octave 3
	note C#, 2
	rest 2
	note C#, 2
	note D#, 6
	octave 2
	note G_, 6
	note D#, 2
	note G_, 2
	note A#, 2
	octave 3
	note G_, 6
	octave 2
	note C#, 6
	note F_, 2
	note G#, 2
	octave 3
	note C#, 2
	note F_, 2
	note C#, 2
	note F_, 2
	note G#, 6
	octave 2
	note G_, 2
	rest 2
	note G_, 2
	note D#, 6
	note A#, 2
	rest 2
	note A#, 2
	note G_, 6
	note G#, 6
	note F_, 2
	rest 2
	note F_, 2
	note G#, 2
	rest 2
	note G#, 2
	octave 3
	note C#, 6
	note D#, 2
	rest 2
	note D#, 2
	octave 2
	note D#, 2
	note G_, 2
	note A#, 2
	octave 3
	note D#, 2
	rest 2
	note D#, 2
	octave 2
	note D#, 6
	octave 3
	note G#, 8
	note F_, 4
	note C#, 6
	note F_, 6
	note A#, 8
	note F_, 4
	note D_, 6
	note F_, 2
	note G#, 2
	octave 4
	note C_, 2
	duty_cycle 0
	note_type $C, $A, 1
	note G_, 1
	rest 1
	note G_, 3
	rest 1
	note G_, 1
	note G#, 1
	note A#, 1
	rest 1
	octave 5
	note D#, 1
	rest 1
	octave 4
	note D#, 1
	rest 1
	octave 5
	note D#, 1
	rest 1
	octave 4
	note G#, 1
	rest 1
	octave 5
	note C#, 1
	rest 1
	octave 4
	note C#, 1
	rest 1
	octave 5
	note C#, 1
	rest 1
	octave 4
	note F_, 1
	rest 1
	note G#, 1
	rest 1
	note C#, 1
	rest 1
	octave 5
	note C#, 1
	rest 1
	octave 4
	note G_, 1
	rest 1
	note G_, 3
	rest 1
	note G_, 1
	note G#, 1
	note A#, 1
	rest 1
	octave 3
	note D#, 2
	octave 4
	note D#, 2
	octave 3
	note_type $A, $A, 1
	note A#, 4
	note_type $8, $A, 1
	note G#, 2
	note B_, 2
	octave 4
	note D#, 2
	note G#, 2
	note B_, 2
	octave 3
	note F_, 2
	note A#, 2
	octave 4
	note D_, 2
	note F_, 2
	note A#, 2
	octave 5
	note D_, 2
	octave 4
	note_type $C, $A, 1
	note D#, 1
	octave 3
	note A#, 1
	octave 4
	note D#, 1
	note G_, 1
	note_type $8, $A, 1
	note D#, 1
	note G_, 1
	note A#, 1
	octave 5
	note D#, 1
	note G_, 1
	note A#, 1
	octave 6
	note D#, 6
	note G_, 6
	octave 4
	note_type $C, $A, 1
	note C#, 1
	octave 3
	note G#, 1
	octave 4
	note C#, 1
	note F_, 1
	note_type $8, $A, 1
	note C#, 1
	note F_, 1
	note G#, 1
	octave 5
	note C#, 1
	note F_, 1
	note G#, 1
	octave 6
	note C#, 6
	note F_, 6
	octave 2
	note D#, 2
	note A#, 2
	octave 3
	note D#, 2
	note A#, 2
	octave 4
	note D#, 2
	note G_, 2
	octave 2
	note G_, 2
	octave 3
	note C#, 2
	note D#, 2
	note G_, 2
	octave 4
	note C#, 2
	note G_, 2
	octave 5
	note D#, 2
	note C#, 2
	octave 4
	note A#, 2
	note G_, 2
	note D#, 2
	octave 3
	note A#, 2
	note G_, 2
	note D#, 2
	octave 2
	note A#, 2
	note G_, 6
	octave 5
	note G#, 2
	note D#, 2
	note C_, 2
	octave 4
	note G#, 2
	note D#, 2
	note C_, 2
	octave 3
	note A#, 2
	note F_, 2
	note D_, 2
	octave 2
	note A#, 6
	duty_cycle 1
	volume_envelope $A, 7
	octave 3
	note F_, 8
	note D_, 2
	note F_, 2
	note D#, 8
	note C_, 2
	note D#, 2
	note_type $C, $A, 7
	note G#, 16
	note_type $8, $A, 7
	note D#, 8
	note C_, 2
	note D#, 2
	note G#, 8
	note D#, 2
	note G#, 2
	octave 4
	note_type $C, $A, 7
	note C_, 12
	octave 3
	note_type $8, $A, 7
	note D#, 2
	note G#, 2
	octave 4
	note C_, 2
	note_type $C, $A, 7
	note D#, 12
	octave 2
	note_type $8, $A, 7
	note G#, 2
	octave 3
	note C_, 2
	note D#, 4
	note C_, 16
	note C_, 2
	note C#, 2
	note D_, 2
	sound_loop 0, Music_SinnohGym_Ch1_loop

Music_SinnohGym_Ch2:
	duty_cycle 1
	pitch_offset $0001
	octave 4
	note_type $C, $C, 7
	note D#, 8
	note C#, 8
	note C_, 12
	note_type $8, $C, 7
	note C_, 2
	volume_envelope $C, 2
	note C#, 2
	note D_, 6
	note D#, 4
	octave 3
	note A#, 2
	octave 4
	note D#, 2
	rest 4
	note C#, 4
	octave 3
	note A#, 2
	octave 4
	note C#, 2
	note C_, 2
	octave 3
	note G#, 2
	note D#, 2
	octave 4
	note_type $C, $C, 7
	note C_, 16
	octave 3
	note_type $8, $C, 2
	note C_, 2
	note D#, 2
	note G#, 2
	octave 4
	note C_, 2
	note C_, 2
	rest 2
	note C_, 2
	note C#, 2
	note D_, 2
Music_SinnohGym_Ch2_loop:
	note_type $C, $C, 7
	note D#, 12
	octave 3
	note_type $8, $C, 2
	note G_, 2
	note A#, 2
	octave 4
	note D#, 2
	note F_, 2
	rest 2
	note C#, 2
	note C#, 6
	note G#, 2
	rest 2
	note F_, 2
	note F_, 6
	volume_envelope $C, 7
	note D#, 6
	volume_envelope $C, 2
	octave 3
	note D#, 2
	note G_, 2
	note A#, 2
	volume_envelope $C, 7
	octave 4
	note D#, 8
	volume_envelope $C, 2
	octave 3
	note A#, 2
	octave 4
	note D#, 2
	octave 3
	note C#, 2
	note F_, 2
	note G#, 2
	octave 4
	note C#, 2
	octave 3
	note G#, 2
	octave 4
	note C#, 2
	volume_envelope $C, 7
	note F_, 12
	volume_envelope $C, 2
	octave 3
	note D#, 2
	note G_, 2
	note A#, 2
	octave 4
	note D#, 2
	octave 3
	note A#, 2
	octave 4
	note D#, 2
	volume_envelope $C, 7
	note G_, 12
	volume_envelope $C, 2
	note G#, 2
	rest 2
	note F_, 2
	note F_, 2
	note E_, 2
	note F_, 2
	octave 5
	note C#, 2
	rest 2
	octave 4
	note G#, 2
	note G#, 2
	note F_, 2
	note G#, 2
	volume_envelope $C, 7
	note G_, 6
	volume_envelope $C, 2
	octave 3
	note G_, 2
	note A#, 2
	octave 4
	note D#, 2
	volume_envelope $C, 7
	note G_, 12
	volume_envelope $C, 2
	note G#, 2
	note F_, 2
	note G#, 2
	octave 5
	note_type $C, $C, 7
	note C#, 12
	octave 4
	note_type $8, $C, 2
	note A#, 2
	note F_, 2
	note A#, 2
	volume_envelope $C, 7
	octave 5
	note D_, 12
	note C_, 6
	duty_cycle 2
	octave 3
	note A#, 9
	octave 4
	note D#, 9
	octave 3
	note A#, 6
	octave 4
	note C#, 6
	note C_, 6
	octave 3
	note A#, 6
	note G#, 6
	note_type $C, $C, 7
	note G_, 1
	rest 1
	note G_, 4
	note G_, 1
	note G#, 1
	note A#, 1
	rest 1
	note D#, 2
	octave 4
	note D#, 2
	octave 3
	note A#, 2
	octave 4
	note C#, 4
	octave 3
	note B_, 4
	note A#, 4
	note G#, 4
	note A#, 6
	octave 4
	note D#, 6
	octave 3
	note A#, 4
	octave 4
	note C#, 4
	note C_, 4
	octave 3
	note A#, 4
	note G#, 4
	note_type $8, $C, 1
	note G_, 2
	note G_, 2
	note G#, 2
	volume_envelope $C, 7
	note A#, 6
	volume_envelope $C, 1
	note A#, 2
	note A#, 2
	octave 4
	note C_, 2
	volume_envelope $C, 7
	note C#, 6
	volume_envelope $C, 1
	note D#, 2
	note D#, 2
	note F_, 2
	note_type $C, $C, 7
	note G_, 12
	note G#, 12
	note_type $8, $C, 7
	note A#, 4
	rest 2
	duty_cycle 1
	octave 3
	note A#, 8
	note F_, 2
	note A#, 2
	note G#, 8
	note D#, 2
	note G#, 2
	octave 4
	note_type $C, $C, 7
	note C_, 16
	octave 3
	note_type $8, $C, 7
	note G#, 8
	note D#, 2
	note G#, 2
	octave 4
	note C_, 8
	octave 3
	note G#, 2
	octave 4
	note C_, 2
	note_type $C, $C, 7
	note D#, 12
	octave 3
	note_type $8, $C, 7
	note G#, 2
	octave 4
	note C_, 2
	note D#, 2
	note_type $C, $C, 7
	note G#, 12
	octave 3
	note_type $8, $C, 7
	note C_, 2
	note D#, 2
	note G#, 4
	octave 4
	note C_, 16
	note C_, 2
	note C#, 2
	note D_, 2
	sound_loop 0, Music_SinnohGym_Ch2_loop

Music_SinnohGym_Ch3:
	volume_envelope $1, $2
	octave 2
	note_type $C, $1, $2
	note D#, 4
	note D#, 1
	note A#, 3
	note C#, 4
	note C#, 1
	note F_, 3
	note G#, 12
	note A#, 4
	note D#, 8
	note G_, 8
	note G#, 4
	note D#, 4
	note G#, 4
	octave 3
	note C_, 4
	note D#, 4
	octave 2
	note_type $8, $1, $2
	note G#, 2
	note C_, 2
	note D#, 2
	note G#, 2
	note G#, 2
	rest 2
	note A#, 6
Music_SinnohGym_Ch3_loop:
	note D#, 2
	rest 4
	note A#, 2
	rest 4
	note D#, 2
	rest 4
	note A#, 2
	rest 4
	note C#, 2
	rest 4
	note G#, 2
	rest 4
	note C#, 2
	rest 4
	note G#, 2
	rest 4
	note D#, 2
	rest 4
	note A#, 2
	rest 4
	note D#, 2
	rest 4
	note A#, 2
	rest 4
	note C#, 2
	rest 4
	note G#, 2
	rest 4
	note C#, 2
	rest 4
	note G#, 2
	rest 4
	note D#, 2
	note D#, 2
	note D#, 2
	note A#, 2
	rest 4
	note D#, 2
	note D#, 2
	note D#, 2
	note A#, 2
	rest 4
	note C#, 2
	rest 2
	note C#, 2
	note G#, 2
	rest 8
	note G#, 2
	note C#, 2
	rest 4
	note D#, 2
	note D#, 2
	note D#, 2
	note A#, 2
	rest 2
	note A#, 2
	note D#, 2
	note D#, 2
	note D#, 2
	note A#, 2
	rest 2
	octave 3
	note D#, 2
	note C#, 10
	octave 2
	note G#, 2
	note G#, 12
	octave 3
	note D_, 10
	octave 2
	note A#, 2
	note A#, 12
	note D#, 6
	note G_, 6
	note A#, 6
	note D#, 6
	note C#, 6
	note F_, 6
	note G#, 6
	note C#, 6
	note C_, 6
	note D#, 6
	note G_, 3
	note C_, 3
	note D#, 3
	note C_, 3
	octave 1
	note G#, 2
	rest 2
	note G#, 2
	note B_, 6
	note A#, 2
	rest 2
	note A#, 2
	octave 2
	note D_, 6
	octave 3
	note D#, 3
	note D#, 6
	octave 2
	note A#, 3
	note D#, 3
	note A#, 3
	octave 3
	note D#, 3
	octave 2
	note A#, 3
	octave 3
	note C#, 3
	note C#, 6
	octave 2
	note G#, 3
	note C#, 3
	note G#, 3
	octave 3
	note C#, 3
	octave 2
	note G#, 3
	note D#, 2
	note D#, 2
	note F_, 2
	note G_, 6
	note G_, 2
	note G_, 2
	note G#, 2
	note A#, 6
	note A#, 2
	note A#, 2
	octave 3
	note C#, 2
	note_type $C, $1, $2
	note D#, 12
	octave 2
	note_type $8, $1, $2
	note G#, 8
	note D#, 2
	note G#, 2
	note A#, 8
	note F_, 2
	note A#, 2
	octave 3
	note D_, 12
	note C_, 12
	octave 2
	note G#, 8
	octave 3
	note C_, 2
	note D#, 2
	note_type $C, $1, $2
	note G#, 1
	rest 1
	note D#, 1
	rest 1
	note C_, 1
	rest 1
	octave 2
	note G#, 1
	rest 1
	octave 3
	note C_, 8
	octave 2
	note D#, 8
	note_type $8, $1, $2
	note G#, 8
	octave 3
	note C_, 2
	note D#, 2
	note_type $C, $1, $2
	note G#, 1
	rest 1
	note D#, 1
	rest 1
	octave 2
	note G#, 1
	rest 1
	note D#, 1
	rest 1
	note_type $8, $1, $2
	note G#, 2
	note D#, 2
	note G#, 2
	octave 3
	note C_, 2
	octave 2
	note G#, 2
	octave 3
	note D#, 2
	note_type $C, $1, $2
	note G#, 1
	rest 1
	note D#, 1
	rest 1
	octave 2
	note G#, 1
	rest 1
	note D#, 1
	note_type $E, $1, $2
	rest 2
	note_type $8, $1, $2
	note G#, 16
	note G#, 2
	note A_, 2
	note A#, 2
	sound_loop 0, Music_SinnohGym_Ch3_loop

Music_SinnohGym_Ch4:
	toggle_noise 1
	drum_speed $C
	drum_note 6, 8
	drum_note 6, 8
	drum_note 6, 8
	drum_note 6, 4
	drum_note 6, 4
	drum_note 6, 8
	drum_note 6, 16
	drum_speed $F
	rest 16
	drum_speed $8
	drum_note 10, 2
	drum_note 11, 2
	drum_note 11, 2
Music_SinnohGym_Ch4_loop:
	drum_note 10, 4
	drum_note 12, 2
	drum_note 11, 2
	drum_note 11, 2
	drum_note 11, 2
	drum_note 10, 4
	drum_note 12, 2
	drum_note 11, 2
	drum_note 11, 2
	drum_note 11, 2
	drum_note 10, 4
	drum_note 12, 2
	drum_note 11, 1
	drum_note 12, 1
	drum_note 12, 1
	drum_note 12, 1
	drum_note 12, 1
	drum_note 12, 1
	drum_note 10, 4
	drum_note 12, 2
	drum_note 11, 1
	drum_note 12, 1
	drum_note 12, 1
	drum_note 12, 1
	drum_note 12, 1
	drum_note 12, 1
	drum_note 10, 4
	drum_note 12, 2
	drum_note 11, 2
	drum_note 11, 2
	drum_note 11, 2
	drum_note 10, 4
	drum_note 12, 2
	drum_note 11, 2
	drum_note 11, 2
	drum_note 11, 2
	drum_note 10, 4
	drum_note 12, 2
	drum_note 11, 1
	drum_note 12, 1
	drum_note 12, 1
	drum_note 12, 1
	drum_note 12, 1
	drum_note 12, 1
	drum_note 10, 4
	drum_note 12, 2
	drum_note 11, 1
	drum_note 12, 1
	drum_note 12, 1
	drum_note 12, 1
	drum_note 12, 1
	drum_note 12, 1
	drum_note 10, 2
	drum_note 10, 2
	drum_note 10, 2
	drum_note 6, 6
	drum_note 10, 2
	drum_note 11, 2
	drum_note 11, 2
	drum_note 6, 6
	drum_note 10, 4
	drum_note 11, 2
	drum_note 11, 1
	drum_note 12, 1
	drum_note 12, 1
	drum_note 12, 1
	drum_note 12, 1
	drum_note 12, 1
	drum_note 10, 4
	drum_note 11, 2
	drum_note 11, 1
	drum_note 12, 1
	drum_note 12, 1
	drum_note 12, 1
	drum_note 12, 1
	drum_note 12, 1
	drum_note 10, 2
	drum_note 10, 2
	drum_note 10, 2
	drum_note 6, 6
	drum_note 10, 2
	drum_note 11, 2
	drum_note 11, 14
	drum_note 6, 4
	drum_note 10, 2
	drum_note 11, 1
	drum_note 12, 1
	drum_note 12, 1
	drum_note 12, 1
	drum_note 12, 1
	drum_note 12, 1
	drum_note 12, 1
	drum_note 12, 1
	drum_note 12, 1
	drum_note 12, 1
	drum_note 12, 1
	drum_note 12, 7
	drum_note 6, 4
	drum_note 10, 2
	drum_note 11, 1
	drum_note 12, 1
	drum_note 12, 1
	drum_note 12, 1
	drum_note 12, 1
	drum_note 12, 1
	drum_note 12, 1
	drum_note 12, 1
	drum_note 12, 1
	drum_note 12, 1
	drum_note 12, 1
	drum_note 12, 16
	rest 16
	rest 16
	rest 16
	rest 16
	rest 16
	drum_speed $1
	rest 8
	drum_speed $8
	drum_note 6, 3
	drum_note 6, 6
	drum_note 10, 6
	drum_note 10, 6
	drum_speed $C
	drum_note 9, 1
	drum_note 10, 1
	drum_note 6, 2
	drum_note 6, 4
	drum_note 10, 4
	drum_note 10, 4
	drum_note 9, 1
	drum_note 10, 5
	drum_note 6, 8
	drum_note 6, 8
	drum_note 6, 4
	drum_speed $8
	drum_note 10, 4
	drum_note 12, 2
	drum_note 11, 1
	drum_note 12, 1
	drum_note 12, 1
	drum_note 12, 1
	drum_note 12, 1
	drum_note 12, 1
	drum_note 10, 4
	drum_note 11, 2
	drum_note 11, 2
	drum_note 11, 2
	drum_note 11, 2
	drum_note 10, 4
	drum_note 12, 2
	drum_speed $F
	drum_note 6, 16
	drum_note 6, 16
	drum_speed $C
	rest 12
	drum_note 6, 16
	drum_note 6, 16
	rest 16
	drum_speed $8
	sound_loop 0, Music_SinnohGym_Ch4_loop

