Music_WinGymSinnoh:
	channel_count 4
	channel 1, Music_WinGymSinnoh_Ch1
	channel 2, Music_WinGymSinnoh_Ch2
	channel 3, Music_WinGymSinnoh_Ch3
	channel 4, Music_WinGymSinnoh_Ch4

Music_WinGymSinnoh_Ch1:
	tempo $78
	volume $7, $7
	stereo_panning TRUE, TRUE
	duty_cycle 2
	pitch_offset $0002
	octave 4
	note_type $C, $A, 7
	note D_, 6
	note_type $8, $A, 7
	note D_, 1
	note F#, 1
	note A_, 1
	octave 5
	note D_, 9
	octave 4
	note D_, 1
	note F#, 1
	note A_, 1
	octave 5
	note_type $E, $A, 7
	note D_, 12
	note_type $C, $A, 7
	note E_, 2
	octave 4
	note D_, 6
	note_type $8, $A, 7
	note D_, 1
	note F#, 1
	note A_, 1
	octave 5
	note D_, 9
	octave 4
	note D_, 1
	note F#, 1
	note A_, 1
	octave 5
	note_type $E, $A, 7
	note D_, 12
	note_type $C, $A, 7
	note E_, 2
	volume_envelope $A, 1
Music_WinGymSinnoh_Ch1_loop:
	octave 2
	note D_, 1
	note F#, 1
	note A_, 1
	octave 3
	note D_, 1
	volume_envelope $A, 4
	note F#, 4
	volume_envelope $A, 1
	octave 2
	note C#, 1
	note F#, 1
	note A_, 1
	octave 3
	note D_, 1
	volume_envelope $A, 4
	note F#, 4
	volume_envelope $A, 1
	octave 1
	note B_, 1
	octave 2
	note D_, 1
	note F#, 1
	note A_, 1
	volume_envelope $A, 4
	octave 3
	note D_, 4
	volume_envelope $A, 1
	octave 1
	note A_, 1
	octave 2
	note C#, 1
	note E_, 1
	note A_, 1
	volume_envelope $A, 4
	octave 3
	note C#, 4
	volume_envelope $A, 1
	octave 2
	note D_, 1
	note F#, 1
	note A_, 1
	octave 3
	note D_, 1
	volume_envelope $A, 4
	note F#, 4
	volume_envelope $A, 1
	octave 2
	note C#, 1
	note F#, 1
	note A_, 1
	octave 3
	note D_, 1
	volume_envelope $A, 4
	note F#, 4
	volume_envelope $A, 1
	octave 1
	note B_, 1
	octave 2
	note D_, 1
	note F#, 1
	note A_, 1
	octave 1
	note A_, 1
	octave 2
	note C#, 1
	note E_, 1
	note A_, 1
	note D_, 1
	note F#, 1
	note A_, 1
	octave 3
	note D_, 1
	volume_envelope $A, 4
	note F#, 4
	note A_, 4
	octave 4
	note D_, 4
	note C#, 4
	note E_, 4
	octave 3
	note B_, 4
	note G_, 4
	note A_, 4
	octave 4
	note C#, 4
	octave 3
	note F#, 4
	octave 4
	note D_, 4
	octave 3
	note G_, 4
	note A_, 4
	note E_, 4
	octave 4
	note C#, 4
	note D_, 1
	octave 3
	note A_, 1
	note F#, 1
	note D_, 1
	octave 4
	note F#, 1
	note D_, 1
	octave 3
	note A_, 1
	note D_, 1
	octave 2
	note F#, 6
	note D_, 1
	note F#, 1
	note A_, 6
	octave 3
	note D_, 1
	note E_, 1
	note F#, 4
	note D_, 4
	octave 2
	note A_, 4
	note F#, 4
	note G#, 6
	note E_, 1
	note G#, 1
	note B_, 6
	octave 3
	note E_, 1
	note F#, 1
	note G#, 4
	note E_, 4
	note D_, 4
	octave 2
	note B_, 4
	note E_, 4
	note C#, 2
	octave 1
	note A_, 1
	octave 2
	note C#, 1
	note G_, 4
	note E_, 4
	note A_, 6
	note E_, 1
	note A_, 1
	octave 3
	note C#, 8
	octave 2
	note F#, 6
	note D_, 1
	note F#, 1
	note A_, 6
	note F#, 1
	octave 3
	note C#, 1
	note D_, 2
	octave 2
	note A_, 2
	note F#, 2
	note F_, 2
	note E_, 4
	note G_, 4
	duty_cycle 0
	note_type $8, $A, 1
	note D_, 2
	note F#, 2
	note A_, 2
	octave 3
	note D_, 2
	note F#, 2
	note A_, 2
	octave 2
	note F#, 2
	note A_, 2
	octave 3
	note D_, 2
	note F#, 2
	note A_, 2
	octave 4
	note D_, 2
	octave 2
	note C_, 2
	note F#, 2
	note A_, 2
	octave 3
	note C_, 2
	note F#, 2
	note A_, 2
	octave 2
	note F#, 2
	note A_, 2
	octave 3
	note C_, 2
	note F#, 2
	note A_, 2
	octave 4
	note C_, 2
	octave 1
	note B_, 2
	octave 2
	note E_, 2
	note G_, 2
	note B_, 2
	octave 3
	note E_, 2
	note G_, 2
	octave 2
	note E_, 2
	note G_, 2
	note B_, 2
	octave 3
	note E_, 2
	note G_, 2
	note B_, 2
	octave 1
	note A#, 2
	octave 2
	note E_, 2
	note G_, 2
	note A#, 2
	octave 3
	note E_, 2
	note G_, 2
	octave 2
	note E_, 2
	note G_, 2
	note A#, 2
	octave 3
	note E_, 2
	note G_, 2
	note A#, 2
	duty_cycle 2
	volume_envelope $A, 4
	octave 1
	note C#, 3
	octave 2
	note C#, 3
	octave 1
	note E_, 3
	octave 2
	note E_, 3
	octave 1
	note A_, 3
	octave 2
	note A_, 3
	octave 1
	note C#, 3
	octave 2
	note C#, 3
	octave 1
	note E_, 3
	octave 2
	note E_, 3
	octave 1
	note G_, 3
	octave 2
	note G_, 3
	octave 1
	note C#, 3
	octave 2
	note C#, 3
	octave 1
	note E_, 3
	octave 2
	note E_, 3
	note G_, 3
	note G_, 3
	rest 3
	note G_, 3
	rest 3
	note G_, 3
	rest 3
	note G_, 6
	octave 4
	note D_, 3
	note F#, 3
	note A_, 3
	note C_, 3
	note D_, 3
	note F#, 3
	note A_, 3
	octave 3
	note B_, 3
	octave 4
	note D_, 3
	note F#, 3
	note A_, 3
	octave 3
	note A_, 3
	note G_, 3
	note C#, 3
	octave 2
	note A_, 3
	note_type $C, $A, 1
	sound_loop 0, Music_WinGymSinnoh_Ch1_loop

Music_WinGymSinnoh_Ch2:
	duty_cycle 1
	pitch_offset $0001
	vibrato $08, $2, $4
	octave 3
	note_type $C, $B, 7
	note A_, 6
	note F#, 1
	note A_, 1
	octave 4
	note D_, 6
	octave 3
	note A_, 1
	octave 4
	note D_, 1
	note F#, 16
	octave 3
	note A_, 6
	note F#, 1
	note A_, 1
	octave 4
	note D_, 6
	octave 3
	note A_, 1
	octave 4
	note D_, 1
	note F#, 14
	note E_, 2
Music_WinGymSinnoh_Ch2_loop:
	volume_envelope $B, 2
	note D_, 2
	note C#, 2
	octave 3
	note B_, 4
	octave 4
	note C#, 2
	octave 3
	note B_, 2
	note A_, 4
	note B_, 2
	note A_, 2
	note G_, 2
	note F#, 2
	note A_, 4
	note A_, 4
	octave 4
	note D_, 2
	note C#, 2
	octave 3
	note B_, 4
	octave 4
	note C#, 2
	octave 3
	note B_, 2
	note A_, 4
	note B_, 2
	note A_, 2
	note G_, 2
	note F#, 2
	note D_, 8
	duty_cycle 2
	octave 5
	note D_, 2
	note C#, 2
	octave 4
	note B_, 4
	octave 5
	note C#, 2
	octave 4
	note B_, 2
	note A_, 4
	note B_, 2
	note A_, 2
	note G_, 2
	note F#, 2
	note A_, 2
	note E_, 2
	note A_, 2
	octave 5
	note C#, 2
	note D_, 2
	note C#, 2
	octave 4
	note B_, 2
	note F#, 2
	octave 5
	note C#, 2
	octave 4
	note B_, 2
	note A_, 2
	note E_, 2
	note B_, 2
	note A_, 2
	note G_, 2
	note F#, 2
	note D_, 2
	duty_cycle 1
	octave 2
	note A_, 1
	note F#, 1
	octave 3
	note D_, 1
	octave 2
	note A_, 1
	octave 3
	note F#, 1
	note D_, 1
	volume_envelope $B, 7
	note A_, 6
	note F#, 1
	note A_, 1
	octave 4
	note D_, 16
	rest 8
	octave 3
	note B_, 6
	note G#, 1
	note B_, 1
	octave 4
	note E_, 16
	rest 8
	octave 3
	note G_, 6
	note E_, 1
	note G_, 1
	octave 4
	note C#, 16
	note F#, 4
	note E_, 4
	note D_, 14
	octave 3
	note B_, 2
	note A_, 16
	note A_, 6
	note F#, 1
	note A_, 1
	octave 4
	note D_, 16
	rest 8
	octave 3
	note B_, 6
	note G_, 1
	note B_, 1
	octave 4
	note E_, 16
	rest 8
	octave 3
	note G_, 6
	note E_, 1
	note G_, 1
	octave 4
	note C#, 16
	octave 3
	note A_, 4
	octave 4
	note C#, 4
	note D_, 2
	note D_, 2
	rest 2
	note D_, 2
	rest 2
	note D_, 2
	rest 2
	note E_, 2
	note D_, 16
	rest 14
	octave 3
	note B_, 1
	octave 4
	note C#, 1
	sound_loop 0, Music_WinGymSinnoh_Ch2_loop

Music_WinGymSinnoh_Ch3:
	volume_envelope $1, $2
	octave 3
	note_type $C, $1, $2
	note D_, 16
	note D_, 14
	note C#, 2
	note C_, 16
	octave 2
	note B_, 14
	octave 3
	note C#, 2
Music_WinGymSinnoh_Ch3_loop:
	note D_, 4
	volume_envelope $2, $2
	note D_, 4
	volume_envelope $1, $2
	note C#, 4
	volume_envelope $2, $2
	note C#, 4
	volume_envelope $1, $2
	octave 2
	note B_, 4
	volume_envelope $2, $2
	note B_, 4
	volume_envelope $1, $2
	note A_, 4
	volume_envelope $2, $2
	note A_, 4
	volume_envelope $1, $2
	note D_, 2
	octave 3
	note D_, 2
	volume_envelope $2, $2
	note D_, 2
	volume_envelope $1, $2
	note A_, 2
	octave 2
	note C#, 2
	octave 3
	note C#, 2
	volume_envelope $2, $2
	note C#, 2
	volume_envelope $1, $2
	note A_, 2
	octave 2
	note B_, 2
	octave 3
	note B_, 2
	note C#, 2
	octave 4
	note C#, 2
	volume_envelope $2, $2
	note C#, 2
	volume_envelope $1, $2
	note F#, 2
	volume_envelope $2, $2
	note F#, 6
	volume_envelope $1, $2
	note A_, 4
	octave 5
	note D_, 4
	note C#, 4
	note E_, 4
	octave 4
	note B_, 4
	note G_, 4
	note A_, 4
	octave 5
	note C#, 4
	octave 4
	note F#, 4
	octave 5
	note D_, 4
	octave 4
	note G_, 4
	note A_, 4
	note E_, 4
	octave 5
	note C#, 6
	octave 2
	note F#, 1
	note D_, 1
	note F#, 1
	note A_, 1
	octave 3
	note D_, 2
	octave 2
	note D_, 2
	volume_envelope $2, $2
	note D_, 2
	volume_envelope $1, $2
	note D_, 2
	note D_, 2
	note D_, 2
	volume_envelope $2, $2
	note D_, 2
	volume_envelope $1, $2
	note D_, 1
	note E_, 1
	note F#, 2
	volume_envelope $2, $2
	note F#, 2
	volume_envelope $1, $2
	note D_, 2
	volume_envelope $2, $2
	note D_, 2
	volume_envelope $1, $2
	note F#, 2
	note D_, 2
	volume_envelope $2, $2
	note D_, 2
	volume_envelope $1, $2
	note A_, 1
	note D_, 1
	octave 3
	note E_, 2
	octave 2
	note E_, 2
	volume_envelope $2, $2
	note E_, 2
	volume_envelope $1, $2
	note E_, 2
	note E_, 2
	note E_, 2
	volume_envelope $2, $2
	note E_, 2
	volume_envelope $1, $2
	note G#, 1
	note E_, 1
	octave 1
	note B_, 2
	volume_envelope $2, $2
	note B_, 2
	volume_envelope $1, $2
	octave 2
	note E_, 2
	volume_envelope $2, $2
	note E_, 2
	volume_envelope $1, $2
	octave 1
	note B_, 2
	octave 2
	note E_, 2
	volume_envelope $2, $2
	note E_, 2
	volume_envelope $1, $2
	note E_, 1
	octave 1
	note B_, 1
	note A_, 2
	note A_, 2
	volume_envelope $2, $2
	note A_, 2
	volume_envelope $1, $2
	note A_, 2
	volume_envelope $2, $2
	note A_, 2
	volume_envelope $1, $2
	note A_, 2
	volume_envelope $2, $2
	note A_, 2
	volume_envelope $1, $2
	note A_, 1
	note B_, 1
	octave 2
	note C#, 2
	note C#, 2
	volume_envelope $2, $2
	note C#, 2
	volume_envelope $1, $2
	note C#, 2
	volume_envelope $2, $2
	note C#, 2
	volume_envelope $1, $2
	note E_, 2
	volume_envelope $2, $2
	note E_, 2
	volume_envelope $1, $2
	note G_, 1
	note C#, 1
	note D_, 2
	volume_envelope $2, $2
	note D_, 2
	volume_envelope $1, $2
	note D_, 2
	note D_, 2
	volume_envelope $2, $2
	note D_, 2
	volume_envelope $1, $2
	note D_, 2
	volume_envelope $2, $2
	note D_, 2
	volume_envelope $1, $2
	note D_, 1
	note G_, 1
	note F#, 2
	note D_, 2
	octave 1
	note B_, 2
	note A#, 2
	note A_, 4
	octave 2
	note C#, 5
	note D_, 13
	note D_, 3
	note C_, 13
	note C_, 3
	octave 1
	note B_, 13
	note B_, 3
	note A#, 13
	note A#, 2
	note A_, 16
	octave 2
	note C#, 16
	note D_, 2
	note D_, 2
	volume_envelope $2, $2
	note D_, 2
	volume_envelope $1, $2
	note D_, 2
	volume_envelope $2, $2
	note D_, 2
	volume_envelope $1, $2
	note D_, 2
	volume_envelope $2, $2
	note D_, 2
	volume_envelope $1, $2
	note D_, 2
	note D_, 6
	note D_, 2
	note C_, 6
	note C_, 2
	octave 1
	note B_, 6
	note B_, 2
	octave 2
	note C#, 2
	note E_, 2
	note A_, 2
	octave 3
	note C#, 2
	sound_loop 0, Music_WinGymSinnoh_Ch3_loop

Music_WinGymSinnoh_Ch4:
	toggle_noise 3
	drum_speed $C
	drum_note 12, 8
	drum_note 12, 8
	drum_note 12, 16
	drum_note 12, 8
	drum_note 12, 8
	drum_note 12, 16
Music_WinGymSinnoh_Ch4_loop:
	rest 16
	rest 16
	rest 16
	rest 16
	rest 16
	rest 16
	rest 16
	rest 16
	drum_note 12, 16
	drum_note 12, 16
	drum_note 12, 16
	drum_note 12, 16
	rest 16
	rest 16
	rest 16
	rest 16
	rest 16
	rest 16
	rest 16
	rest 16
	rest 16
	rest 16
	rest 16
	rest 16
	rest 16
	sound_loop 0, Music_WinGymSinnoh_Ch4_loop

