Music_Route205:
	channel_count 4
	channel 1, Music_Route205_Ch1
	channel 2, Music_Route205_Ch2
	channel 3, Music_Route205_Ch3
	channel 4, Music_Route205_Ch4

Music_Route205_Ch1:
Music_Route205_Ch1_loop:
	tempo $C2
	volume $7, $7
	note_type $C, $B, 2
	duty_cycle 1
	pitch_offset $0002
	octave 3
	note G_, 2
	note G_, 2
	volume_envelope $8, 2
	note G_, 1
	volume_envelope $B, 2
	note D_, 3
	note F_, 2
	note F_, 2
	volume_envelope $8, 2
	note F_, 1
	volume_envelope $B, 2
	note C_, 3
	octave 4
	note C_, 2
	note C_, 2
	volume_envelope $8, 2
	note C_, 1
	volume_envelope $B, 2
	octave 3
	note F_, 3
	note G_, 2
	note G_, 2
	volume_envelope $8, 2
	note G_, 1
	volume_envelope $B, 2
	octave 2
	note B_, 3
	note_type $8, $B, 2
	octave 3
	note G_, 1
	octave 4
	note D_, 1
	note D_, 1
	octave 3
	note B_, 1
	octave 4
	note D_, 1
	note G_, 1
	octave 5
	note G_, 3
	note_type $C, $B, 2
	note D_, 1
	note G_, 1
	note_type $8, $B, 2
	octave 3
	note F_, 1
	octave 4
	note C_, 1
	note C_, 1
	octave 3
	note A_, 1
	octave 4
	note C_, 1
	note F_, 1
	octave 5
	note F_, 3
	note_type $C, $B, 2
	note C_, 1
	note F_, 1
	octave 3
	note D_, 1
	note G_, 1
	note A_, 1
	note G_, 1
	note A_, 1
	note D_, 1
	note G_, 1
	note A_, 1
	octave 4
	note C_, 1
	note G_, 1
	note A_, 1
	octave 5
	note C_, 1
	note D_, 1
	octave 6
	note D_, 3
	volume_envelope $B, 1
	duty_cycle 2
	octave 2
	note G_, 2
	octave 3
	note D_, 2
	note G_, 1
	octave 4
	note C_, 1
	octave 3
	note B_, 2
	octave 2
	note G_, 2
	octave 3
	note D_, 2
	note B_, 1
	note G_, 1
	note D_, 2
	octave 2
	note G_, 2
	octave 3
	note E_, 2
	octave 4
	note C_, 1
	octave 3
	note E_, 1
	note A_, 2
	octave 2
	note G_, 2
	octave 3
	note E_, 2
	note A_, 1
	note E_, 1
	octave 4
	note C_, 2
	octave 2
	note G_, 2
	note A_, 2
	octave 3
	note F#, 1
	octave 2
	note A_, 1
	octave 3
	note C_, 2
	octave 2
	note G_, 2
	octave 3
	note E_, 2
	octave 4
	note C_, 1
	octave 3
	note C_, 1
	note E_, 2
	octave 2
	note G_, 2
	octave 3
	note D_, 2
	octave 2
	note A_, 1
	octave 3
	note D_, 1
	note F#, 2
	octave 2
	note G_, 2
	octave 3
	note D_, 2
	note B_, 1
	note D_, 1
	note F_, 2
	volume_envelope $B, 4
	duty_cycle 1
	octave 4
	note G_, 4
	octave 5
	note C_, 4
	octave 4
	note B_, 1
	octave 5
	note C_, 1
	octave 4
	note B_, 1
	note G_, 3
	octave 5
	note D_, 2
	note E_, 2
	octave 4
	note G_, 2
	octave 5
	note C_, 1
	octave 4
	note B_, 1
	octave 5
	note C_, 2
	octave 4
	note B_, 3
	note G_, 3
	note D_, 2
	note E_, 3
	note B_, 2
	note G_, 2
	note A_, 1
	note G_, 3
	octave 5
	note D_, 2
	octave 4
	note G_, 2
	note F_, 1
	note E_, 4
	note G_, 4
	note D_, 1
	note D_, 1
	note E_, 2
	note G_, 2
	rest 2
	octave 3
	note A_, 3
	note A_, 3
	note A_, 2
	note A#, 6
	note A#, 1
	octave 4
	note C_, 1
	octave 3
	note A_, 2
	octave 4
	note C_, 2
	note F_, 2
	octave 3
	note A_, 2
	octave 4
	note C_, 2
	octave 3
	note A#, 4
	note G_, 1
	note A_, 1
	note F#, 2
	note A_, 2
	note F#, 2
	note D_, 2
	note G_, 1
	note G_, 1
	note A#, 1
	note A#, 1
	octave 4
	note C_, 1
	note C_, 1
	note F_, 1
	note F_, 1
	octave 2
	note F_, 4
	octave 4
	note C_, 4
	note D_, 4
	octave 3
	note D_, 4
	octave 4
	note D_, 3
	octave 3
	note G_, 2
	note A_, 2
	note G_, 1
	octave 4
	note E_, 2
	note D_, 2
	note C_, 2
	note D_, 2
	octave 3
	note B_, 3
	note D_, 3
	note F#, 1
	note G_, 1
	note A_, 2
	note G_, 2
	note F#, 2
	note G_, 2
	note E_, 2
	octave 2
	note B_, 2
	octave 3
	note E_, 4
	note G_, 2
	note E_, 2
	note G_, 4
	note B_, 1
	note B_, 1
	octave 4
	note D_, 1
	note D_, 1
	octave 3
	note G_, 1
	note G_, 1
	note B_, 1
	note B_, 1
	octave 4
	note E_, 1
	note E_, 1
	octave 3
	note B_, 1
	note B_, 1
	octave 4
	note D_, 1
	note D_, 3
	sound_loop 0, Music_Route205_Ch1_loop

Music_Route205_Ch2:
Music_Route205_Ch2_loop:
	note_type $C, $C, 2
	duty_cycle 1
	pitch_offset $0001
	octave 4
	note G_, 2
	note G_, 2
	volume_envelope $9, 2
	note G_, 1
	volume_envelope $C, 2
	octave 3
	note G_, 1
	octave 4
	note D_, 1
	note G_, 1
	note F_, 2
	note F_, 2
	volume_envelope $9, 2
	note F_, 1
	volume_envelope $C, 2
	octave 3
	note F_, 1
	octave 4
	note C_, 1
	note F_, 1
	octave 5
	note C_, 1
	octave 4
	note B_, 1
	note G_, 1
	note F_, 1
	note C_, 1
	note F_, 1
	note G_, 1
	octave 5
	note C_, 1
	octave 4
	note B_, 1
	note G_, 1
	note D_, 1
	note C_, 1
	octave 3
	note B_, 1
	octave 4
	note C_, 1
	octave 3
	note G_, 1
	note D_, 1
	note D_, 1
	note G_, 1
	octave 4
	note G_, 1
	octave 3
	note G_, 1
	octave 4
	note D_, 1
	octave 3
	note G_, 1
	octave 4
	note G_, 1
	octave 5
	note D_, 1
	octave 3
	note C_, 1
	note F_, 1
	octave 4
	note F_, 1
	octave 3
	note F_, 1
	octave 4
	note C_, 1
	octave 3
	note F_, 1
	octave 4
	note F_, 1
	octave 5
	note C_, 1
	volume_envelope $C, 7
	octave 4
	note D_, 6
	note_type $8, $C, 3
	note D_, 1
	note D_, 1
	note D_, 1
	note D_, 6
	volume_envelope $C, 7
	note D_, 6
	volume_envelope $C, 2
	note D_, 3
	note G_, 3
	note_type $C, $C, 2
	note F#, 1
	note G_, 1
	note F#, 2
	note D_, 2
	octave 3
	note B_, 2
	octave 4
	note E_, 1
	note D_, 1
	octave 3
	note G_, 2
	note A_, 1
	note B_, 1
	octave 4
	note C_, 2
	octave 3
	note F#, 1
	note G_, 1
	note A_, 2
	octave 4
	note A_, 1
	note B_, 1
	octave 5
	note C_, 2
	octave 4
	note F#, 1
	note G_, 1
	note A_, 2
	note E_, 2
	note A_, 2
	note G#, 1
	note A_, 1
	note G#, 2
	note E_, 2
	note C_, 2
	note G_, 1
	note F#, 1
	octave 3
	note A_, 2
	note B_, 1
	octave 4
	note C_, 1
	note D_, 2
	octave 3
	note F#, 1
	note G_, 1
	note A_, 2
	octave 4
	note B_, 1
	octave 5
	note C_, 1
	note D_, 2
	octave 4
	note F#, 1
	note G_, 1
	note A_, 4
	volume_envelope $C, 5
	duty_cycle 2
	octave 3
	note G_, 1
	note E_, 1
	note G_, 2
	octave 4
	note E_, 2
	note D_, 2
	note E_, 1
	volume_envelope $C, 2
	octave 3
	note G_, 2
	volume_envelope $C, 5
	note G_, 5
	note G_, 1
	note E_, 1
	note G_, 2
	octave 4
	note G_, 2
	note F#, 1
	note G_, 1
	note F#, 1
	note D_, 2
	octave 3
	note G_, 2
	note D_, 1
	note E_, 3
	note B_, 2
	note G_, 2
	note A_, 1
	note G_, 3
	note D_, 2
	note G_, 2
	note F_, 1
	note E_, 2
	note G_, 2
	note A_, 2
	octave 4
	note D_, 2
	note G_, 1
	note G_, 1
	note A_, 1
	note A_, 1
	octave 5
	note D_, 2
	duty_cycle 0
	octave 4
	note D_, 1
	note D#, 1
	note F_, 3
	note F_, 3
	note G_, 2
	note F_, 6
	note D_, 1
	note D#, 1
	note F_, 2
	note A#, 2
	note A_, 2
	note F_, 2
	note G_, 2
	note F_, 4
	octave 3
	note A#, 1
	octave 4
	note C_, 1
	note D_, 2
	note D#, 2
	note D_, 2
	octave 3
	note A_, 2
	note A#, 1
	note A#, 1
	octave 4
	note D_, 1
	note D_, 1
	note G_, 1
	note G_, 1
	note A_, 1
	note A_, 1
	note F_, 6
	note E_, 1
	note F_, 1
	note F#, 6
	note F_, 1
	note F#, 1
	note G_, 3
	note D_, 2
	note E_, 2
	note D_, 1
	note G_, 2
	note F#, 2
	note E_, 2
	note F#, 2
	note D_, 3
	octave 3
	note G_, 3
	note A_, 1
	note B_, 1
	octave 4
	note C_, 2
	octave 3
	note B_, 2
	note A#, 2
	note B_, 2
	volume_envelope $C, 1
	note G_, 2
	note E_, 2
	note G_, 2
	octave 4
	note E_, 2
	note D_, 2
	note E_, 2
	note G_, 2
	note A_, 2
	note B_, 1
	note B_, 1
	octave 5
	note C_, 1
	note C_, 1
	note C#, 1
	note C#, 1
	note D_, 1
	note D_, 1
	octave 4
	note G_, 1
	note G_, 3
	note A_, 1
	note A_, 3
	sound_loop 0, Music_Route205_Ch2_loop

Music_Route205_Ch3:
Music_Route205_Ch3_loop:
	note_type $C, $1, $3
	octave 2
	note G_, 1
	rest 1
	note G_, 1
	rest 2
	note G_, 1
	note B_, 1
	octave 3
	note D_, 1
	octave 2
	note G_, 1
	rest 1
	note G_, 1
	rest 2
	note A_, 1
	octave 3
	note C_, 1
	note F_, 1
	octave 2
	note G_, 1
	rest 1
	note G_, 1
	rest 2
	octave 3
	note C_, 1
	note F_, 1
	note A_, 1
	octave 2
	note G_, 1
	rest 1
	note G_, 1
	rest 2
	octave 3
	note D_, 1
	note G_, 1
	note B_, 1
	octave 2
	note G_, 1
	rest 1
	note G_, 1
	rest 1
	octave 3
	note D_, 1
	octave 2
	note G_, 1
	octave 3
	note D_, 1
	note G_, 1
	octave 2
	note G_, 1
	rest 1
	note G_, 1
	rest 1
	octave 3
	note C_, 1
	octave 2
	note F_, 1
	octave 3
	note C_, 1
	note F_, 1
	octave 2
	note D_, 1
	rest 1
	note D_, 1
	rest 3
	note D_, 1
	note D_, 1
	note D_, 1
	rest 1
	note D_, 1
	rest 3
	note D_, 1
	rest 1
	note G_, 1
	rest 1
	note G_, 1
	rest 3
	note G_, 1
	note G_, 1
	note G_, 1
	rest 1
	note G_, 1
	rest 3
	note G_, 1
	note G_, 1
	note G_, 1
	rest 1
	note G_, 1
	rest 2
	note G_, 1
	note A_, 1
	octave 3
	note C_, 1
	octave 2
	note G_, 1
	rest 1
	note G_, 1
	rest 3
	note G_, 1
	note G_, 1
	note G_, 1
	rest 1
	note G_, 1
	rest 3
	note G_, 1
	note G_, 1
	note G_, 1
	rest 1
	note G_, 1
	rest 3
	note G_, 1
	note G_, 1
	note G_, 1
	rest 1
	note G_, 1
	rest 2
	note G_, 1
	note A_, 1
	octave 3
	note C_, 1
	octave 2
	note G_, 1
	rest 1
	note G_, 1
	rest 3
	note F_, 1
	note F_, 1
	note C_, 1
	rest 2
	note C_, 1
	rest 2
	note G_, 1
	rest 1
	octave 1
	note B_, 1
	rest 2
	note B_, 1
	rest 1
	octave 2
	note G_, 1
	rest 2
	note C_, 1
	rest 2
	note C_, 1
	rest 2
	note E_, 1
	rest 1
	octave 1
	note B_, 1
	rest 2
	octave 2
	note E_, 1
	rest 1
	note E_, 1
	rest 1
	note D_, 1
	note C_, 1
	rest 2
	note G_, 1
	octave 1
	note B_, 1
	rest 2
	octave 2
	note F#, 1
	note E_, 1
	rest 2
	note E_, 1
	note D_, 1
	rest 2
	note G_, 1
	octave 3
	note C_, 1
	note C_, 1
	octave 2
	note G_, 1
	octave 3
	note C_, 1
	note C#, 1
	note C#, 1
	octave 2
	note A_, 1
	octave 3
	note C#, 1
	note D_, 1
	note D_, 1
	octave 2
	note A_, 1
	note G_, 1
	note D_, 1
	rest 3
	note F_, 1
	rest 1
	note F_, 1
	note F_, 1
	note F_, 1
	note F_, 1
	note G_, 1
	note A_, 1
	note A#, 1
	rest 1
	note A#, 1
	note F_, 1
	note A#, 1
	note A#, 1
	note A_, 1
	note G_, 1
	note F_, 1
	rest 1
	note F_, 1
	note F_, 1
	note F_, 1
	note F_, 1
	octave 3
	note C_, 1
	octave 2
	note A_, 1
	note A#, 1
	rest 1
	note A#, 1
	note F_, 1
	octave 3
	note C_, 1
	octave 2
	note A#, 1
	note A_, 1
	note G_, 1
	note A_, 1
	rest 1
	note D_, 1
	rest 1
	note A_, 1
	rest 1
	octave 3
	note C_, 1
	rest 1
	octave 2
	note A#, 1
	rest 1
	note D_, 1
	rest 1
	note G_, 1
	rest 1
	octave 3
	note C_, 1
	rest 1
	octave 2
	note F_, 1
	note F_, 1
	rest 1
	octave 3
	note C_, 1
	note C_, 1
	rest 1
	note F_, 1
	rest 1
	note D_, 1
	note D_, 1
	rest 1
	octave 2
	note D_, 1
	note D_, 1
	rest 1
	note D_, 1
	note D_, 1
	note_type $9, $1, $3
	note G_, 2
	rest 14
	note G_, 2
	note_type $D, $0, $0
	rest 6
	note_type $9, $1, $3
	note G_, 2
	note_type $D, $0, $0
	rest 6
	note_type $9, $1, $3
	note B_, 2
	note_type $F, $0, $0
	rest 2
	note_type $C, $1, $3
	note E_, 1
	rest 1
	note E_, 1
	rest 3
	note E_, 1
	note E_, 1
	octave 1
	note B_, 1
	rest 1
	note B_, 1
	rest 3
	note B_, 1
	octave 2
	note C_, 1
	note D_, 1
	rest 3
	note E_, 1
	rest 3
	note C_, 1
	note C_, 1
	rest 2
	note D_, 1
	note D_, 1
	rest 1
	note_type $D, $1, $3
	note D_, 1
	sound_loop 0, Music_Route205_Ch3_loop

Music_Route205_Ch4:
	toggle_noise 3
Music_Route205_Ch4_loop:
	drum_speed $C
	drum_note 2, 2
	drum_note 2, 2
	drum_note 2, 2
	drum_note 2, 2
	drum_note 2, 2
	drum_note 2, 2
	drum_note 2, 2
	drum_note 2, 2
	drum_note 2, 2
	drum_note 2, 1
	drum_note 2, 1
	drum_note 2, 2
	drum_note 2, 1
	drum_note 2, 1
	drum_note 2, 2
	drum_note 2, 1
	drum_note 2, 1
	drum_note 2, 2
	drum_note 2, 1
	drum_note 2, 1
	drum_note 2, 2
	drum_note 2, 1
	drum_note 2, 1
	drum_note 2, 2
	drum_note 2, 2
	drum_note 2, 2
	drum_note 2, 1
	drum_note 2, 1
	drum_note 2, 2
	drum_note 2, 2
	drum_note 7, 2
	drum_note 7, 2
	drum_note 2, 2
	drum_note 7, 2
	drum_note 2, 4
	drum_note 2, 4
	drum_note 2, 2
	drum_note 2, 2
	drum_note 2, 2
	drum_speed $8
	drum_note 2, 1
	drum_note 2, 1
	drum_note 2, 1
	drum_note 2, 3
	drum_note 2, 3
	drum_note 2, 3
	drum_note 2, 1
	drum_note 2, 1
	drum_note 2, 1
	drum_note 2, 3
	drum_note 2, 1
	drum_note 2, 1
	drum_note 2, 1
	drum_note 2, 3
	drum_note 2, 1
	drum_note 2, 1
	drum_note 2, 1
	drum_note 2, 3
	drum_note 2, 3
	drum_note 2, 3
	drum_note 2, 1
	drum_note 2, 1
	drum_note 2, 1
	drum_note 2, 3
	drum_note 2, 3
	drum_note 2, 3
	drum_note 2, 1
	drum_note 2, 1
	drum_note 2, 1
	drum_note 2, 3
	drum_note 2, 3
	drum_note 2, 3
	drum_note 2, 1
	drum_note 2, 1
	drum_note 2, 1
	drum_note 2, 3
	drum_note 2, 1
	drum_note 2, 1
	drum_note 2, 1
	drum_note 2, 3
	drum_note 2, 1
	drum_note 2, 1
	drum_note 2, 1
	drum_note 2, 3
	drum_note 2, 3
	drum_note 2, 3
	drum_note 2, 1
	drum_note 2, 1
	drum_note 2, 1
	drum_note 7, 12
	drum_note 12, 9
	drum_speed $C
	drum_note 7, 1
	drum_note 8, 1
	drum_note 7, 8
	drum_note 12, 6
	drum_note 7, 1
	drum_note 8, 1
	drum_note 7, 3
	drum_note 8, 1
	drum_note 8, 1
	drum_note 7, 3
	drum_note 7, 3
	drum_note 8, 1
	drum_note 8, 1
	drum_note 7, 2
	drum_note 8, 1
	drum_note 7, 2
	drum_note 8, 2
	drum_note 7, 2
	drum_note 8, 2
	drum_note 8, 1
	drum_note 8, 1
	drum_note 7, 1
	drum_note 8, 1
	drum_note 12, 2
	drum_note 2, 1
	drum_note 2, 1
	drum_note 7, 2
	drum_note 2, 1
	drum_note 2, 1
	drum_note 2, 2
	drum_note 2, 2
	drum_note 7, 2
	drum_note 2, 1
	drum_note 2, 1
	drum_note 2, 2
	drum_note 2, 2
	drum_note 7, 2
	drum_note 2, 1
	drum_note 2, 1
	drum_note 7, 2
	drum_note 2, 2
	drum_note 7, 2
	drum_note 2, 2
	drum_note 7, 2
	drum_note 2, 1
	drum_note 2, 1
	drum_note 7, 2
	drum_note 2, 2
	drum_note 7, 1
	drum_note 2, 2
	drum_note 2, 1
	drum_note 2, 2
	drum_note 2, 2
	drum_note 7, 1
	drum_note 2, 2
	drum_note 2, 1
	drum_note 2, 2
	drum_note 2, 2
	drum_note 2, 1
	drum_note 2, 2
	drum_note 2, 1
	drum_note 2, 2
	drum_speed $8
	drum_note 2, 1
	drum_note 2, 1
	drum_note 2, 1
	drum_note 2, 3
	drum_note 2, 1
	drum_note 2, 1
	drum_note 2, 1
	drum_note 2, 3
	drum_speed $C
	drum_note 2, 1
	drum_note 2, 1
	drum_note 2, 2
	drum_speed $8
	drum_note 2, 1
	drum_note 2, 1
	drum_note 2, 1
	drum_note 2, 3
	drum_note 2, 3
	drum_note 2, 1
	drum_note 2, 1
	drum_speed $A
	drum_note 2, 2
	drum_speed $C
	drum_note 2, 1
	drum_note 7, 2
	drum_note 2, 1
	drum_note 2, 1
	drum_note 7, 2
	drum_speed $8
	drum_note 2, 1
	drum_note 2, 1
	drum_note 2, 1
	drum_note 2, 3
	drum_note 2, 3
	drum_note 7, 3
	drum_note 2, 3
	drum_note 7, 3
	drum_note 7, 3
	drum_note 2, 3
	drum_note 2, 1
	drum_note 2, 1
	drum_note 2, 1
	drum_note 7, 3
	drum_note 7, 3
	drum_note 2, 3
	drum_note 2, 1
	drum_note 2, 1
	drum_note 2, 1
	drum_speed $C
	drum_note 7, 1
	drum_note 7, 1
	drum_note 2, 2
	drum_note 7, 1
	drum_note 7, 1
	drum_note 2, 2
	drum_note 2, 1
	drum_note 2, 3
	drum_note 2, 1
	drum_note 2, 3
	sound_loop 0, Music_Route205_Ch4_loop
