Music_GalacticBattle:
	channel_count 4
	channel 1, Music_GalacticBattle_Ch1
	channel 2, Music_GalacticBattle_Ch2
	channel 3, Music_GalacticBattle_Ch3
	channel 4, Music_GalacticBattle_Ch4

Music_GalacticBattle_Ch1:
	volume $7, $7
	stereo_panning TRUE, TRUE
	tempo $68
	duty_cycle 1
	pitch_offset $0002
	vibrato $10, $1, $5
	octave 5
	note_type $C, $B, 2
	note G#, 1
	note A_, 1
	note G#, 1
	note B_, 1
	note A#, 1
	note A_, 1
	note G#, 1
	note A_, 1
	note G#, 1
	note B_, 1
	note A#, 1
	note A_, 1
	note G#, 1
	note A_, 1
	note G#, 1
	note B_, 1
	note A#, 1
	note A_, 1
	note G#, 1
	note A_, 1
	note G#, 1
	note B_, 1
	note A#, 1
	note A_, 1
	note G#, 1
	note A_, 1
	note G#, 1
	note B_, 1
	note A#, 1
	note A_, 1
	note G#, 1
	note A_, 1
	octave 3
	note D#, 2
	rest 4
	note F#, 4
	note D#, 4
	note D#, 2
	note G#, 2
	rest 4
	note F#, 4
	note E_, 6
	note D#, 2
	rest 4
	note F#, 4
	note D#, 4
	note D#, 2
	note G#, 2
	rest 4
	note F#, 4
	note E_, 6
	octave 2
	note G#, 1
	rest 1
	note B_, 1
	rest 1
	octave 3
	note D#, 1
	rest 1
	note F_, 1
	rest 1
	note F#, 1
	rest 1
	note G#, 1
	rest 1
	note A#, 1
	rest 1
	note B_, 1
	rest 1
	note G#, 16
	octave 2
	note G#, 1
	rest 1
	note B_, 1
	rest 1
	octave 3
	note D#, 1
	rest 1
	note F_, 1
	rest 1
	note F#, 1
	rest 1
	note G#, 1
	rest 1
	note A#, 1
	rest 1
	note B_, 1
	rest 1
	octave 4
	note C#, 2
	rest 4
	volume_envelope $B, 7
	octave 3
	note B_, 4
	note G_, 6
Music_GalacticBattle_Ch1_loop:
	note D#, 6
	note F_, 6
	note F#, 4
	note F_, 6
	note D#, 6
	note C_, 4
	octave 2
	note A#, 4
	note G#, 4
	note G_, 4
	note F_, 4
	note D#, 2
	note F_, 2
	note G_, 2
	note G#, 2
	note G_, 2
	note F_, 2
	note G_, 2
	note G#, 2
	note A#, 6
	note G#, 6
	note A#, 4
	note G#, 6
	note A#, 6
	note G#, 4
	octave 3
	note C_, 4
	duty_cycle 0
	volume_envelope $A, 1
	octave 5
	note E_, 1
	octave 4
	note G#, 1
	octave 5
	note D#, 1
	octave 4
	note G_, 1
	octave 5
	note D_, 1
	octave 4
	note F#, 1
	octave 5
	note C#, 1
	octave 4
	note F_, 1
	octave 5
	note C_, 1
	octave 4
	note E_, 1
	note B_, 1
	note D#, 1
	note A#, 1
	note D_, 1
	note A_, 1
	note C#, 1
	note G#, 1
	note C_, 1
	note G_, 1
	octave 3
	note B_, 1
	octave 4
	note F#, 1
	octave 3
	note A#, 1
	octave 4
	note F_, 1
	octave 3
	note A_, 1
	octave 4
	note E_, 1
	octave 3
	note G#, 1
	duty_cycle 1
	volume_envelope $B, 7
	octave 4
	note C#, 1
	note D_, 1
	note D#, 6
	note F_, 6
	note F#, 4
	note F_, 6
	note D#, 6
	note C_, 4
	octave 3
	note A#, 4
	note G#, 4
	note G_, 4
	note F_, 4
	note D#, 2
	note F_, 2
	note G_, 2
	note G#, 2
	note G_, 2
	note F_, 2
	note G_, 2
	note G#, 2
	note A#, 6
	note G#, 6
	note A#, 4
	note G#, 6
	note G_, 6
	note F#, 4
	note F_, 16
	note C_, 16
	duty_cycle 2
	volume_envelope $A, 1
	note_type $8, $A, 1
	note F#, 2
	note D#, 2
	note F#, 2
	note A#, 2
	note F#, 2
	note A#, 2
	octave 4
	note D#, 2
	note F#, 2
	note D#, 2
	octave 3
	note A#, 2
	note F#, 2
	octave 4
	note D#, 2
	octave 3
	note F#, 2
	octave 4
	note D#, 2
	octave 3
	note D#, 2
	note F#, 2
	note D#, 2
	octave 2
	note A#, 2
	octave 3
	note D#, 2
	note F#, 2
	note A#, 2
	note F#, 2
	note A#, 2
	octave 4
	note D#, 2
	octave 3
	note G_, 2
	note E_, 2
	note G_, 2
	octave 4
	note C_, 2
	octave 3
	note G_, 2
	octave 4
	note C_, 2
	note E_, 2
	note G_, 2
	octave 5
	note C_, 2
	note E_, 2
	note C_, 2
	note E_, 2
	octave 2
	note G_, 2
	octave 3
	note C_, 2
	note E_, 2
	note G_, 2
	note C_, 2
	note E_, 2
	note G_, 2
	octave 4
	note C_, 2
	note E_, 2
	note G_, 2
	octave 5
	note C_, 2
	note E_, 2
	octave 3
	note C#, 2
	octave 2
	note G#, 2
	octave 3
	note C#, 2
	note F_, 2
	note C#, 2
	note F_, 2
	note G#, 2
	octave 4
	note C#, 2
	octave 3
	note G#, 2
	note F_, 2
	note C#, 2
	note G#, 2
	note F_, 2
	octave 4
	note C#, 2
	octave 3
	note C#, 2
	note F_, 2
	note C#, 2
	octave 2
	note G#, 2
	octave 3
	note C#, 2
	note F_, 2
	note G#, 2
	note F_, 2
	note G#, 2
	octave 4
	note C#, 2
	octave 3
	note D#, 2
	octave 2
	note A#, 2
	octave 3
	note D#, 2
	note G_, 2
	note D#, 2
	note G_, 2
	note A#, 2
	octave 4
	note D#, 2
	note G_, 2
	note A#, 2
	note G_, 2
	note A#, 2
	octave 2
	note G_, 2
	note A#, 2
	octave 3
	note D#, 2
	note G_, 2
	octave 2
	note A#, 2
	octave 3
	note D#, 2
	note G_, 2
	note A#, 2
	octave 4
	note D#, 2
	note G_, 2
	note A#, 2
	octave 5
	note D#, 2
	duty_cycle 1
	volume_envelope $B, 7
	octave 3
	note D#, 9
	note F_, 9
	note D#, 6
	note F#, 9
	note F_, 9
	note E_, 6
	note D#, 9
	note F_, 9
	note D#, 6
	note C#, 9
	note D_, 9
	note E_, 6
	note D#, 9
	note F_, 9
	note D#, 6
	note F#, 9
	note F_, 9
	note E_, 6
	note D#, 9
	note F_, 9
	note D#, 6
	note C#, 9
	note D_, 9
	note E_, 6
	octave 4
	note C#, 9
	note D#, 9
	note C#, 6
	note E_, 9
	note D#, 9
	note D_, 6
	note C#, 9
	note D#, 9
	note C#, 6
	note E_, 9
	note D#, 9
	note D_, 6
	note_type $C, $B, 7
	note D#, 1
	rest 1
	note D#, 1
	rest 3
	octave 3
	note D#, 4
	octave 4
	note D#, 1
	rest 1
	note D#, 1
	rest 3
	octave 3
	note C#, 8
	note D_, 8
	octave 4
	note D#, 1
	rest 1
	note D#, 1
	rest 3
	octave 3
	note D#, 4
	octave 4
	note D#, 1
	rest 1
	note D#, 1
	rest 3
	octave 3
	note F#, 8
	note E_, 8
	note G#, 16
	note G#, 16
	note G#, 16
	note G#, 16
	octave 2
	note G#, 16
	note G#, 16
	note G#, 16
	note G#, 16
	octave 3
	sound_loop 0, Music_GalacticBattle_Ch1_loop

Music_GalacticBattle_Ch2:
	duty_cycle 3
	volume_envelope $B, 4
	octave 5
	note_type $C, $B, 4
	note D#, 1
	note E_, 1
	note D#, 1
	note E_, 1
	rest 4
	note D#, 1
	note E_, 1
	note D#, 1
	note E_, 1
	rest 4
	octave 1
	note G#, 2
	note F_, 2
	note F_, 2
	note B_, 4
	note F_, 2
	note F#, 2
	note G_, 2
	note G#, 2
	note F_, 2
	note G#, 2
	note B_, 2
	note A#, 2
	note A_, 2
	note G#, 2
	note G_, 2
	note G#, 2
	note F_, 2
	note G#, 2
	note B_, 2
	note F_, 2
	note G#, 2
	note A_, 2
	note G_, 2
	note G#, 2
	note F_, 2
	note G#, 2
	note B_, 2
	note A#, 2
	note A_, 2
	note G#, 2
	note G_, 2
	note G#, 2
	note F_, 2
	note G#, 2
	note B_, 2
	note F_, 2
	note G#, 2
	note A_, 2
	note G_, 2
	note G#, 2
	note F_, 2
	note G#, 2
	note B_, 2
	note A#, 2
	note A_, 2
	note G#, 2
	note G_, 2
	note G#, 2
	note F_, 2
	note G#, 2
	note B_, 2
	note F_, 2
	note G#, 2
	note A_, 2
	note G_, 2
	note G#, 2
	note F_, 2
	note G#, 2
	note B_, 2
	note A#, 2
	note A_, 2
	note G#, 2
	note G_, 2
	note G#, 2
	note F_, 2
	note F_, 2
	octave 2
	note C#, 4
	octave 1
	note B_, 2
	note A#, 2
	note A_, 2
Music_GalacticBattle_Ch2_loop:
	note G#, 2
	note F_, 2
	note F_, 2
	note G#, 4
	note F_, 2
	note F_, 2
	note F_, 2
	note G#, 2
	note F_, 2
	note F_, 2
	note G#, 4
	note F_, 2
	note G#, 2
	note B_, 2
	note G#, 2
	note F_, 2
	note F_, 2
	note G#, 4
	note F_, 2
	note F_, 2
	note F_, 2
	note G#, 2
	note F_, 2
	note F_, 2
	note G#, 4
	note F_, 2
	note G#, 2
	note B_, 2
	note G#, 2
	note F_, 2
	note F_, 2
	note G#, 4
	note F_, 2
	note F_, 2
	note F_, 2
	note G#, 2
	note F_, 2
	note F_, 2
	note G#, 4
	note F_, 2
	note F_, 2
	note F_, 2
	note G#, 2
	note F_, 2
	note F_, 2
	note G#, 4
	note F_, 2
	note F_, 2
	note F_, 2
	note G#, 2
	note F_, 2
	note F_, 2
	note G#, 4
	note F_, 2
	note F_, 2
	note F_, 2
	note G#, 2
	note F_, 2
	note F_, 2
	note G#, 4
	note F_, 2
	note F_, 2
	note F_, 2
	note G#, 2
	note F_, 2
	note F_, 2
	note G#, 4
	note F_, 2
	note G#, 2
	note B_, 2
	note G#, 2
	note F_, 2
	note F_, 2
	note G#, 4
	note F_, 2
	note F_, 2
	note F_, 2
	note G#, 2
	note F_, 2
	note F_, 2
	note G#, 4
	note F_, 2
	note G#, 2
	note B_, 2
	note G#, 2
	note F_, 2
	note F_, 2
	note G#, 4
	note F_, 2
	note F_, 2
	note F_, 2
	note G#, 2
	note F_, 2
	note F_, 2
	note G#, 4
	note F_, 2
	note F_, 2
	note F_, 2
	note G#, 2
	note F_, 2
	note F_, 2
	note G#, 4
	note F_, 2
	note F_, 2
	note F_, 2
	note G#, 2
	note F_, 2
	note F_, 2
	note G#, 4
	note F_, 2
	note F_, 2
	note F_, 2
	duty_cycle 2
	note F#, 2
	note D#, 2
	note D#, 2
	note F#, 4
	note D#, 2
	note D#, 2
	note D#, 2
	note F#, 2
	note D#, 2
	note D#, 2
	note F#, 4
	note D#, 2
	note D#, 2
	note D#, 2
	note G_, 2
	note C_, 2
	note E_, 2
	note G_, 4
	note E_, 2
	note E_, 2
	note E_, 2
	note G_, 2
	note C_, 2
	note E_, 2
	note G_, 4
	note E_, 2
	note E_, 2
	note E_, 2
	note F_, 2
	note C#, 2
	note C#, 2
	note F_, 4
	note C#, 2
	note C#, 2
	note C#, 2
	note F_, 2
	note C#, 2
	note C#, 2
	note F_, 4
	note C#, 2
	note C#, 2
	note C#, 2
	note G_, 2
	note F_, 2
	note F_, 2
	note G_, 4
	note F_, 2
	note F_, 2
	note F_, 2
	note G_, 2
	note F_, 2
	note F_, 2
	note G_, 4
	note F_, 2
	note A_, 4
	note G#, 6
	note A#, 6
	note G#, 4
	note B_, 6
	note A#, 6
	note A_, 4
	note G#, 6
	note A#, 6
	note G#, 4
	note B_, 6
	note A#, 6
	note A_, 4
	note G#, 6
	note A#, 6
	note G#, 4
	note B_, 6
	note A#, 6
	note A_, 4
	note G#, 6
	note A#, 6
	note G#, 4
	note B_, 6
	note A#, 6
	note B_, 4
	note G#, 6
	note A#, 6
	note G#, 4
	note B_, 6
	note A#, 6
	note A_, 4
	note G#, 6
	note A#, 6
	note G#, 4
	note B_, 6
	note A#, 6
	note A_, 4
	octave 2
	note G#, 2
	note G#, 4
	octave 1
	note G#, 4
	octave 2
	note G#, 2
	note G#, 2
	octave 1
	note G#, 2
	note F#, 2
	note D#, 2
	note F#, 2
	note A#, 2
	note G_, 2
	note D#, 2
	note G_, 2
	note B_, 2
	octave 2
	note G#, 2
	note G#, 4
	octave 1
	note G#, 4
	octave 2
	note G#, 2
	note G#, 2
	octave 1
	note G#, 2
	note F#, 2
	note D#, 2
	note F#, 2
	note B_, 2
	note A_, 2
	note E_, 2
	note A_, 2
	note G_, 2
	note G#, 2
	note F_, 2
	note G#, 2
	note B_, 2
	note A#, 2
	note A_, 2
	note G#, 2
	note G_, 2
	note G#, 2
	note F_, 2
	note G#, 2
	note B_, 2
	note F_, 2
	note G#, 2
	note A_, 2
	note G_, 2
	note G#, 2
	note F_, 2
	note G#, 2
	note B_, 2
	note A#, 2
	note A_, 2
	note G#, 2
	note G_, 2
	note G#, 2
	note F_, 2
	note G#, 2
	note B_, 2
	note F_, 2
	note G#, 2
	note A_, 2
	note G_, 2
	duty_cycle 3
	note G#, 2
	note F_, 2
	note G#, 2
	note B_, 2
	note A#, 2
	note A_, 2
	note G#, 2
	note G_, 2
	note G#, 2
	note F_, 2
	note G#, 2
	note B_, 2
	note F_, 2
	note G#, 2
	note A_, 2
	note G_, 2
	note G#, 2
	note F_, 2
	note G#, 2
	note B_, 2
	note A#, 2
	note A_, 2
	note G#, 2
	note G_, 2
	note G#, 2
	note F_, 2
	note G#, 2
	note B_, 2
	note F_, 2
	note F_, 2
	note F#, 2
	note G_, 2
	sound_loop 0, Music_GalacticBattle_Ch2_loop

Music_GalacticBattle_Ch3:
	pitch_offset $0001
	vibrato $08, $3, $6
	octave 5
	note_type $C, $1, $5
	note G#, 1
	note G_, 1
	note F#, 1
	note F_, 1
	note E_, 1
	note D#, 1
	note F#, 1
	note F_, 1
	note E_, 1
	note D#, 1
	note D_, 1
	note C#, 1
	note E_, 1
	note D#, 1
	note D_, 1
	note C#, 1
	note C_, 1
	octave 4
	note B_, 1
	octave 5
	note D_, 1
	note C#, 1
	note C_, 1
	octave 4
	note B_, 1
	note A#, 1
	note A_, 1
	octave 5
	note C_, 1
	octave 4
	note B_, 1
	note A#, 1
	note A_, 1
	note G#, 1
	note G_, 1
	note A#, 1
	note A_, 1
	volume_envelope $1, $4
	note G#, 2
	rest 4
	note B_, 4
	note G#, 4
	note G#, 2
	octave 5
	note C#, 2
	rest 4
	octave 4
	note B_, 4
	note A_, 6
	note G#, 2
	rest 4
	note B_, 4
	note G#, 4
	note G#, 2
	octave 5
	note C#, 2
	rest 4
	octave 4
	note B_, 4
	note A_, 6
	octave 5
	note G#, 2
	rest 4
	note B_, 4
	note G#, 4
	note G#, 2
	octave 6
	note C#, 2
	rest 4
	octave 5
	note B_, 4
	note A_, 6
	note G#, 2
	rest 4
	note B_, 4
	note G#, 4
	note G#, 2
	octave 6
	note C#, 2
	rest 4
	octave 5
	note B_, 4
	note A_, 6
Music_GalacticBattle_Ch3_loop:
	octave 4
	note G#, 6
	note A#, 6
	note B_, 4
	note A#, 6
	note G#, 6
	note F_, 4
	note D#, 4
	note F_, 4
	note G_, 4
	note G#, 4
	note G_, 2
	note G#, 2
	note G_, 2
	note F_, 2
	note D#, 2
	note C_, 2
	note D#, 2
	note F#, 2
	note F_, 6
	note G_, 6
	note F_, 4
	note D#, 6
	note F_, 6
	note C_, 4
	note F_, 16
	note F_, 14
	volume_envelope $1, $9
	octave 5
	note F#, 1
	note G_, 1
	note G#, 6
	note A#, 6
	note B_, 4
	note A#, 6
	note G#, 6
	note F_, 4
	note D#, 4
	note F_, 4
	note G_, 4
	note G#, 4
	note G_, 2
	note G#, 2
	note G_, 2
	note F_, 2
	note D#, 2
	note C_, 2
	note D#, 2
	note F#, 2
	note F_, 6
	note G_, 6
	note F_, 4
	note D#, 6
	note F_, 6
	note C_, 4
	note F_, 16
	note F_, 16
	volume_envelope $1, $6
	octave 4
	note D#, 10
	note C#, 2
	note D#, 2
	note C#, 2
	note C_, 6
	note C#, 4
	octave 3
	note A#, 2
	note G#, 2
	note A#, 2
	octave 4
	note C_, 10
	octave 3
	note B_, 2
	octave 4
	note C_, 4
	note E_, 14
	note_type $8, $1, $6
	note F_, 1
	note G#, 1
	octave 5
	note C#, 1
	note F_, 15
	note D#, 3
	note F_, 3
	note D#, 3
	note C#, 9
	note D#, 6
	note C#, 3
	note C_, 3
	note C#, 3
	octave 4
	note_type $F, $1, $6
	note A#, 12
	octave 5
	note_type $C, $1, $6
	note F#, 1
	note G_, 16
	volume_envelope $1, $5
	note D#, 1
	rest 1
	note D#, 1
	rest 3
	note F_, 4
	note E_, 1
	rest 1
	note E_, 1
	rest 1
	note E_, 1
	rest 16
	note_type $1, $1, $5
	rest 12
	note_type $C, $1, $5
	note D#, 1
	rest 1
	note D#, 1
	rest 3
	note F_, 4
	note E_, 1
	rest 1
	note E_, 1
	rest 1
	note E_, 1
	rest 16
	note_type $1, $1, $5
	rest 12
	note_type $C, $1, $5
	note D#, 1
	rest 1
	note D#, 1
	rest 3
	note F_, 4
	note E_, 1
	rest 1
	note E_, 1
	rest 1
	note E_, 1
	rest 16
	note_type $1, $1, $5
	rest 12
	note_type $C, $1, $5
	note D#, 1
	rest 1
	note D#, 1
	rest 3
	note F_, 4
	note B_, 1
	rest 1
	note B_, 1
	rest 1
	note B_, 1
	rest 1
	octave 6
	note C#, 4
	note D#, 4
	note E_, 2
	note G#, 6
	octave 5
	note G#, 2
	note C#, 2
	octave 4
	note G#, 2
	octave 5
	note A#, 2
	note D#, 2
	octave 4
	note A#, 2
	octave 5
	note B_, 2
	octave 4
	note B_, 2
	octave 6
	note C#, 2
	octave 5
	note E_, 2
	note C#, 2
	octave 6
	note D#, 2
	octave 5
	note F#, 2
	note D#, 2
	octave 6
	note E_, 2
	octave 5
	note E_, 2
	octave 6
	note C#, 2
	octave 5
	note F#, 2
	note C#, 2
	octave 6
	note D#, 2
	octave 5
	note G#, 2
	note D#, 2
	octave 6
	note E_, 2
	octave 5
	note E_, 2
	octave 6
	note F#, 2
	octave 5
	note A#, 2
	note F#, 2
	octave 6
	note G_, 2
	note C#, 2
	octave 5
	note G_, 2
	octave 6
	note A_, 4
	volume_envelope $1, $6
	octave 5
	note G#, 1
	rest 1
	note G#, 1
	rest 3
	octave 4
	note G#, 4
	octave 5
	note G#, 1
	rest 1
	note G#, 1
	rest 3
	octave 4
	note F#, 8
	note G_, 8
	octave 5
	note G#, 1
	rest 1
	note G#, 1
	rest 3
	octave 4
	note G#, 4
	octave 5
	note G#, 1
	rest 1
	note G#, 1
	rest 3
	octave 4
	note B_, 8
	note A_, 8
	note D#, 16
	note E_, 16
	note F_, 16
	note E_, 16
	octave 3
	note D#, 16
	note E_, 16
	note F_, 16
	note E_, 16
	volume_envelope $1, $4
	sound_loop 0, Music_GalacticBattle_Ch3_loop

Music_GalacticBattle_Ch4:
	toggle_noise 3
	drum_speed $C
	rest 2
	drum_note 12, 6
	drum_note 12, 16
	drum_note 4, 4
	drum_note 1, 2
	drum_note 1, 2
	drum_note 4, 4
	drum_note 4, 4
	drum_note 4, 4
	drum_note 4, 4
	drum_note 4, 4
	drum_note 4, 4
	drum_note 4, 4
	drum_note 1, 4
	drum_note 4, 4
	drum_note 4, 4
	drum_note 4, 4
	drum_note 4, 4
	drum_note 4, 4
	drum_note 4, 4
	drum_note 4, 4
	drum_note 1, 2
	drum_note 1, 2
	drum_note 4, 4
	drum_note 4, 4
	drum_note 4, 4
	drum_note 4, 4
	drum_note 4, 4
	drum_note 4, 4
	drum_note 4, 4
	drum_note 1, 4
	drum_note 4, 4
	drum_note 4, 4
	drum_note 4, 4
	drum_note 4, 4
	drum_note 4, 6
	drum_note 1, 2
	drum_note 1, 2
	drum_note 4, 2
	drum_note 1, 2
	drum_note 1, 2
Music_GalacticBattle_Ch4_loop:
	drum_note 4, 4
	drum_note 1, 2
	drum_note 4, 4
	drum_note 4, 2
	drum_note 1, 4
	drum_note 4, 4
	drum_note 1, 2
	drum_note 4, 4
	drum_note 4, 2
	drum_note 1, 4
	drum_note 4, 4
	drum_note 1, 2
	drum_note 4, 4
	drum_note 4, 2
	drum_note 1, 4
	drum_note 4, 4
	drum_note 1, 2
	drum_note 4, 4
	drum_note 4, 2
	drum_note 1, 4
	drum_note 4, 4
	drum_note 1, 2
	drum_note 4, 4
	drum_note 4, 2
	drum_note 1, 4
	drum_note 4, 4
	drum_note 1, 2
	drum_note 4, 4
	drum_note 4, 2
	drum_note 1, 4
	drum_note 4, 4
	drum_note 1, 2
	drum_note 4, 4
	drum_note 4, 2
	drum_note 1, 4
	drum_note 4, 4
	drum_note 1, 2
	drum_note 4, 2
	drum_note 1, 2
	drum_note 4, 2
	drum_note 1, 2
	drum_note 1, 2
	drum_note 4, 4
	drum_note 1, 2
	drum_note 4, 4
	drum_note 4, 2
	drum_note 1, 4
	drum_note 4, 4
	drum_note 1, 2
	drum_note 4, 4
	drum_note 4, 2
	drum_note 1, 4
	drum_note 4, 4
	drum_note 1, 2
	drum_note 4, 4
	drum_note 4, 2
	drum_note 1, 4
	drum_note 4, 4
	drum_note 1, 2
	drum_note 4, 4
	drum_note 4, 2
	drum_note 1, 4
	drum_note 4, 4
	drum_note 1, 2
	drum_note 4, 4
	drum_note 4, 2
	drum_note 1, 4
	drum_note 4, 4
	drum_note 1, 2
	drum_note 4, 4
	drum_note 4, 2
	drum_note 1, 4
	drum_note 4, 4
	drum_note 1, 2
	drum_note 4, 4
	drum_note 4, 2
	drum_note 1, 4
	drum_note 4, 4
	drum_note 1, 2
	drum_note 4, 4
	drum_note 4, 2
	drum_note 1, 4
	drum_note 4, 4
	drum_note 1, 2
	drum_note 4, 4
	drum_note 4, 2
	drum_note 1, 4
	drum_note 4, 4
	drum_note 1, 2
	drum_note 4, 4
	drum_note 4, 2
	drum_note 1, 4
	drum_note 4, 4
	drum_note 1, 2
	drum_note 4, 4
	drum_note 4, 2
	drum_note 1, 4
	drum_note 4, 4
	drum_note 1, 2
	drum_note 4, 4
	drum_note 4, 2
	drum_note 1, 4
	drum_note 4, 4
	drum_note 1, 2
	drum_note 4, 4
	drum_note 4, 2
	drum_note 1, 4
	drum_note 4, 4
	drum_note 1, 2
	drum_note 4, 4
	drum_note 4, 2
	drum_note 1, 4
	drum_note 4, 4
	drum_note 1, 2
	drum_note 4, 4
	drum_note 4, 2
	drum_note 1, 4
	drum_note 4, 4
	drum_note 1, 2
	drum_note 4, 4
	drum_note 4, 2
	drum_note 1, 2
	drum_note 1, 2
	drum_note 4, 4
	drum_note 1, 2
	drum_note 4, 4
	drum_note 4, 2
	drum_note 1, 4
	drum_note 4, 4
	drum_note 1, 2
	drum_note 4, 4
	drum_note 4, 2
	drum_note 1, 4
	drum_note 4, 4
	drum_note 1, 2
	drum_note 4, 4
	drum_note 4, 2
	drum_note 1, 4
	drum_note 4, 4
	drum_note 1, 2
	drum_note 4, 4
	drum_note 4, 2
	drum_note 1, 4
	drum_note 4, 4
	drum_note 1, 2
	drum_note 4, 4
	drum_note 4, 2
	drum_note 1, 4
	drum_note 4, 4
	drum_note 1, 2
	drum_note 4, 4
	drum_note 4, 2
	drum_note 1, 4
	drum_note 4, 4
	drum_note 1, 2
	drum_note 4, 4
	drum_note 4, 2
	drum_note 1, 4
	drum_note 4, 4
	drum_note 1, 2
	drum_note 4, 4
	drum_note 1, 2
	drum_note 1, 2
	drum_note 1, 2
	drum_note 4, 4
	drum_note 1, 2
	drum_note 4, 4
	drum_note 4, 2
	drum_note 1, 4
	drum_note 4, 4
	drum_note 1, 2
	drum_note 4, 4
	drum_note 4, 2
	drum_note 1, 4
	drum_note 4, 4
	drum_note 1, 2
	drum_note 4, 4
	drum_note 4, 2
	drum_note 1, 4
	drum_note 1, 2
	drum_note 4, 2
	drum_note 4, 2
	drum_note 1, 2
	drum_note 4, 2
	drum_note 1, 2
	drum_note 4, 2
	drum_note 1, 2
	drum_note 1, 2
	drum_note 1, 4
	drum_note 4, 4
	drum_note 1, 2
	drum_note 1, 4
	drum_note 12, 8
	drum_note 12, 8
	drum_note 1, 2
	drum_note 1, 4
	drum_note 4, 4
	drum_note 1, 2
	drum_note 1, 4
	drum_note 4, 4
	drum_note 1, 2
	drum_note 1, 2
	drum_note 4, 2
	drum_note 1, 2
	drum_note 1, 2
	drum_note 1, 2
	drum_note 12, 12
	drum_note 1, 4
	drum_note 4, 6
	drum_note 4, 6
	drum_note 1, 4
	drum_note 4, 6
	drum_note 4, 2
	drum_note 1, 2
	drum_note 1, 10
	drum_note 1, 2
	drum_note 4, 2
	drum_note 1, 4
	drum_note 1, 2
	drum_note 1, 2
	drum_note 4, 4
	drum_note 1, 2
	drum_note 4, 4
	drum_note 4, 2
	drum_note 1, 4
	drum_note 4, 4
	drum_note 1, 2
	drum_note 4, 4
	drum_note 4, 2
	drum_note 1, 4
	drum_note 4, 4
	drum_note 1, 2
	drum_note 4, 4
	drum_note 4, 2
	drum_note 1, 4
	drum_note 4, 4
	drum_note 1, 4
	drum_note 4, 2
	drum_note 1, 2
	drum_note 4, 2
	drum_note 1, 2
	sound_loop 0, Music_GalacticBattle_Ch4_loop

