Music_GalacticAdminBattle:
	channel_count 4
	channel 1, Music_GalacticAdminBattle_Ch1
	channel 2, Music_GalacticAdminBattle_Ch2
	channel 3, Music_GalacticAdminBattle_Ch3
	channel 4, Music_GalacticAdminBattle_Ch4

Music_GalacticAdminBattle_Ch1:
	volume $7, $7
	stereo_panning TRUE, TRUE
	tempo $60
	duty_cycle 1
	pitch_offset $0002
	vibrato $10, $1, $5
	octave 2
	note_type $C, $B, 2
	rest 16
	note D_, 1
	note D#, 1
	note E_, 1
	note F_, 1
	note E_, 1
	note F_, 1
	note F#, 1
	note G_, 1
	note F#, 1
	note G_, 1
	note G#, 1
	note A_, 1
	note G#, 1
	note A_, 1
	note A#, 1
	note B_, 1
	octave 3
	note C_, 1
	rest 5
	note D#, 1
	rest 5
	note F#, 4
	note C_, 1
	rest 5
	note F#, 1
	rest 5
	note A_, 4
	note C_, 1
	rest 5
	note D#, 1
	rest 5
	note F#, 4
	note C_, 1
	rest 5
	note F#, 1
	rest 5
	note A_, 4
	octave 4
	note F_, 1
	rest 5
	note G#, 1
	rest 5
	note B_, 4
	note F_, 1
	rest 5
	note A_, 1
	rest 5
	octave 5
	note C_, 4
	octave 4
	note F_, 1
	rest 5
	note G#, 1
	rest 5
	note B_, 4
	note F_, 1
	rest 5
	note A_, 1
	rest 5
	octave 5
	note C_, 4
Music_GalacticAdminBattle_Ch1_loop:
	volume_envelope $B, 7
	octave 3
	note F_, 8
	note G#, 8
	note B_, 6
	octave 4
	note C_, 10
	octave 3
	note F_, 8
	note G#, 8
	note B_, 6
	octave 4
	note C_, 10
	octave 3
	note F_, 8
	note G#, 8
	note B_, 6
	octave 4
	note C_, 10
	octave 3
	note F_, 8
	note G#, 8
	note B_, 6
	octave 4
	note C_, 10
	note F_, 8
	note G#, 8
	note B_, 6
	octave 5
	note C_, 10
	octave 4
	note F_, 8
	note G#, 8
	note B_, 6
	octave 5
	note C_, 10
	octave 4
	note F_, 8
	note G#, 8
	note B_, 6
	octave 5
	note C_, 10
	octave 4
	note F_, 8
	note G#, 8
	note B_, 6
	octave 5
	note C_, 10
	duty_cycle 2
	volume_envelope $A, 1
	octave 3
	note_type $8, $A, 1
	note F#, 2
	note D#, 2
	note F#, 2
	note A#, 2
	note F#, 2
	note A#, 2
	octave 4
	note D#, 2
	note F#, 2
	note D#, 2
	octave 3
	note A#, 2
	note F#, 2
	octave 4
	note D#, 2
	octave 3
	note F#, 2
	octave 4
	note D#, 2
	octave 3
	note D#, 2
	note F#, 2
	note D#, 2
	octave 2
	note A#, 2
	octave 3
	note D#, 2
	note F#, 2
	note A#, 2
	note F#, 2
	note A#, 2
	octave 4
	note D#, 2
	octave 3
	note G_, 2
	note E_, 2
	note G_, 2
	octave 4
	note C_, 2
	octave 3
	note G_, 2
	octave 4
	note C_, 2
	note E_, 2
	note G_, 2
	octave 5
	note C_, 2
	note E_, 2
	note C_, 2
	note E_, 2
	octave 2
	note G_, 2
	octave 3
	note C_, 2
	note E_, 2
	note G_, 2
	note C_, 2
	note E_, 2
	note G_, 2
	octave 4
	note C_, 2
	note E_, 2
	note G_, 2
	octave 5
	note C_, 2
	note E_, 2
	octave 3
	note C#, 2
	octave 2
	note G#, 2
	octave 3
	note C#, 2
	note F_, 2
	note C#, 2
	note F_, 2
	note G#, 2
	octave 4
	note C#, 2
	octave 3
	note G#, 2
	note F_, 2
	note C#, 2
	note G#, 2
	note F_, 2
	octave 4
	note C#, 2
	octave 3
	note C#, 2
	note F_, 2
	note C#, 2
	octave 2
	note G#, 2
	octave 3
	note C#, 2
	note F_, 2
	note G#, 2
	note F_, 2
	note G#, 2
	octave 4
	note C#, 2
	octave 3
	note D#, 2
	octave 2
	note A#, 2
	octave 3
	note D#, 2
	note G_, 2
	note D#, 2
	note G_, 2
	note A#, 2
	octave 4
	note D#, 2
	note G_, 2
	note A#, 2
	note G_, 2
	note A#, 2
	octave 2
	note G_, 2
	note A#, 2
	octave 3
	note D#, 2
	note G_, 2
	octave 2
	note A#, 2
	octave 3
	note D#, 2
	note G_, 2
	note A#, 2
	octave 4
	note D#, 2
	note G_, 2
	note A#, 2
	octave 5
	note D#, 2
	octave 4
	note_type $C, $B, 7
	duty_cycle 1
	note D#, 6
	note C_, 6
	note D#, 4
	note F_, 6
	note D#, 6
	note C#, 4
	note C_, 6
	note C#, 6
	note D#, 4
	octave 3
	note A#, 6
	octave 4
	note C_, 6
	note C#, 4
	note D#, 6
	note C_, 6
	note D#, 4
	note F_, 6
	note D#, 6
	note C#, 4
	note C_, 6
	octave 3
	note A#, 6
	note G#, 4
	note G_, 6
	note G#, 6
	note G_, 4
	octave 4
	note C#, 6
	note D#, 6
	note C#, 4
	note E_, 6
	note D#, 6
	note D_, 4
	note C#, 6
	note D#, 6
	note C#, 4
	note E_, 6
	note D#, 6
	note D_, 4
	note D#, 1
	rest 1
	note D#, 1
	rest 7
	note D#, 1
	rest 1
	note D#, 1
	rest 3
	duty_cycle 0
	volume_envelope $A, 1
	octave 2
	note_type $8, $A, 1
	note A#, 2
	octave 3
	note C#, 2
	note F#, 2
	note A#, 2
	octave 4
	note C#, 2
	note F#, 2
	octave 3
	note B_, 2
	octave 4
	note D_, 2
	note G_, 2
	note B_, 2
	octave 5
	note D_, 2
	note G_, 2
	duty_cycle 1
	volume_envelope $B, 7
	octave 4
	note_type $C, $B, 7
	note D#, 1
	rest 1
	note D#, 1
	rest 7
	note D#, 1
	rest 1
	note D#, 1
	rest 3
	duty_cycle 0
	volume_envelope $A, 1
	octave 3
	note_type $8, $A, 1
	note D#, 2
	note F#, 2
	note B_, 2
	octave 4
	note D#, 2
	octave 3
	note F#, 2
	note B_, 2
	octave 4
	note C#, 2
	note E_, 2
	note A_, 2
	octave 5
	note C#, 2
	note E_, 2
	note A_, 2
	duty_cycle 1
	volume_envelope $B, 7
	octave 3
	note_type $C, $B, 7
	note G#, 16
	note G#, 16
	note G#, 16
	note G#, 16
	octave 2
	note C_, 8
	note D#, 8
	note F#, 6
	note F_, 10
	note C_, 8
	note D#, 8
	note F#, 6
	note F_, 10
	sound_loop 0, Music_GalacticAdminBattle_Ch1_loop

Music_GalacticAdminBattle_Ch2:
	note_type $C, $B, 4
	rest 1
	duty_cycle 3
	octave 4
	note B_, 1
	octave 5
	note C_, 1
	octave 4
	note B_, 1
	octave 5
	note D_, 1
	note C#, 1
	note C_, 1
	octave 4
	note B_, 1
	octave 5
	note C_, 1
	octave 4
	note B_, 1
	octave 5
	note D_, 1
	note C#, 1
	note C_, 1
	octave 4
	note B_, 1
	octave 5
	note C_, 1
	octave 4
	note B_, 1
	octave 5
	note D_, 1
	note C#, 1
	note C_, 1
	octave 4
	note B_, 1
	octave 5
	note C_, 1
	octave 4
	note B_, 1
	octave 5
	note D_, 1
	note C#, 1
	note C_, 1
	octave 4
	note B_, 1
	octave 5
	note C_, 1
	octave 4
	note B_, 1
	octave 5
	note D_, 1
	note C#, 1
	note C_, 1
	octave 4
	note B_, 1
	octave 1
	note F_, 2
	note G#, 2
	note F_, 2
	note B_, 1
	note A#, 1
	note F_, 2
	note A_, 2
	note G#, 2
	note G_, 2
	note F_, 2
	note G#, 2
	note F_, 2
	note B_, 1
	note A#, 1
	note F_, 2
	note G_, 2
	note G#, 2
	note F#, 2
	note F_, 2
	note G#, 2
	note F_, 2
	note B_, 1
	note A#, 1
	note F_, 2
	note A_, 2
	note G#, 2
	note G_, 2
	note F_, 2
	note G#, 2
	note F_, 2
	note B_, 1
	note A#, 1
	note F_, 2
	note G#, 2
	note A_, 2
	note G_, 2
	note F_, 2
	note G#, 2
	note F_, 2
	note B_, 1
	note A#, 1
	note F_, 2
	note A_, 2
	note G#, 2
	note G_, 2
	note F_, 2
	note G#, 2
	note F_, 2
	note B_, 1
	note A#, 1
	note F_, 2
	note G_, 2
	note G#, 2
	note F#, 2
	note F_, 2
	note G#, 2
	note F_, 2
	note B_, 1
	note A#, 1
	note F_, 2
	note A_, 2
	note G#, 2
	note G_, 2
	note F_, 2
	note G#, 2
	note G#, 2
	note B_, 1
	note A#, 1
	note A_, 2
	note G#, 2
	note G_, 2
	note F#, 2
Music_GalacticAdminBattle_Ch2_loop:
	note F_, 2
	note G#, 2
	note F_, 2
	note B_, 1
	note A#, 1
	note F_, 2
	note G#, 2
	note D#, 2
	note F#, 2
	note F_, 2
	note G#, 2
	note F_, 2
	note B_, 1
	note A#, 1
	note G#, 2
	note D#, 2
	note F_, 2
	note F#, 2
	note F_, 2
	note G#, 2
	note F_, 2
	note B_, 1
	note A#, 1
	note F_, 2
	note G#, 2
	note D#, 2
	note F#, 2
	note F_, 2
	note G#, 2
	note F_, 2
	note B_, 1
	note A#, 1
	note G#, 2
	note D#, 2
	note F#, 2
	note D#, 2
	note F_, 2
	note G#, 2
	note F_, 2
	note B_, 1
	note A#, 1
	note F_, 2
	note G#, 2
	note D#, 2
	note F#, 2
	note F_, 2
	note G#, 2
	note F_, 2
	note B_, 1
	note A#, 1
	note G#, 2
	note D#, 2
	note F_, 2
	note F#, 2
	note F_, 2
	note G#, 2
	note F_, 2
	note B_, 1
	note A#, 1
	note F_, 2
	note G#, 2
	note D#, 2
	note F#, 2
	note F_, 2
	note G#, 2
	note F_, 2
	note B_, 1
	note A#, 1
	note G#, 2
	note D#, 2
	note F#, 2
	note D#, 2
	note F_, 2
	note G#, 2
	note F_, 2
	note B_, 1
	note A#, 1
	note F_, 2
	note G#, 2
	note D#, 2
	note F#, 2
	note F_, 2
	note G#, 2
	note F_, 2
	note B_, 1
	note A#, 1
	note G#, 2
	note D#, 2
	note F_, 2
	note F#, 2
	note F_, 2
	note G#, 2
	note F_, 2
	note B_, 1
	note A#, 1
	note F_, 2
	note G#, 2
	note D#, 2
	note F#, 2
	note F_, 2
	note G#, 2
	note F_, 2
	note B_, 1
	note A#, 1
	note G#, 2
	note D#, 2
	note F#, 2
	note D#, 2
	note F_, 2
	note G#, 2
	note F_, 2
	note B_, 1
	note A#, 1
	note F_, 2
	note G#, 2
	note D#, 2
	note F#, 2
	note F_, 2
	note G#, 2
	note F_, 2
	note B_, 1
	note A#, 1
	note G#, 2
	note D#, 2
	note F_, 2
	note F#, 2
	note F_, 2
	note G#, 2
	note F_, 2
	note B_, 1
	note A#, 1
	note F_, 2
	note G#, 2
	note D#, 2
	note F#, 2
	note F_, 2
	note G#, 2
	note F_, 2
	note B_, 1
	note A#, 1
	note G#, 2
	note D#, 2
	note F#, 2
	note D#, 2
	duty_cycle 2
	note D#, 2
	note F#, 2
	note F#, 2
	note B_, 1
	note A#, 1
	note D#, 2
	note F#, 2
	note F_, 2
	note F#, 2
	note D#, 2
	note F#, 2
	note F#, 2
	note B_, 1
	note A#, 1
	note D#, 2
	note F#, 2
	note F_, 2
	note F#, 2
	note C_, 2
	note G_, 2
	note E_, 2
	octave 2
	note C_, 1
	octave 1
	note B_, 1
	note C_, 2
	note G_, 2
	note E_, 2
	note E_, 2
	note C_, 2
	note G_, 2
	note E_, 2
	octave 2
	note C_, 1
	octave 1
	note B_, 1
	note G_, 2
	note C_, 2
	note E_, 2
	note E_, 2
	note C#, 2
	note F_, 2
	note F_, 2
	note B_, 1
	note A#, 1
	note C#, 2
	note F_, 2
	note E_, 2
	note F_, 2
	note C#, 2
	note F_, 2
	note F_, 2
	note B_, 1
	note A#, 1
	note C#, 2
	note F_, 2
	note E_, 2
	note F_, 2
	note C_, 2
	note D#, 2
	note D#, 2
	note A#, 1
	note A_, 1
	note C_, 2
	note D#, 2
	note D_, 2
	note D#, 2
	note C_, 2
	note D#, 2
	note C_, 2
	note A#, 1
	note A_, 1
	note G_, 2
	note C_, 2
	note A_, 4
	octave 2
	note G#, 2
	octave 1
	note G#, 2
	octave 2
	note G#, 2
	note A#, 2
	octave 1
	note A#, 2
	octave 2
	note A#, 2
	note G#, 2
	octave 1
	note G#, 2
	octave 2
	note B_, 2
	octave 1
	note B_, 2
	octave 2
	note B_, 2
	note A#, 2
	octave 1
	note A#, 2
	octave 2
	note A#, 2
	note A_, 2
	octave 1
	note A_, 2
	octave 2
	note G#, 2
	octave 1
	note G#, 2
	octave 2
	note G#, 2
	note A#, 2
	octave 1
	note A#, 2
	octave 2
	note A#, 2
	note G#, 2
	octave 1
	note G#, 2
	octave 2
	note B_, 2
	octave 1
	note B_, 2
	octave 2
	note B_, 2
	note A#, 2
	octave 1
	note A#, 2
	octave 2
	note A#, 2
	note A_, 2
	octave 1
	note A_, 2
	octave 2
	note G#, 2
	octave 1
	note G#, 2
	octave 2
	note G#, 2
	note A#, 2
	octave 1
	note A#, 2
	octave 2
	note A#, 2
	note G#, 2
	octave 1
	note G#, 2
	octave 2
	note B_, 2
	octave 1
	note B_, 2
	octave 2
	note B_, 2
	note A#, 2
	octave 1
	note A#, 2
	octave 2
	note A#, 2
	note A_, 2
	octave 1
	note A_, 2
	octave 2
	note G#, 2
	octave 1
	note G#, 2
	octave 2
	note G#, 2
	note A#, 2
	octave 1
	note A#, 2
	octave 2
	note A#, 2
	note G#, 2
	octave 1
	note G#, 2
	octave 2
	note B_, 2
	octave 1
	note B_, 2
	octave 2
	note B_, 2
	note A#, 2
	octave 1
	note A#, 2
	octave 2
	note A#, 2
	note B_, 2
	octave 1
	note B_, 2
	octave 2
	note G#, 2
	octave 1
	note G#, 2
	octave 2
	note G#, 2
	note A#, 2
	octave 1
	note A#, 2
	octave 2
	note A#, 2
	note G#, 2
	octave 1
	note G#, 2
	octave 2
	note B_, 2
	octave 1
	note B_, 2
	octave 2
	note B_, 2
	note A#, 2
	octave 1
	note A#, 2
	octave 2
	note A#, 2
	note A_, 2
	octave 1
	note A_, 2
	octave 2
	note G#, 2
	octave 1
	note G#, 2
	octave 2
	note G#, 2
	note A#, 2
	octave 1
	note A#, 2
	octave 2
	note A#, 2
	note G#, 2
	octave 1
	note G#, 2
	octave 2
	note B_, 2
	octave 1
	note B_, 2
	octave 2
	note B_, 2
	note F#, 2
	octave 1
	note F#, 2
	octave 2
	note F#, 2
	note A_, 2
	octave 1
	note A_, 2
	octave 2
	note G#, 2
	note G#, 2
	note G#, 2
	octave 1
	note G#, 2
	octave 2
	note G#, 2
	note G#, 2
	note G#, 2
	octave 1
	note G#, 2
	note F#, 2
	octave 2
	note D#, 2
	note F#, 2
	note A#, 2
	note G_, 2
	note D#, 2
	note G_, 2
	note B_, 2
	note G#, 2
	note G#, 2
	note G#, 2
	octave 1
	note G#, 2
	octave 2
	note G#, 2
	note G#, 2
	note G#, 2
	octave 1
	note G#, 2
	note F#, 2
	octave 2
	note D#, 2
	note F#, 2
	note B_, 2
	note A_, 2
	note E_, 2
	note A_, 2
	note G_, 2
	octave 1
	note F_, 2
	note G#, 2
	note F_, 2
	note B_, 1
	note A#, 1
	note F_, 2
	note A_, 2
	note G#, 2
	note G_, 2
	note F_, 2
	note G#, 2
	note F_, 2
	note B_, 1
	note A#, 1
	note F_, 2
	note G_, 2
	note G#, 2
	note F#, 2
	note F_, 2
	note G#, 2
	note F_, 2
	note B_, 1
	note A#, 1
	note F_, 2
	note A_, 2
	note G#, 2
	note G_, 2
	note F_, 2
	note G#, 2
	note F_, 2
	note B_, 1
	note A#, 1
	note F_, 2
	note G#, 2
	note A_, 2
	note G_, 2
	duty_cycle 3
	note F_, 2
	note G#, 2
	note F_, 2
	note B_, 1
	note A#, 1
	note F_, 2
	note A_, 2
	note G#, 2
	note G_, 2
	note F_, 2
	note G#, 2
	note F_, 2
	note B_, 1
	note A#, 1
	note F_, 2
	note G_, 2
	note G#, 2
	note F#, 2
	note F_, 2
	note G#, 2
	note F_, 2
	note B_, 1
	note A#, 1
	note F_, 2
	note A_, 2
	note G#, 2
	note G_, 2
	note F_, 2
	note G#, 2
	note F_, 2
	note B_, 1
	note A#, 1
	note F_, 2
	note F#, 2
	note F_, 2
	note E_, 2
	sound_loop 0, Music_GalacticAdminBattle_Ch2_loop

Music_GalacticAdminBattle_Ch3:
	pitch_offset $0001
	vibrato $08, $3, $6
	octave 5
	note_type $C, $1, $5
	note B_, 1
	note A#, 1
	note A_, 1
	note G#, 1
	note A_, 1
	note G#, 1
	note G_, 1
	note F#, 1
	note G_, 1
	note F#, 1
	note F_, 1
	note E_, 1
	note F_, 1
	note E_, 1
	note D#, 1
	note D_, 1
	note D#, 1
	note D_, 1
	note C#, 1
	note C_, 1
	note C#, 1
	note C_, 1
	octave 4
	note B_, 1
	note A#, 1
	note B_, 1
	note A#, 1
	note A_, 1
	note G#, 1
	note A_, 1
	note G#, 1
	note G_, 1
	note F#, 1
	note F_, 1
	rest 5
	note G#, 1
	rest 5
	note B_, 4
	note F_, 1
	rest 5
	note A_, 1
	rest 5
	octave 5
	note C_, 4
	octave 4
	note F_, 1
	rest 5
	note G#, 1
	rest 5
	note B_, 4
	note F_, 1
	rest 5
	note A_, 1
	rest 5
	octave 5
	note C_, 4
	volume_envelope $1, $2
	octave 3
	note F_, 16
	note B_, 16
	octave 4
	note E_, 16
	note F_, 16
Music_GalacticAdminBattle_Ch3_loop:
	volume_envelope $1, $4
	note G#, 6
	note A#, 6
	note B_, 4
	note A#, 6
	note G#, 6
	note F_, 4
	note D#, 4
	note F_, 4
	note G_, 4
	note G#, 4
	note G_, 2
	note G#, 2
	note G_, 2
	note F_, 2
	note D#, 2
	note C_, 2
	note D#, 2
	note F#, 2
	note F_, 6
	note G_, 6
	note F_, 4
	note D#, 6
	note F_, 6
	note C_, 4
	note F_, 16
	note F_, 14
	volume_envelope $1, $9
	note F#, 1
	note G_, 1
	note G#, 6
	note A#, 6
	note B_, 4
	note A#, 6
	note G#, 6
	note F_, 4
	note D#, 4
	note F_, 4
	note G_, 4
	note G#, 4
	note G_, 2
	note G#, 2
	note G_, 2
	note F_, 2
	note D#, 2
	note C_, 2
	note D#, 2
	note F#, 2
	note F_, 6
	note G_, 6
	note F_, 4
	note D#, 6
	note F_, 6
	note C_, 4
	note F_, 16
	note F_, 16
	volume_envelope $1, $6
	note D#, 10
	note C#, 2
	note D#, 2
	note C#, 2
	note C_, 6
	note C#, 4
	octave 3
	note A#, 2
	note G#, 2
	note A#, 2
	octave 4
	note C_, 10
	octave 3
	note B_, 2
	octave 4
	note C_, 4
	note E_, 12
	octave 3
	note_type $8, $1, $6
	note G_, 1
	note A#, 1
	octave 4
	note D#, 1
	note G_, 1
	note A#, 1
	octave 5
	note D#, 1
	note F_, 15
	note D#, 3
	note F_, 3
	note D#, 3
	note C#, 9
	note D#, 6
	note C#, 3
	note C_, 3
	note C#, 3
	octave 4
	note_type $C, $1, $6
	note A#, 12
	octave 5
	note C_, 1
	note C#, 1
	note D#, 1
	note F#, 1
	note G_, 14
	octave 4
	note_type $6, $1, $6
	note G#, 1
	octave 5
	note C_, 1
	note D#, 1
	note G_, 1
	note_type $C, $1, $6
	note G#, 16
	note G#, 16
	note G#, 16
	note G#, 16
	octave 4
	note G#, 16
	octave 3
	note G#, 16
	note G#, 16
	octave 4
	note G#, 12
	note G_, 4
	octave 5
	note G#, 2
	note C#, 2
	octave 4
	note G#, 2
	octave 5
	note A#, 2
	note D#, 2
	octave 4
	note A#, 2
	octave 5
	note B_, 2
	octave 4
	note B_, 2
	octave 6
	note C#, 2
	octave 5
	note E_, 2
	note C#, 2
	octave 6
	note D#, 2
	octave 5
	note F#, 2
	note D#, 2
	octave 6
	note E_, 2
	octave 5
	note E_, 2
	octave 6
	note C#, 2
	octave 5
	note F#, 2
	note C#, 2
	octave 6
	note D#, 2
	octave 5
	note G#, 2
	note D#, 2
	octave 6
	note E_, 2
	octave 5
	note E_, 2
	octave 6
	note F#, 2
	octave 5
	note A#, 2
	note F#, 2
	octave 6
	note G_, 2
	note C#, 2
	octave 5
	note G_, 2
	octave 6
	note A_, 4
	octave 5
	note G#, 1
	rest 1
	note G#, 1
	rest 3
	octave 4
	note G#, 4
	octave 5
	note G#, 1
	rest 1
	note G#, 1
	rest 3
	octave 4
	note F#, 8
	note G_, 8
	octave 5
	note G#, 1
	rest 1
	note G#, 1
	rest 3
	octave 4
	note G#, 4
	octave 5
	note G#, 1
	rest 1
	note G#, 1
	rest 3
	octave 4
	note F#, 8
	note E_, 8
	octave 3
	note F_, 16
	note B_, 16
	octave 4
	note E_, 16
	note F_, 16
	octave 3
	note F_, 8
	note G#, 8
	note B_, 6
	octave 4
	note C_, 10
	octave 3
	note F_, 8
	note G#, 8
	note B_, 6
	octave 4
	note C_, 10
	sound_loop 0, Music_GalacticAdminBattle_Ch3_loop

Music_GalacticAdminBattle_Ch4:
	toggle_noise 3
	drum_speed $C
	drum_note 12, 8
	drum_note 12, 4
	drum_note 12, 12
	drum_note 4, 4
	drum_note 4, 2
	drum_note 4, 1
	drum_note 4, 1
	drum_note 4, 4
	drum_note 4, 4
	drum_note 4, 4
	drum_note 4, 4
	drum_note 4, 4
	drum_note 4, 4
	drum_note 4, 4
	drum_note 1, 4
	drum_note 4, 4
	drum_note 4, 4
	drum_note 4, 4
	drum_note 4, 2
	drum_note 4, 1
	drum_note 4, 1
	drum_note 4, 4
	drum_note 4, 4
	drum_note 4, 4
	drum_note 1, 2
	drum_note 1, 2
	drum_note 4, 4
	drum_note 4, 4
	drum_note 4, 4
	drum_note 4, 2
	drum_note 4, 1
	drum_note 4, 1
	drum_note 4, 4
	drum_note 4, 4
	drum_note 4, 4
	drum_note 1, 4
	drum_note 4, 4
	drum_note 4, 4
	drum_note 4, 4
	drum_note 4, 2
	drum_note 4, 2
	drum_note 1, 2
	drum_note 4, 2
	drum_note 4, 2
	drum_note 1, 1
	drum_note 1, 1
	drum_note 1, 2
	drum_note 1, 2
	drum_note 4, 2
	drum_note 1, 2
Music_GalacticAdminBattle_Ch4_loop:
	drum_note 4, 2
	drum_note 4, 2
	drum_note 1, 2
	drum_note 4, 1
	drum_note 4, 1
	drum_note 4, 2
	drum_note 4, 2
	drum_note 1, 2
	drum_note 4, 2
	drum_note 4, 1
	drum_note 4, 1
	drum_note 4, 2
	drum_note 1, 2
	drum_note 4, 1
	drum_note 4, 1
	drum_note 4, 2
	drum_note 4, 2
	drum_note 1, 2
	drum_note 4, 1
	drum_note 4, 1
	drum_note 4, 2
	drum_note 4, 2
	drum_note 1, 2
	drum_note 4, 1
	drum_note 4, 1
	drum_note 4, 2
	drum_note 4, 2
	drum_note 1, 2
	drum_note 4, 2
	drum_note 4, 1
	drum_note 4, 1
	drum_note 4, 2
	drum_note 1, 2
	drum_note 4, 1
	drum_note 4, 1
	drum_note 4, 2
	drum_note 4, 2
	drum_note 1, 2
	drum_note 4, 1
	drum_note 4, 1
	drum_note 4, 2
	drum_note 4, 2
	drum_note 1, 2
	drum_note 4, 1
	drum_note 4, 1
	drum_note 4, 2
	drum_note 4, 2
	drum_note 1, 2
	drum_note 4, 2
	drum_note 4, 1
	drum_note 4, 1
	drum_note 4, 2
	drum_note 1, 2
	drum_note 4, 1
	drum_note 4, 1
	drum_note 4, 2
	drum_note 4, 2
	drum_note 1, 2
	drum_note 4, 1
	drum_note 4, 1
	drum_note 4, 2
	drum_note 4, 2
	drum_note 1, 2
	drum_note 4, 1
	drum_note 4, 1
	drum_note 4, 2
	drum_note 4, 2
	drum_note 1, 2
	drum_note 4, 2
	drum_note 4, 1
	drum_note 4, 1
	drum_note 4, 2
	drum_note 1, 2
	drum_note 4, 1
	drum_note 4, 1
	drum_note 4, 2
	drum_note 4, 2
	drum_note 1, 2
	drum_note 1, 2
	drum_note 4, 2
	drum_note 4, 2
	drum_note 1, 2
	drum_note 4, 1
	drum_note 4, 1
	drum_note 4, 2
	drum_note 4, 2
	drum_note 1, 2
	drum_note 4, 2
	drum_note 4, 1
	drum_note 4, 1
	drum_note 4, 2
	drum_note 1, 2
	drum_note 4, 1
	drum_note 4, 1
	drum_note 4, 2
	drum_note 4, 2
	drum_note 1, 2
	drum_note 4, 1
	drum_note 4, 1
	drum_note 4, 2
	drum_note 4, 2
	drum_note 1, 2
	drum_note 4, 1
	drum_note 4, 1
	drum_note 4, 2
	drum_note 4, 2
	drum_note 1, 2
	drum_note 4, 2
	drum_note 4, 1
	drum_note 4, 1
	drum_note 4, 2
	drum_note 1, 2
	drum_note 4, 1
	drum_note 4, 1
	drum_note 4, 2
	drum_note 4, 2
	drum_note 1, 2
	drum_note 4, 1
	drum_note 4, 1
	drum_note 4, 2
	drum_note 4, 2
	drum_note 1, 2
	drum_note 4, 1
	drum_note 4, 1
	drum_note 4, 2
	drum_note 4, 2
	drum_note 1, 2
	drum_note 4, 2
	drum_note 4, 1
	drum_note 4, 1
	drum_note 4, 2
	drum_note 1, 2
	drum_note 4, 1
	drum_note 4, 1
	drum_note 4, 2
	drum_note 4, 2
	drum_note 1, 2
	drum_note 4, 1
	drum_note 4, 1
	drum_note 4, 2
	drum_note 4, 2
	drum_note 1, 2
	drum_note 4, 1
	drum_note 4, 1
	drum_note 4, 2
	drum_note 4, 2
	drum_note 1, 2
	drum_note 4, 2
	drum_note 4, 1
	drum_note 4, 1
	drum_note 4, 2
	drum_note 1, 2
	drum_note 4, 1
	drum_note 4, 1
	drum_note 4, 2
	drum_note 1, 2
	drum_note 1, 2
	drum_note 1, 2
	drum_note 4, 2
	drum_note 4, 2
	drum_note 1, 2
	drum_note 4, 2
	drum_note 4, 2
	drum_note 4, 2
	drum_note 1, 2
	drum_note 4, 2
	drum_note 4, 2
	drum_note 4, 2
	drum_note 1, 2
	drum_note 4, 2
	drum_note 4, 2
	drum_note 4, 2
	drum_note 1, 2
	drum_note 4, 2
	drum_note 4, 2
	drum_note 4, 2
	drum_note 1, 2
	drum_note 4, 2
	drum_note 4, 2
	drum_note 4, 2
	drum_note 1, 2
	drum_note 4, 2
	drum_note 4, 2
	drum_note 4, 2
	drum_note 1, 2
	drum_note 4, 2
	drum_note 4, 2
	drum_note 4, 2
	drum_note 1, 2
	drum_note 4, 2
	drum_note 4, 2
	drum_note 4, 2
	drum_note 1, 2
	drum_note 4, 2
	drum_note 4, 2
	drum_note 4, 2
	drum_note 1, 2
	drum_note 4, 2
	drum_note 4, 2
	drum_note 4, 2
	drum_note 1, 2
	drum_note 4, 2
	drum_note 4, 2
	drum_note 4, 2
	drum_note 1, 2
	drum_note 4, 2
	drum_note 4, 2
	drum_note 4, 2
	drum_note 1, 2
	drum_note 4, 2
	drum_note 4, 2
	drum_note 4, 2
	drum_note 1, 2
	drum_note 4, 2
	drum_note 4, 2
	drum_note 4, 2
	drum_note 1, 2
	drum_note 4, 2
	drum_note 4, 2
	drum_note 4, 2
	drum_note 1, 2
	drum_note 1, 2
	drum_note 4, 2
	drum_note 4, 2
	drum_note 1, 2
	drum_note 4, 2
	drum_note 4, 2
	drum_note 4, 2
	drum_note 1, 2
	drum_note 4, 2
	drum_note 4, 2
	drum_note 4, 2
	drum_note 1, 2
	drum_note 4, 2
	drum_note 4, 2
	drum_note 4, 2
	drum_note 1, 2
	drum_note 4, 2
	drum_note 4, 2
	drum_note 4, 2
	drum_note 1, 2
	drum_note 4, 2
	drum_note 4, 2
	drum_note 4, 2
	drum_note 1, 2
	drum_note 4, 2
	drum_note 4, 2
	drum_note 4, 2
	drum_note 1, 2
	drum_note 4, 2
	drum_note 4, 2
	drum_note 4, 2
	drum_note 1, 4
	drum_note 4, 4
	drum_note 1, 2
	drum_note 4, 4
	drum_note 4, 2
	drum_note 1, 4
	drum_note 4, 4
	drum_note 1, 2
	drum_note 4, 4
	drum_note 4, 2
	drum_note 1, 4
	drum_note 4, 4
	drum_note 1, 2
	drum_note 4, 4
	drum_note 4, 2
	drum_note 1, 4
	drum_note 4, 4
	drum_note 1, 2
	drum_note 4, 4
	drum_note 1, 2
	drum_note 1, 2
	drum_note 1, 2
	drum_note 4, 4
	drum_note 1, 2
	drum_note 4, 4
	drum_note 4, 2
	drum_note 1, 4
	drum_note 4, 4
	drum_note 1, 2
	drum_note 4, 4
	drum_note 4, 2
	drum_note 1, 4
	drum_note 4, 4
	drum_note 1, 2
	drum_note 4, 4
	drum_note 4, 2
	drum_note 1, 4
	drum_note 1, 2
	drum_note 4, 2
	drum_note 4, 2
	drum_note 1, 2
	drum_note 4, 2
	drum_note 1, 2
	drum_note 4, 2
	drum_note 1, 2
	drum_note 4, 2
	drum_note 4, 2
	drum_note 4, 1
	drum_note 4, 1
	drum_note 4, 4
	drum_note 1, 2
	drum_note 1, 2
	drum_note 4, 2
	drum_note 4, 4
	drum_note 4, 4
	drum_note 4, 4
	drum_note 1, 2
	drum_note 4, 2
	drum_note 1, 2
	drum_note 1, 2
	drum_note 4, 1
	drum_note 4, 1
	drum_note 4, 4
	drum_note 1, 2
	drum_note 1, 2
	drum_note 4, 2
	drum_note 4, 2
	drum_note 1, 2
	drum_note 1, 2
	drum_note 1, 2
	drum_note 4, 2
	drum_note 1, 2
	drum_note 1, 2
	drum_note 1, 2
	drum_note 12, 12
	drum_note 4, 2
	drum_note 4, 2
	drum_note 4, 4
	drum_note 4, 4
	drum_note 4, 4
	drum_note 4, 4
	drum_note 4, 4
	drum_note 4, 4
	drum_note 4, 4
	drum_note 1, 2
	drum_note 1, 2
	drum_note 1, 2
	drum_note 4, 2
	drum_note 4, 2
	drum_note 1, 2
	drum_note 4, 2
	drum_note 1, 2
	drum_note 1, 2
	drum_note 1, 2
	drum_note 4, 2
	drum_note 4, 2
	drum_note 1, 2
	drum_note 4, 2
	drum_note 4, 2
	drum_note 4, 2
	drum_note 1, 2
	drum_note 4, 2
	drum_note 4, 2
	drum_note 4, 2
	drum_note 1, 2
	drum_note 4, 2
	drum_note 4, 2
	drum_note 4, 2
	drum_note 1, 2
	drum_note 4, 2
	drum_note 4, 2
	drum_note 4, 2
	drum_note 1, 2
	drum_note 4, 2
	drum_note 4, 2
	drum_note 4, 2
	drum_note 1, 2
	drum_note 4, 2
	drum_note 1, 2
	drum_note 4, 2
	drum_note 1, 2
	drum_note 1, 2
	drum_note 4, 2
	drum_note 1, 2
	drum_note 1, 2
	drum_note 1, 2
	sound_loop 0, Music_GalacticAdminBattle_Ch4_loop

