Music_SinnohBike:
	channel_count 4
	channel 1, Music_SinnohBike_Ch1
	channel 2, Music_SinnohBike_Ch2
	channel 3, Music_SinnohBike_Ch3
	channel 4, Music_SinnohBike_Ch4

Music_SinnohBike_Ch1:
Music_SinnohBike_Ch1_loop:
	tempo $6D
	volume $7, $7
	pitch_offset $0002
	note_type $6, $8, 1
	duty_cycle 1
	octave 5
	note A#, 1
	octave 6
	note A#, 3
	octave 5
	note A#, 1
	octave 6
	note A#, 1
	octave 5
	note A#, 1
	octave 6
	note A#, 1
	octave 5
	note A#, 5
	note A#, 1
	octave 6
	note A#, 3
	octave 5
	note A#, 1
	octave 6
	note A#, 1
	octave 5
	note A#, 1
	octave 6
	note A#, 1
	octave 5
	note A#, 11
	volume_envelope $A, 1
	duty_cycle 2
	octave 3
	note F#, 2
	octave 4
	note F#, 2
	volume_envelope $8, 1
	octave 3
	note F#, 2
	octave 4
	note F#, 2
	volume_envelope $6, 1
	octave 3
	note F#, 2
	octave 4
	note F#, 2
	volume_envelope $A, 1
	octave 3
	note A#, 2
	octave 4
	note A#, 2
	volume_envelope $8, 1
	octave 3
	note A#, 2
	octave 4
	note A#, 2
	volume_envelope $A, 1
	note C#, 2
	octave 5
	note C#, 2
	volume_envelope $8, 1
	octave 4
	note C#, 2
	octave 5
	note C#, 2
	volume_envelope $A, 1
	octave 4
	note F#, 2
	octave 5
	note F#, 2
	volume_envelope $8, 1
	octave 4
	note F#, 2
	octave 5
	note F#, 2
	volume_envelope $6, 1
	octave 4
	note F#, 2
	octave 5
	note F#, 2
	volume_envelope $8, 1
	octave 6
	note F#, 1
	note D#, 1
	note C#, 1
	octave 5
	note A#, 1
	note F#, 1
	note D#, 1
	note C#, 1
	octave 4
	note A#, 1
	note_type $8, $8, 1
	octave 3
	note B_, 1
	octave 4
	note B_, 1
	note D#, 1
	octave 5
	note D#, 1
	octave 4
	note F#, 1
	octave 5
	note F#, 1
	octave 4
	note A#, 1
	octave 5
	note A#, 1
	note C#, 1
	octave 6
	note C#, 1
	octave 5
	note D#, 1
	octave 6
	note D#, 1
	note C#, 1
	octave 5
	note D#, 1
	octave 6
	note D#, 1
	note C#, 1
	volume_envelope $7, 1
	octave 5
	note D#, 1
	octave 6
	note D#, 1
	note C#, 1
	volume_envelope $6, 1
	octave 5
	note D#, 1
	octave 6
	note D#, 1
	note C#, 1
	volume_envelope $5, 1
	octave 5
	note D#, 1
	octave 6
	note D#, 1
	note C#, 1
	volume_envelope $4, 1
	octave 5
	note D#, 1
	octave 6
	note D#, 1
	note C#, 1
	volume_envelope $3, 1
	octave 5
	note D#, 1
	octave 6
	note D#, 1
	volume_envelope $A, 1
	octave 3
	note C#, 3
	note C#, 6
	note D#, 3
	note D#, 6
	note F#, 3
	note F#, 6
	note A#, 3
	note A#, 6
	note_type $6, $8, 1
	octave 6
	note F#, 1
	note D#, 1
	note C#, 1
	octave 5
	note A#, 1
	note F#, 1
	note D#, 1
	note C#, 1
	octave 4
	note A#, 1
	note_type $8, $8, 1
	note C#, 1
	octave 5
	note C#, 1
	octave 4
	note D#, 1
	octave 5
	note D#, 1
	octave 4
	note F#, 1
	octave 5
	note F#, 1
	octave 4
	note G#, 1
	octave 5
	note G#, 1
	octave 4
	note B_, 1
	octave 5
	note B_, 1
	note D#, 1
	octave 6
	note D#, 1
	octave 5
	note B_, 1
	volume_envelope $7, 1
	note D#, 1
	octave 6
	note D#, 1
	octave 5
	note B_, 1
	volume_envelope $6, 1
	note D#, 1
	octave 6
	note D#, 1
	octave 5
	note B_, 1
	volume_envelope $5, 1
	note D#, 1
	octave 6
	note D#, 1
	octave 5
	note B_, 1
	volume_envelope $4, 1
	note D#, 1
	octave 6
	note D#, 13
	note_type $C, $A, 1
	octave 3
	note G#, 1
	octave 4
	note G#, 1
	volume_envelope $8, 1
	octave 3
	note G#, 1
	octave 4
	note G#, 1
	volume_envelope $6, 1
	octave 3
	note G#, 1
	octave 4
	note G#, 1
	volume_envelope $A, 1
	octave 3
	note B_, 1
	octave 4
	note B_, 1
	volume_envelope $8, 1
	octave 3
	note B_, 1
	octave 4
	note B_, 1
	volume_envelope $A, 1
	note C#, 1
	octave 5
	note C#, 1
	volume_envelope $8, 1
	octave 4
	note C#, 1
	octave 5
	note C#, 1
	volume_envelope $A, 1
	octave 4
	note F#, 1
	octave 5
	note F#, 1
	octave 4
	note C#, 1
	octave 5
	note C#, 1
	volume_envelope $8, 1
	octave 4
	note C#, 1
	octave 5
	note C#, 1
	volume_envelope $6, 1
	octave 4
	note C#, 1
	octave 5
	note C#, 16
	rest 3
	volume_envelope $A, 1
	octave 3
	note G#, 1
	octave 4
	note G#, 1
	note C#, 1
	octave 5
	note C#, 1
	octave 4
	note E_, 1
	octave 5
	note E_, 1
	octave 4
	note B_, 1
	octave 5
	note B_, 1
	octave 4
	note F#, 1
	octave 5
	note F#, 1
	volume_envelope $8, 1
	octave 4
	note B_, 1
	octave 5
	note B_, 1
	octave 4
	note F#, 1
	octave 5
	note F#, 1
	volume_envelope $6, 1
	octave 4
	note B_, 1
	octave 5
	note B_, 1
	octave 4
	note F#, 1
	octave 5
	note F#, 1
	volume_envelope $4, 1
	octave 4
	note B_, 1
	octave 5
	note B_, 1
	octave 4
	note F#, 1
	octave 5
	note F#, 7
	note_type $6, $8, 1
	octave 6
	note G#, 1
	note E_, 1
	note C#, 1
	octave 5
	note B_, 1
	note G#, 1
	note E_, 1
	note C#, 1
	octave 4
	note B_, 1
	note_type $8, $8, 1
	note C#, 1
	octave 5
	note C#, 1
	octave 4
	note E_, 1
	octave 5
	note E_, 1
	octave 4
	note G#, 1
	octave 5
	note G#, 1
	octave 4
	note B_, 1
	octave 5
	note B_, 1
	note C#, 1
	octave 6
	note C#, 1
	octave 5
	note E_, 1
	octave 6
	note E_, 1
	note C#, 1
	volume_envelope $7, 1
	octave 5
	note E_, 1
	octave 6
	note E_, 1
	note C#, 1
	volume_envelope $6, 1
	octave 5
	note E_, 1
	octave 6
	note E_, 1
	note C#, 1
	volume_envelope $5, 1
	octave 5
	note E_, 1
	octave 6
	note E_, 1
	note C#, 1
	volume_envelope $4, 1
	octave 5
	note E_, 1
	octave 6
	note E_, 16
	rest 3
	volume_envelope $A, 1
	octave 3
	note A#, 3
	note A#, 6
	note F#, 3
	note F#, 6
	octave 4
	note C#, 3
	note C#, 6
	octave 3
	note G#, 3
	note G#, 6
	note_type $6, $8, 1
	octave 6
	note G#, 1
	note F#, 1
	note E_, 1
	note C#, 1
	octave 5
	note B_, 1
	note G#, 1
	note F#, 1
	note E_, 1
	note_type $8, $8, 1
	octave 4
	note C#, 1
	octave 5
	note C#, 1
	octave 4
	note D#, 1
	octave 5
	note D#, 1
	octave 4
	note E_, 1
	octave 5
	note E_, 1
	octave 4
	note F#, 1
	octave 5
	note F#, 1
	octave 4
	note B_, 1
	octave 5
	note B_, 1
	note C#, 1
	octave 6
	note C#, 1
	octave 5
	note B_, 1
	volume_envelope $7, 1
	note C#, 1
	octave 6
	note C#, 1
	octave 5
	note B_, 1
	volume_envelope $6, 1
	note C#, 1
	octave 6
	note C#, 1
	octave 5
	note B_, 1
	volume_envelope $5, 1
	note C#, 1
	octave 6
	note C#, 1
	octave 5
	note B_, 1
	volume_envelope $4, 1
	note C#, 1
	octave 6
	note C#, 16
	rest 9
	volume_envelope $8, 1
	note F#, 1
	octave 5
	note G#, 1
	octave 6
	note G#, 1
	note F#, 1
	octave 5
	note G#, 1
	octave 6
	note G#, 1
	volume_envelope $7, 1
	note F#, 1
	octave 5
	note G#, 1
	octave 6
	note G#, 1
	note F#, 1
	octave 5
	note G#, 1
	octave 6
	note G#, 1
	volume_envelope $6, 1
	note F#, 1
	octave 5
	note G#, 1
	octave 6
	note G#, 1
	note F#, 1
	octave 5
	note G#, 1
	octave 6
	note G#, 1
	volume_envelope $5, 1
	note F#, 1
	octave 5
	note G#, 1
	octave 6
	note G#, 1
	note F#, 1
	octave 5
	note G#, 1
	octave 6
	note G#, 1
	volume_envelope $4, 1
	note F#, 1
	octave 5
	note G#, 1
	octave 6
	note G#, 1
	note F#, 1
	octave 5
	note G#, 1
	octave 6
	note G#, 1
	note_type $6, $8, 1
	note F#, 1
	note D#, 1
	note C#, 1
	octave 5
	note A#, 1
	note F#, 1
	note D#, 1
	note C#, 1
	octave 4
	note A#, 1
	note_type $8, $8, 1
	octave 3
	note B_, 1
	octave 4
	note B_, 1
	note D#, 1
	octave 5
	note D#, 1
	octave 4
	note F#, 1
	octave 5
	note F#, 1
	octave 4
	note A#, 1
	octave 5
	note A#, 1
	note C#, 1
	octave 6
	note C#, 1
	octave 5
	note D#, 1
	octave 6
	note D#, 1
	note C#, 1
	volume_envelope $7, 1
	octave 5
	note D#, 1
	octave 6
	note D#, 1
	note C#, 1
	volume_envelope $6, 1
	octave 5
	note D#, 1
	octave 6
	note D#, 1
	note C#, 1
	volume_envelope $5, 1
	octave 5
	note D#, 1
	octave 6
	note D#, 1
	note C#, 1
	volume_envelope $4, 1
	octave 5
	note D#, 1
	octave 6
	note D#, 7
	volume_envelope $A, 1
	octave 3
	note C#, 3
	note C#, 3
	volume_envelope $6, 1
	note C#, 3
	volume_envelope $A, 1
	note D#, 3
	note D#, 3
	volume_envelope $6, 1
	note D#, 3
	volume_envelope $A, 1
	note F#, 3
	note F#, 3
	volume_envelope $6, 1
	note F#, 3
	volume_envelope $A, 1
	note A#, 3
	note A#, 3
	volume_envelope $6, 1
	note A#, 3
	note_type $6, $8, 1
	octave 6
	note F#, 1
	note D#, 1
	note C#, 1
	octave 5
	note A#, 1
	note F#, 1
	note D#, 1
	note C#, 1
	octave 4
	note A#, 1
	note_type $8, $8, 1
	note C#, 1
	octave 5
	note C#, 1
	octave 4
	note D#, 1
	octave 5
	note D#, 1
	octave 4
	note F#, 1
	octave 5
	note F#, 1
	octave 4
	note G#, 1
	octave 5
	note G#, 1
	octave 4
	note B_, 1
	octave 5
	note B_, 1
	note D#, 1
	octave 6
	note D#, 1
	octave 5
	note B_, 1
	volume_envelope $7, 1
	note D#, 1
	octave 6
	note D#, 1
	octave 5
	note B_, 1
	volume_envelope $6, 1
	note D#, 1
	octave 6
	note D#, 1
	octave 5
	note B_, 1
	volume_envelope $5, 1
	note D#, 1
	octave 6
	note D#, 1
	octave 5
	note B_, 1
	volume_envelope $4, 1
	note D#, 1
	octave 6
	note D#, 13
	note_type $C, $A, 1
	octave 3
	note G#, 1
	octave 4
	note G#, 1
	volume_envelope $8, 1
	octave 3
	note G#, 1
	octave 4
	note G#, 1
	volume_envelope $6, 1
	octave 3
	note G#, 1
	octave 4
	note G#, 1
	volume_envelope $A, 1
	octave 3
	note B_, 1
	octave 4
	note B_, 1
	volume_envelope $8, 1
	octave 3
	note B_, 1
	octave 4
	note B_, 1
	volume_envelope $A, 1
	note C#, 1
	octave 5
	note C#, 1
	volume_envelope $8, 1
	octave 4
	note C#, 1
	octave 5
	note C#, 1
	volume_envelope $A, 1
	octave 4
	note F#, 1
	octave 5
	note F#, 1
	octave 4
	note C#, 1
	octave 5
	note C#, 1
	volume_envelope $8, 1
	octave 4
	note C#, 1
	octave 5
	note C#, 1
	volume_envelope $6, 1
	octave 4
	note C#, 1
	octave 5
	note C#, 1
	volume_envelope $A, 1
	octave 3
	note B_, 1
	octave 4
	note B_, 1
	volume_envelope $8, 1
	octave 3
	note B_, 1
	octave 4
	note B_, 1
	volume_envelope $6, 1
	octave 3
	note B_, 1
	octave 4
	note B_, 1
	volume_envelope $4, 1
	octave 3
	note B_, 1
	octave 4
	note B_, 7
	note_type $8, $8, 1
	octave 6
	note E_, 1
	octave 5
	note G#, 1
	octave 6
	note C#, 1
	note E_, 1
	octave 5
	note G#, 1
	octave 6
	note C#, 1
	volume_envelope $7, 1
	note E_, 1
	octave 5
	note G#, 1
	octave 6
	note C#, 1
	note E_, 1
	octave 5
	note G#, 1
	octave 6
	note C#, 1
	volume_envelope $6, 1
	note E_, 1
	octave 5
	note G#, 1
	octave 6
	note C#, 1
	note E_, 1
	octave 5
	note G#, 1
	octave 6
	note C#, 1
	volume_envelope $5, 1
	note E_, 1
	octave 5
	note G#, 1
	octave 6
	note C#, 1
	note E_, 1
	octave 5
	note G#, 1
	octave 6
	note C#, 1
	volume_envelope $4, 1
	note E_, 1
	octave 5
	note G#, 1
	octave 6
	note C#, 1
	note E_, 1
	octave 5
	note G#, 1
	octave 6
	note C#, 1
	volume_envelope $3, 1
	note E_, 1
	octave 5
	note G#, 1
	octave 6
	note C#, 1
	note E_, 1
	octave 5
	note G#, 1
	octave 6
	note C#, 1
	volume_envelope $2, 1
	note E_, 1
	octave 5
	note G#, 1
	octave 6
	note C#, 1
	note E_, 1
	octave 5
	note G#, 1
	octave 6
	note C#, 7
	note_type $6, $8, 1
	note G#, 1
	note E_, 1
	note C#, 1
	octave 5
	note B_, 1
	note G#, 1
	note E_, 1
	note C#, 1
	octave 4
	note B_, 1
	note_type $8, $8, 1
	note C#, 1
	octave 5
	note C#, 1
	octave 4
	note E_, 1
	octave 5
	note E_, 1
	octave 4
	note G#, 1
	octave 5
	note G#, 1
	octave 4
	note B_, 1
	octave 5
	note B_, 1
	note C#, 1
	octave 6
	note C#, 1
	octave 5
	note E_, 1
	octave 6
	note E_, 1
	note C#, 1
	volume_envelope $7, 1
	octave 5
	note E_, 1
	octave 6
	note E_, 1
	note C#, 1
	volume_envelope $6, 1
	octave 5
	note E_, 1
	octave 6
	note E_, 1
	note C#, 1
	volume_envelope $5, 1
	octave 5
	note E_, 1
	octave 6
	note E_, 1
	note C#, 1
	volume_envelope $4, 1
	octave 5
	note E_, 1
	octave 6
	note E_, 16
	rest 3
	volume_envelope $A, 1
	octave 3
	note A#, 3
	note A#, 3
	volume_envelope $8, 1
	note A#, 3
	volume_envelope $A, 1
	note F#, 3
	note F#, 3
	volume_envelope $8, 1
	note F#, 3
	volume_envelope $A, 1
	octave 4
	note C#, 3
	note C#, 3
	volume_envelope $8, 1
	note C#, 3
	volume_envelope $A, 1
	octave 3
	note G#, 3
	note G#, 3
	volume_envelope $8, 1
	note G#, 3
	volume_envelope $A, 1
	octave 4
	note E_, 3
	note E_, 3
	volume_envelope $8, 1
	note D#, 3
	note D#, 3
	note_type $6, $8, 1
	octave 6
	note G#, 1
	note F#, 1
	note E_, 1
	note C#, 1
	octave 5
	note B_, 1
	note G#, 1
	note F#, 1
	note E_, 1
	note_type $8, $8, 1
	octave 4
	note C#, 1
	octave 5
	note C#, 1
	octave 4
	note D#, 1
	octave 5
	note D#, 1
	octave 4
	note E_, 1
	octave 5
	note E_, 1
	octave 4
	note F#, 1
	octave 5
	note F#, 1
	octave 4
	note B_, 1
	octave 5
	note B_, 1
	note C#, 1
	octave 6
	note C#, 1
	octave 5
	note B_, 1
	volume_envelope $7, 1
	note C#, 1
	octave 6
	note C#, 1
	octave 5
	note B_, 1
	volume_envelope $6, 1
	note C#, 1
	octave 6
	note C#, 1
	octave 5
	note B_, 1
	volume_envelope $5, 1
	note C#, 1
	octave 6
	note C#, 1
	octave 5
	note B_, 1
	volume_envelope $4, 1
	note C#, 1
	octave 6
	note C#, 10
	note_type $C, $A, 7
	duty_cycle 1
	pitch_offset $0001
	octave 4
	note C#, 1
	note D#, 1
	note E_, 14
	note F#, 2
	note G#, 2
	note A#, 4
	note F#, 4
	note G#, 4
	note E_, 2
	note_type $6, $A, 7
	note D_, 1
	note D#, 7
	note F#, 4
	note C#, 16
	octave 3
	note A#, 2
	octave 4
	note C#, 2
	note C_, 4
	note D#, 4
	note E_, 4
	note D#, 12
	note C_, 8
	octave 3
	note A#, 1
	note B_, 3
	note A#, 4
	note B_, 4
	octave 4
	note E_, 12
	octave 3
	note A#, 1
	note B_, 3
	note A#, 4
	note B_, 12
	octave 4
	note G_, 8
	note F#, 1
	note G_, 3
	note A_, 4
	note G_, 4
	note F#, 4
	note D#, 8
	note D#, 8
	octave 3
	note A#, 8
	volume_envelope $A, 1
	note G#, 2
	note A#, 2
	octave 4
	note D#, 4
	note D#, 8
	note E_, 8
	note F_, 1
	volume_envelope $A, 7
	note F#, 11
	note_type $E, $A, 7
	note E_, 12
	note_type $C, $A, 7
	note D#, 2
	note C#, 2
	octave 3
	note B_, 4
	octave 4
	note E_, 4
	note G_, 4
	note E_, 2
	note_type $6, $A, 7
	note F_, 1
	note F#, 7
	note E_, 4
	note F#, 8
	note E_, 4
	note F#, 4
	note C#, 4
	note G_, 1
	note G#, 7
	note F#, 4
	note G#, 8
	octave 5
	note C_, 8
	octave 4
	note D#, 4
	note A#, 1
	note B_, 3
	note A#, 8
	note G#, 8
	note A#, 12
	note A#, 1
	note B_, 3
	note A#, 8
	note G_, 12
	note E_, 4
	note G_, 4
	note F_, 1
	note F#, 7
	note E_, 4
	note F#, 8
	note E_, 4
	note F#, 4
	note E_, 4
	volume_envelope $A, 1
	note G_, 1
	note G#, 3
	note G#, 8
	volume_envelope $A, 7
	note A#, 12
	note E_, 4
	note G#, 4
	note_type $C, $A, 7
	note F#, 16
	rest 16
	rest 16
	sound_loop 0, Music_SinnohBike_Ch1_loop

Music_SinnohBike_Ch2:
Music_SinnohBike_Ch2_loop:
	note_type $C, $C, 3
	duty_cycle 1
	pitch_offset $0001
	vibrato $12, $1, $2
	octave 3
	note F#, 4
	volume_envelope $8, -2
	note F#, 8
	volume_envelope $C, 1
	octave 4
	note D#, 1
	note E_, 1
	note D#, 1
	note C#, 1
	volume_envelope $C, 7
	note D#, 16
	rest 8
	note_type $6, $C, 7
	octave 3
	note F_, 1
	note F#, 15
	octave 4
	note C_, 2
	note C#, 10
	note D#, 12
	note E_, 8
	note D#, 12
	note C#, 12
	volume_envelope $C, 1
	octave 3
	note B_, 2
	octave 4
	note C#, 2
	octave 3
	note A#, 2
	note B_, 2
	note_type $C, $C, 7
	octave 4
	note C#, 16
	note_type $6, $C, 7
	rest 16
	rest 12
	note D_, 1
	note D#, 3
	note C#, 12
	octave 3
	note A#, 1
	note_type $C, $C, 7
	note B_, 16
	note_type $6, $C, 7
	rest 11
	volume_envelope $C, 1
	octave 4
	note D#, 2
	note E_, 2
	note C#, 2
	note D#, 2
	note_type $C, $C, 7
	note E_, 16
	note_type $6, $C, 7
	rest 16
	rest 12
	note D#, 2
	note D_, 2
	note_type $C, $C, 7
	note C#, 12
	octave 3
	note B_, 4
	note G#, 6
	note B_, 6
	octave 4
	note E_, 4
	note D#, 16
	rest 14
	note E_, 1
	note D#, 1
	note_type $6, $C, 7
	note C_, 1
	note_type $C, $C, 7
	note C#, 15
	note_type $6, $C, 7
	rest 1
	note_type $C, $C, 7
	note D_, 12
	volume_envelope $C, 1
	duty_cycle 2
	note D#, 1
	note E_, 1
	note D#, 1
	note C#, 1
	volume_envelope $C, 7
	note D_, 8
	note D#, 16
	note_type $6, $C, 7
	octave 3
	note G_, 1
	note F#, 15
	note A#, 2
	note B_, 2
	octave 4
	note C#, 8
	note D#, 12
	note E_, 8
	note D#, 12
	note F_, 1
	note F#, 11
	octave 3
	note A#, 4
	note B_, 4
	note_type $E, $C, 7
	octave 4
	note C#, 12
	note_type $C, $C, 7
	note D#, 2
	note C#, 2
	octave 3
	note B_, 4
	note A#, 4
	note B_, 2
	note G#, 2
	note A#, 2
	note B_, 12
	note_type $6, $C, 7
	octave 4
	note D_, 1
	note D#, 7
	note C#, 4
	octave 3
	note B_, 8
	note A#, 4
	note B_, 8
	volume_envelope $C, 1
	octave 4
	note E_, 2
	note D#, 2
	note C#, 2
	note D#, 2
	note_type $E, $C, 7
	note E_, 12
	note_type $C, $C, 7
	octave 3
	note G#, 2
	note G#, 6
	note B_, 6
	octave 4
	note D#, 4
	note E_, 6
	note_type $6, $C, 7
	note G_, 1
	note G#, 11
	note F#, 8
	note E_, 12
	note F#, 12
	note D_, 1
	note D#, 3
	note E_, 4
	note_type $C, $C, 7
	note D#, 16
	note_type $6, $C, 7
	rest 16
	rest 12
	note E_, 2
	note D#, 2
	note C_, 1
	note_type $C, $C, 7
	note C#, 15
	note_type $6, $C, 7
	rest 1
	note_type $E, $C, 7
	note D_, 12
	note_type $C, $B, 7
	duty_cycle 1
	vibrato $12, $3, $4
	note E_, 1
	note F#, 1
	note G#, 14
	note A#, 2
	note B_, 2
	octave 5
	note C#, 4
	octave 4
	note A#, 4
	note B_, 4
	note G#, 2
	note_type $6, $B, 7
	note G_, 1
	note G#, 7
	note A#, 4
	note F#, 16
	note D#, 2
	note E_, 2
	note F#, 4
	note G#, 4
	note A_, 4
	note G#, 12
	note F#, 8
	note D#, 1
	note E_, 3
	note D#, 4
	note E_, 4
	note B_, 12
	note D#, 1
	note E_, 3
	note D#, 4
	note E_, 12
	note B_, 8
	note A#, 1
	note B_, 3
	octave 5
	note C#, 4
	octave 4
	note B_, 4
	note A#, 4
	note F#, 8
	note F#, 8
	note D#, 8
	volume_envelope $B, 1
	note E_, 2
	note F_, 2
	note F#, 4
	note F#, 8
	note G#, 8
	note G#, 1
	volume_envelope $B, 7
	note A_, 11
	note_type $E, $B, 7
	note G#, 12
	note_type $C, $B, 7
	note A#, 2
	note B_, 2
	octave 5
	note C#, 4
	octave 4
	note A#, 4
	note B_, 4
	octave 5
	note C#, 2
	note_type $6, $B, 7
	note D_, 1
	note D#, 7
	note C#, 4
	note D#, 8
	note C#, 4
	note D#, 4
	octave 4
	note A#, 4
	octave 5
	note D#, 1
	note E_, 7
	note D#, 4
	note E_, 8
	note F_, 1
	note F#, 7
	octave 4
	note B_, 4
	octave 5
	note D#, 1
	note E_, 3
	note D#, 8
	note C#, 8
	note D#, 12
	note D#, 1
	note E_, 3
	note D#, 8
	note C#, 12
	octave 4
	note G#, 4
	note B_, 4
	note A_, 1
	note A#, 7
	note G#, 4
	note A#, 8
	note G#, 4
	note A#, 4
	note G#, 4
	volume_envelope $B, 1
	note A#, 1
	note B_, 3
	note B_, 8
	volume_envelope $B, 7
	octave 5
	note C#, 12
	octave 4
	note G#, 4
	note B_, 4
	note_type $C, $B, 7
	note A#, 12
	volume_envelope $C, 7
	octave 5
	note C#, 3
	note_type $6, $C, 7
	note C_, 1
	octave 4
	note B_, 1
	note_type $C, $C, 7
	note A#, 12
	note_type $F, $C, 7
	octave 5
	note D#, 2
	note_type $6, $C, 7
	note D_, 1
	note C#, 1
	note C_, 1
	note_type $C, $C, 7
	octave 4
	note A#, 16
	sound_loop 0, Music_SinnohBike_Ch2_loop

Music_SinnohBike_Ch3:
Music_SinnohBike_Ch3_loop:
	note_type $C, $1, $4
	octave 2
	note F#, 1
	rest 3
	note F#, 8
	rest 2
	note_type $6, $1, $4
	octave 1
	note F#, 1
	rest 1
	note F#, 2
	note B_, 8
	rest 4
	note B_, 3
	rest 5
	note B_, 3
	rest 5
	note B_, 3
	note_type $F, $1, $4
	rest 10
	note_type $C, $1, $4
	octave 3
	note C#, 2
	octave 2
	note F#, 1
	octave 1
	note F#, 1
	note B_, 4
	rest 2
	note B_, 1
	rest 3
	note B_, 1
	rest 3
	note B_, 1
	rest 13
	octave 3
	note C#, 2
	octave 2
	note F#, 1
	octave 1
	note F#, 1
	note G#, 4
	rest 2
	note G#, 1
	rest 3
	note G#, 1
	rest 3
	note G#, 1
	rest 13
	octave 2
	note A#, 2
	note D#, 1
	octave 1
	note F#, 1
	note G#, 4
	rest 2
	note G#, 1
	rest 3
	note G#, 1
	rest 3
	note G#, 1
	rest 1
	note F#, 1
	rest 1
	note F#, 3
	rest 1
	note F#, 1
	rest 5
	note F#, 2
	note_type $6, $1, $4
	note B_, 1
	rest 1
	note B_, 2
	octave 2
	note E_, 8
	rest 4
	note E_, 2
	rest 6
	note E_, 2
	rest 6
	note E_, 2
	note_type $D, $1, $4
	rest 12
	note_type $C, $1, $4
	octave 3
	note F#, 2
	octave 2
	note B_, 1
	octave 1
	note B_, 1
	octave 2
	note E_, 4
	rest 2
	note E_, 1
	rest 3
	note E_, 1
	rest 3
	note E_, 1
	rest 13
	octave 3
	note C#, 2
	octave 2
	note E_, 1
	octave 1
	note G#, 1
	note F#, 4
	rest 2
	note F#, 1
	rest 3
	note F#, 1
	rest 3
	note F#, 1
	rest 13
	octave 2
	note G#, 2
	note C#, 1
	octave 1
	note C#, 1
	note F#, 4
	rest 2
	note F#, 1
	rest 3
	note F#, 1
	rest 3
	note F#, 1
	rest 13
	octave 2
	note F#, 2
	octave 1
	note A#, 1
	note F#, 1
	note B_, 4
	rest 2
	note B_, 1
	rest 3
	note B_, 1
	rest 3
	note B_, 1
	rest 13
	octave 3
	note C#, 2
	octave 2
	note F#, 1
	octave 1
	note F#, 1
	note B_, 4
	rest 2
	note B_, 1
	rest 3
	note B_, 1
	rest 3
	note B_, 1
	rest 13
	octave 3
	note C#, 2
	octave 2
	note F#, 1
	octave 1
	note F#, 1
	note G#, 4
	rest 2
	note G#, 1
	rest 3
	note G#, 1
	rest 3
	note G#, 1
	rest 13
	octave 2
	note A#, 2
	note D#, 1
	octave 1
	note F#, 1
	note G#, 4
	rest 2
	note G#, 1
	rest 3
	note G#, 1
	rest 3
	note G#, 1
	rest 1
	note F#, 1
	rest 1
	note F#, 3
	rest 1
	note F#, 1
	rest 5
	note F#, 2
	note_type $6, $1, $4
	note B_, 1
	rest 1
	note B_, 2
	octave 2
	note E_, 8
	rest 4
	note E_, 2
	rest 6
	note E_, 2
	rest 6
	note E_, 2
	note_type $D, $1, $4
	rest 12
	note_type $C, $1, $4
	octave 3
	note F#, 2
	octave 2
	note B_, 1
	octave 1
	note B_, 1
	octave 2
	note E_, 4
	rest 2
	note E_, 1
	rest 3
	note E_, 1
	rest 3
	note E_, 1
	rest 13
	octave 3
	note C#, 2
	octave 2
	note E_, 1
	octave 1
	note G#, 1
	note F#, 4
	rest 2
	note F#, 1
	rest 3
	note F#, 1
	rest 3
	note F#, 1
	rest 13
	octave 2
	note G#, 2
	note C#, 1
	octave 1
	note C#, 1
	note F#, 4
	rest 2
	note F#, 1
	rest 3
	note F#, 1
	rest 3
	note F#, 1
	rest 13
	octave 2
	note F#, 2
	octave 1
	note A#, 1
	note F#, 1
	octave 2
	note E_, 4
	rest 2
	note E_, 1
	rest 3
	note E_, 1
	rest 3
	note G#, 2
	note E_, 4
	rest 2
	note E_, 1
	rest 3
	note E_, 1
	rest 3
	note G_, 2
	note D#, 4
	rest 2
	note D#, 1
	rest 3
	note D#, 1
	rest 3
	note F#, 2
	note G#, 4
	rest 2
	note F#, 1
	rest 3
	note E_, 1
	rest 3
	note D#, 2
	note C#, 4
	rest 2
	note C#, 1
	rest 3
	note C#, 1
	rest 3
	note G#, 1
	rest 1
	note C#, 4
	rest 2
	note C#, 1
	rest 3
	note C#, 1
	rest 3
	note E_, 1
	rest 1
	octave 1
	note B_, 4
	rest 2
	note B_, 1
	rest 3
	note B_, 1
	rest 3
	octave 2
	note F#, 1
	rest 1
	note C_, 4
	rest 2
	note C_, 1
	rest 3
	note C_, 1
	rest 3
	note C_, 1
	rest 1
	note E_, 4
	rest 2
	note E_, 1
	rest 3
	note E_, 1
	rest 3
	note G#, 1
	rest 1
	note E_, 4
	rest 2
	note E_, 1
	rest 3
	note E_, 1
	rest 3
	note G_, 1
	rest 1
	note D#, 4
	rest 2
	note D#, 1
	rest 3
	note D#, 1
	rest 3
	note F#, 2
	note G#, 4
	rest 2
	note F#, 1
	rest 3
	note E_, 1
	rest 3
	note D#, 2
	note C#, 4
	rest 2
	note C#, 1
	rest 3
	note C#, 1
	rest 3
	note G#, 1
	rest 1
	note C#, 4
	rest 2
	note C#, 1
	rest 3
	note C#, 1
	rest 3
	note E_, 1
	rest 1
	octave 1
	note B_, 4
	rest 2
	note B_, 1
	rest 3
	note B_, 1
	rest 1
	octave 2
	note F#, 4
	note C#, 4
	rest 2
	note C#, 1
	rest 3
	note C#, 1
	rest 1
	note G#, 4
	octave 1
	note B_, 4
	rest 2
	note B_, 1
	rest 3
	note B_, 1
	rest 1
	octave 2
	note F#, 4
	note C#, 4
	rest 2
	note C#, 1
	rest 3
	note C#, 1
	rest 3
	note G#, 2
	octave 1
	note B_, 4
	rest 2
	note B_, 1
	rest 3
	note B_, 1
	rest 1
	octave 2
	note D#, 4
	sound_loop 0, Music_SinnohBike_Ch3_loop

Music_SinnohBike_Ch4:
	toggle_noise 1
Music_SinnohBike_Ch4_loop:
	drum_speed $C
	rest 14
	drum_speed $6
	drum_note 8, 1
	drum_note 8, 1
	drum_note 8, 1
	drum_note 8, 1
	drum_note 8, 4
	drum_note 8, 4
	drum_note 8, 4
	drum_note 9, 4
	drum_note 8, 4
	drum_note 8, 4
	drum_note 8, 4
	drum_note 9, 4
	drum_note 8, 4
	drum_note 8, 4
	drum_note 8, 4
	drum_note 9, 4
	drum_note 8, 4
	drum_note 8, 4
	drum_note 8, 4
	drum_note 9, 4
	drum_note 8, 4
	drum_note 8, 4
	drum_note 8, 4
	drum_note 9, 4
	drum_note 8, 4
	drum_note 8, 4
	drum_note 8, 4
	drum_note 9, 4
	drum_note 8, 4
	drum_note 8, 4
	drum_note 8, 4
	drum_note 9, 4
	drum_note 8, 4
	drum_note 8, 4
	drum_note 8, 4
	drum_note 9, 4
	drum_note 8, 4
	drum_note 8, 4
	drum_note 8, 4
	drum_note 9, 4
	drum_note 8, 4
	drum_note 8, 4
	drum_note 8, 4
	drum_note 9, 4
	drum_note 8, 4
	drum_note 8, 4
	drum_note 8, 4
	drum_note 9, 4
	drum_note 8, 4
	drum_note 8, 4
	drum_note 8, 4
	drum_note 9, 4
	drum_note 8, 4
	drum_note 8, 4
	drum_note 8, 4
	drum_note 9, 4
	drum_note 8, 4
	drum_note 8, 4
	drum_note 8, 4
	drum_note 9, 4
	drum_note 8, 4
	drum_note 8, 4
	drum_note 8, 4
	drum_note 9, 4
	drum_note 8, 4
	drum_note 8, 4
	drum_note 8, 4
	drum_note 9, 4
	drum_note 8, 4
	drum_note 8, 4
	drum_note 8, 4
	drum_note 9, 4
	drum_note 8, 4
	drum_note 8, 4
	drum_note 8, 4
	drum_note 9, 4
	drum_note 8, 4
	drum_note 8, 4
	drum_note 8, 4
	drum_note 9, 4
	drum_note 8, 4
	drum_note 8, 4
	drum_note 8, 4
	drum_note 9, 4
	drum_note 8, 4
	drum_note 8, 4
	drum_note 8, 4
	drum_note 9, 4
	drum_note 8, 4
	drum_note 8, 4
	drum_note 8, 4
	drum_note 9, 4
	drum_note 8, 4
	drum_note 8, 4
	drum_note 8, 4
	drum_note 9, 4
	drum_note 8, 4
	drum_note 8, 4
	drum_note 8, 4
	drum_note 9, 4
	drum_note 8, 4
	drum_note 8, 4
	drum_note 8, 4
	drum_note 9, 4
	drum_note 8, 4
	drum_note 8, 4
	drum_note 8, 4
	drum_note 9, 4
	drum_note 8, 4
	drum_note 8, 4
	drum_note 8, 4
	drum_note 9, 4
	drum_note 8, 4
	drum_note 8, 4
	drum_note 8, 4
	drum_note 9, 4
	drum_note 8, 4
	drum_note 8, 4
	drum_note 8, 4
	drum_note 9, 4
	drum_note 8, 4
	drum_note 8, 4
	drum_note 8, 4
	drum_note 9, 4
	drum_note 8, 4
	drum_note 8, 4
	drum_note 8, 4
	drum_note 9, 4
	drum_note 8, 4
	drum_note 8, 4
	drum_note 8, 4
	drum_note 9, 4
	drum_note 8, 4
	drum_note 8, 4
	drum_note 8, 4
	drum_note 9, 4
	drum_note 8, 4
	drum_note 8, 4
	drum_note 8, 4
	drum_note 9, 4
	drum_note 8, 4
	drum_note 8, 4
	drum_note 8, 4
	drum_note 9, 4
	drum_note 8, 4
	drum_note 8, 4
	drum_note 8, 4
	drum_note 9, 4
	drum_note 8, 4
	drum_note 8, 4
	drum_note 8, 4
	drum_note 9, 4
	drum_note 8, 4
	drum_note 8, 4
	drum_note 8, 4
	drum_note 9, 4
	drum_note 8, 4
	drum_note 8, 4
	drum_note 8, 4
	drum_note 9, 4
	drum_note 8, 4
	drum_note 8, 4
	drum_note 8, 4
	drum_note 9, 4
	drum_note 8, 4
	drum_note 8, 4
	drum_note 8, 4
	drum_note 9, 4
	drum_note 8, 4
	drum_note 8, 4
	drum_note 8, 4
	drum_note 9, 4
	drum_note 8, 4
	drum_note 8, 4
	drum_note 8, 4
	drum_note 9, 4
	drum_note 8, 4
	drum_note 8, 4
	drum_note 8, 4
	drum_note 9, 4
	drum_note 8, 4
	drum_note 8, 4
	drum_note 8, 4
	drum_note 9, 4
	drum_note 8, 4
	drum_note 8, 4
	drum_note 8, 4
	drum_note 9, 4
	drum_note 8, 4
	drum_note 8, 4
	drum_note 8, 4
	drum_note 9, 4
	drum_note 8, 4
	drum_note 8, 4
	drum_note 8, 4
	drum_note 9, 4
	drum_note 8, 4
	drum_note 8, 4
	drum_note 8, 4
	drum_note 9, 4
	drum_note 8, 4
	drum_note 8, 4
	drum_note 8, 4
	drum_note 9, 4
	drum_note 8, 4
	drum_note 8, 4
	drum_note 8, 4
	drum_note 9, 4
	drum_note 8, 4
	drum_note 8, 4
	drum_note 8, 4
	drum_note 9, 4
	drum_note 8, 4
	drum_note 8, 4
	drum_note 8, 4
	drum_note 9, 4
	drum_note 8, 4
	drum_note 8, 4
	drum_note 8, 4
	drum_note 9, 4
	drum_note 8, 4
	drum_note 8, 4
	drum_note 8, 4
	drum_note 9, 4
	drum_note 8, 4
	drum_note 8, 4
	drum_note 8, 4
	drum_note 9, 4
	drum_note 8, 4
	drum_note 8, 4
	drum_note 8, 4
	drum_note 9, 4
	drum_note 8, 4
	drum_note 8, 4
	drum_note 8, 4
	drum_note 9, 4
	drum_note 8, 4
	drum_note 8, 4
	drum_note 8, 4
	drum_note 9, 4
	drum_note 8, 4
	drum_note 8, 4
	drum_note 8, 4
	drum_note 9, 4
	drum_note 8, 4
	drum_note 8, 4
	drum_note 8, 4
	drum_note 9, 4
	drum_note 8, 4
	drum_note 8, 4
	drum_note 8, 4
	drum_note 9, 4
	drum_note 8, 4
	drum_note 8, 4
	drum_note 8, 4
	drum_note 9, 4
	drum_note 8, 4
	drum_note 8, 4
	drum_note 8, 4
	drum_note 9, 4
	drum_note 10, 4
	drum_note 5, 4
	drum_note 5, 4
	drum_note 10, 4
	drum_note 5, 4
	drum_note 10, 4
	drum_note 10, 4
	drum_note 5, 2
	drum_note 5, 2
	drum_note 5, 4
	drum_note 10, 4
	drum_note 10, 4
	drum_note 5, 4
	drum_note 10, 4
	drum_note 5, 4
	drum_note 5, 4
	drum_note 10, 2
	drum_note 10, 2
	drum_note 10, 4
	drum_note 5, 4
	drum_note 5, 4
	drum_note 10, 4
	drum_note 5, 4
	drum_note 10, 4
	drum_note 10, 4
	drum_note 5, 2
	drum_note 5, 2
	drum_note 5, 4
	drum_note 10, 4
	drum_note 10, 4
	drum_note 5, 4
	drum_note 10, 4
	drum_note 5, 4
	drum_note 5, 4
	drum_note 10, 2
	drum_note 10, 2
	drum_note 10, 4
	drum_note 5, 4
	drum_note 5, 4
	drum_note 10, 4
	drum_note 5, 4
	drum_note 10, 4
	drum_note 10, 4
	drum_note 5, 2
	drum_note 5, 2
	drum_note 5, 4
	drum_note 10, 4
	drum_note 10, 4
	drum_note 5, 4
	drum_note 10, 4
	drum_note 5, 4
	drum_note 5, 4
	drum_note 10, 2
	drum_note 10, 2
	drum_note 10, 4
	drum_note 5, 4
	drum_note 5, 4
	drum_note 10, 4
	drum_note 5, 4
	drum_note 10, 4
	drum_note 10, 4
	drum_note 5, 2
	drum_note 5, 2
	drum_note 5, 4
	drum_note 10, 4
	drum_note 10, 4
	drum_note 5, 4
	drum_note 9, 4
	drum_note 9, 4
	drum_note 9, 4
	drum_note 9, 2
	drum_note 9, 2
	drum_note 10, 4
	drum_note 5, 4
	drum_note 5, 4
	drum_note 10, 4
	drum_note 5, 4
	drum_note 10, 4
	drum_note 10, 4
	drum_note 5, 2
	drum_note 5, 2
	drum_note 5, 4
	drum_note 10, 4
	drum_note 10, 4
	drum_note 5, 4
	drum_note 10, 4
	drum_note 5, 4
	drum_note 5, 4
	drum_note 10, 2
	drum_note 10, 2
	drum_note 10, 4
	drum_note 5, 4
	drum_note 5, 4
	drum_note 10, 4
	drum_note 5, 4
	drum_note 10, 4
	drum_note 10, 4
	drum_note 5, 2
	drum_note 5, 2
	drum_note 5, 4
	drum_note 10, 4
	drum_note 10, 4
	drum_note 5, 4
	drum_note 10, 4
	drum_note 5, 4
	drum_note 5, 4
	drum_note 10, 2
	drum_note 10, 2
	drum_note 10, 4
	drum_note 5, 4
	drum_note 5, 4
	drum_note 10, 4
	drum_note 5, 4
	drum_note 10, 4
	drum_note 10, 4
	drum_note 5, 2
	drum_note 5, 2
	drum_note 5, 4
	drum_note 10, 4
	drum_note 10, 4
	drum_note 5, 4
	drum_note 10, 4
	drum_note 5, 4
	drum_note 5, 4
	drum_note 10, 2
	drum_note 10, 2
	drum_note 10, 4
	drum_note 5, 4
	drum_note 5, 4
	drum_note 10, 4
	drum_note 5, 4
	drum_note 10, 4
	drum_note 10, 4
	drum_note 5, 2
	drum_note 5, 2
	drum_note 5, 4
	drum_note 10, 4
	drum_note 10, 4
	drum_note 5, 4
	drum_note 10, 4
	drum_note 5, 4
	drum_note 5, 4
	drum_note 10, 2
	drum_note 10, 2
	drum_note 10, 4
	drum_note 5, 4
	drum_note 5, 4
	drum_note 10, 4
	drum_note 5, 4
	drum_note 10, 4
	drum_note 10, 4
	drum_note 5, 2
	drum_note 5, 2
	drum_note 5, 4
	drum_note 10, 4
	drum_note 10, 4
	drum_note 5, 4
	drum_note 10, 4
	drum_note 5, 4
	drum_note 5, 4
	drum_note 10, 2
	drum_note 10, 2
	drum_note 10, 4
	drum_note 5, 4
	drum_note 5, 4
	drum_note 10, 4
	drum_note 5, 4
	drum_note 10, 4
	drum_note 10, 4
	drum_note 5, 2
	drum_note 5, 2
	sound_loop 0, Music_SinnohBike_Ch4_loop
