Music_Route206:
	channel_count 4
	channel 1, Music_Route206_Ch1
	channel 2, Music_Route206_Ch2
	channel 3, Music_Route206_Ch3
	channel 4, Music_Route206_Ch4

Music_Route206_Ch1:
	tempo $A5
	volume $7, $7
	note_type $4, $7, 1
	duty_cycle 2
	pitch_offset $0002
	vibrato $10, $1, $5
	octave 2
	rest 2
	octave 4
	note B_, 4
	note A_, 4
	note G#, 4
	note E_, 4
	octave 3
	note B_, 4
	note A_, 4
	note G#, 4
	note E_, 4
	octave 2
	note B_, 2
	volume_envelope $A, 6
	duty_cycle 3
	octave 3
	note C#, 16
	octave 2
	note A_, 4
	octave 3
	note C#, 4
	note D#, 16
	octave 2
	note B_, 4
	octave 3
	note D#, 4
	note E_, 16
	note C_, 4
	note E_, 4
	note F#, 16
	note D_, 4
	note F#, 4
	note G#, 4
	octave 2
	note B_, 4
	octave 3
	note E_, 4
	octave 2
	note B_, 12
	octave 3
	note G_, 12
	octave 2
	note B_, 4
	octave 3
	note E_, 4
	note G_, 4
	note E_, 14
	volume_envelope $8, 1
	duty_cycle 2
	octave 4
	note B_, 4
	note A_, 4
	note G#, 4
	note E_, 4
	octave 3
	note B_, 4
	note A_, 4
	note G#, 4
	note E_, 4
	octave 2
	note B_, 2
Music_Route206_Ch1_loop:
	rest 12
	volume_envelope $A, 4
	duty_cycle 3
	octave 4
	note D#, 12
	note F#, 12
	octave 5
	note C#, 12
	octave 4
	note B_, 12
	octave 5
	note E_, 12
	volume_envelope $A, 6
	octave 4
	note B_, 16
	rest 16
	rest 4
	volume_envelope $A, 4
	note E_, 12
	note A_, 12
	octave 5
	note C#, 12
	octave 4
	note B_, 12
	octave 5
	note E_, 12
	volume_envelope $A, 6
	octave 4
	note B_, 16
	rest 16
	rest 4
	volume_envelope $A, 4
	note D#, 4
	note F#, 4
	note A_, 4
	octave 5
	note C_, 8
	note C_, 8
	octave 4
	note G#, 16
	rest 4
	note C#, 4
	note E_, 4
	note G_, 4
	note A#, 8
	octave 5
	note C#, 8
	octave 4
	note F#, 8
	octave 2
	note E_, 4
	note A_, 4
	octave 3
	note C#, 4
	octave 2
	note A_, 4
	octave 3
	note C#, 4
	note E_, 4
	octave 4
	note A_, 8
	note B_, 8
	octave 5
	note F#, 8
	volume_envelope $A, 1
	octave 2
	note F#, 2
	note B_, 2
	octave 3
	note C#, 2
	note E_, 2
	note C#, 2
	octave 2
	note B_, 2
	note F#, 2
	note B_, 2
	octave 3
	note C#, 2
	note F#, 2
	note B_, 2
	octave 4
	note C#, 2
	octave 3
	note B_, 2
	note F#, 2
	note B_, 2
	octave 4
	note C#, 2
	note E_, 2
	note F#, 2
	octave 3
	note B_, 2
	octave 4
	note E_, 2
	note F#, 2
	note A_, 2
	note B_, 2
	octave 5
	note D#, 2
	duty_cycle 2
	octave 3
	note B_, 2
	note G_, 2
	note E_, 2
	note C_, 2
	octave 2
	note G_, 2
	octave 3
	note C_, 2
	note E_, 2
	note C_, 2
	octave 2
	note G_, 2
	note E_, 2
	note G_, 2
	octave 3
	note C_, 2
	note D_, 2
	note F#, 2
	note A_, 2
	octave 4
	note D_, 2
	note F#, 2
	note A_, 2
	octave 3
	note A_, 2
	octave 4
	note D_, 2
	note F#, 2
	note A_, 2
	octave 5
	note D_, 2
	note F#, 2
	note G#, 2
	note E_, 2
	octave 4
	note B_, 2
	note A_, 2
	note G#, 2
	note E_, 2
	octave 3
	note B_, 2
	note A_, 2
	note G#, 2
	note E_, 2
	octave 2
	note B_, 2
	note A_, 2
	note G#, 2
	note A_, 2
	note B_, 2
	octave 3
	note E_, 2
	octave 2
	note B_, 2
	octave 3
	note E_, 2
	note F#, 2
	note G#, 2
	note A_, 2
	note B_, 2
	octave 4
	note E_, 2
	note F#, 2
	note A_, 2
	note E_, 2
	note C#, 2
	octave 3
	note A_, 2
	note E_, 2
	note A_, 2
	octave 4
	note C#, 2
	octave 3
	note A_, 2
	note E_, 2
	note C#, 2
	note E_, 2
	note A_, 2
	note F#, 2
	note A_, 2
	note B_, 2
	octave 4
	note D#, 2
	note F#, 2
	note B_, 2
	octave 3
	note B_, 2
	octave 4
	note D#, 2
	note F#, 2
	note B_, 2
	octave 5
	note D#, 2
	note F#, 2
	note A_, 2
	note G#, 2
	note E_, 2
	octave 4
	note B_, 2
	note A_, 2
	note G#, 2
	note A_, 2
	note G#, 2
	note E_, 2
	octave 3
	note B_, 2
	note A_, 2
	note G#, 2
	note A_, 2
	note G#, 2
	note E_, 2
	octave 2
	note B_, 2
	note A_, 2
	note G#, 2
	note E_, 2
	note G#, 2
	note A_, 2
	note B_, 2
	octave 3
	note E_, 2
	note G#, 2
	volume_envelope $A, 6
	duty_cycle 3
	octave 2
	note A_, 12
	note B_, 12
	octave 3
	note E_, 12
	octave 2
	note B_, 12
	note G_, 12
	note A_, 12
	note B_, 12
	octave 3
	note C_, 12
	octave 2
	note B_, 16
	rest 16
	rest 16
	rest 14
	volume_envelope $8, 1
	duty_cycle 2
	octave 4
	note B_, 4
	note A_, 4
	note G#, 4
	note E_, 4
	octave 3
	note B_, 4
	note A_, 4
	note G#, 4
	note E_, 4
	octave 2
	note B_, 2
	sound_loop 0, Music_Route206_Ch1_loop

Music_Route206_Ch2:
	note_type $4, $9, 1
	duty_cycle 2
	pitch_offset $0001
	vibrato $12, $3, $6
	octave 4
	note B_, 4
	note A_, 4
	note G#, 4
	note E_, 4
	octave 3
	note B_, 4
	note A_, 4
	note G#, 4
	note E_, 4
	octave 2
	note B_, 4
	duty_cycle 3
	octave 4
	note E_, 1
	note F#, 1
	note E_, 1
	note F#, 1
	note E_, 1
	note F#, 1
	note E_, 1
	note F#, 1
	volume_envelope $B, 4
	note E_, 4
	octave 3
	note E_, 4
	note B_, 4
	octave 4
	note E_, 4
	note_type $6, $B, 7
	note F#, 16
	note_type $4, $B, 1
	note G_, 1
	note A_, 1
	note G_, 1
	note A_, 1
	note G_, 1
	note A_, 1
	note G_, 1
	note A_, 1
	volume_envelope $B, 4
	note G_, 4
	octave 3
	note G_, 4
	octave 4
	note C_, 4
	note G_, 4
	note_type $6, $B, 7
	note A_, 16
	note_type $4, $B, 4
	note B_, 4
	note B_, 4
	octave 5
	note E_, 1
	note F#, 1
	note E_, 6
	octave 4
	note E_, 8
	note G_, 4
	note G_, 4
	octave 5
	note E_, 1
	note F#, 1
	note E_, 6
	octave 3
	note B_, 4
	octave 4
	note G_, 4
	note G#, 12
	volume_envelope $9, 1
	duty_cycle 2
	note B_, 4
	note A_, 4
	note G#, 4
	note E_, 4
	octave 3
	note B_, 4
	note A_, 4
	note G#, 4
	note E_, 4
	octave 2
	note B_, 4
Music_Route206_Ch2_loop:
	volume_envelope $A, 5
	duty_cycle 3
	octave 3
	note B_, 16
	note D#, 4
	octave 4
	note C#, 4
	octave 3
	note B_, 8
	octave 4
	note C#, 8
	note D#, 8
	note F#, 16
	note E_, 4
	octave 3
	note B_, 4
	note G#, 16
	rest 8
	octave 4
	note C#, 16
	octave 3
	note A_, 4
	octave 4
	note E_, 4
	note D#, 8
	note E_, 8
	note F#, 8
	note A_, 16
	note G#, 4
	note E_, 4
	octave 3
	note B_, 16
	rest 8
	octave 4
	note D#, 8
	note F#, 8
	note A_, 8
	note G#, 4
	note D#, 4
	note C_, 4
	octave 3
	note G#, 12
	octave 4
	note C#, 8
	note E_, 8
	note G_, 8
	note F#, 4
	note C#, 4
	octave 3
	note A#, 4
	note F#, 8
	note G#, 4
	note A_, 16
	note C#, 4
	note E_, 4
	note A_, 8
	note B_, 8
	octave 4
	note F#, 8
	volume_envelope $B, 7
	note B_, 16
	volume_envelope $4, -3
	note B_, 16
	volume_envelope $B, 8
	note B_, 16
	duty_cycle 2
	octave 3
	note E_, 16
	note E_, 8
	note F#, 16
	note F#, 8
	note G#, 8
	note E_, 4
	octave 2
	note B_, 16
	note B_, 16
	octave 3
	note B_, 4
	octave 4
	note E_, 4
	note E_, 16
	note E_, 4
	note F#, 4
	note F#, 12
	note E_, 4
	note F#, 4
	note A_, 4
	note G#, 4
	note E_, 4
	octave 3
	note B_, 16
	note B_, 8
	note B_, 12
	volume_envelope $B, 4
	octave 4
	note E_, 8
	note E_, 16
	rest 12
	note E_, 4
	note A_, 4
	note G#, 4
	note E_, 4
	octave 3
	note G_, 4
	octave 4
	note E_, 4
	note F#, 4
	octave 3
	note A_, 4
	octave 4
	note F#, 4
	note G_, 4
	octave 3
	note B_, 4
	octave 4
	note G_, 4
	note C_, 4
	note A_, 4
	octave 5
	note C_, 4
	note_type $1, $9, 1
	transpose 1, 11
	note C_, 4
	note D_, 5
	note C_, 5
	note D_, 5
	note C_, 5
	note D_, 4
	note C_, 5
	note D_, 5
	note C_, 5
	note D_, 5
	note C_, 4
	note D_, 5
	note C_, 5
	note D_, 5
	note C_, 5
	note D_, 4
	note C_, 5
	note D_, 5
	note C_, 5
	note D_, 5
	note C_, 4
	note D_, 5
	note C_, 5
	note D_, 5
	note C_, 5
	note D_, 4
	note C_, 5
	note D_, 5
	note C_, 5
	note D_, 5
	note C_, 4
	note D_, 5
	note C_, 5
	note D_, 5
	note C_, 5
	note D_, 4
	note C_, 5
	note D_, 5
	note C_, 5
	note D_, 5
	note_type $4, $B, 7
	transpose 1, 12
	octave 4
	note B_, 12
	volume_envelope $9, 1
	note B_, 4
	note A_, 4
	note G#, 4
	note E_, 4
	octave 3
	note B_, 4
	note A_, 4
	note G#, 4
	note E_, 4
	octave 2
	note B_, 4
	sound_loop 0, Music_Route206_Ch2_loop

Music_Route206_Ch3:
	note_type $4, $1, $2
	octave 2
	rest 16
	rest 16
	rest 4
	note A_, 8
	note E_, 4
	note A_, 4
	note C#, 4
	note E_, 4
	note B_, 8
	note F#, 4
	note B_, 4
	note D#, 4
	note F#, 4
	octave 3
	note C_, 8
	octave 2
	note G_, 4
	octave 3
	note C_, 4
	octave 2
	note E_, 4
	note G_, 4
	octave 3
	note D_, 8
	octave 2
	note A_, 4
	octave 3
	note D_, 4
	octave 2
	note F#, 4
	note A_, 4
	note E_, 4
	note B_, 4
	octave 3
	note F#, 4
	note E_, 4
	octave 2
	note B_, 4
	octave 3
	note E_, 4
	octave 2
	note E_, 4
	octave 3
	note F#, 4
	note E_, 4
	octave 2
	note B_, 4
	note G_, 4
	octave 3
	note E_, 4
	octave 2
	note E_, 4
	note B_, 4
	octave 3
	note E_, 4
	octave 2
	note B_, 8
	note B_, 4
	octave 3
	note E_, 12
	octave 2
	note G#, 12
Music_Route206_Ch3_loop:
	note B_, 12
	octave 1
	note B_, 4
	octave 2
	note F#, 4
	note A_, 4
	note B_, 12
	octave 1
	note B_, 12
	octave 2
	note E_, 12
	octave 1
	note B_, 4
	octave 2
	note E_, 4
	note G#, 4
	note B_, 12
	note E_, 12
	note A_, 12
	note C#, 4
	note E_, 4
	note A_, 4
	note B_, 12
	octave 1
	note B_, 12
	octave 2
	note E_, 12
	octave 1
	note B_, 4
	octave 2
	note E_, 4
	note A_, 4
	note G#, 12
	note E_, 12
	note D#, 12
	note C_, 4
	note D#, 4
	note F#, 4
	note G#, 12
	note F#, 4
	note D#, 4
	note C_, 4
	note C#, 12
	note E_, 4
	note G_, 4
	octave 3
	note C#, 4
	octave 2
	note A#, 12
	note F#, 4
	note C#, 4
	note F#, 4
	octave 3
	note C#, 12
	octave 2
	note E_, 12
	note A_, 12
	octave 3
	note C#, 12
	octave 2
	note B_, 16
	note B_, 8
	octave 3
	note E_, 12
	note F#, 12
	octave 2
	note C_, 16
	note C_, 4
	note C_, 4
	note D_, 16
	note D_, 4
	note D_, 4
	note E_, 16
	note E_, 16
	note E_, 4
	note E_, 12
	note A_, 12
	note A_, 12
	note B_, 12
	note B_, 12
	note E_, 12
	note E_, 12
	note G#, 12
	note G#, 12
	note A_, 4
	note A_, 4
	note E_, 4
	note A_, 4
	note A_, 4
	note E_, 4
	octave 3
	note C#, 4
	octave 2
	note A_, 4
	note E_, 4
	note C#, 4
	note E_, 4
	note A_, 4
	note G_, 4
	note C_, 4
	note G_, 4
	note A_, 4
	note C_, 4
	note A_, 4
	note B_, 4
	note D_, 4
	note B_, 4
	octave 3
	note C_, 4
	octave 2
	note G_, 4
	octave 3
	note C_, 4
	octave 1
	note B_, 4
	note B_, 4
	octave 2
	note F#, 4
	octave 1
	note B_, 4
	note B_, 4
	octave 2
	note F#, 4
	octave 1
	note B_, 4
	note B_, 4
	octave 2
	note F#, 4
	octave 1
	note B_, 4
	note B_, 4
	octave 2
	note F#, 4
	octave 1
	note B_, 4
	octave 2
	note F#, 4
	note A_, 4
	note B_, 4
	note F#, 4
	note B_, 4
	octave 3
	note E_, 12
	octave 2
	note G#, 12
	sound_loop 0, Music_Route206_Ch3_loop

Music_Route206_Ch4:
	toggle_noise 0
	drum_speed $4
	rest 16
	rest 16
	rest 16
	drum_note 1, 4
	drum_note 4, 2
	drum_note 4, 2
	drum_note 4, 16
	drum_note 9, 16
	rest 8
	drum_note 1, 2
	drum_note 4, 2
	drum_note 4, 4
	drum_note 4, 16
	drum_note 9, 12
	drum_note 1, 4
	drum_note 4, 2
	drum_note 4, 2
	drum_note 4, 4
	drum_note 9, 12
	drum_note 1, 4
	drum_note 4, 2
	drum_note 4, 2
	drum_note 4, 4
	drum_note 9, 12
	drum_note 1, 4
	drum_note 4, 4
	drum_note 4, 4
	drum_note 9, 16
Music_Route206_Ch4_loop:
	rest 16
	rest 16
	rest 16
	rest 16
	rest 16
	rest 16
	rest 16
	rest 16
	rest 16
	rest 16
	rest 16
	rest 16
	rest 16
	rest 16
	rest 16
	rest 16
	rest 16
	rest 16
	rest 16
	rest 16
	rest 16
	rest 16
	rest 16
	rest 16
	rest 16
	rest 4
	drum_note 9, 8
	drum_note 4, 4
	drum_note 1, 2
	drum_note 4, 2
	drum_note 4, 2
	drum_note 4, 2
	drum_note 4, 2
	drum_note 4, 2
	drum_note 9, 8
	drum_note 4, 4
	drum_note 1, 2
	drum_note 4, 2
	drum_note 4, 2
	drum_note 4, 2
	drum_note 4, 2
	drum_note 4, 2
	drum_note 9, 8
	drum_note 4, 4
	drum_note 1, 2
	drum_note 4, 2
	drum_note 4, 2
	drum_note 4, 2
	drum_note 4, 2
	drum_note 4, 2
	drum_note 1, 2
	drum_note 4, 2
	drum_note 4, 2
	drum_note 4, 2
	drum_note 4, 2
	drum_note 4, 2
	drum_note 1, 4
	drum_note 4, 2
	drum_note 4, 2
	drum_note 4, 2
	drum_note 4, 2
	drum_note 9, 8
	drum_note 4, 4
	drum_note 1, 2
	drum_note 4, 2
	drum_note 4, 2
	drum_note 4, 2
	drum_note 4, 2
	drum_note 4, 2
	drum_note 9, 8
	drum_note 4, 4
	drum_note 1, 2
	drum_note 4, 2
	drum_note 4, 2
	drum_note 4, 2
	drum_note 4, 2
	drum_note 4, 2
	drum_note 9, 8
	drum_note 4, 4
	drum_note 1, 2
	drum_note 4, 2
	drum_note 4, 2
	drum_note 4, 2
	drum_note 4, 2
	drum_note 4, 2
	drum_note 1, 2
	drum_note 4, 2
	drum_note 4, 2
	drum_note 4, 2
	drum_note 4, 2
	drum_note 4, 2
	drum_note 9, 4
	drum_note 4, 2
	drum_note 4, 2
	drum_note 4, 2
	drum_note 4, 2
	drum_note 1, 4
	drum_note 4, 4
	drum_note 4, 4
	drum_note 1, 4
	drum_note 4, 4
	drum_note 4, 4
	drum_note 1, 4
	drum_note 4, 4
	drum_note 4, 4
	drum_note 1, 4
	drum_note 4, 4
	drum_note 4, 4
	drum_note 9, 4
	drum_note 4, 4
	drum_note 4, 4
	drum_note 9, 4
	drum_note 4, 4
	drum_note 4, 4
	drum_note 9, 4
	drum_note 4, 4
	drum_note 4, 4
	drum_note 9, 4
	drum_note 4, 4
	drum_note 4, 4
	drum_note 9, 4
	drum_note 4, 4
	drum_note 4, 4
	drum_note 1, 4
	drum_note 4, 4
	drum_note 4, 4
	drum_note 1, 4
	drum_note 4, 4
	drum_note 4, 4
	drum_note 1, 4
	drum_note 4, 4
	drum_note 4, 4
	drum_note 1, 12
	drum_note 9, 16
	sound_loop 0, Music_Route206_Ch4_loop
