Music_Solaceon:
	channel_count 4
	channel 1, Music_Solaceon_Ch1
	channel 2, Music_Solaceon_Ch2
	channel 3, Music_Solaceon_Ch3
	channel 4, Music_Solaceon_Ch4

Music_Solaceon_Ch1:
	volume $7, $7
	stereo_panning TRUE, TRUE
	tempo $E0
	duty_cycle 1
	pitch_offset $0002
	note_type $8, $7, 2
	rest 2
	octave 4
	note C#, 2
	volume_envelope $8, 2
	note C#, 2
	volume_envelope $9, 2
	note C#, 2
	volume_envelope $A, 2
	note C#, 2
	note C#, 2
	note C#, 6
	note F_, 6
Music_Solaceon_Ch1_loop:
	octave 2
	note F#, 10
	note D_, 2
	note A_, 10
	note B_, 2
	octave 3
	note C#, 8
	note C_, 2
	octave 2
	note B_, 4
	note G#, 8
	note D_, 2
	note E_, 6
	note G_, 4
	note A_, 2
	note B_, 6
	octave 3
	note D_, 4
	octave 2
	note B_, 2
	note A_, 4
	note E_, 4
	octave 3
	note C#, 4
	octave 2
	note A_, 2
	octave 3
	note A_, 2
	note E_, 2
	note C#, 2
	note E_, 2
	octave 2
	note A_, 2
	octave 4
	note A_, 1
	note B_, 1
	note D_, 2
	note F#, 2
	note A_, 2
	octave 5
	note C#, 2
	note E_, 2
	note F#, 6
	note E_, 1
	note C#, 1
	octave 4
	note A_, 1
	note F#, 1
	note D_, 1
	octave 3
	note A_, 1
	note G#, 1
	note E_, 1
	note G#, 1
	note B_, 1
	octave 4
	note D_, 1
	note F_, 1
	note G#, 1
	octave 5
	note C#, 1
	note D_, 2
	note E_, 2
	octave 4
	note G#, 4
	note F_, 2
	note C#, 4
	octave 3
	note B_, 2
	octave 5
	note E_, 1
	octave 4
	note B_, 1
	note G_, 1
	note E_, 1
	note D_, 1
	octave 3
	note B_, 1
	note G_, 1
	note E_, 1
	octave 2
	note B_, 4
	octave 3
	note G_, 1
	note B_, 1
	octave 4
	note D_, 2
	note E_, 2
	note G_, 1
	note A#, 1
	note B_, 1
	octave 5
	note D_, 1
	note E_, 2
	note G_, 1
	note E_, 1
	note C#, 1
	octave 4
	note B_, 1
	note A_, 1
	note G_, 1
	note E_, 1
	note G_, 1
	note E_, 1
	note C#, 1
	octave 3
	note B_, 1
	note A_, 1
	octave 4
	note A_, 2
	note G_, 2
	note D_, 2
	note F_, 2
	note D_, 2
	note G_, 2
	note A_, 6
	volume_envelope $9, 3
	note A_, 2
	note G_, 2
	note F_, 2
	note E_, 6
	note F_, 6
	octave 5
	note C_, 8
	octave 4
	note E_, 2
	note F_, 2
	octave 5
	note C_, 4
	octave 4
	note_type $4, $9, 3
	note A_, 1
	note A#, 7
	note A_, 4
	octave 5
	note C_, 4
	octave 4
	note_type $8, $9, 3
	note A#, 10
	note A#, 1
	note A_, 1
	note F_, 6
	note G_, 6
	note A_, 6
	note G_, 6
	note A_, 4
	note A#, 4
	octave 5
	note C_, 4
	note D_, 6
	octave 4
	note A#, 1
	note A_, 1
	note G_, 1
	note F_, 1
	note E_, 1
	note D_, 1
	note F_, 4
	note F_, 4
	note G_, 4
	octave 5
	note E_, 6
	note C_, 1
	octave 4
	note A#, 1
	note A_, 1
	note G_, 1
	note E_, 1
	note D_, 1
	note C_, 2
	note A_, 4
	note D#, 4
	octave 3
	note A#, 2
	octave 4
	note E_, 1
	note F_, 7
	note D_, 2
	note E_, 2
	note F_, 6
	note G_, 8
	volume_envelope $A, 1
	note F_, 2
	note F_, 2
	note F_, 2
	note F_, 2
	note F_, 4
	note E_, 2
	note E_, 2
	note E_, 2
	note E_, 2
	note E_, 4
	volume_envelope $7, 2
	note C#, 2
	volume_envelope $8, 2
	note C#, 2
	volume_envelope $9, 2
	note C#, 2
	volume_envelope $A, 2
	note C#, 2
	note C#, 2
	note C#, 6
	octave 3
	note E_, 1
	note F_, 1
	note G_, 1
	note A_, 1
	note A#, 1
	octave 4
	note C_, 1
	sound_loop 0, Music_Solaceon_Ch1_loop

Music_Solaceon_Ch2:
	duty_cycle 1
	pitch_offset $0001
	note_type $8, $8, 2
	rest 2
	duty_cycle 0
	vibrato $00, $3, $4
	octave 4
	note F_, 2
	volume_envelope $9, 2
	note F_, 2
	volume_envelope $A, 2
	note F_, 2
	volume_envelope $B, 2
	note F_, 2
	note F_, 2
	note E_, 6
	note A_, 4
	octave 3
	note A_, 1
	note B_, 1
Music_Solaceon_Ch2_loop:
	volume_envelope $A, 8
	octave 4
	note C#, 6
	note_type $4, $A, 8
	note C_, 1
	note C#, 7
	octave 3
	note B_, 12
	octave 4
	note E_, 12
	note D#, 2
	note D_, 2
	note C_, 1
	note C#, 7
	note D_, 4
	note C#, 4
	note C_, 4
	octave 3
	note_type $A, $A, 8
	note B_, 8
	octave 4
	note_type $8, $A, 8
	note C#, 2
	note D_, 2
	note_type $4, $A, 8
	note F_, 1
	note F#, 7
	octave 3
	note B_, 4
	octave 4
	note F#, 8
	note_type $C, $A, 8
	note E_, 8
	note_type $8, $A, 8
	note D_, 1
	note E_, 1
	note F#, 4
	note G_, 2
	note F#, 2
	note F_, 2
	note E_, 6
	note_type $4, $A, 8
	note D#, 1
	note D_, 1
	note C#, 1
	octave 3
	note B_, 1
	note A_, 8
	duty_cycle 2
	octave 4
	note B_, 4
	octave 5
	note C_, 1
	note C#, 3
	note C_, 1
	note C#, 7
	octave 4
	note_type $A, $A, 8
	note B_, 8
	note_type $8, $A, 8
	note A_, 2
	octave 5
	note E_, 4
	note D#, 1
	note D_, 1
	note C#, 4
	note D_, 2
	note C#, 2
	note C_, 2
	octave 4
	note B_, 2
	note G#, 1
	note F_, 1
	octave 5
	note_type $4, $A, 8
	note D#, 1
	note E_, 15
	note D_, 2
	note E_, 2
	note F_, 1
	note F#, 3
	octave 4
	note B_, 2
	octave 5
	note F#, 14
	note_type $C, $A, 8
	note E_, 7
	note_type $4, $A, 8
	note D_, 1
	note C#, 1
	octave 4
	note B_, 1
	note A_, 1
	note G#, 1
	note A_, 1
	note B_, 1
	octave 5
	note C#, 1
	note D_, 1
	note E_, 1
	note F#, 5
	note G_, 4
	note F#, 4
	note F_, 4
	note_type $C, $A, 8
	note E_, 6
	volume_envelope $B, 7
	note E_, 6
	note_type $4, $B, 8
	rest 3
	duty_cycle 0
	octave 3
	note G#, 1
	note A_, 4
	note G_, 4
	note D_, 4
	note E_, 12
	note F_, 8
	note E_, 2
	note D_, 2
	note C_, 4
	octave 2
	note A_, 4
	note A#, 4
	note B_, 2
	octave 3
	note C_, 2
	note D_, 2
	note E_, 1
	note F_, 1
	note G_, 1
	note A_, 1
	note A#, 1
	note B_, 1
	octave 4
	note C_, 8
	octave 3
	note A_, 1
	note A#, 7
	note A_, 4
	octave 4
	note C_, 4
	octave 3
	note A_, 1
	note A#, 7
	note A_, 8
	note G_, 4
	note D_, 4
	note F_, 12
	note G_, 8
	note F#, 2
	note F_, 2
	note_type $C, $B, 8
	note E_, 8
	note_type $8, $B, 8
	note A_, 4
	note A#, 4
	octave 4
	note C_, 4
	note_type $4, $B, 8
	note C#, 1
	note D_, 11
	note C#, 1
	note D_, 3
	octave 3
	note A#, 4
	note F_, 4
	octave 4
	note D_, 8
	note D#, 1
	note E_, 11
	note D_, 4
	note C_, 12
	octave 3
	note B_, 1
	octave 4
	note C_, 3
	octave 3
	note A_, 4
	note A#, 4
	note B_, 1
	octave 4
	note C_, 3
	note E_, 1
	note F_, 3
	octave 3
	note B_, 1
	octave 4
	note C_, 3
	octave 3
	note G#, 1
	note A_, 3
	note D_, 4
	note E_, 1
	note F_, 15
	note C#, 1
	note D_, 3
	note E_, 4
	note F_, 4
	note A#, 4
	note C_, 4
	note B_, 1
	octave 4
	note C_, 11
	octave 3
	note D_, 2
	note E_, 2
	note_type $D, $B, 8
	note F_, 8
	volume_envelope $B, 7
	note F_, 8
	volume_envelope $8, 2
	octave 4
	note_type $8, $8, 2
	note F_, 2
	volume_envelope $9, 2
	note F_, 2
	volume_envelope $A, 2
	note F_, 2
	volume_envelope $B, 2
	note F_, 2
	note F_, 2
	note E_, 6
	note A_, 6
	sound_loop 0, Music_Solaceon_Ch2_loop

Music_Solaceon_Ch3:
	note_type $C, $1, $3
	rest 12
	octave 1
	note_type $8, $1, $3
	note A_, 2
	note B_, 2
	octave 2
	note C#, 2
Music_Solaceon_Ch3_loop:
	note D_, 10
	note C#, 2
	note A_, 10
	note F#, 2
	note G#, 8
	note B_, 2
	note F_, 4
	note C#, 8
	note D_, 2
	note E_, 8
	note G_, 2
	note G#, 2
	note B_, 2
	note E_, 2
	octave 1
	note B_, 6
	octave 3
	note C_, 2
	note C#, 2
	octave 2
	note A_, 2
	octave 1
	note A_, 6
	octave 2
	note E_, 4
	note A_, 10
	note D_, 4
	note A_, 2
	octave 3
	note D_, 2
	note C#, 2
	note E_, 6
	note D_, 2
	note C#, 4
	octave 2
	note B_, 2
	octave 3
	note C#, 2
	octave 2
	note G#, 2
	note C#, 6
	octave 1
	note B_, 6
	octave 2
	note G#, 4
	note G_, 2
	note F#, 2
	note E_, 6
	volume_envelope $1, $3
	note E_, 6
	note B_, 6
	note G_, 6
	octave 3
	note C#, 2
	octave 2
	note A_, 8
	note E_, 2
	note A_, 6
	note G_, 4
	note C_, 2
	note_type $A, $1, $3
	note A#, 10
	volume_envelope $1, $3
	note_type $8, $1, $3
	note G#, 8
	note_type $E, $1, $3
	note G#, 2
	note_type $8, $1, $3
	note A_, 8
	note_type $C, $1, $3
	note A_, 3
	note_type $8, $1, $3
	note F#, 8
	note_type $E, $1, $3
	note F#, 2
	note_type $C, $1, $3
	note G_, 8
	note C_, 4
	note C_, 4
	note F_, 4
	note D#, 4
	note F#, 4
	note_type $8, $1, $3
	note C_, 4
	octave 3
	note D#, 2
	octave 2
	note A#, 6
	octave 3
	note F_, 6
	note E_, 4
	note D#, 2
	note D_, 2
	note C#, 2
	note C_, 2
	octave 2
	note A_, 6
	octave 3
	note C_, 4
	note C#, 2
	note D_, 4
	octave 2
	note F#, 2
	note D_, 4
	note F_, 2
	note G_, 6
	note G_, 6
	octave 3
	note C_, 6
	note C_, 2
	octave 2
	note G_, 2
	note C_, 4
	note D_, 8
	note D_, 2
	note C_, 10
	note C_, 4
	note A_, 16
	octave 1
	note A_, 2
	note B_, 2
	octave 2
	note C#, 2
	sound_loop 0, Music_Solaceon_Ch3_loop

Music_Solaceon_Ch4:
	drum_speed $C
	toggle_noise 3
	rest 16
Music_Solaceon_Ch4_loop:
	drum_speed $8
	drum_note 4, 4
	drum_note 9, 2
	drum_note 12, 4
	drum_note 9, 2
	drum_note 4, 4
	drum_note 9, 2
	drum_note 12, 4
	drum_note 9, 2
	drum_note 4, 4
	drum_note 9, 2
	drum_note 12, 4
	drum_note 9, 2
	drum_note 4, 4
	drum_note 9, 2
	drum_note 12, 4
	drum_note 9, 2
	drum_note 4, 4
	drum_note 9, 2
	drum_note 12, 4
	drum_note 9, 2
	drum_note 4, 4
	drum_note 9, 2
	drum_note 12, 4
	drum_note 9, 2
	drum_note 4, 4
	drum_note 9, 2
	drum_note 12, 4
	drum_note 9, 2
	drum_note 4, 4
	drum_note 9, 2
	drum_note 12, 4
	drum_note 9, 2
	drum_note 4, 4
	drum_note 9, 2
	drum_note 12, 4
	drum_note 9, 2
	drum_note 4, 4
	drum_note 9, 2
	drum_note 12, 4
	drum_note 9, 2
	drum_note 4, 4
	drum_note 9, 2
	drum_note 12, 4
	drum_note 9, 2
	drum_note 4, 4
	drum_note 9, 2
	drum_note 12, 4
	drum_note 9, 2
	drum_note 4, 4
	drum_note 9, 2
	drum_note 12, 4
	drum_note 9, 2
	drum_note 4, 4
	drum_note 9, 2
	drum_note 12, 4
	drum_note 9, 2
	drum_note 4, 4
	drum_note 9, 2
	drum_note 12, 4
	drum_note 9, 2
	drum_note 4, 4
	drum_note 9, 2
	drum_note 12, 4
	drum_note 9, 2
	drum_note 4, 6
	drum_speed $F
	drum_note 9, 2
	drum_speed $9
	drum_note 4, 2
	drum_speed $C
	drum_note 4, 4
	drum_note 9, 4
	drum_note 4, 4
	drum_speed $F
	drum_note 9, 2
	drum_speed $9
	drum_note 4, 2
	drum_speed $C
	drum_note 4, 4
	drum_note 9, 4
	drum_note 4, 4
	drum_speed $F
	drum_note 9, 2
	drum_speed $9
	drum_note 4, 2
	drum_speed $C
	drum_note 4, 4
	drum_note 9, 4
	drum_note 4, 4
	drum_speed $F
	drum_note 9, 2
	drum_speed $9
	drum_note 4, 2
	drum_speed $C
	drum_note 4, 4
	drum_note 9, 4
	drum_note 4, 4
	drum_speed $F
	drum_note 9, 2
	drum_speed $9
	drum_note 4, 2
	drum_speed $C
	drum_note 4, 4
	drum_note 9, 4
	drum_note 4, 4
	drum_speed $F
	drum_note 9, 2
	drum_speed $9
	drum_note 4, 2
	drum_speed $C
	drum_note 4, 4
	drum_note 9, 4
	drum_note 4, 4
	drum_speed $F
	drum_note 9, 2
	drum_speed $9
	drum_note 4, 2
	drum_speed $C
	drum_note 4, 4
	drum_note 9, 4
	drum_note 4, 16
	rest 16
	sound_loop 0, Music_Solaceon_Ch4_loop

