Music_CyrusBattle:
	channel_count 4
	channel 1, Music_CyrusBattle_Ch1
	channel 2, Music_CyrusBattle_Ch2
	channel 3, Music_CyrusBattle_Ch3
	channel 4, Music_CyrusBattle_Ch4

Music_CyrusBattle_Ch1:
	tempo $68
	volume $7, $7
	stereo_panning TRUE, TRUE
	duty_cycle 2
	pitch_offset $0002
	vibrato $12, $1, $5
	octave 1
	note_type $C, $A, 8
	note G_, 16
	note G_, 16
	note G#, 16
	note G#, 16
	octave 3
	note_type $8, $B, 1
	note C_, 2
	note C_, 2
	note C_, 2
	note C#, 2
	rest 2
	note C_, 2
	rest 2
	note C_, 2
	note C_, 2
	note C#, 2
	rest 2
	note C_, 2
	note C_, 2
	note C_, 2
	note C_, 2
	note C#, 2
	rest 2
	note C_, 2
	rest 2
	note C_, 2
	note C_, 2
	note C#, 2
	rest 2
	note C_, 2
	note C_, 2
	note C_, 2
	note C_, 2
	note C#, 2
	rest 2
	note C_, 2
	rest 2
	note C_, 2
	note C_, 2
	note C#, 2
	rest 2
	note C_, 2
	note C_, 2
	note C_, 2
	note C_, 2
	note C#, 2
	rest 2
	note C_, 2
	rest 2
	note C_, 2
	note C_, 2
	note C#, 2
	rest 2
	note C_, 2
	note C_, 2
	note C_, 2
	note C_, 2
	note C#, 2
	rest 2
	note C_, 2
	rest 2
	note C_, 2
	note C_, 2
	note C#, 2
	rest 2
	note C_, 2
	octave 5
	note C_, 2
	octave 4
	note G#, 2
	note G_, 2
	note G#, 2
	note G_, 2
	note E_, 2
	note F_, 2
	note E_, 2
	note C_, 2
	note C#, 2
	note C_, 2
	octave 3
	note A#, 2
Music_CyrusBattle_Ch1_loop:
	octave 4
	note C_, 2
	octave 3
	note G_, 2
	octave 4
	note C_, 2
	note E_, 2
	note C_, 2
	note E_, 2
	note G_, 2
	octave 5
	note C_, 2
	octave 4
	note G_, 2
	note E_, 2
	note C_, 2
	note G_, 2
	note E_, 2
	octave 5
	note C_, 2
	octave 4
	note C_, 2
	note E_, 2
	note C_, 2
	octave 3
	note G_, 2
	octave 4
	note C_, 2
	note E_, 2
	note G_, 2
	note E_, 2
	note G_, 2
	octave 5
	note C_, 2
	octave 4
	note C_, 2
	octave 3
	note G_, 2
	octave 4
	note C_, 2
	note E_, 2
	note C_, 2
	note E_, 2
	note G_, 2
	octave 5
	note C_, 2
	note E_, 2
	note G_, 2
	note E_, 2
	note G_, 2
	octave 3
	note E_, 2
	note G_, 2
	octave 4
	note C_, 2
	note E_, 2
	octave 3
	note G_, 2
	octave 4
	note C_, 2
	note E_, 2
	note G_, 2
	octave 5
	note C_, 2
	note E_, 2
	note G_, 2
	octave 6
	note C_, 2
	octave 3
	note A#, 2
	note F_, 2
	note A#, 2
	octave 4
	note D_, 2
	octave 3
	note A#, 2
	octave 4
	note D_, 2
	note F_, 2
	note A#, 2
	note F_, 2
	note D_, 2
	octave 3
	note A#, 2
	octave 4
	note F_, 2
	note D_, 2
	note A#, 2
	octave 3
	note A#, 2
	octave 4
	note D_, 2
	octave 3
	note A#, 2
	note F_, 2
	note A#, 2
	octave 4
	note D_, 2
	note F_, 2
	note D_, 2
	note F_, 2
	note A#, 2
	note C_, 2
	octave 3
	note G_, 2
	octave 4
	note C_, 2
	note E_, 2
	note C_, 2
	note E_, 2
	note G_, 2
	octave 5
	note C_, 2
	note E_, 2
	note G_, 2
	note E_, 2
	note G_, 2
	octave 3
	note E_, 2
	note G_, 2
	octave 4
	note C_, 2
	note E_, 2
	octave 3
	note G_, 2
	octave 4
	note C_, 2
	note E_, 2
	note G_, 2
	octave 5
	note C_, 2
	note E_, 2
	note G_, 2
	octave 6
	note C_, 2
	duty_cycle 3
	volume_envelope $B, 7
	octave 3
	note D_, 4
	octave 2
	note A#, 4
	note F_, 4
	octave 3
	note F_, 16
	note D_, 4
	note F_, 4
	note D_, 4
	octave 2
	note A_, 4
	note A#, 4
	note B_, 4
	octave 3
	note_type $A, $B, 7
	note C_, 16
	octave 2
	note_type $8, $B, 7
	note A#, 4
	octave 3
	note_type $A, $B, 7
	note C_, 16
	note_type $8, $B, 7
	note D_, 4
	octave 2
	note A#, 4
	note F_, 4
	octave 3
	note F_, 12
	note D#, 4
	note D_, 4
	note C#, 4
	note C_, 4
	octave 2
	note B_, 4
	octave 3
	note D_, 4
	note E_, 4
	note F_, 4
	note E_, 4
	note F_, 4
	note E_, 4
	note F_, 4
	note_type $C, $B, 7
	note G_, 16
	duty_cycle 2
	octave 4
	note_type $8, $A, 1
	note C_, 2
	octave 3
	note G_, 2
	octave 4
	note C_, 2
	note E_, 2
	note C_, 2
	note E_, 2
	note G_, 2
	octave 5
	note C_, 2
	octave 4
	note G_, 2
	note E_, 2
	note C_, 2
	note G_, 2
	note E_, 2
	octave 5
	note C_, 2
	octave 4
	note C_, 2
	note E_, 2
	note C_, 2
	octave 3
	note G_, 2
	octave 4
	note C_, 2
	note E_, 2
	note G_, 2
	note E_, 2
	note G_, 2
	octave 5
	note C_, 2
	octave 4
	note C_, 2
	octave 3
	note G_, 2
	octave 4
	note C_, 2
	note E_, 2
	note C_, 2
	note E_, 2
	note G_, 2
	octave 5
	note C_, 2
	note E_, 2
	note G_, 2
	note E_, 2
	note G_, 2
	octave 3
	note E_, 2
	note G_, 2
	octave 4
	note C_, 2
	note E_, 2
	octave 3
	note G_, 2
	octave 4
	note C_, 2
	note E_, 2
	note G_, 2
	octave 5
	note C_, 2
	note E_, 2
	note G_, 2
	octave 6
	note C_, 2
	octave 3
	note A#, 2
	note F_, 2
	note A#, 2
	octave 4
	note D_, 2
	octave 3
	note A#, 2
	octave 4
	note D_, 2
	note F_, 2
	note A#, 2
	note F_, 2
	note D_, 2
	octave 3
	note A#, 2
	octave 4
	note F_, 2
	note D_, 2
	note A#, 2
	octave 3
	note A#, 2
	octave 4
	note D_, 2
	octave 3
	note A#, 2
	note F_, 2
	note A#, 2
	octave 4
	note D_, 2
	note F_, 2
	note D_, 2
	note F_, 2
	note A#, 2
	note C_, 2
	octave 3
	note G_, 2
	octave 4
	note C_, 2
	note E_, 2
	note C_, 2
	note E_, 2
	note G_, 2
	octave 5
	note C_, 2
	note E_, 2
	note G_, 2
	note E_, 2
	note G_, 2
	octave 2
	note E_, 2
	note G_, 2
	octave 3
	note C_, 2
	note E_, 2
	note G_, 2
	octave 4
	note C_, 2
	note E_, 2
	note G_, 2
	octave 5
	note C_, 2
	note E_, 2
	note G_, 2
	octave 6
	note C_, 16
	rest 16
	rest 16
	rest 16
	rest 16
	duty_cycle 3
	volume_envelope $B, 7
	octave 4
	note C_, 4
	note C#, 4
	note D#, 4
	note F_, 4
	note G_, 14
	octave 2
	note C_, 4
	note C#, 4
	note F_, 4
	note E_, 4
	note F_, 4
	note E_, 4
	note G_, 4
	note F_, 4
	note G_, 4
	note G#, 4
	note A#, 4
	octave 3
	note C_, 4
	note C#, 4
	note D#, 4
	note F_, 4
	note_type $C, $B, 7
	note G_, 16
	note D#, 4
	note_type $8, $B, 7
	note C#, 2
	rest 4
	duty_cycle 2
	volume_envelope $9, 8
	pitch_slide 1, 7, F_
	octave 2
	note F#, 12
	octave 1
	note F_, 12
	pitch_slide 1, 6, F#
	note F_, 12
	duty_cycle 3
	volume_envelope $B, 7
	octave 3
	note D#, 6
	note C#, 2
	rest 4
	duty_cycle 2
	volume_envelope $9, 8
	pitch_slide 1, 7, F_
	octave 2
	note F#, 12
	pitch_slide 1, 5, F#
	octave 1
	note F_, 12
	pitch_slide 1, 6, F#
	octave 3
	note F#, 12
	duty_cycle 3
	volume_envelope $A, 8
	note F_, 16
	note_type $D, $A, 8
	note F_, 16
	octave 4
	note_type $C, $A, 8
	note C_, 4
	octave 3
	note_type $8, $A, 8
	note B_, 4
	note_type $A, $A, 8
	note G_, 16
	note_type $8, $A, 8
	note G#, 4
	note_type $A, $A, 8
	note F_, 16
	duty_cycle 2
	note_type $8, $B, 1
	note B_, 2
	octave 4
	note E_, 2
	note G_, 2
	note A_, 2
	note_type $A, $B, 1
	note B_, 2
	rest 6
	octave 3
	note_type $8, $B, 1
	note B_, 2
	octave 4
	note E_, 2
	note G_, 2
	note A_, 2
	note B_, 2
	note_type $C, $B, 1
	rest 12
	duty_cycle 3
	octave 3
	note_type $8, $A, 8
	note E_, 2
	note F_, 3
	note_type $E, $A, 8
	rest 12
	duty_cycle 2
	octave 5
	note_type $8, $B, 1
	note F_, 2
	note C#, 2
	note C_, 2
	note C#, 2
	note C_, 2
	octave 4
	note A_, 2
	note A#, 2
	note A_, 2
	note F_, 2
	note F#, 2
	note F_, 2
	note D#, 2
	duty_cycle 3
	volume_envelope $A, 8
	octave 3
	note F_, 16
	note_type $D, $A, 8
	note F_, 16
	octave 4
	note_type $C, $A, 8
	note C_, 4
	octave 3
	note_type $8, $A, 8
	note B_, 4
	note_type $A, $A, 8
	note G_, 16
	note_type $8, $A, 8
	note G#, 4
	note_type $A, $A, 8
	note F_, 16
	duty_cycle 2
	note_type $8, $B, 1
	note B_, 2
	octave 4
	note E_, 2
	note G_, 2
	note A_, 2
	note B_, 2
	octave 5
	note E_, 2
	rest 6
	octave 3
	note B_, 2
	octave 4
	note E_, 2
	note G_, 2
	note A_, 2
	note B_, 2
	octave 5
	note E_, 2
	note E_, 2
	octave 4
	note B_, 2
	octave 5
	note E_, 2
	octave 4
	note B_, 2
	octave 5
	note E_, 2
	octave 4
	note B_, 2
	octave 5
	note E_, 2
	note E_, 2
	octave 4
	note B_, 2
	octave 5
	note F_, 2
	note C_, 2
	note F_, 2
	note C_, 2
	note C_, 2
	note F_, 2
	note C_, 2
	note F_, 2
	note F_, 2
	note C_, 2
	note F_, 2
	note C_, 2
	note F_, 2
	note C_, 2
	note F_, 2
	note C_, 2
	note F_, 2
	note F_, 2
	note C_, 2
	note F_, 2
	note F_, 2
	note C_, 2
	note F_, 2
	note C_, 2
	note F_, 2
	note C_, 2
	note F_, 2
	note C_, 2
	note C_, 2
	note F_, 2
	note C_, 2
	note F_, 2
	note F_, 2
	note C_, 2
	note F_, 2
	note C_, 2
	note F_, 2
	note C_, 2
	note F_, 2
	note C_, 2
	note F_, 2
	note F_, 2
	note C_, 2
	note F_, 2
	note F_, 2
	note C_, 2
	duty_cycle 3
	volume_envelope $A, 8
	octave 3
	note B_, 4
	duty_cycle 2
	volume_envelope $B, 1
	note F_, 2
	rest 2
	note F_, 2
	rest 2
	note F_, 2
	note F_, 2
	note F_, 2
	rest 2
	note F_, 2
	rest 2
	note F_, 2
	note F_, 2
	note F#, 2
	rest 2
	note F#, 2
	rest 2
	note F#, 2
	note F#, 2
	note F#, 2
	rest 2
	note F#, 2
	rest 2
	note F#, 2
	note F#, 2
	note G_, 2
	rest 2
	note G_, 2
	rest 2
	note G_, 2
	note G_, 2
	note G_, 2
	rest 2
	note G_, 2
	rest 2
	note G_, 2
	note G_, 2
	note G#, 2
	rest 2
	note G#, 2
	rest 2
	note G#, 2
	note G#, 2
	note G#, 2
	rest 2
	note G#, 2
	rest 2
	note G#, 2
	note G#, 2
	note F_, 2
	rest 2
	note F_, 2
	rest 2
	note F_, 2
	note F_, 2
	note F_, 2
	rest 2
	note F_, 2
	rest 2
	note F_, 2
	note F_, 2
	note F#, 2
	rest 2
	note F#, 2
	rest 2
	note F#, 2
	note F#, 2
	note F#, 2
	rest 2
	note F#, 2
	rest 2
	note F#, 2
	note F#, 2
	note G_, 2
	rest 2
	note G_, 2
	rest 2
	note G_, 2
	note G_, 2
	note G_, 2
	rest 2
	note G_, 2
	rest 2
	note G_, 2
	note G_, 2
	octave 4
	note C#, 2
	rest 2
	note C#, 2
	rest 2
	note C#, 2
	note C#, 2
	note C#, 2
	rest 2
	note C#, 2
	rest 2
	note C#, 2
	note C#, 16
	rest 16
	rest 16
	rest 2
	note F#, 2
	note C#, 2
	note F#, 2
	note A#, 2
	note F#, 2
	note A#, 2
	octave 5
	note C#, 2
	note F#, 2
	note C#, 2
	octave 4
	note A#, 2
	note F#, 2
	octave 5
	note C#, 2
	octave 4
	note A#, 2
	octave 5
	note F#, 2
	octave 4
	note F#, 2
	note A#, 2
	note F#, 2
	note C#, 2
	note F#, 2
	note A#, 2
	octave 5
	note C#, 2
	octave 4
	note A#, 2
	octave 5
	note C#, 2
	note F#, 2
	octave 4
	note F#, 2
	note C#, 2
	note F#, 2
	note A#, 2
	note F#, 2
	note A#, 2
	octave 5
	note C#, 2
	note F#, 2
	note A#, 2
	octave 6
	note C#, 2
	octave 5
	note A#, 2
	octave 6
	note C#, 2
	octave 3
	note A#, 2
	octave 4
	note C#, 2
	note F#, 2
	note A#, 2
	note C#, 2
	note F#, 2
	note A#, 2
	octave 5
	note C#, 2
	note F#, 2
	note A#, 2
	octave 6
	note C#, 2
	note F#, 2
	octave 4
	note E_, 2
	octave 3
	note B_, 2
	octave 4
	note E_, 2
	note G#, 2
	note E_, 2
	note G#, 2
	note B_, 2
	octave 5
	note E_, 2
	octave 4
	note B_, 2
	note G#, 2
	note E_, 2
	note B_, 2
	note G#, 2
	octave 5
	note E_, 2
	octave 4
	note E_, 2
	note G#, 2
	note E_, 2
	octave 3
	note B_, 2
	octave 4
	note E_, 2
	note G#, 2
	note B_, 2
	note G#, 2
	note B_, 2
	octave 5
	note E_, 2
	octave 4
	note F#, 2
	note C#, 2
	note F#, 2
	note A#, 2
	note F#, 2
	note A#, 2
	octave 5
	note C#, 2
	note F#, 2
	note A#, 2
	octave 6
	note C#, 2
	octave 5
	note A#, 2
	octave 6
	note C#, 2
	octave 3
	note A#, 2
	octave 4
	note C#, 2
	note F#, 2
	note A#, 2
	note C#, 2
	note F#, 2
	note A#, 2
	octave 5
	note C#, 2
	note F#, 2
	note A#, 2
	octave 6
	note C#, 2
	note F#, 2
	duty_cycle 1
	volume_envelope $9, 8
	octave 3
	note G#, 4
	note E_, 4
	octave 2
	note B_, 4
	octave 3
	note B_, 16
	note G#, 4
	note B_, 4
	note G#, 4
	note D#, 4
	note E_, 4
	note F_, 4
	note_type $A, $9, 8
	note F#, 16
	note_type $8, $9, 8
	note E_, 4
	note_type $A, $9, 8
	note F#, 16
	note_type $8, $9, 8
	note G#, 4
	note E_, 4
	octave 2
	note B_, 4
	octave 3
	note B_, 12
	note A_, 4
	note G#, 4
	note G_, 4
	note F#, 4
	note F_, 4
	note G#, 4
	note A#, 4
	note B_, 4
	note A#, 4
	note B_, 4
	note A#, 4
	note B_, 4
	octave 4
	note_type $C, $9, 8
	note C#, 16
	note_type $8, $B, 1
	duty_cycle 2
	sound_loop 0, Music_CyrusBattle_Ch1_loop

Music_CyrusBattle_Ch2:
	duty_cycle 1
	pitch_offset $0001
	vibrato $08, $3, $6
	octave 2
	note_type $C, $B, 8
	note D_, 16
	note D_, 16
	note D#, 16
	note D#, 16
	note C_, 16
	note C_, 16
	note C_, 16
	note C_, 16
	volume_envelope $B, 7
	note C_, 16
	rest 16
Music_CyrusBattle_Ch2_loop:
	volume_envelope $B, 8
	note G_, 16
	octave 3
	note C_, 14
	note G_, 2
	note_type $8, $B, 8
	note F_, 4
	note E_, 16
	note_type $E, $B, 8
	note E_, 16
	octave 2
	note_type $C, $B, 8
	note A#, 16
	octave 3
	note_type $A, $B, 8
	note A#, 16
	note_type $8, $B, 8
	note G#, 4
	note G_, 4
	note E_, 16
	note_type $E, $B, 8
	note E_, 16
	duty_cycle 0
	note_type $8, $C, 7
	note F_, 4
	note D_, 4
	octave 2
	note A#, 4
	octave 3
	note A#, 16
	rest 16
	note G#, 4
	note G_, 4
	note_type $A, $C, 7
	note E_, 16
	note_type $8, $C, 7
	note D_, 4
	note_type $A, $C, 7
	note E_, 16
	note_type $8, $C, 7
	note F_, 4
	note D_, 4
	octave 2
	note A#, 4
	octave 3
	note_type $A, $C, 7
	note A#, 16
	note_type $8, $C, 7
	note G#, 4
	note A#, 4
	note G#, 4
	note B_, 4
	octave 4
	note C_, 4
	note D_, 4
	note C_, 4
	note D_, 4
	note C_, 4
	note D_, 4
	note_type $C, $C, 7
	note E_, 16
	duty_cycle 1
	volume_envelope $B, 8
	octave 2
	note G_, 16
	octave 3
	note C_, 14
	note G_, 2
	note_type $8, $B, 8
	note F_, 4
	note E_, 16
	note_type $E, $B, 8
	note E_, 16
	octave 2
	note_type $C, $B, 8
	note A#, 16
	octave 3
	note_type $A, $B, 8
	note A#, 16
	note_type $8, $B, 8
	note G#, 4
	note G_, 4
	note E_, 16
	note A#, 2
	note B_, 2
	octave 4
	note_type $C, $B, 8
	note C_, 16
	duty_cycle 0
	octave 2
	note_type $8, $C, 7
	note C_, 4
	note C#, 4
	note F_, 4
	note E_, 4
	note F_, 4
	note E_, 4
	note G_, 4
	note F_, 4
	note G_, 4
	note G#, 4
	note A#, 4
	note G#, 4
	note A#, 4
	octave 3
	note C_, 4
	octave 2
	note A#, 4
	note G#, 4
	note A#, 4
	note G#, 4
	note_type $C, $C, 7
	note G_, 16
	octave 3
	note_type $8, $C, 7
	note C_, 4
	note C#, 4
	note F_, 4
	note E_, 4
	note F_, 4
	note E_, 4
	note G_, 4
	note F_, 4
	note G_, 4
	note G#, 4
	note A#, 4
	note G#, 4
	note A#, 4
	octave 4
	note C_, 4
	octave 3
	note A#, 4
	octave 4
	note C#, 4
	note D#, 4
	note C#, 4
	note_type $C, $C, 7
	note C_, 16
	note D#, 4
	note_type $8, $C, 7
	note C#, 2
	rest 16
	rest 16
	rest 8
	note D#, 6
	note C#, 2
	rest 16
	rest 16
	rest 8
	duty_cycle 1
	volume_envelope $B, 8
	octave 3
	note C_, 16
	note_type $D, $B, 8
	note C_, 16
	note_type $C, $B, 8
	note G_, 4
	note_type $8, $B, 8
	note F#, 4
	note_type $A, $B, 8
	note D_, 16
	note_type $8, $B, 8
	note D#, 4
	note_type $A, $B, 8
	note C_, 16
	octave 2
	note_type $C, $B, 8
	note B_, 16
	note_type $B, $B, 8
	note G#, 16
	note_type $8, $B, 8
	note B_, 2
	octave 3
	note C_, 3
	rest 16
	rest 16
	rest 13
	note C_, 16
	note_type $D, $B, 8
	note C_, 16
	note_type $C, $B, 8
	note G_, 4
	note_type $8, $B, 8
	note F#, 4
	note_type $A, $B, 8
	note D_, 16
	note_type $8, $B, 8
	note D#, 4
	note_type $A, $B, 8
	note C_, 16
	octave 2
	note_type $C, $B, 8
	note B_, 16
	octave 3
	note B_, 16
	octave 4
	note C_, 16
	note C_, 16
	octave 2
	note A_, 16
	note A_, 16
	duty_cycle 2
	octave 3
	note_type $8, $B, 1
	note C_, 2
	rest 2
	note C_, 2
	rest 2
	note C_, 2
	note C_, 2
	note C_, 2
	rest 2
	note C_, 2
	rest 2
	note C_, 2
	note C_, 2
	octave 2
	note B_, 2
	rest 2
	note B_, 2
	rest 2
	note B_, 2
	note B_, 2
	note B_, 2
	rest 2
	note B_, 2
	rest 2
	note B_, 2
	note B_, 2
	note A#, 2
	rest 2
	note A#, 2
	rest 2
	note A#, 2
	note A#, 2
	note A#, 2
	rest 2
	note A#, 2
	rest 2
	note A#, 2
	note A#, 2
	octave 3
	note D#, 2
	rest 2
	note D#, 2
	rest 2
	note D#, 2
	note D#, 2
	note D#, 2
	rest 2
	note D#, 2
	rest 2
	note D#, 2
	note D#, 2
	note C_, 2
	rest 2
	note C_, 2
	rest 2
	note C_, 2
	note C_, 2
	note C_, 2
	rest 2
	note C_, 2
	rest 2
	note C_, 2
	note C_, 2
	note C#, 2
	rest 2
	note C#, 2
	rest 2
	note C#, 2
	note C#, 2
	note C#, 2
	rest 2
	note C#, 2
	rest 2
	note C#, 2
	note C#, 2
	note D_, 2
	rest 2
	note D_, 2
	rest 2
	note D_, 2
	note D_, 2
	note D_, 2
	rest 2
	note D_, 2
	rest 2
	note D_, 2
	note D_, 2
	note G#, 2
	rest 2
	note G#, 2
	rest 2
	note G#, 2
	note G#, 2
	note G#, 2
	rest 2
	note G#, 2
	rest 2
	note G#, 2
	note G#, 16
	rest 16
	rest 16
	rest 2
	duty_cycle 1
	note_type $C, $B, 8
	note C#, 16
	note F#, 14
	octave 4
	note C#, 2
	octave 3
	note_type $8, $B, 8
	note B_, 4
	note A#, 16
	note_type $E, $B, 8
	note A#, 16
	note_type $C, $B, 8
	note E_, 16
	octave 4
	note_type $A, $B, 8
	note E_, 16
	note_type $8, $B, 8
	note D_, 4
	note C#, 4
	octave 3
	note A#, 16
	note_type $E, $A, 8
	note A#, 16
	note_type $8, $A, 8
	note B_, 4
	note G#, 4
	note E_, 4
	octave 4
	note E_, 16
	note E_, 16
	note D_, 4
	note C#, 4
	octave 3
	note_type $A, $A, 8
	note A#, 16
	note_type $8, $A, 8
	note G#, 4
	note_type $A, $A, 8
	note A#, 16
	note_type $8, $A, 8
	note B_, 4
	note G#, 4
	note E_, 4
	octave 4
	note_type $A, $A, 8
	note E_, 16
	note_type $8, $A, 8
	note D_, 4
	note E_, 4
	note D_, 4
	note F_, 4
	note F#, 4
	note G#, 4
	note F#, 4
	note G#, 4
	note F#, 4
	note G#, 4
	note_type $C, $A, 8
	note A#, 16
	octave 2
	sound_loop 0, Music_CyrusBattle_Ch2_loop

Music_CyrusBattle_Ch3:
	octave 4
	note_type $C, $1, $6
	note D_, 16
	note D_, 16
	note D#, 16
	note D#, 16
	note C_, 16
	note C_, 16
	octave 2
	note_type $8, $1, $6
	note C_, 2
	rest 2
	note C_, 2
	rest 2
	note C_, 2
	note C#, 2
	octave 1
	note A#, 2
	rest 2
	note A#, 2
	rest 2
	note A#, 2
	octave 2
	note C#, 2
	note C_, 2
	rest 2
	note C_, 2
	rest 2
	note C_, 2
	note C#, 2
	octave 1
	note A#, 2
	rest 2
	note A#, 2
	rest 2
	note A#, 2
	octave 2
	note C#, 2
	note C_, 2
	rest 2
	note C_, 2
	rest 2
	note C_, 2
	note C#, 2
	octave 1
	note A#, 2
	rest 2
	note A#, 2
	rest 2
	note A#, 2
	octave 2
	note C#, 2
	note C_, 2
	rest 2
	note C_, 2
	rest 2
	note C_, 2
	note C#, 2
	octave 1
	note A#, 2
	rest 2
	note A#, 2
	note G_, 2
	note G#, 2
	octave 2
	note C#, 2
Music_CyrusBattle_Ch3_loop:
	note C_, 2
	rest 2
	note C_, 2
	rest 2
	note C_, 2
	note C#, 2
	octave 1
	note A#, 2
	rest 2
	note A#, 2
	rest 2
	note A#, 2
	octave 2
	note C#, 2
	note C_, 2
	rest 2
	note C_, 2
	rest 2
	note C_, 2
	note C#, 2
	octave 1
	note A#, 2
	rest 2
	note A#, 2
	rest 2
	note A#, 2
	octave 2
	note C#, 2
	note C_, 2
	rest 2
	note C_, 2
	rest 2
	note C_, 2
	note C#, 2
	octave 1
	note A#, 2
	rest 2
	note A#, 2
	rest 2
	note A#, 2
	octave 2
	note C#, 2
	note C_, 2
	rest 2
	note C_, 2
	rest 2
	note C_, 2
	note C#, 2
	octave 1
	note A#, 2
	rest 2
	note A#, 2
	rest 2
	note A#, 2
	octave 2
	note C#, 2
	octave 1
	note A#, 2
	rest 2
	note A#, 2
	rest 2
	note A#, 2
	octave 2
	note C_, 2
	octave 1
	note G_, 2
	rest 2
	note G_, 2
	rest 2
	note G_, 2
	octave 2
	note C_, 2
	octave 1
	note A#, 2
	rest 2
	note A#, 2
	rest 2
	note A#, 2
	octave 2
	note C_, 2
	octave 1
	note G_, 2
	rest 2
	note G_, 2
	rest 2
	note G_, 2
	note A#, 2
	octave 2
	note C_, 2
	rest 2
	note C_, 2
	rest 2
	note C_, 2
	note C#, 2
	octave 1
	note A#, 2
	rest 2
	note A#, 2
	rest 2
	note A#, 2
	octave 2
	note C#, 2
	note C_, 2
	rest 2
	note C_, 2
	rest 2
	note C_, 2
	note C#, 2
	octave 1
	note A#, 2
	rest 2
	note A#, 2
	rest 2
	note A#, 2
	octave 2
	note C#, 2
	octave 1
	note A#, 2
	rest 2
	note A#, 2
	rest 2
	note A#, 2
	octave 2
	note C_, 2
	octave 1
	note G_, 2
	rest 2
	note G_, 2
	rest 2
	note G_, 2
	octave 2
	note C_, 2
	octave 1
	note A#, 2
	rest 2
	note A#, 2
	rest 2
	note A#, 2
	octave 2
	note C_, 2
	octave 1
	note G_, 2
	rest 2
	note G_, 2
	rest 2
	note G_, 2
	note A#, 2
	octave 2
	note C_, 2
	rest 2
	note C_, 2
	rest 2
	note C_, 2
	note C#, 2
	octave 1
	note A#, 2
	rest 2
	note A#, 2
	rest 2
	note A#, 2
	octave 2
	note C#, 2
	note C_, 2
	rest 2
	note C_, 2
	rest 2
	note C_, 2
	note C#, 2
	octave 1
	note A#, 2
	rest 2
	note A#, 2
	rest 2
	note A#, 2
	octave 2
	note C#, 2
	octave 1
	note A#, 2
	rest 2
	note A#, 2
	rest 2
	note A#, 2
	octave 2
	note C_, 2
	octave 1
	note G_, 2
	rest 2
	note G_, 2
	rest 2
	note G_, 2
	octave 2
	note C_, 2
	octave 1
	note A#, 2
	rest 2
	note A#, 2
	rest 2
	note A#, 2
	octave 2
	note C_, 2
	octave 1
	note G_, 2
	rest 2
	note G_, 2
	rest 2
	note G_, 2
	note A#, 2
	octave 2
	note C_, 2
	rest 2
	note C_, 2
	rest 2
	note C_, 2
	note C#, 2
	octave 1
	note A#, 2
	rest 2
	note A#, 2
	rest 2
	note A#, 2
	octave 2
	note C#, 2
	note C_, 2
	rest 2
	note C_, 2
	rest 2
	note C_, 2
	note C#, 2
	octave 1
	note A#, 2
	rest 2
	note A#, 2
	rest 2
	note A#, 2
	octave 2
	note C#, 2
	note C_, 2
	rest 2
	note C_, 2
	rest 2
	note C_, 2
	note C#, 2
	octave 1
	note A#, 2
	rest 2
	note A#, 2
	rest 2
	note A#, 2
	octave 2
	note C#, 2
	note C_, 2
	rest 2
	note C_, 2
	rest 2
	note C_, 2
	note C#, 2
	octave 1
	note A#, 2
	rest 2
	note A#, 2
	rest 2
	note A#, 2
	octave 2
	note C#, 2
	note C_, 2
	rest 2
	note C_, 2
	rest 2
	note C_, 2
	note C#, 2
	octave 1
	note A#, 2
	rest 2
	note A#, 2
	rest 2
	note A#, 2
	octave 2
	note C#, 2
	note C_, 2
	rest 2
	note C_, 2
	rest 2
	note C_, 2
	note C#, 2
	octave 1
	note A#, 2
	rest 2
	note A#, 2
	rest 2
	note A#, 2
	octave 2
	note C#, 2
	octave 1
	note A#, 2
	rest 2
	note A#, 2
	rest 2
	note A#, 2
	octave 2
	note C_, 2
	octave 1
	note G_, 2
	rest 2
	note G_, 2
	rest 2
	note G_, 2
	octave 2
	note C_, 2
	octave 1
	note A#, 2
	rest 2
	note A#, 2
	rest 2
	note A#, 2
	octave 2
	note C_, 2
	octave 1
	note G_, 2
	rest 2
	note G_, 2
	rest 2
	note G_, 2
	note A#, 2
	octave 2
	note C_, 2
	rest 2
	note C_, 2
	rest 2
	note C_, 2
	note C#, 2
	octave 1
	note A#, 2
	rest 2
	note A#, 2
	rest 2
	note A#, 2
	octave 2
	note C#, 2
	note C_, 2
	rest 2
	note C_, 2
	rest 2
	note C_, 2
	note C#, 2
	octave 1
	note A#, 2
	rest 2
	note A#, 2
	rest 2
	note A#, 2
	octave 2
	note C#, 2
	note C_, 2
	rest 2
	note C_, 2
	rest 2
	note C_, 2
	note C#, 2
	octave 1
	note A#, 2
	rest 2
	note A#, 2
	rest 2
	note A#, 2
	octave 2
	note C#, 2
	note C_, 2
	rest 2
	note C_, 2
	rest 2
	note C_, 2
	note C#, 2
	octave 1
	note A#, 2
	rest 2
	note A#, 2
	rest 2
	note A#, 2
	octave 2
	note C#, 2
	note C_, 2
	rest 2
	note C_, 2
	rest 2
	note C_, 2
	note C#, 2
	octave 1
	note A#, 2
	rest 2
	note A#, 2
	rest 2
	note A#, 2
	octave 2
	note C#, 2
	note C_, 2
	rest 2
	note C_, 2
	rest 2
	note C_, 2
	note C#, 2
	octave 1
	note A#, 2
	rest 2
	note A#, 2
	rest 2
	note A#, 2
	octave 2
	note C#, 2
	note C_, 2
	rest 2
	note C_, 2
	rest 2
	note C_, 2
	note C#, 2
	octave 1
	note A#, 2
	rest 2
	note A#, 2
	rest 2
	note A#, 2
	octave 2
	note C#, 2
	note C_, 2
	rest 2
	note C_, 2
	rest 2
	note C_, 2
	note C#, 2
	octave 1
	note A#, 2
	rest 2
	note A#, 2
	rest 2
	note A#, 2
	octave 2
	note C#, 2
	note C_, 2
	rest 2
	note C_, 2
	rest 2
	note C_, 2
	note C#, 2
	octave 1
	note A#, 2
	rest 2
	note A#, 2
	rest 2
	note A#, 2
	octave 2
	note C#, 2
	note C_, 2
	rest 2
	note C_, 2
	rest 2
	note C_, 2
	note C#, 2
	octave 1
	note A#, 2
	rest 2
	note A#, 2
	rest 2
	note A#, 2
	octave 2
	note C#, 2
	note C_, 2
	rest 2
	note C_, 2
	rest 2
	note C_, 2
	note C#, 2
	octave 1
	note A#, 2
	rest 2
	note A#, 2
	rest 2
	note A#, 2
	octave 2
	note C#, 2
	note C_, 2
	rest 2
	note C_, 2
	rest 2
	note C_, 2
	note C#, 2
	octave 1
	note A#, 2
	rest 2
	note A#, 2
	rest 2
	note A#, 2
	octave 2
	note C#, 2
	note C_, 2
	rest 2
	note C_, 2
	rest 2
	note C_, 2
	note C#, 2
	octave 1
	note A#, 2
	rest 2
	note A#, 2
	rest 2
	note A#, 2
	octave 2
	note C#, 2
	note C_, 2
	rest 2
	note C_, 2
	rest 2
	note C_, 2
	note C#, 2
	octave 1
	note A#, 2
	rest 2
	note A#, 2
	rest 2
	note A#, 2
	octave 2
	note C#, 2
	note C_, 2
	rest 2
	note C_, 2
	rest 2
	note C_, 2
	note C#, 2
	octave 1
	note A#, 2
	rest 2
	note A#, 2
	rest 2
	note A#, 2
	octave 2
	note C#, 2
	note C_, 2
	rest 2
	note C_, 2
	rest 2
	note C_, 2
	note C#, 2
	octave 1
	note A#, 2
	rest 2
	note A#, 2
	rest 2
	note A#, 2
	octave 2
	note C#, 2
	note C_, 2
	rest 2
	note C_, 2
	rest 2
	note C_, 2
	note C#, 2
	octave 1
	note A#, 2
	rest 2
	note A#, 2
	rest 2
	note A#, 2
	octave 2
	note C#, 2
	note C_, 2
	rest 2
	note C_, 2
	rest 2
	note C_, 2
	note C#, 2
	octave 1
	note A#, 2
	rest 2
	note A#, 2
	rest 2
	note A#, 2
	octave 2
	note C#, 2
	octave 1
	note B_, 2
	rest 2
	note B_, 2
	rest 2
	note B_, 2
	octave 2
	note C_, 2
	octave 1
	note A_, 2
	rest 2
	note A_, 2
	rest 2
	note A_, 2
	octave 2
	note C_, 2
	octave 1
	note B_, 2
	rest 2
	note B_, 2
	rest 2
	note B_, 2
	octave 2
	note C_, 2
	octave 1
	note A_, 2
	rest 2
	note A_, 2
	rest 2
	note A_, 2
	octave 2
	note C_, 2
	note C_, 2
	rest 2
	note C_, 2
	rest 2
	note C_, 2
	note C#, 2
	octave 1
	note A#, 2
	rest 2
	note A#, 2
	rest 2
	note A#, 2
	octave 2
	note C#, 2
	note C_, 2
	rest 2
	note C_, 2
	rest 2
	note C_, 2
	note C#, 2
	octave 1
	note A#, 2
	octave 2
	note C#, 2
	octave 1
	note A#, 2
	octave 2
	note C#, 2
	octave 1
	note A#, 2
	note B_, 2
	octave 2
	note C_, 2
	rest 2
	note C_, 2
	rest 2
	note C_, 2
	note C#, 2
	octave 1
	note A#, 2
	rest 2
	note A#, 2
	rest 2
	note A#, 2
	octave 2
	note C#, 2
	note C_, 2
	rest 2
	note C_, 2
	rest 2
	note C_, 2
	note C#, 2
	octave 1
	note A#, 2
	rest 2
	note A#, 2
	rest 2
	note A#, 2
	octave 2
	note C#, 2
	note C_, 2
	rest 2
	note C_, 2
	rest 2
	note C_, 2
	note C#, 2
	octave 1
	note A#, 2
	rest 2
	note A#, 2
	rest 2
	note A#, 2
	octave 2
	note C#, 2
	note C_, 2
	rest 2
	note C_, 2
	rest 2
	note C_, 2
	note C#, 2
	octave 1
	note A#, 2
	rest 2
	note A#, 2
	rest 2
	note A#, 2
	octave 2
	note C#, 2
	octave 1
	note B_, 2
	rest 2
	note B_, 2
	rest 2
	note B_, 2
	octave 2
	note C_, 2
	octave 1
	note A_, 2
	rest 2
	note A_, 2
	rest 2
	note A_, 2
	octave 2
	note C_, 2
	octave 1
	note B_, 2
	rest 2
	note B_, 2
	rest 2
	note B_, 2
	octave 2
	note C_, 2
	octave 1
	note A_, 2
	rest 2
	note A_, 2
	rest 2
	note A_, 2
	octave 2
	note C_, 2
	note C_, 2
	rest 2
	note C_, 2
	rest 2
	note C_, 2
	note C#, 2
	octave 1
	note A#, 2
	rest 2
	note A#, 2
	rest 2
	note A#, 2
	octave 2
	note C#, 2
	note C_, 2
	rest 2
	note C_, 2
	rest 2
	note C_, 2
	note C#, 2
	octave 1
	note A#, 2
	rest 2
	note A#, 2
	rest 2
	note A#, 2
	octave 2
	note C#, 2
	note C_, 2
	rest 2
	note C_, 2
	rest 2
	note C_, 2
	note C#, 2
	octave 1
	note A#, 2
	rest 2
	note A#, 2
	rest 2
	note A#, 2
	octave 2
	note C#, 2
	note C_, 2
	rest 2
	note C_, 2
	rest 2
	note C_, 2
	note C#, 2
	octave 1
	note A#, 2
	octave 2
	note C#, 2
	note D#, 2
	note F_, 2
	note D#, 2
	octave 1
	note A#, 2
	volume_envelope $1, $5
	octave 2
	note C_, 2
	rest 2
	note C_, 2
	rest 2
	note C_, 2
	note C_, 2
	note C_, 2
	rest 2
	note C_, 2
	rest 2
	note C_, 2
	note C_, 2
	note C_, 2
	rest 2
	note C_, 2
	rest 2
	note C_, 2
	note C_, 2
	note C_, 2
	rest 2
	note C_, 2
	rest 2
	note C_, 2
	note C_, 2
	note C_, 2
	rest 2
	note C_, 2
	rest 2
	note C_, 2
	note C_, 2
	note C_, 2
	rest 2
	note C_, 2
	rest 2
	note C_, 2
	note C_, 2
	note C_, 2
	rest 2
	note C_, 2
	rest 2
	note C_, 2
	note C_, 2
	note C_, 2
	rest 2
	note C_, 2
	rest 2
	note C_, 2
	note C_, 2
	note C_, 2
	rest 2
	note C_, 2
	rest 2
	note C_, 2
	note C_, 2
	note C_, 2
	rest 2
	note C_, 2
	rest 2
	note C_, 2
	note C_, 2
	note C#, 2
	rest 2
	note C#, 2
	rest 2
	note C#, 2
	note C#, 2
	note C#, 2
	rest 2
	note C#, 2
	rest 2
	note C#, 2
	note C#, 2
	note D_, 2
	rest 2
	note D_, 2
	rest 2
	note D_, 2
	note D_, 2
	note D_, 2
	rest 2
	note D_, 2
	rest 2
	note D_, 2
	note D_, 2
	note G#, 2
	rest 2
	note G#, 2
	rest 2
	note G#, 2
	note G#, 2
	note G#, 2
	rest 2
	note G#, 2
	rest 2
	note G#, 2
	note G#, 2
	rest 16
	rest 16
	rest 16
	volume_envelope $1, $6
	note F#, 2
	rest 2
	note F#, 2
	rest 2
	note F#, 2
	note G_, 2
	note E_, 2
	rest 2
	note E_, 2
	rest 2
	note E_, 2
	note G_, 2
	note F#, 2
	rest 2
	note F#, 2
	rest 2
	note F#, 2
	note G_, 2
	note E_, 2
	rest 2
	note E_, 2
	rest 2
	note E_, 2
	note G_, 2
	note F#, 2
	rest 2
	note F#, 2
	rest 2
	note F#, 2
	note G_, 2
	note E_, 2
	rest 2
	note E_, 2
	rest 2
	note E_, 2
	note G_, 2
	note F#, 2
	rest 2
	note F#, 2
	rest 2
	note F#, 2
	note G_, 2
	note E_, 2
	rest 2
	note E_, 2
	rest 2
	note E_, 2
	note G_, 2
	note E_, 2
	rest 2
	note E_, 2
	rest 2
	note E_, 2
	note F#, 2
	note C#, 2
	rest 2
	note C#, 2
	rest 2
	note C#, 2
	note F#, 2
	note E_, 2
	rest 2
	note E_, 2
	rest 2
	note E_, 2
	note F#, 2
	note C#, 2
	rest 2
	note C#, 2
	rest 2
	note C#, 2
	note E_, 2
	note F#, 2
	rest 2
	note F#, 2
	rest 2
	note F#, 2
	note G_, 2
	note E_, 2
	rest 2
	note E_, 2
	rest 2
	note E_, 2
	note G_, 2
	note F#, 2
	rest 2
	note F#, 2
	rest 2
	note F#, 2
	note G_, 2
	note A_, 2
	note B_, 2
	note A_, 2
	note G_, 2
	note F#, 2
	note G_, 2
	note E_, 2
	rest 2
	note E_, 2
	rest 2
	note E_, 2
	note F#, 2
	note C#, 2
	rest 2
	note C#, 2
	rest 2
	note C#, 2
	note F#, 2
	note E_, 2
	rest 2
	note E_, 2
	rest 2
	note E_, 2
	note F#, 2
	note C#, 2
	rest 2
	note C#, 2
	rest 2
	note C#, 2
	note E_, 2
	note F#, 2
	rest 2
	note F#, 2
	rest 2
	note F#, 2
	note G_, 2
	note E_, 2
	rest 2
	note E_, 2
	rest 2
	note E_, 2
	note G_, 2
	note F#, 2
	rest 2
	note F#, 2
	rest 2
	note F#, 2
	note G_, 2
	note E_, 2
	rest 2
	note E_, 2
	rest 2
	note E_, 2
	note G_, 2
	note E_, 2
	rest 2
	note E_, 2
	rest 2
	note E_, 2
	note F#, 2
	note C#, 2
	rest 2
	note C#, 2
	rest 2
	note C#, 2
	note F#, 2
	note E_, 2
	rest 2
	note E_, 2
	rest 2
	note E_, 2
	note F#, 2
	note C#, 2
	rest 2
	note C#, 2
	rest 2
	note C#, 2
	note E_, 2
	note F#, 2
	rest 2
	note F#, 2
	rest 2
	note F#, 2
	note G_, 2
	note E_, 2
	rest 2
	note E_, 2
	rest 2
	note E_, 2
	note G_, 2
	note F#, 2
	rest 2
	note F#, 2
	rest 2
	note F#, 2
	note G_, 2
	note E_, 2
	note F#, 2
	note G_, 2
	note B_, 2
	note G_, 2
	note E_, 2
	sound_loop 0, Music_CyrusBattle_Ch3_loop

Music_CyrusBattle_Ch4:
	drum_speed $C
	rest 16
	rest 16
	rest 16
	rest 16
	rest 16
	rest 8
	toggle_noise 3
	drum_speed $8
	drum_note 2, 4
	drum_note 2, 2
	drum_note 2, 2
	drum_note 2, 2
	drum_note 2, 2
	drum_note 4, 4
	drum_note 4, 2
	drum_note 2, 4
	drum_note 4, 2
	drum_note 4, 4
	drum_note 4, 2
	drum_note 2, 4
	drum_note 4, 2
	drum_note 4, 4
	drum_note 4, 2
	drum_note 2, 4
	drum_note 4, 2
	drum_note 4, 4
	drum_note 4, 2
	drum_note 2, 4
	drum_note 4, 2
	drum_note 4, 4
	drum_note 4, 2
	drum_note 2, 4
	drum_note 4, 2
	drum_note 4, 4
	drum_note 4, 2
	drum_note 2, 4
	drum_note 4, 2
	drum_note 4, 4
	drum_note 4, 2
	drum_note 2, 4
	drum_note 4, 2
	drum_note 4, 4
	drum_note 4, 2
	drum_note 2, 4
	drum_note 2, 2
Music_CyrusBattle_Ch4_loop:
	drum_note 4, 4
	drum_note 4, 2
	drum_note 2, 4
	drum_note 4, 2
	drum_note 4, 4
	drum_note 4, 2
	drum_note 2, 4
	drum_note 4, 2
	drum_note 4, 4
	drum_note 4, 2
	drum_note 2, 4
	drum_note 4, 2
	drum_note 4, 4
	drum_note 4, 2
	drum_note 2, 4
	drum_note 4, 2
	drum_note 4, 4
	drum_note 4, 2
	drum_note 2, 4
	drum_note 4, 2
	drum_note 4, 4
	drum_note 4, 2
	drum_note 2, 4
	drum_note 4, 2
	drum_note 4, 4
	drum_note 4, 2
	drum_note 2, 4
	drum_note 4, 2
	drum_note 4, 4
	drum_note 4, 2
	drum_note 2, 4
	drum_note 4, 2
	drum_note 4, 4
	drum_note 4, 2
	drum_note 2, 4
	drum_note 4, 2
	drum_note 4, 4
	drum_note 4, 2
	drum_note 2, 4
	drum_note 4, 2
	drum_note 4, 4
	drum_note 4, 2
	drum_note 2, 4
	drum_note 4, 2
	drum_note 4, 4
	drum_note 4, 2
	drum_note 2, 4
	drum_note 4, 2
	drum_note 4, 4
	drum_note 4, 2
	drum_note 2, 4
	drum_note 4, 2
	drum_note 4, 4
	drum_note 4, 2
	drum_note 2, 4
	drum_note 4, 2
	drum_note 4, 4
	drum_note 4, 2
	drum_note 2, 4
	drum_note 4, 2
	drum_note 4, 4
	drum_note 4, 2
	drum_note 2, 4
	drum_note 2, 2
	drum_note 4, 4
	drum_note 4, 2
	drum_note 2, 4
	drum_note 4, 2
	drum_note 4, 4
	drum_note 4, 2
	drum_note 2, 4
	drum_note 4, 2
	drum_note 4, 4
	drum_note 4, 2
	drum_note 2, 4
	drum_note 4, 2
	drum_note 4, 4
	drum_note 4, 2
	drum_note 2, 4
	drum_note 4, 2
	drum_note 4, 4
	drum_note 4, 2
	drum_note 2, 4
	drum_note 4, 2
	drum_note 4, 4
	drum_note 4, 2
	drum_note 2, 4
	drum_note 4, 2
	drum_note 4, 4
	drum_note 4, 2
	drum_note 2, 4
	drum_note 4, 2
	drum_note 4, 4
	drum_note 4, 2
	drum_note 2, 4
	drum_note 4, 2
	drum_note 4, 4
	drum_note 4, 2
	drum_note 2, 4
	drum_note 4, 2
	drum_note 4, 4
	drum_note 4, 2
	drum_note 2, 4
	drum_note 4, 2
	drum_note 4, 4
	drum_note 4, 2
	drum_note 2, 4
	drum_note 4, 2
	drum_note 4, 4
	drum_note 4, 2
	drum_note 2, 4
	drum_note 4, 2
	drum_note 4, 4
	drum_note 4, 2
	drum_note 2, 4
	drum_note 4, 2
	drum_note 4, 4
	drum_note 4, 2
	drum_note 2, 4
	drum_note 4, 2
	drum_note 2, 4
	drum_note 4, 2
	drum_note 2, 4
	drum_note 4, 2
	drum_note 4, 4
	drum_note 4, 2
	drum_note 2, 4
	drum_note 2, 2
	drum_note 4, 4
	drum_note 4, 2
	drum_note 2, 4
	drum_note 4, 2
	drum_note 4, 4
	drum_note 4, 2
	drum_note 2, 4
	drum_note 4, 2
	drum_note 4, 4
	drum_note 4, 2
	drum_note 2, 4
	drum_note 4, 2
	drum_note 4, 4
	drum_note 4, 2
	drum_note 2, 4
	drum_note 4, 2
	drum_note 4, 4
	drum_note 4, 2
	drum_note 2, 4
	drum_note 4, 2
	drum_note 4, 4
	drum_note 4, 2
	drum_note 2, 4
	drum_note 4, 2
	drum_note 4, 4
	drum_note 4, 2
	drum_note 2, 4
	drum_note 4, 2
	drum_note 4, 4
	drum_note 4, 2
	drum_note 2, 4
	drum_note 4, 2
	drum_note 4, 4
	drum_note 4, 2
	drum_note 2, 4
	drum_note 4, 2
	drum_note 4, 4
	drum_note 4, 2
	drum_note 2, 4
	drum_note 4, 2
	drum_note 4, 4
	drum_note 4, 2
	drum_note 2, 4
	drum_note 4, 2
	drum_note 4, 4
	drum_note 4, 2
	drum_note 2, 4
	drum_note 4, 2
	drum_note 4, 4
	drum_note 4, 2
	drum_note 2, 4
	drum_note 4, 2
	drum_note 4, 4
	drum_note 4, 2
	drum_note 2, 4
	drum_note 4, 2
	drum_note 4, 4
	drum_note 4, 2
	drum_note 2, 4
	drum_note 4, 2
	drum_note 4, 4
	drum_note 4, 2
	drum_note 2, 4
	drum_note 2, 2
	drum_note 4, 4
	drum_note 4, 2
	drum_note 2, 4
	drum_note 4, 2
	drum_note 4, 4
	drum_note 4, 2
	drum_note 2, 4
	drum_note 4, 2
	drum_note 4, 4
	drum_note 4, 2
	drum_note 2, 4
	drum_note 4, 2
	drum_note 4, 4
	drum_note 4, 2
	drum_note 2, 4
	drum_note 4, 2
	drum_note 4, 4
	drum_note 4, 2
	drum_note 2, 4
	drum_note 4, 2
	drum_note 4, 4
	drum_note 4, 2
	drum_note 2, 4
	drum_note 4, 2
	drum_note 4, 4
	drum_note 4, 2
	drum_note 2, 4
	drum_note 4, 2
	drum_note 4, 4
	drum_note 4, 2
	drum_note 2, 4
	drum_note 4, 2
	drum_note 4, 4
	drum_note 4, 2
	drum_note 2, 4
	drum_note 4, 2
	drum_note 4, 4
	drum_note 4, 2
	drum_note 2, 4
	drum_note 4, 2
	drum_note 4, 4
	drum_note 4, 2
	drum_note 2, 4
	drum_note 4, 2
	drum_note 4, 4
	drum_note 4, 2
	drum_note 2, 4
	drum_note 4, 2
	drum_note 4, 4
	drum_note 4, 2
	drum_note 2, 4
	drum_note 4, 2
	drum_note 4, 4
	drum_note 4, 2
	drum_note 2, 4
	drum_note 4, 2
	drum_note 4, 4
	drum_note 4, 2
	drum_note 2, 4
	drum_note 4, 2
	drum_note 4, 4
	drum_note 4, 2
	drum_note 2, 2
	drum_note 2, 2
	drum_note 2, 2
	drum_note 4, 4
	drum_note 4, 2
	drum_note 2, 4
	drum_note 4, 2
	drum_note 12, 12
	drum_note 12, 12
	drum_note 12, 12
	rest 12
	drum_note 12, 12
	drum_note 12, 12
	drum_note 12, 12
	drum_note 4, 4
	drum_note 4, 2
	drum_note 2, 4
	drum_note 4, 2
	drum_note 4, 4
	drum_note 4, 2
	drum_note 2, 4
	drum_note 4, 2
	drum_note 4, 4
	drum_note 4, 2
	drum_note 2, 4
	drum_note 4, 2
	drum_note 4, 4
	drum_note 4, 2
	drum_note 2, 4
	drum_note 4, 2
	drum_note 4, 4
	drum_note 4, 2
	drum_note 2, 4
	drum_note 4, 2
	drum_note 4, 4
	drum_note 4, 2
	drum_note 2, 4
	drum_note 4, 2
	drum_note 4, 4
	drum_note 4, 2
	drum_note 2, 4
	drum_note 4, 2
	drum_note 4, 4
	drum_note 4, 2
	drum_note 2, 4
	drum_note 4, 2
	drum_note 4, 4
	drum_note 4, 2
	drum_note 2, 4
	drum_note 4, 2
	drum_note 4, 4
	drum_note 4, 2
	drum_note 2, 4
	drum_note 4, 2
	drum_note 4, 4
	drum_note 4, 2
	drum_note 2, 4
	drum_note 4, 2
	drum_note 4, 4
	drum_note 4, 2
	drum_note 2, 4
	drum_note 4, 2
	drum_note 4, 4
	drum_note 4, 2
	drum_note 2, 4
	drum_note 4, 2
	drum_note 4, 4
	drum_note 4, 2
	drum_note 2, 4
	drum_note 4, 2
	drum_note 4, 4
	drum_note 4, 2
	drum_note 2, 4
	drum_note 4, 2
	drum_note 4, 4
	drum_note 4, 2
	drum_note 2, 4
	drum_note 2, 2
	drum_note 4, 4
	drum_note 4, 2
	drum_note 2, 4
	drum_note 4, 2
	drum_note 4, 4
	drum_note 4, 2
	drum_note 2, 4
	drum_note 4, 2
	drum_note 4, 4
	drum_note 4, 2
	drum_note 2, 4
	drum_note 4, 2
	drum_note 4, 4
	drum_note 4, 2
	drum_note 2, 4
	drum_note 4, 2
	drum_note 4, 4
	drum_note 4, 2
	drum_note 2, 4
	drum_note 4, 2
	drum_note 4, 4
	drum_note 4, 2
	drum_note 2, 4
	drum_note 4, 2
	drum_note 4, 4
	drum_note 4, 2
	drum_note 2, 4
	drum_note 4, 2
	drum_note 4, 4
	drum_note 4, 2
	drum_note 2, 4
	drum_note 4, 2
	drum_note 4, 4
	drum_note 4, 2
	drum_note 2, 4
	drum_note 4, 2
	drum_note 4, 4
	drum_note 4, 2
	drum_note 2, 4
	drum_note 4, 2
	drum_note 4, 4
	drum_note 4, 2
	drum_note 2, 4
	drum_note 4, 2
	drum_note 4, 4
	drum_note 4, 2
	drum_note 2, 4
	drum_note 4, 2
	drum_note 4, 4
	drum_note 4, 2
	drum_note 2, 4
	drum_note 4, 2
	drum_note 4, 4
	drum_note 4, 2
	drum_note 2, 4
	drum_note 4, 2
	drum_note 4, 4
	drum_note 4, 2
	drum_note 2, 4
	drum_note 4, 2
	drum_note 4, 4
	drum_note 4, 2
	drum_note 2, 4
	drum_note 4, 2
	drum_note 4, 4
	drum_note 4, 2
	drum_note 2, 4
	drum_note 4, 2
	drum_note 4, 4
	drum_note 4, 2
	drum_note 2, 4
	drum_note 4, 2
	drum_note 4, 4
	drum_note 4, 2
	drum_note 2, 4
	drum_note 4, 2
	drum_note 4, 4
	drum_note 4, 2
	drum_note 2, 4
	drum_note 2, 2
	drum_note 4, 4
	drum_note 4, 4
	drum_note 4, 2
	drum_note 4, 2
	drum_note 4, 4
	drum_note 4, 4
	drum_note 4, 2
	drum_note 4, 2
	drum_note 4, 4
	drum_note 4, 4
	drum_note 4, 2
	drum_note 4, 2
	drum_note 4, 4
	drum_note 4, 4
	drum_note 4, 2
	drum_note 4, 2
	drum_note 4, 4
	drum_note 4, 4
	drum_note 4, 2
	drum_note 4, 2
	drum_note 4, 4
	drum_note 4, 4
	drum_note 4, 2
	drum_note 4, 2
	drum_note 4, 4
	drum_note 4, 4
	drum_note 4, 2
	drum_note 4, 2
	drum_note 4, 4
	drum_note 4, 4
	drum_note 4, 2
	drum_note 4, 2
	drum_note 4, 4
	drum_note 4, 4
	drum_note 4, 2
	drum_note 4, 2
	drum_note 4, 4
	drum_note 4, 4
	drum_note 4, 2
	drum_note 4, 2
	drum_note 4, 4
	drum_note 4, 4
	drum_note 4, 2
	drum_note 4, 2
	drum_note 4, 4
	drum_note 4, 4
	drum_note 4, 2
	drum_note 4, 2
	drum_note 4, 4
	drum_note 4, 4
	drum_note 4, 2
	drum_note 4, 2
	drum_note 4, 4
	drum_note 4, 4
	drum_note 4, 2
	drum_note 4, 2
	drum_note 4, 4
	drum_note 4, 4
	drum_note 4, 2
	drum_note 4, 2
	drum_note 4, 4
	drum_note 4, 4
	drum_note 4, 2
	drum_note 4, 2
	drum_note 12, 16
	drum_speed $A
	rest 16
	drum_speed $8
	drum_note 2, 2
	drum_note 2, 2
	drum_note 2, 2
	drum_note 2, 2
	drum_note 2, 2
	drum_note 2, 2
	drum_note 4, 4
	drum_note 4, 2
	drum_note 2, 4
	drum_note 4, 2
	drum_note 4, 4
	drum_note 4, 2
	drum_note 2, 4
	drum_note 4, 2
	drum_note 4, 4
	drum_note 4, 2
	drum_note 2, 4
	drum_note 4, 2
	drum_note 4, 4
	drum_note 4, 2
	drum_note 2, 4
	drum_note 4, 2
	drum_note 4, 4
	drum_note 4, 2
	drum_note 2, 4
	drum_note 4, 2
	drum_note 4, 4
	drum_note 4, 2
	drum_note 2, 4
	drum_note 4, 2
	drum_note 4, 4
	drum_note 4, 2
	drum_note 2, 4
	drum_note 4, 2
	drum_note 4, 4
	drum_note 4, 2
	drum_note 2, 4
	drum_note 2, 2
	drum_note 4, 4
	drum_note 4, 2
	drum_note 2, 4
	drum_note 4, 2
	drum_note 4, 4
	drum_note 4, 2
	drum_note 2, 4
	drum_note 4, 2
	drum_note 4, 4
	drum_note 4, 2
	drum_note 2, 4
	drum_note 4, 2
	drum_note 4, 4
	drum_note 4, 2
	drum_note 2, 4
	drum_note 4, 2
	drum_note 4, 4
	drum_note 4, 2
	drum_note 2, 4
	drum_note 4, 2
	drum_note 4, 4
	drum_note 4, 2
	drum_note 2, 4
	drum_note 4, 2
	drum_note 4, 4
	drum_note 4, 2
	drum_note 2, 4
	drum_note 4, 2
	drum_note 4, 6
	drum_note 2, 2
	drum_note 2, 2
	drum_note 2, 2
	drum_note 4, 4
	drum_note 4, 2
	drum_note 2, 4
	drum_note 4, 2
	drum_note 4, 4
	drum_note 4, 2
	drum_note 2, 4
	drum_note 4, 2
	drum_note 4, 4
	drum_note 4, 2
	drum_note 2, 4
	drum_note 4, 2
	drum_note 4, 4
	drum_note 4, 2
	drum_note 2, 4
	drum_note 4, 2
	drum_note 4, 4
	drum_note 4, 2
	drum_note 2, 4
	drum_note 4, 2
	drum_note 4, 4
	drum_note 4, 2
	drum_note 2, 4
	drum_note 4, 2
	drum_note 4, 4
	drum_note 4, 2
	drum_note 2, 4
	drum_note 4, 2
	drum_note 4, 4
	drum_note 4, 2
	drum_note 2, 4
	drum_note 4, 2
	drum_note 4, 4
	drum_note 4, 2
	drum_note 2, 4
	drum_note 4, 2
	drum_note 4, 4
	drum_note 4, 2
	drum_note 2, 4
	drum_note 4, 2
	drum_note 4, 4
	drum_note 4, 2
	drum_note 2, 4
	drum_note 4, 2
	drum_note 4, 4
	drum_note 4, 2
	drum_note 2, 4
	drum_note 4, 2
	drum_note 4, 4
	drum_note 4, 2
	drum_note 2, 4
	drum_note 4, 2
	drum_note 2, 4
	drum_note 4, 2
	drum_note 2, 4
	drum_note 4, 2
	drum_note 4, 4
	drum_note 2, 2
	drum_note 4, 4
	drum_note 4, 2
	drum_note 4, 4
	drum_note 4, 2
	drum_note 2, 4
	drum_note 2, 2
	sound_loop 0, Music_CyrusBattle_Ch4_loop
