Music_DialgaBattle:
	channel_count 4
	channel 1, Music_DialgaBattle_Ch1
	channel 2, Music_DialgaBattle_Ch2
	channel 3, Music_DialgaBattle_Ch3
	channel 4, Music_DialgaBattle_Ch4

Music_DialgaBattle_Ch1:
	tempo $68
	volume $7, $7
	stereo_panning TRUE, TRUE
	duty_cycle 3
	pitch_offset $0002
	octave 3
	note_type $C, $6, 8
	note C_, 16
	note C_, 16
	note C_, 16
	note C_, 16
	note C_, 16
	note C_, 16
	note C#, 16
	note C#, 16
	note C#, 16
	note C#, 16
	volume_envelope $B, 7
	note F_, 16
	octave 2
	note G#, 16
Music_DialgaBattle_Ch1_loop:
	octave 2
	note C_, 4
	note C#, 4
	note C_, 4
	note G_, 4
	note F#, 4
	note D_, 8
	note C#, 4
	note G_, 4
	note G#, 4
	note G_, 4
	octave 3
	note C#, 4
	note C_, 4
	octave 2
	note A_, 8
	note G#, 4
	rest 16
	rest 16
	octave 4
	note C_, 4
	note C#, 4
	note C_, 4
	note F#, 4
	note F_, 4
	note E_, 8
	note D#, 4
	duty_cycle 0
	volume_envelope $B, 1
	octave 5
	note C_, 2
	octave 4
	note G_, 2
	note E_, 2
	note G_, 2
	octave 5
	note C_, 2
	octave 4
	note G_, 2
	note E_, 2
	note G_, 2
	note E_, 2
	note G_, 2
	octave 5
	note C_, 2
	octave 4
	note G_, 2
	octave 5
	note C_, 2
	octave 4
	note G_, 2
	note E_, 2
	note G_, 2
	octave 5
	note C_, 2
	octave 4
	note G_, 2
	note E_, 2
	note G_, 2
	octave 5
	note C_, 2
	octave 4
	note G_, 2
	note E_, 2
	note G_, 2
	note E_, 2
	note G_, 2
	octave 5
	note C_, 2
	octave 4
	note G_, 2
	octave 5
	note C_, 2
	octave 4
	note G_, 2
	note E_, 2
	note G_, 2
	duty_cycle 3
	volume_envelope $B, 5
	octave 2
	note G#, 4
	note G_, 4
	note F_, 6
	note E_, 2
	note F_, 4
	note G_, 4
	note G#, 2
	note A#, 2
	octave 3
	note C#, 2
	octave 2
	note A#, 2
	volume_envelope $A, 8
	octave 3
	note C_, 16
	volume_envelope $B, 7
	note C_, 16
	volume_envelope $B, 5
	octave 2
	note F_, 4
	note G_, 4
	note F_, 6
	note E_, 2
	note F_, 2
	note G_, 2
	note A#, 2
	octave 3
	note C#, 2
	octave 2
	note G#, 2
	note A#, 2
	octave 3
	note C#, 2
	note F_, 2
	volume_envelope $A, 8
	note E_, 16
	volume_envelope $B, 7
	octave 4
	note C_, 16
	octave 2
	note E_, 16
	note F_, 16
	note E_, 16
	note D#, 16
	octave 3
	note G_, 4
	note G#, 4
	octave 4
	note C#, 8
	note C_, 4
	octave 3
	note A_, 4
	note A_, 4
	octave 4
	note C_, 4
	octave 3
	note G#, 16
	note G_, 16
	octave 2
	note G_, 4
	note G#, 4
	octave 3
	note C#, 8
	note C_, 4
	octave 2
	note A_, 4
	note A_, 4
	octave 3
	note C_, 4
	note C#, 8
	octave 2
	note C#, 2
	note F_, 2
	note G#, 2
	octave 3
	note C#, 2
	note D_, 8
	octave 2
	note C_, 2
	note G_, 2
	note B_, 2
	octave 3
	note D_, 2
	volume_envelope $6, 8
	note E_, 16
	note E_, 16
	note E_, 16
	note E_, 15
	note_type $B, $6, 7
	note E_, 1
	rest 16
	rest 16
	rest 16
	rest 16
	rest 16
	rest 16
	note_type $1, $6, 7
	rest 1
	note_type $B, $6, 7
	octave 4
	note_type $C, $B, 1
	note C_, 2
	octave 3
	note G_, 2
	note E_, 2
	note G_, 2
	octave 4
	note C_, 2
	octave 3
	note G_, 2
	note E_, 2
	note G_, 2
	octave 4
	note C_, 2
	octave 3
	note G_, 2
	note E_, 2
	note G_, 2
	octave 4
	note C_, 2
	octave 3
	note G_, 2
	note E_, 2
	note G_, 2
	octave 4
	note C_, 2
	octave 3
	note G_, 2
	note E_, 2
	note G_, 2
	note G#, 2
	note D#, 2
	note C_, 2
	note D#, 2
	note G#, 2
	note D#, 2
	note C_, 2
	note D#, 2
	note G#, 2
	note D#, 2
	note C_, 2
	note D#, 2
	note G#, 2
	note D#, 2
	note C_, 2
	note D#, 2
	note G#, 2
	note D#, 2
	note C_, 2
	note D#, 2
	octave 4
	note C_, 2
	octave 3
	note G_, 2
	note E_, 2
	note G_, 2
	octave 4
	note C_, 2
	octave 3
	note G_, 2
	note E_, 2
	note G_, 2
	octave 4
	note C_, 2
	octave 3
	note G_, 2
	note E_, 2
	note G_, 2
	octave 4
	note C_, 2
	octave 3
	note G_, 2
	note E_, 2
	note G_, 2
	octave 4
	note C_, 2
	octave 3
	note G_, 2
	note E_, 2
	note G_, 2
	note G#, 2
	note D#, 2
	note C_, 2
	note D#, 2
	note G#, 2
	note D#, 2
	note C_, 2
	note D#, 2
	note G#, 2
	note D#, 2
	note C_, 2
	note D#, 2
	note G#, 2
	note D#, 2
	note C_, 2
	note D#, 2
	note G#, 2
	note D#, 2
	note C_, 2
	note D#, 2
	octave 4
	note C_, 2
	octave 3
	note G_, 2
	note E_, 2
	note G_, 2
	octave 4
	note C_, 2
	octave 3
	note G_, 2
	note E_, 2
	note G_, 2
	octave 4
	note C_, 2
	octave 3
	note G_, 2
	note E_, 2
	note G_, 2
	octave 4
	note C_, 2
	octave 3
	note G_, 2
	note E_, 2
	note G_, 2
	octave 4
	note C_, 2
	octave 3
	note G_, 2
	note E_, 2
	note G_, 2
	note G#, 2
	note D#, 2
	note C_, 2
	note D#, 2
	note G#, 2
	note D#, 2
	note C_, 2
	note D#, 2
	note G#, 2
	note D#, 2
	note C_, 2
	note D#, 2
	note G#, 2
	note D#, 2
	note C_, 2
	note D#, 2
	note G#, 2
	note D#, 2
	note C_, 2
	note D#, 2
	volume_envelope $6, 8
	octave 2
	note G#, 16
	rest 12
	note E_, 16
	rest 12
	note F#, 16
	rest 12
	note A_, 16
	note F#, 2
	note E_, 2
	note F#, 4
	note G_, 4
	volume_envelope $A, 8
	note G#, 16
	volume_envelope $B, 7
	note G#, 16
	rest 16
	rest 16
	rest 16
	rest 16
	volume_envelope $B, 3
	octave 3
	note B_, 2
	note F#, 2
	note D#, 2
	note F#, 2
	note D#, 2
	note F#, 2
	note B_, 2
	note F#, 2
	note B_, 2
	note F#, 2
	note D#, 2
	note F#, 2
	note D#, 2
	note F#, 2
	note B_, 2
	note F#, 2
	octave 4
	note C#, 2
	octave 3
	note G#, 2
	note F_, 2
	note G#, 2
	note F_, 2
	note G#, 2
	octave 4
	note C#, 2
	octave 3
	note G#, 2
	octave 4
	note C#, 2
	octave 3
	note G#, 2
	note F_, 2
	note G#, 2
	note F_, 2
	note G#, 2
	octave 4
	note C#, 2
	octave 3
	note G#, 2
	octave 4
	note C#, 2
	octave 3
	note G#, 2
	note F_, 2
	note G#, 2
	note F_, 2
	note G#, 2
	octave 4
	note C#, 2
	octave 3
	note G#, 2
	octave 4
	note C#, 2
	octave 3
	note G#, 2
	note F_, 2
	note G#, 2
	note F_, 2
	note G#, 2
	octave 4
	note C#, 2
	octave 3
	note G#, 2
	duty_cycle 0
	octave 4
	note_type $8, $8, 1
	note C#, 1
	note D#, 1
	note F_, 1
	note F#, 1
	note G#, 1
	note A#, 1
	octave 5
	note C_, 1
	note C#, 1
	note D#, 1
	note F_, 1
	note F#, 1
	note G#, 1
	note A#, 1
	note G#, 1
	note F#, 1
	note G#, 1
	note F#, 1
	note F_, 1
	note F#, 1
	note F_, 1
	note D#, 1
	note C#, 1
	note C_, 1
	octave 4
	note A#, 1
	note G#, 1
	note F#, 1
	note F_, 1
	note D#, 1
	note C#, 1
	note C_, 1
	note C#, 1
	note F_, 1
	note F#, 1
	note F_, 1
	note D#, 1
	note C#, 1
	note C_, 1
	octave 3
	note A#, 1
	octave 4
	note C_, 1
	note C#, 1
	note D#, 1
	note F_, 1
	note F#, 1
	note G#, 1
	note A#, 1
	octave 5
	note C_, 1
	note C#, 1
	octave 4
	note G#, 1
	octave 5
	note F_, 1
	note F#, 1
	note F_, 1
	note D#, 1
	note C#, 1
	note D#, 1
	note C#, 1
	note C_, 1
	octave 4
	note A#, 1
	note G#, 1
	note F#, 1
	note F_, 1
	note D#, 1
	note C#, 1
	note C_, 1
	note C#, 1
	note D#, 1
	note F_, 1
	note F#, 1
	note G#, 1
	note F#, 1
	note F_, 1
	note D#, 1
	note C#, 1
	octave 5
	note A#, 1
	note G#, 1
	note F#, 1
	note F_, 1
	note D#, 1
	note C#, 1
	note F_, 1
	note D#, 1
	note C#, 1
	note C_, 1
	octave 4
	note A#, 1
	note G#, 1
	octave 5
	note C#, 1
	note C_, 1
	octave 4
	note A#, 1
	note G#, 1
	note F#, 1
	note F_, 1
	note G#, 1
	note F#, 1
	note F_, 1
	note D#, 1
	note C#, 1
	note D#, 1
	octave 5
	note A#, 1
	octave 6
	note C_, 1
	octave 5
	note A#, 1
	note G#, 1
	note A#, 1
	note G#, 1
	note F#, 1
	note G#, 1
	note F#, 1
	note F_, 1
	note F#, 1
	note F_, 1
	note D#, 1
	note C#, 1
	note C_, 1
	note C#, 2
	note F_, 1
	note F#, 1
	note F_, 1
	note D#, 1
	note C#, 1
	note C_, 1
	note C#, 1
	note F_, 1
	note D#, 1
	note C#, 1
	note C_, 1
	octave 4
	note G#, 1
	note A#, 1
	octave 5
	note C_, 1
	note C#, 1
	note D#, 1
	note F_, 1
	note F#, 1
	note G#, 1
	note A#, 1
	octave 6
	note C_, 1
	octave 5
	note A#, 1
	note G#, 1
	note F#, 1
	note F_, 1
	note D#, 1
	note C#, 1
	note C_, 1
	note C#, 1
	octave 4
	note A#, 1
	note G#, 1
	note F#, 1
	note F_, 1
	note D#, 1
	note C#, 1
	note D#, 1
	note F_, 1
	note F#, 1
	note F_, 1
	note F#, 1
	note G#, 1
	note A#, 1
	note G#, 1
	note A#, 1
	octave 5
	note C_, 1
	note C#, 1
	note C_, 1
	note C#, 1
	note D#, 1
	note F_, 1
	note D#, 1
	note F_, 1
	note F#, 1
	note G#, 1
	note A#, 1
	octave 6
	note C_, 1
	octave 5
	note A#, 1
	note G#, 1
	note F#, 1
	note F_, 1
	note D#, 1
	note C#, 1
	note D#, 1
	note C#, 1
	note C_, 1
	octave 4
	note A#, 1
	note G#, 1
	note F#, 1
	note G#, 1
	note F#, 1
	note F_, 1
	note D#, 1
	note C#, 1
	note C_, 1
	note C#, 1
	note C_, 1
	octave 3
	note A#, 1
	note G#, 1
	note_type $C, $8, 1
	note F_, 1
	rest 16
	rest 15
	note_type $1, $8, 1
	rest 8
	note_type $C, $8, 1
	duty_cycle 3
	volume_envelope $B, 5
	note G_, 4
	note G#, 4
	note G_, 4
	octave 4
	note C#, 4
	note C_, 4
	octave 3
	note A_, 8
	note G#, 12
	rest 16
	rest 8
	octave 4
	note C_, 4
	note C#, 4
	note C_, 4
	note F#, 4
	note F_, 4
	note E_, 8
	note D#, 4
	volume_envelope $B, 3
	note C_, 2
	octave 3
	note G_, 2
	note E_, 2
	note G_, 2
	octave 4
	note C_, 2
	octave 3
	note G_, 2
	note E_, 2
	note G_, 2
	note E_, 2
	note G_, 2
	octave 4
	note C_, 2
	octave 3
	note G_, 2
	octave 4
	note C_, 2
	octave 3
	note G_, 2
	note E_, 2
	note G_, 2
	octave 4
	note C_, 2
	octave 3
	note G_, 2
	note E_, 2
	note G_, 2
	octave 2
	note G_, 2
	octave 3
	note C_, 2
	note E_, 2
	note G_, 2
	octave 2
	note E_, 2
	note G_, 2
	octave 3
	note C_, 2
	note E_, 2
	note G_, 2
	octave 4
	note C_, 2
	note G_, 2
	octave 3
	note G_, 2
	octave 4
	note A#, 2
	note F_, 2
	octave 5
	note D_, 2
	octave 4
	note A#, 2
	note F_, 2
	note A#, 2
	note F_, 2
	octave 5
	note D_, 2
	octave 4
	note A#, 2
	octave 5
	note D_, 2
	octave 4
	note A#, 2
	note F_, 2
	note D_, 2
	note F_, 2
	note A#, 2
	octave 5
	note D_, 2
	note C_, 2
	octave 4
	note G_, 2
	octave 5
	note C_, 2
	octave 4
	note G_, 2
	octave 5
	note C_, 2
	octave 4
	note G_, 2
	octave 5
	note C_, 2
	octave 4
	note G_, 2
	octave 5
	note C_, 2
	octave 4
	note G_, 2
	note E_, 2
	note G_, 2
	note E_, 2
	note G_, 2
	octave 5
	note C_, 2
	octave 4
	note G_, 2
	note A#, 2
	note F_, 2
	note D_, 2
	note F_, 2
	note D_, 2
	note F_, 2
	note A#, 2
	note F_, 2
	note A#, 2
	note F_, 2
	note D_, 2
	note F_, 2
	note D_, 2
	note F_, 2
	note A#, 2
	note F_, 2
	octave 5
	note C_, 2
	octave 4
	note G_, 2
	note E_, 2
	note G_, 2
	note E_, 2
	note G_, 2
	octave 5
	note C_, 2
	octave 3
	note B_, 2
	volume_envelope $B, 7
	octave 4
	note C_, 16
	sound_loop 0, Music_DialgaBattle_Ch1_loop

Music_DialgaBattle_Ch2:
	duty_cycle 2
	pitch_offset $0001
	vibrato $12, $2, $4
	octave 5
	note_type $C, $C, 1
	note C_, 2
	octave 4
	note G_, 2
	note E_, 2
	note G_, 2
	octave 5
	note C_, 2
	octave 4
	note G_, 2
	note E_, 2
	note G_, 2
	note E_, 2
	note G_, 2
	octave 5
	note C_, 2
	octave 4
	note G_, 2
	octave 5
	note C_, 2
	octave 4
	note G_, 2
	note E_, 2
	note G_, 2
	octave 5
	note C_, 2
	octave 4
	note G_, 2
	note E_, 2
	note G_, 2
	octave 5
	note C_, 2
	octave 4
	note G_, 2
	note E_, 2
	note G_, 2
	note E_, 2
	note G_, 2
	octave 5
	note C_, 2
	octave 4
	note G_, 2
	octave 5
	note C_, 2
	octave 4
	note G_, 2
	note E_, 2
	note G_, 2
	octave 5
	note C_, 2
	octave 4
	note G_, 2
	note E_, 2
	note G_, 2
	octave 5
	note C_, 2
	octave 4
	note G_, 2
	note E_, 2
	note G_, 2
	note E_, 2
	note G_, 2
	octave 5
	note C_, 2
	octave 4
	note G_, 2
	octave 5
	note C_, 2
	octave 4
	note G_, 2
	note E_, 2
	note G_, 2
	octave 5
	note C#, 2
	octave 4
	note G#, 2
	note F_, 2
	note G#, 2
	note F_, 2
	note G#, 2
	octave 5
	note C#, 2
	octave 4
	note G#, 2
	octave 5
	note C#, 2
	octave 4
	note G#, 2
	note F_, 2
	note G#, 2
	note F_, 2
	note G#, 2
	octave 5
	note C#, 2
	octave 4
	note G#, 2
	octave 5
	note C#, 2
	octave 4
	note G#, 2
	note F_, 2
	note G#, 2
	note F_, 2
	note G#, 2
	octave 5
	note C#, 2
	octave 4
	note G#, 2
	octave 5
	note C#, 2
	octave 4
	note G#, 2
	note F_, 2
	note G#, 2
	note F_, 2
	note G#, 2
	octave 5
	note C#, 2
	octave 4
	note G#, 2
	duty_cycle 3
	volume_envelope $C, 7
	octave 3
	note G#, 16
	note C#, 16
Music_DialgaBattle_Ch2_loop:
	volume_envelope $C, 5
	octave 2
	note G_, 4
	note G#, 4
	note G_, 4
	octave 3
	note C#, 4
	note C_, 4
	octave 2
	note A_, 8
	note G#, 4
	note A#, 14
	note A_, 1
	note G#, 1
	note G_, 16
	octave 3
	note G_, 4
	note G#, 4
	note G_, 4
	octave 4
	note C#, 4
	note C_, 4
	octave 3
	note A_, 8
	note G#, 4
	volume_envelope $C, 7
	note A#, 16
	note B_, 16
	volume_envelope $B, 8
	octave 4
	note C_, 16
	note C_, 8
	volume_envelope $C, 7
	note C_, 8
	volume_envelope $B, 8
	octave 3
	note C_, 16
	note C_, 8
	volume_envelope $C, 7
	note C_, 8
	note C#, 4
	note D#, 4
	note F_, 6
	note G_, 2
	note G#, 4
	note A#, 4
	octave 4
	note C#, 2
	octave 3
	note A#, 2
	note A#, 2
	note G#, 2
	note G_, 16
	note E_, 16
	note C#, 10
	note D#, 2
	note F_, 2
	note G_, 2
	note G#, 4
	note A#, 4
	octave 4
	note C#, 2
	octave 3
	note A#, 2
	note A#, 2
	octave 4
	note C#, 4
	duty_cycle 2
	volume_envelope $C, 3
	octave 5
	note C_, 6
	note E_, 8
	note C_, 6
	note E_, 10
	rest 2
	note C_, 6
	note E_, 8
	note C#, 6
	note F_, 10
	rest 2
	note C_, 6
	note E_, 8
	octave 4
	note B_, 6
	octave 5
	note D#, 10
	duty_cycle 3
	octave 4
	note C_, 4
	note C#, 4
	note F#, 8
	note F_, 4
	note D_, 4
	note D_, 4
	note F_, 4
	note C#, 16
	note C_, 16
	octave 3
	note C_, 4
	note C#, 4
	note F#, 8
	note F_, 4
	note D_, 4
	note D_, 4
	note F_, 4
	note F#, 16
	note G_, 16
	duty_cycle 0
	volume_envelope $C, 1
	octave 6
	note C_, 2
	octave 5
	note G_, 2
	note E_, 2
	note G_, 2
	octave 6
	note C_, 4
	rest 4
	note C_, 2
	octave 5
	note G_, 2
	note E_, 2
	note G_, 2
	octave 6
	note C_, 4
	rest 4
	note C_, 2
	octave 5
	note G_, 2
	note E_, 2
	note G_, 2
	octave 6
	note C_, 4
	rest 4
	note C_, 2
	octave 5
	note G_, 2
	note E_, 2
	note G_, 4
	rest 14
	volume_envelope $8, 2
	octave 2
	note C_, 2
	note C#, 2
	octave 1
	note A#, 2
	octave 2
	note C#, 2
	note C_, 4
	note C_, 2
	note C#, 2
	octave 1
	note A#, 2
	octave 2
	note C#, 2
	note C_, 4
	note C_, 2
	note C#, 2
	note D#, 2
	note F_, 2
	note D#, 2
	note C#, 2
	note C_, 2
	octave 1
	note A#, 2
	note G#, 2
	note A_, 2
	note F#, 2
	note A_, 2
	note G#, 4
	note G#, 2
	note A_, 2
	note F#, 2
	note A_, 2
	note G#, 4
	note G#, 2
	note A_, 2
	note B_, 2
	octave 2
	note C#, 2
	octave 1
	note B_, 2
	note A_, 2
	note A_, 2
	note B_, 2
	volume_envelope $A, 2
	octave 2
	note C_, 2
	note C#, 2
	octave 1
	note A#, 2
	octave 2
	note C#, 2
	note C_, 4
	note C_, 2
	note C#, 2
	octave 1
	note A#, 2
	octave 2
	note C#, 2
	note C_, 4
	note C_, 2
	note C#, 2
	note D#, 2
	note F_, 2
	note D#, 2
	note C#, 2
	note C_, 2
	octave 1
	note A#, 2
	note G#, 2
	note A_, 2
	note F#, 2
	note A_, 2
	note G#, 4
	note G#, 2
	note A_, 2
	note F#, 2
	note A_, 2
	note G#, 4
	note G#, 2
	note A_, 2
	note B_, 2
	octave 2
	note C#, 2
	octave 1
	note B_, 2
	note A_, 2
	note A_, 2
	note B_, 2
	duty_cycle 1
	volume_envelope $C, 3
	octave 4
	note C_, 2
	note C#, 2
	octave 3
	note A#, 2
	octave 4
	note C#, 2
	note C_, 4
	note C_, 2
	note C#, 2
	octave 3
	note A#, 2
	octave 4
	note C#, 2
	note C_, 4
	note C_, 2
	note C#, 2
	note D#, 2
	note F_, 2
	note D#, 2
	note C#, 2
	note C_, 2
	octave 3
	note A#, 2
	note G#, 2
	note A_, 2
	note F#, 2
	note A_, 2
	note G#, 4
	note G#, 2
	note A_, 2
	note F#, 2
	note A_, 2
	note G#, 4
	note G#, 2
	note A_, 2
	note B_, 2
	octave 4
	note C#, 2
	octave 3
	note B_, 2
	note A_, 2
	note A_, 2
	note B_, 2
	octave 4
	note C_, 2
	note C#, 2
	octave 3
	note A#, 2
	octave 4
	note C#, 2
	note C_, 4
	octave 5
	note C_, 2
	note C#, 2
	octave 4
	note A#, 2
	octave 5
	note C#, 2
	note C_, 4
	octave 4
	note C_, 2
	note C#, 2
	note D#, 2
	note F_, 2
	note D#, 2
	note C#, 2
	note C_, 2
	octave 3
	note A#, 2
	note G#, 2
	note A_, 2
	note F#, 2
	note A_, 2
	note G#, 4
	octave 4
	note G#, 2
	note A_, 2
	note F#, 2
	note A_, 2
	note G#, 4
	octave 3
	note G#, 2
	note A_, 2
	note B_, 2
	octave 4
	note C#, 2
	octave 3
	note B_, 2
	note A_, 2
	note A_, 2
	note B_, 2
	volume_envelope $C, 7
	note C#, 6
	note G#, 6
	note G_, 4
	note D#, 4
	note E_, 4
	note C#, 4
	octave 2
	note A_, 6
	octave 3
	note E_, 6
	note D#, 4
	octave 2
	note B_, 4
	octave 3
	note C_, 4
	octave 2
	note A_, 4
	note B_, 6
	octave 3
	note F#, 6
	note F_, 4
	note C#, 4
	note D_, 4
	octave 2
	note B_, 4
	octave 3
	note D_, 6
	note A_, 6
	note G#, 4
	note E_, 4
	note F#, 4
	note D_, 4
	duty_cycle 3
	volume_envelope $B, 3
	note G#, 2
	note D#, 2
	note C_, 2
	note D#, 2
	note G#, 2
	note D#, 2
	note C_, 2
	note D#, 2
	note C_, 2
	note D#, 2
	note G#, 2
	note D#, 2
	note G#, 2
	note D#, 2
	note C_, 2
	note D#, 2
	note G#, 2
	note D#, 2
	note C_, 2
	note D#, 2
	note G#, 2
	note D#, 2
	note C_, 2
	note D#, 2
	note C_, 2
	note D#, 2
	note G#, 2
	note D#, 2
	note G#, 2
	note D#, 2
	note C_, 2
	note D#, 2
	note A_, 2
	note E_, 2
	note C#, 2
	note E_, 2
	note C#, 2
	note E_, 2
	note A_, 2
	note E_, 2
	note A_, 2
	note E_, 2
	note C#, 2
	note E_, 2
	note C#, 2
	note E_, 2
	note A_, 2
	note E_, 2
	duty_cycle 2
	volume_envelope $C, 1
	octave 4
	note B_, 2
	note F#, 2
	note D#, 2
	note F#, 2
	note D#, 2
	note F#, 2
	note B_, 2
	note F#, 2
	note B_, 2
	note F#, 2
	note D#, 2
	note F#, 2
	note D#, 2
	note F#, 2
	note B_, 2
	note F#, 2
	octave 5
	note C#, 2
	octave 4
	note G#, 2
	note F_, 2
	note G#, 2
	note F_, 2
	note G#, 2
	octave 5
	note C#, 2
	octave 4
	note G#, 2
	octave 5
	note C#, 2
	octave 4
	note G#, 2
	note F_, 2
	note G#, 2
	note F_, 2
	note G#, 2
	octave 5
	note C#, 2
	octave 4
	note G#, 2
	octave 5
	note C#, 2
	octave 4
	note G#, 2
	note F_, 2
	note G#, 2
	note F_, 2
	note G#, 2
	octave 5
	note C#, 2
	octave 4
	note G#, 2
	octave 5
	note C#, 2
	octave 4
	note G#, 2
	note F_, 2
	note G#, 2
	note F_, 2
	note G#, 2
	octave 5
	note C#, 2
	octave 4
	note G#, 4
	duty_cycle 3
	volume_envelope $C, 7
	octave 5
	note C#, 6
	note F#, 8
	note C#, 6
	note F_, 12
	note C#, 6
	note D#, 8
	note C#, 6
	note F_, 12
	note C#, 6
	note F#, 8
	note C#, 6
	note F_, 12
	note C#, 6
	note D#, 8
	note C#, 6
	note F_, 10
	octave 2
	note G_, 4
	note G#, 4
	note G_, 4
	octave 3
	note C#, 4
	note C_, 4
	octave 2
	note A_, 8
	note G#, 4
	note A#, 14
	note A_, 1
	note G#, 1
	note G_, 16
	octave 3
	note G_, 4
	note G#, 4
	note G_, 4
	octave 4
	note C#, 4
	note C_, 4
	octave 3
	note A_, 8
	note G#, 4
	note A#, 16
	note B_, 16
	volume_envelope $B, 8
	octave 4
	note C_, 16
	volume_envelope $C, 7
	note C_, 14
	note D#, 2
	volume_envelope $B, 8
	note E_, 16
	volume_envelope $C, 7
	note E_, 12
	volume_envelope $C, 3
	note G_, 4
	octave 2
	note A#, 4
	note F_, 4
	octave 3
	note D_, 4
	octave 2
	note A#, 4
	octave 3
	note F_, 4
	note D_, 4
	note A#, 4
	note F_, 4
	volume_envelope $C, 7
	note E_, 16
	note C_, 16
	volume_envelope $C, 3
	octave 2
	note F_, 4
	note D_, 4
	note A#, 4
	note F_, 4
	octave 3
	note D_, 4
	octave 2
	note A#, 4
	octave 3
	note F_, 4
	note D_, 4
	volume_envelope $C, 7
	note E_, 14
	note D#, 2
	note E_, 16
	sound_loop 0, Music_DialgaBattle_Ch2_loop

Music_DialgaBattle_Ch3:
	volume_envelope $1, $6
	octave 2
	note_type $C, $1, $6
	note C_, 2
	note E_, 2
	note C_, 2
	note E_, 2
	note C_, 2
	note E_, 2
	note C_, 2
	note E_, 2
	note C_, 2
	note E_, 2
	note C_, 2
	note E_, 2
	note C_, 2
	note E_, 2
	note C_, 2
	note E_, 2
	note C_, 2
	note E_, 2
	note C_, 2
	note E_, 2
	note C_, 2
	note E_, 2
	note C_, 2
	note E_, 2
	note C_, 2
	note E_, 2
	note C_, 2
	note E_, 2
	note C_, 2
	note E_, 2
	note C_, 2
	note E_, 2
	note C_, 2
	note E_, 2
	note C_, 2
	note E_, 2
	note C_, 2
	note E_, 2
	note C_, 2
	note E_, 2
	note C_, 2
	note E_, 2
	note C_, 2
	note E_, 2
	note C_, 2
	note E_, 2
	note C_, 2
	note E_, 2
	octave 1
	note A#, 2
	octave 2
	note D#, 2
	octave 1
	note A#, 2
	octave 2
	note D#, 2
	octave 1
	note A#, 2
	octave 2
	note D#, 2
	octave 1
	note A#, 2
	octave 2
	note D#, 2
	octave 1
	note A#, 2
	octave 2
	note D#, 2
	octave 1
	note A#, 2
	octave 2
	note D#, 2
	octave 1
	note A#, 2
	octave 2
	note D#, 2
	octave 1
	note A#, 2
	octave 2
	note D#, 2
	note C#, 2
	note F_, 2
	note C#, 2
	note F_, 2
	note C#, 2
	note F_, 2
	note C#, 2
	note F_, 2
	note C#, 2
	note F_, 2
	note C#, 2
	note F_, 2
	note C#, 2
	note F_, 2
	note C#, 2
	note F_, 2
	note C#, 2
	note F_, 2
	note C#, 2
	note F_, 2
	note C#, 2
	note F_, 2
	note C#, 2
	note F_, 2
	note C#, 2
	note F_, 2
	note C#, 2
	note F_, 2
	note G#, 2
	note F_, 2
	note E_, 2
	note C#, 2
Music_DialgaBattle_Ch3_loop:
	note C_, 2
	note E_, 2
	note C_, 2
	note E_, 2
	note C_, 2
	note E_, 2
	note C_, 2
	note E_, 2
	note C_, 2
	note E_, 2
	note C_, 2
	note E_, 2
	note C_, 2
	note E_, 2
	note C_, 2
	note E_, 2
	note C_, 2
	note E_, 2
	note C_, 2
	note E_, 2
	note C_, 2
	note E_, 2
	note C_, 2
	note E_, 2
	note C_, 2
	note E_, 2
	note C_, 2
	note E_, 2
	note C_, 2
	note E_, 2
	note C_, 2
	note E_, 2
	note C_, 2
	note E_, 2
	note C_, 2
	note E_, 2
	note C_, 2
	note E_, 2
	note C_, 2
	note E_, 2
	note C_, 2
	note E_, 2
	note C_, 2
	note E_, 2
	note C_, 2
	note E_, 2
	note C_, 2
	note E_, 2
	note C_, 2
	note E_, 2
	note C_, 2
	note E_, 2
	note C_, 2
	note E_, 2
	note C_, 2
	note E_, 2
	note C_, 2
	note E_, 2
	note C_, 2
	note E_, 2
	note C_, 2
	note E_, 2
	note C_, 2
	note E_, 2
	note C_, 2
	note E_, 2
	note C_, 2
	note E_, 2
	note C_, 2
	note E_, 2
	note C_, 2
	note E_, 2
	note C_, 2
	note E_, 2
	note C_, 2
	note E_, 2
	note C_, 2
	note E_, 2
	note C_, 2
	note E_, 2
	note C_, 2
	note E_, 2
	note C_, 2
	note E_, 2
	note C_, 2
	note E_, 2
	note C_, 2
	note E_, 2
	note C_, 2
	note E_, 2
	note C_, 2
	note E_, 2
	note C_, 2
	note E_, 2
	note C_, 2
	note E_, 2
	note C#, 2
	note F_, 2
	note C#, 2
	note F_, 2
	note C#, 2
	note F_, 2
	note C#, 2
	note F_, 2
	note C#, 2
	note F_, 2
	note C#, 2
	note F_, 2
	note C#, 2
	note F_, 2
	note C#, 2
	note F_, 2
	note C_, 2
	note E_, 2
	note C_, 2
	note E_, 2
	note C_, 2
	note E_, 2
	note C_, 2
	note E_, 2
	note C_, 2
	note E_, 2
	note C_, 2
	note E_, 2
	note C_, 2
	note E_, 2
	note C_, 2
	note E_, 2
	note C#, 2
	note F_, 2
	note C#, 2
	note F_, 2
	note C#, 2
	note F_, 2
	note C#, 2
	note F_, 2
	note C#, 2
	note F_, 2
	note C#, 2
	note F_, 2
	note C#, 2
	note F_, 2
	note C#, 2
	note F_, 2
	note C_, 2
	note E_, 2
	note C_, 2
	note E_, 2
	note C_, 2
	note E_, 2
	note C_, 2
	note E_, 2
	note C_, 2
	note E_, 2
	note C_, 2
	note E_, 2
	note C_, 2
	note E_, 2
	note C_, 2
	note E_, 2
	note C_, 2
	note E_, 2
	note C_, 2
	note E_, 2
	note C_, 2
	note E_, 2
	note C_, 2
	note E_, 2
	note C#, 2
	note F_, 2
	note C#, 2
	note F_, 2
	note C#, 2
	note F_, 2
	note C#, 2
	note F_, 2
	note C_, 2
	note E_, 2
	note C_, 2
	note E_, 2
	note C_, 2
	note E_, 2
	note C_, 2
	note E_, 2
	octave 1
	note B_, 2
	octave 2
	note D#, 2
	octave 1
	note B_, 2
	octave 2
	note D#, 2
	octave 1
	note B_, 2
	octave 2
	note D#, 2
	octave 1
	note B_, 2
	octave 2
	note D#, 2
	note C_, 2
	note E_, 2
	note C_, 2
	note E_, 2
	note C_, 2
	note E_, 2
	note C_, 2
	note E_, 2
	note C#, 2
	note F_, 2
	note C#, 2
	note F_, 2
	note C#, 2
	note F_, 2
	note C#, 2
	note F_, 2
	note C_, 2
	note E_, 2
	note C_, 2
	note E_, 2
	note C_, 2
	note E_, 2
	note C_, 2
	note E_, 2
	octave 1
	note B_, 2
	octave 2
	note D#, 2
	octave 1
	note B_, 2
	octave 2
	note D#, 2
	octave 1
	note B_, 2
	octave 2
	note D#, 2
	octave 1
	note B_, 2
	octave 2
	note D#, 2
	note C_, 2
	note E_, 2
	note C_, 2
	note E_, 2
	note C_, 2
	note E_, 2
	note C_, 2
	note E_, 2
	note C#, 2
	note F_, 2
	note C#, 2
	note F_, 2
	note C#, 2
	note F_, 2
	note C#, 2
	note F_, 2
	note C_, 2
	note E_, 2
	note C_, 2
	note E_, 2
	note C_, 2
	note E_, 2
	note C_, 2
	note E_, 2
	octave 1
	note B_, 2
	octave 2
	note D#, 2
	octave 1
	note B_, 2
	octave 2
	note D#, 2
	note C_, 2
	note E_, 2
	note G_, 2
	note B_, 2
	octave 3
	note C_, 2
	octave 2
	note G_, 2
	note E_, 2
	note G_, 2
	octave 3
	note C_, 2
	octave 2
	note G_, 2
	note E_, 2
	note G_, 2
	note E_, 2
	note G_, 2
	octave 3
	note C_, 2
	octave 2
	note G_, 2
	octave 3
	note C_, 2
	octave 2
	note G_, 2
	note E_, 2
	note G_, 2
	octave 3
	note C_, 2
	octave 2
	note G_, 2
	note E_, 2
	note G_, 2
	octave 3
	note C_, 2
	octave 2
	note G_, 2
	note E_, 2
	note G_, 2
	note E_, 2
	note G_, 2
	octave 3
	note C_, 2
	octave 2
	note G_, 2
	octave 3
	note F_, 2
	note D_, 2
	octave 2
	note B_, 2
	note G#, 2
	note F#, 2
	note F_, 2
	note D_, 2
	note C#, 2
	note C_, 2
	note C#, 2
	octave 1
	note A#, 2
	octave 2
	note C#, 2
	note C_, 4
	note C_, 2
	note C#, 2
	octave 1
	note A#, 2
	octave 2
	note C#, 2
	note C_, 4
	note C_, 2
	note C#, 2
	note D#, 2
	note F_, 2
	note D#, 2
	note C#, 2
	note C_, 2
	octave 1
	note A#, 2
	note G#, 2
	note A_, 2
	note F#, 2
	note A_, 2
	note G#, 4
	note G#, 2
	note A_, 2
	note F#, 2
	note A_, 2
	note G#, 4
	note G#, 2
	note A_, 2
	note B_, 2
	octave 2
	note C#, 2
	octave 1
	note B_, 2
	note A_, 2
	note A_, 2
	note B_, 2
	octave 2
	note C_, 2
	note C#, 2
	octave 1
	note A#, 2
	octave 2
	note C#, 2
	note C_, 4
	note C_, 2
	note C#, 2
	octave 1
	note A#, 2
	octave 2
	note C#, 2
	note C_, 4
	note C_, 2
	note C#, 2
	note D#, 2
	note F_, 2
	note D#, 2
	note C#, 2
	note C_, 2
	octave 1
	note A#, 2
	note G#, 2
	note A_, 2
	note F#, 2
	note A_, 2
	note G#, 4
	note G#, 2
	note A_, 2
	note F#, 2
	note A_, 2
	note G#, 4
	note G#, 2
	note A_, 2
	note B_, 2
	octave 2
	note C#, 2
	octave 1
	note B_, 2
	note A_, 2
	note A_, 2
	note B_, 2
	octave 2
	note C_, 2
	note C#, 2
	octave 1
	note A#, 2
	octave 2
	note C#, 2
	note C_, 4
	note C_, 2
	note C#, 2
	octave 1
	note A#, 2
	octave 2
	note C#, 2
	note C_, 4
	note C_, 2
	note C#, 2
	note D#, 2
	note F_, 2
	note D#, 2
	note C#, 2
	note C_, 2
	octave 1
	note A#, 2
	note G#, 2
	note A_, 2
	note F#, 2
	note A_, 2
	note G#, 4
	note G#, 2
	note A_, 2
	note F#, 2
	note A_, 2
	note G#, 4
	note G#, 2
	note A_, 2
	note B_, 2
	octave 2
	note C#, 2
	octave 1
	note B_, 2
	note A_, 2
	note A_, 2
	note B_, 2
	octave 2
	note C_, 2
	note C#, 2
	octave 1
	note A#, 2
	octave 2
	note C#, 2
	note C_, 4
	note C_, 2
	note C#, 2
	octave 1
	note A#, 2
	octave 2
	note C#, 2
	note C_, 4
	note C_, 2
	note C#, 2
	note D#, 2
	note F_, 2
	note D#, 2
	note C#, 2
	note C_, 2
	octave 1
	note A#, 2
	note G#, 2
	note A_, 2
	note F#, 2
	note A_, 2
	note G#, 4
	note G#, 2
	note A_, 2
	note F#, 2
	note A_, 2
	note G#, 4
	note G#, 2
	note A_, 2
	note B_, 2
	octave 2
	note C#, 2
	octave 1
	note B_, 2
	note A_, 2
	note A_, 2
	note B_, 2
	octave 2
	note C#, 2
	note G#, 2
	note C#, 2
	note G#, 2
	note C#, 4
	note G#, 2
	note C#, 2
	note C#, 2
	note G#, 2
	note C#, 2
	note G#, 2
	note C#, 2
	note G#, 2
	octave 1
	note A_, 2
	octave 2
	note E_, 2
	octave 1
	note A_, 2
	octave 2
	note E_, 2
	octave 1
	note A_, 4
	octave 2
	note E_, 2
	octave 1
	note A_, 2
	note A_, 2
	octave 2
	note E_, 2
	octave 1
	note A_, 2
	octave 2
	note E_, 2
	octave 1
	note A_, 2
	note B_, 2
	note B_, 2
	octave 2
	note F#, 2
	octave 1
	note B_, 2
	octave 2
	note F#, 2
	octave 1
	note B_, 4
	octave 2
	note F#, 2
	octave 1
	note B_, 2
	note B_, 2
	octave 2
	note F#, 2
	octave 1
	note B_, 2
	octave 2
	note F#, 2
	octave 1
	note B_, 2
	octave 2
	note F#, 2
	note D_, 2
	note A_, 2
	note D_, 2
	note A_, 2
	note D_, 4
	note A_, 2
	note D_, 2
	note D_, 2
	note A_, 2
	note F#, 2
	note D_, 2
	octave 1
	note A_, 2
	note B_, 2
	note G#, 2
	octave 2
	note C_, 2
	octave 1
	note G#, 2
	octave 2
	note C_, 2
	octave 1
	note G#, 2
	octave 2
	note C_, 2
	octave 1
	note G#, 2
	octave 2
	note C_, 2
	octave 1
	note G#, 2
	octave 2
	note C_, 2
	octave 1
	note G#, 2
	octave 2
	note C_, 2
	octave 1
	note G#, 2
	octave 2
	note C_, 2
	octave 1
	note G#, 2
	octave 2
	note C_, 2
	octave 1
	note G#, 2
	octave 2
	note C_, 2
	octave 1
	note G#, 2
	octave 2
	note C_, 2
	octave 1
	note G#, 2
	octave 2
	note C_, 2
	octave 1
	note G#, 2
	octave 2
	note C_, 2
	octave 1
	note G#, 2
	octave 2
	note C_, 2
	octave 1
	note G#, 2
	octave 2
	note C_, 2
	octave 1
	note G#, 2
	octave 2
	note C_, 2
	octave 1
	note G#, 2
	octave 2
	note C_, 2
	octave 1
	note A_, 2
	octave 2
	note C#, 2
	octave 1
	note A_, 2
	octave 2
	note C#, 2
	octave 1
	note A_, 2
	octave 2
	note C#, 2
	octave 1
	note A_, 2
	octave 2
	note C#, 2
	octave 1
	note A_, 2
	octave 2
	note C#, 2
	octave 1
	note A_, 2
	octave 2
	note C#, 2
	octave 1
	note A_, 2
	octave 2
	note C#, 2
	octave 1
	note A_, 2
	octave 2
	note C#, 2
	octave 1
	note B_, 2
	octave 2
	note D#, 2
	octave 1
	note B_, 2
	octave 2
	note D#, 2
	octave 1
	note B_, 2
	octave 2
	note D#, 2
	octave 1
	note B_, 2
	octave 2
	note D#, 2
	octave 1
	note B_, 2
	octave 2
	note D#, 2
	octave 1
	note B_, 2
	octave 2
	note D#, 2
	octave 1
	note B_, 2
	octave 2
	note D#, 2
	octave 1
	note B_, 2
	octave 2
	note D#, 2
	note C#, 2
	note F_, 2
	note C#, 2
	note F_, 2
	note C#, 2
	note F_, 2
	note C#, 2
	note F_, 2
	note C#, 2
	note F_, 2
	note C#, 2
	note F_, 2
	note C#, 2
	note F_, 2
	note C#, 2
	note F_, 2
	octave 1
	note G#, 2
	octave 2
	note C#, 2
	octave 1
	note G#, 2
	octave 2
	note C#, 2
	octave 1
	note G#, 2
	octave 2
	note C#, 2
	octave 1
	note G#, 2
	octave 2
	note C#, 2
	octave 1
	note G#, 2
	octave 2
	note C#, 2
	octave 1
	note G#, 2
	octave 2
	note C#, 2
	octave 1
	note G#, 2
	octave 2
	note C#, 2
	note F_, 2
	note G#, 2
	note C#, 1
	rest 16
	rest 16
	rest 16
	rest 7
	octave 3
	note C_, 2
	octave 2
	note A#, 2
	note G#, 2
	note F#, 2
	note C#, 2
	note F#, 2
	note C#, 2
	note F#, 2
	note C#, 2
	note F#, 2
	note C#, 2
	note F#, 2
	note C#, 2
	note F_, 2
	note C#, 2
	note F_, 2
	note C#, 2
	note F_, 2
	note C#, 2
	note F_, 2
	note C#, 2
	note D#, 2
	note C#, 2
	note D#, 2
	note C#, 2
	note D#, 2
	note C#, 2
	note D#, 2
	note C#, 2
	note F_, 2
	note C#, 2
	note F_, 2
	note C#, 2
	note D#, 2
	note D_, 2
	note C#, 2
	note C_, 2
	note E_, 2
	note C_, 2
	note E_, 2
	note C_, 2
	note E_, 2
	note C_, 2
	note E_, 2
	note C_, 2
	note E_, 2
	note C_, 2
	note E_, 2
	note C_, 2
	note E_, 2
	note C_, 2
	note E_, 2
	note C_, 2
	note E_, 2
	note C_, 2
	note E_, 2
	note C_, 2
	note E_, 2
	note C_, 2
	note E_, 2
	note C_, 2
	note E_, 2
	note C_, 2
	note E_, 2
	note C_, 2
	note E_, 2
	note C_, 2
	note E_, 2
	note C_, 2
	note E_, 2
	note C_, 2
	note E_, 2
	note C_, 2
	note E_, 2
	note C_, 2
	note E_, 2
	note C_, 2
	note E_, 2
	note C_, 2
	note E_, 2
	note C_, 2
	note E_, 2
	note C_, 2
	note E_, 2
	note C_, 2
	note E_, 2
	note C_, 2
	note E_, 2
	note C_, 2
	note E_, 2
	note C_, 2
	note E_, 2
	note C_, 2
	note E_, 2
	note C_, 2
	note E_, 2
	note C_, 2
	note E_, 2
	note C_, 2
	note E_, 2
	note C_, 2
	note E_, 2
	note C_, 2
	note E_, 2
	note C_, 2
	note E_, 2
	note C_, 2
	note E_, 2
	note C_, 2
	note E_, 2
	note C_, 2
	note E_, 2
	note C_, 2
	note E_, 2
	note C_, 2
	note E_, 2
	note C_, 2
	note E_, 2
	note C_, 2
	note E_, 2
	note C_, 2
	note E_, 2
	note G_, 2
	note E_, 2
	note G_, 2
	note C_, 2
	note E_, 2
	note G_, 2
	octave 3
	note C_, 2
	octave 2
	note C#, 2
	note C_, 2
	octave 1
	note B_, 2
	note A#, 2
	octave 2
	note D_, 2
	octave 1
	note A#, 2
	octave 2
	note D_, 2
	octave 1
	note A#, 2
	octave 2
	note D_, 2
	octave 1
	note A#, 2
	octave 2
	note D_, 2
	octave 1
	note A#, 2
	octave 2
	note D_, 2
	octave 1
	note A#, 2
	octave 2
	note D_, 2
	octave 1
	note A#, 2
	octave 2
	note D_, 2
	octave 1
	note A#, 2
	note B_, 2
	octave 2
	note C_, 2
	note E_, 2
	note C_, 2
	note E_, 2
	note C_, 2
	note E_, 2
	note C_, 2
	note E_, 2
	note C_, 2
	note E_, 2
	note C_, 2
	note E_, 2
	note C_, 2
	note E_, 2
	note C_, 2
	note E_, 2
	octave 1
	note A#, 2
	octave 2
	note D_, 2
	octave 1
	note A#, 2
	octave 2
	note D_, 2
	octave 1
	note A#, 2
	octave 2
	note D_, 2
	octave 1
	note A#, 2
	octave 2
	note D_, 2
	octave 1
	note A#, 2
	octave 2
	note D_, 2
	octave 1
	note A#, 2
	octave 2
	note D_, 2
	octave 1
	note A#, 2
	octave 2
	note D_, 2
	octave 1
	note A#, 2
	note B_, 2
	octave 2
	note C_, 2
	note E_, 2
	note C_, 2
	note E_, 2
	note C_, 2
	note E_, 2
	note C_, 2
	note E_, 2
	note C_, 2
	note E_, 2
	note C_, 2
	note E_, 2
	note C_, 2
	note E_, 2
	note C_, 2
	note E_, 2
	sound_loop 0, Music_DialgaBattle_Ch3_loop

Music_DialgaBattle_Ch4:
	drum_speed $C
	rest 16
	rest 16
	rest 16
	rest 14
	toggle_noise 3
	drum_note 2, 2
	drum_note 1, 2
	drum_note 9, 2
	drum_note 2, 2
	drum_note 9, 2
	drum_note 9, 2
	drum_note 1, 2
	drum_note 2, 2
	drum_note 9, 2
	drum_note 1, 2
	drum_note 9, 2
	drum_note 2, 2
	drum_note 9, 2
	drum_note 9, 2
	drum_note 1, 2
	drum_note 2, 2
	drum_note 2, 2
	drum_note 1, 2
	drum_note 9, 2
	drum_note 2, 2
	drum_note 9, 2
	drum_note 9, 2
	drum_note 1, 2
	drum_note 2, 2
	drum_note 9, 2
	drum_note 1, 2
	drum_note 9, 2
	drum_note 2, 2
	drum_note 9, 2
	drum_note 9, 2
	drum_note 1, 2
	drum_note 2, 2
	drum_note 2, 2
	drum_note 1, 2
	drum_note 9, 2
	drum_note 2, 2
	drum_note 9, 2
	drum_note 9, 2
	drum_note 1, 2
	drum_note 2, 2
	drum_note 9, 2
	drum_note 1, 2
	drum_note 9, 2
	drum_note 2, 2
	drum_note 9, 2
	drum_note 9, 2
	drum_note 1, 2
	drum_note 2, 2
	drum_note 2, 2
	drum_note 1, 2
	drum_note 9, 2
	drum_note 2, 2
	drum_note 9, 2
	drum_note 9, 2
	drum_note 1, 2
	drum_note 2, 2
	drum_note 9, 2
	drum_note 1, 2
	drum_note 9, 2
	drum_note 2, 2
	drum_note 9, 2
	drum_note 9, 2
	drum_note 1, 2
	drum_note 2, 2
	drum_note 2, 2
Music_DialgaBattle_Ch4_loop:
	drum_note 1, 2
	drum_note 9, 2
	drum_note 2, 2
	drum_note 9, 2
	drum_note 9, 2
	drum_note 1, 2
	drum_note 2, 2
	drum_note 9, 2
	drum_note 1, 2
	drum_note 9, 2
	drum_note 2, 2
	drum_note 9, 2
	drum_note 9, 2
	drum_note 1, 2
	drum_note 2, 2
	drum_note 9, 2
	drum_note 1, 2
	drum_note 9, 2
	drum_note 2, 2
	drum_note 9, 2
	drum_note 9, 2
	drum_note 1, 2
	drum_note 2, 2
	drum_note 9, 2
	drum_note 1, 2
	drum_note 9, 2
	drum_note 2, 2
	drum_note 9, 2
	drum_note 9, 2
	drum_note 1, 2
	drum_note 2, 2
	drum_note 9, 2
	drum_note 1, 2
	drum_note 9, 2
	drum_note 2, 2
	drum_note 9, 2
	drum_note 9, 2
	drum_note 1, 2
	drum_note 2, 2
	drum_note 9, 2
	drum_note 1, 2
	drum_note 9, 2
	drum_note 2, 2
	drum_note 9, 2
	drum_note 9, 2
	drum_note 1, 2
	drum_note 2, 2
	drum_note 9, 2
	drum_note 1, 2
	drum_note 9, 2
	drum_note 2, 2
	drum_note 9, 2
	drum_note 9, 2
	drum_note 1, 2
	drum_note 2, 2
	drum_note 9, 2
	drum_note 1, 2
	drum_note 9, 2
	drum_note 2, 2
	drum_note 9, 2
	drum_note 9, 2
	drum_note 1, 2
	drum_note 2, 2
	drum_note 9, 2
	drum_note 1, 2
	drum_note 9, 2
	drum_note 2, 2
	drum_note 9, 2
	drum_note 9, 2
	drum_note 1, 2
	drum_note 2, 2
	drum_note 9, 2
	drum_note 1, 2
	drum_note 9, 2
	drum_note 2, 2
	drum_note 9, 2
	drum_note 9, 2
	drum_note 1, 2
	drum_note 2, 2
	drum_note 2, 2
	drum_note 1, 2
	drum_note 9, 2
	drum_note 2, 2
	drum_note 9, 2
	drum_note 9, 2
	drum_note 1, 2
	drum_note 2, 2
	drum_note 9, 2
	drum_note 1, 2
	drum_note 9, 2
	drum_note 2, 2
	drum_note 9, 2
	drum_note 9, 2
	drum_note 1, 2
	drum_note 2, 2
	drum_note 2, 2
	drum_note 1, 2
	drum_note 9, 2
	drum_note 2, 2
	drum_note 9, 2
	drum_note 9, 2
	drum_note 1, 2
	drum_note 2, 2
	drum_note 9, 2
	drum_note 1, 2
	drum_note 9, 2
	drum_note 2, 2
	drum_note 9, 2
	drum_note 9, 2
	drum_note 1, 2
	drum_note 2, 2
	drum_note 2, 2
	drum_note 1, 2
	drum_note 9, 2
	drum_note 2, 2
	drum_note 9, 2
	drum_note 9, 2
	drum_note 1, 2
	drum_note 2, 2
	drum_note 9, 2
	drum_note 1, 2
	drum_note 9, 2
	drum_note 2, 2
	drum_note 9, 2
	drum_note 9, 2
	drum_note 1, 2
	drum_note 2, 2
	drum_note 2, 2
	drum_note 1, 2
	drum_note 9, 2
	drum_note 2, 2
	drum_note 9, 2
	drum_note 9, 2
	drum_note 1, 2
	drum_note 2, 2
	drum_note 9, 2
	drum_note 1, 2
	drum_note 9, 2
	drum_note 2, 2
	drum_note 9, 2
	drum_note 9, 2
	drum_note 1, 2
	drum_note 2, 2
	drum_note 2, 2
	drum_note 1, 2
	drum_note 9, 2
	drum_note 2, 2
	drum_note 9, 2
	drum_note 9, 2
	drum_note 1, 2
	drum_note 2, 2
	drum_note 9, 2
	drum_note 1, 2
	drum_note 9, 2
	drum_note 2, 2
	drum_note 9, 2
	drum_note 9, 2
	drum_note 1, 2
	drum_note 2, 2
	drum_note 2, 2
	drum_note 1, 2
	drum_note 9, 2
	drum_note 2, 2
	drum_note 9, 2
	drum_note 9, 2
	drum_note 1, 2
	drum_note 2, 2
	drum_note 9, 2
	drum_note 1, 2
	drum_note 9, 2
	drum_note 2, 2
	drum_note 9, 2
	drum_note 9, 2
	drum_note 1, 2
	drum_note 2, 2
	drum_note 2, 2
	drum_note 1, 2
	drum_note 9, 2
	drum_note 2, 2
	drum_note 9, 2
	drum_note 9, 2
	drum_note 1, 2
	drum_note 2, 2
	drum_note 9, 2
	drum_note 1, 2
	drum_note 9, 2
	drum_note 2, 2
	drum_note 9, 2
	drum_note 9, 2
	drum_note 1, 2
	drum_note 2, 2
	drum_note 2, 2
	drum_note 1, 2
	drum_note 9, 2
	drum_note 2, 2
	drum_note 9, 2
	drum_note 9, 2
	drum_note 1, 2
	drum_note 2, 2
	drum_note 9, 2
	drum_note 1, 2
	drum_note 9, 2
	drum_note 2, 2
	drum_note 9, 2
	drum_note 9, 2
	drum_note 1, 2
	drum_note 2, 2
	drum_note 2, 2
	drum_note 1, 2
	drum_note 9, 2
	drum_note 2, 2
	drum_note 9, 2
	drum_note 9, 2
	drum_note 1, 2
	drum_note 2, 2
	drum_note 9, 2
	drum_note 1, 2
	drum_note 9, 2
	drum_note 2, 2
	drum_note 9, 2
	drum_note 9, 2
	drum_note 1, 2
	drum_note 2, 2
	drum_note 2, 2
	drum_note 1, 2
	drum_note 9, 2
	drum_note 2, 2
	drum_note 9, 2
	drum_note 9, 2
	drum_note 1, 2
	drum_note 2, 2
	drum_note 9, 2
	drum_note 1, 2
	drum_note 9, 2
	drum_note 2, 2
	drum_note 9, 2
	drum_note 9, 2
	drum_note 1, 2
	drum_note 2, 2
	drum_note 2, 2
	drum_note 1, 2
	drum_note 9, 2
	drum_note 2, 2
	drum_note 9, 2
	drum_note 9, 2
	drum_note 1, 2
	drum_note 2, 2
	drum_note 9, 2
	drum_note 2, 2
	drum_note 1, 2
	drum_note 2, 2
	drum_note 9, 2
	drum_note 1, 2
	drum_note 2, 2
	drum_note 2, 2
	drum_note 2, 2
	drum_note 1, 2
	drum_note 9, 2
	drum_note 2, 2
	drum_note 9, 2
	drum_note 9, 2
	drum_note 1, 2
	drum_note 2, 2
	drum_note 9, 2
	drum_note 1, 2
	drum_note 9, 2
	drum_note 2, 2
	drum_note 9, 2
	drum_note 9, 2
	drum_note 1, 2
	drum_note 2, 2
	drum_note 2, 2
	drum_note 1, 2
	drum_note 9, 2
	drum_note 2, 2
	drum_note 9, 2
	drum_note 9, 2
	drum_note 1, 2
	drum_note 2, 2
	drum_note 9, 2
	drum_note 1, 2
	drum_note 9, 2
	drum_note 2, 2
	drum_note 9, 2
	drum_note 1, 8
	drum_note 1, 8
	drum_note 1, 4
	drum_note 1, 4
	drum_note 1, 4
	drum_note 1, 4
	drum_note 1, 4
	drum_note 1, 4
	drum_note 1, 4
	drum_note 1, 4
	drum_note 1, 4
	drum_note 1, 4
	drum_note 1, 4
	drum_note 1, 4
	drum_note 1, 4
	drum_note 1, 4
	drum_note 1, 4
	drum_note 1, 4
	drum_note 1, 4
	drum_note 1, 4
	drum_note 1, 4
	drum_note 1, 4
	drum_note 1, 4
	drum_note 1, 4
	drum_note 1, 4
	drum_note 1, 4
	drum_note 1, 4
	drum_note 1, 4
	drum_note 1, 4
	drum_note 1, 4
	drum_note 1, 4
	drum_note 1, 4
	drum_note 1, 4
	drum_note 1, 4
	drum_note 1, 4
	drum_note 1, 4
	drum_note 1, 4
	drum_note 1, 4
	drum_note 1, 4
	drum_note 1, 4
	drum_note 1, 4
	drum_note 1, 4
	drum_note 1, 4
	drum_note 2, 4
	drum_note 1, 4
	drum_note 2, 4
	drum_note 1, 4
	drum_note 2, 4
	drum_note 1, 4
	drum_note 2, 4
	drum_note 1, 4
	drum_note 2, 4
	drum_note 1, 4
	drum_note 2, 4
	drum_note 1, 4
	drum_note 2, 4
	drum_note 1, 4
	drum_note 2, 4
	drum_note 1, 4
	drum_note 2, 4
	drum_note 1, 4
	drum_note 2, 4
	drum_note 1, 4
	drum_note 2, 4
	drum_note 1, 4
	drum_note 2, 4
	drum_note 1, 4
	drum_note 2, 4
	drum_note 1, 4
	drum_note 2, 4
	drum_note 1, 4
	drum_note 2, 4
	drum_note 1, 4
	drum_note 2, 4
	drum_note 1, 4
	drum_note 2, 4
	drum_note 1, 4
	drum_note 2, 4
	drum_note 1, 4
	drum_note 2, 4
	drum_note 1, 2
	drum_note 2, 4
	drum_note 2, 2
	drum_note 1, 4
	drum_note 2, 4
	drum_note 1, 2
	drum_note 1, 2
	drum_note 2, 4
	drum_note 1, 2
	drum_note 1, 2
	drum_note 2, 4
	drum_note 2, 4
	drum_note 1, 4
	drum_note 2, 4
	drum_note 1, 2
	drum_note 1, 2
	drum_note 2, 4
	drum_note 1, 2
	drum_note 1, 2
	drum_note 2, 4
	drum_note 2, 4
	drum_note 1, 4
	drum_note 2, 4
	drum_note 1, 2
	drum_note 1, 2
	drum_note 2, 4
	drum_note 1, 2
	drum_note 1, 2
	drum_note 2, 4
	drum_note 2, 4
	drum_note 1, 2
	drum_note 1, 2
	drum_note 2, 4
	drum_note 2, 4
	drum_note 1, 2
	drum_note 2, 2
	drum_note 1, 2
	drum_note 2, 2
	drum_note 2, 4
	drum_note 2, 2
	drum_note 2, 2
	drum_note 1, 4
	drum_note 3, 6
	drum_note 1, 2
	drum_note 3, 4
	drum_note 1, 4
	drum_note 3, 6
	drum_note 1, 2
	drum_note 3, 2
	drum_note 3, 2
	drum_note 1, 4
	drum_note 3, 6
	drum_note 1, 2
	drum_note 3, 4
	drum_note 1, 4
	drum_note 3, 6
	drum_note 1, 2
	drum_note 3, 2
	drum_note 3, 2
	drum_note 1, 4
	drum_note 3, 6
	drum_note 1, 2
	drum_note 3, 4
	drum_note 1, 4
	drum_note 3, 6
	drum_note 1, 2
	drum_note 3, 2
	drum_note 3, 2
	drum_note 3, 2
	drum_note 9, 4
	drum_note 9, 2
	drum_note 9, 2
	drum_note 3, 4
	drum_note 9, 2
	drum_note 3, 2
	drum_note 9, 4
	drum_note 9, 2
	drum_note 3, 12
	drum_note 9, 8
	drum_note 9, 8
	drum_note 9, 6
	drum_note 9, 4
	drum_note 9, 6
	drum_note 9, 8
	drum_note 9, 8
	drum_note 9, 12
	drum_note 12, 16
	drum_speed $E
	rest 8
	drum_speed $C
	drum_note 3, 16
	rest 16
	drum_speed $1
	rest 8
	drum_speed $C
	drum_note 2, 2
	drum_note 2, 2
	drum_note 2, 2
	drum_note 1, 2
	drum_note 9, 2
	drum_note 2, 2
	drum_note 9, 2
	drum_note 9, 2
	drum_note 1, 2
	drum_note 2, 2
	drum_note 9, 2
	drum_note 1, 2
	drum_note 9, 2
	drum_note 2, 2
	drum_note 9, 2
	drum_note 9, 2
	drum_note 1, 2
	drum_note 2, 2
	drum_note 2, 2
	drum_note 1, 2
	drum_note 9, 2
	drum_note 2, 2
	drum_note 9, 2
	drum_note 9, 2
	drum_note 1, 2
	drum_note 2, 2
	drum_note 9, 2
	drum_note 1, 2
	drum_note 9, 2
	drum_note 2, 2
	drum_note 9, 2
	drum_note 9, 2
	drum_note 2, 2
	drum_note 2, 2
	drum_note 2, 2
	drum_note 1, 2
	drum_note 9, 2
	drum_note 2, 2
	drum_note 9, 2
	drum_note 9, 2
	drum_note 1, 2
	drum_note 2, 2
	drum_note 9, 2
	drum_note 1, 2
	drum_note 9, 2
	drum_note 2, 2
	drum_note 9, 2
	drum_note 9, 2
	drum_note 1, 2
	drum_note 2, 2
	drum_note 9, 2
	drum_note 1, 2
	drum_note 9, 2
	drum_note 2, 2
	drum_note 9, 2
	drum_note 9, 2
	drum_note 1, 2
	drum_note 2, 2
	drum_note 9, 2
	drum_note 1, 2
	drum_note 9, 2
	drum_note 2, 2
	drum_note 9, 2
	drum_note 9, 2
	drum_note 1, 2
	drum_note 2, 2
	drum_note 9, 2
	drum_note 1, 2
	drum_note 9, 2
	drum_note 2, 2
	drum_note 9, 2
	drum_note 9, 2
	drum_note 1, 2
	drum_note 2, 2
	drum_note 9, 2
	drum_note 1, 2
	drum_note 9, 2
	drum_note 2, 2
	drum_note 9, 2
	drum_note 9, 2
	drum_note 1, 2
	drum_note 2, 2
	drum_note 9, 2
	drum_note 1, 2
	drum_note 9, 2
	drum_note 2, 2
	drum_note 9, 2
	drum_note 9, 2
	drum_note 1, 2
	drum_note 2, 2
	drum_note 9, 2
	drum_note 1, 2
	drum_note 9, 2
	drum_note 2, 2
	drum_note 9, 2
	drum_note 9, 2
	drum_note 1, 2
	drum_note 2, 2
	drum_note 9, 2
	drum_note 1, 2
	drum_note 9, 2
	drum_note 2, 2
	drum_note 9, 2
	drum_note 9, 2
	drum_note 1, 2
	drum_note 2, 2
	drum_note 9, 2
	drum_note 1, 2
	drum_note 9, 2
	drum_note 2, 2
	drum_note 9, 2
	drum_note 9, 2
	drum_note 1, 2
	drum_note 2, 2
	drum_note 2, 2
	drum_note 1, 2
	drum_note 9, 2
	drum_note 2, 2
	drum_note 9, 2
	drum_note 9, 2
	drum_note 1, 2
	drum_note 2, 2
	drum_note 9, 2
	drum_note 1, 2
	drum_note 2, 2
	drum_note 2, 2
	drum_note 9, 2
	drum_note 2, 2
	drum_note 2, 2
	drum_note 2, 2
	drum_note 2, 2
	drum_note 1, 2
	drum_note 9, 2
	drum_note 2, 2
	drum_note 9, 2
	drum_note 9, 2
	drum_note 1, 2
	drum_note 2, 2
	drum_note 9, 2
	drum_note 1, 2
	drum_note 9, 2
	drum_note 2, 2
	drum_note 9, 2
	drum_note 9, 2
	drum_note 1, 2
	drum_note 2, 2
	drum_note 2, 2
	drum_note 1, 2
	drum_note 9, 2
	drum_note 2, 2
	drum_note 9, 2
	drum_note 9, 2
	drum_note 1, 2
	drum_note 2, 2
	drum_note 9, 2
	drum_note 1, 2
	drum_note 9, 2
	drum_note 2, 2
	drum_note 9, 2
	drum_note 9, 2
	drum_note 1, 2
	drum_note 2, 2
	drum_note 2, 2
	drum_note 1, 2
	drum_note 9, 2
	drum_note 2, 2
	drum_note 9, 2
	drum_note 9, 2
	drum_note 1, 2
	drum_note 2, 2
	drum_note 9, 2
	drum_note 1, 2
	drum_note 9, 2
	drum_note 2, 2
	drum_note 9, 2
	drum_note 9, 2
	drum_note 1, 2
	drum_note 2, 2
	drum_note 2, 2
	drum_note 1, 2
	drum_note 9, 2
	drum_note 2, 2
	drum_note 9, 2
	drum_note 9, 2
	drum_note 1, 2
	drum_note 2, 2
	drum_note 9, 2
	drum_note 1, 2
	drum_note 9, 2
	drum_note 2, 2
	drum_note 9, 2
	drum_note 9, 2
	drum_note 1, 2
	drum_note 2, 2
	drum_note 2, 2
	sound_loop 0, Music_DialgaBattle_Ch4_loop
