Music_Route228:
	channel_count 4
	channel 1, Music_Route228_Ch1
	channel 2, Music_Route228_Ch2
	channel 3, Music_Route228_Ch3
	channel 4, Music_Route228_Ch4

Music_Route228_Ch1:
	volume $7, $7
	stereo_panning TRUE, TRUE
	tempo $C0
	pitch_offset $0002
	note_type $8, $A, 1
	rest 9
	octave 3
	note C#, 1
	rest 4
	note C#, 1
	rest 6
	note C_, 1
	rest 4
	note C_, 1
	rest 6
Music_Route228_Ch1_loop:
	note F_, 1
	rest 2
	note G#, 1
	rest 1
	note G#, 1
	rest 3
	note F_, 1
	rest 1
	note F_, 1
	rest 2
	note C#, 1
	note F_, 1
	rest 1
	note F_, 1
	rest 3
	volume_envelope $9, 4
	note C#, 6
	note C#, 5
	note C_, 1
	rest 3
	note D#, 1
	rest 4
	note F#, 1
	rest 2
	note E_, 1
	note F_, 2
	note G#, 1
	rest 2
	note E_, 1
	note F_, 2
	note G#, 1
	rest 2
	note E_, 1
	note F_, 1
	rest 2
	note F_, 2
	rest 3
	note G_, 3
	octave 2
	note A#, 1
	octave 3
	note C#, 2
	rest 1
	note C#, 2
	rest 1
	note C#, 2
	note C#, 1
	rest 2
	note C_, 1
	rest 3
	note F#, 1
	rest 4
	note A_, 1
	rest 2
	note E_, 1
	note F_, 2
	note G#, 1
	rest 2
	note E_, 1
	note F_, 2
	note G#, 1
	rest 2
	note E_, 1
	note G#, 2
	note G#, 1
	rest 2
	octave 2
	note B_, 1
	octave 3
	note C#, 1
	rest 1
	note D_, 3
	rest 1
	note C#, 5
	note C#, 1
	rest 9
	note D#, 5
	note E_, 4
	note F_, 5
	note F_, 1
	rest 2
	octave 2
	note B_, 4
	octave 3
	note C#, 2
	note C#, 1
	rest 5
	octave 2
	note B_, 1
	rest 6
	note A#, 1
	rest 2
	note A#, 2
	note A#, 1
	rest 6
	octave 3
	note C#, 2
	note C#, 1
	note E_, 2
	note E_, 1
	rest 3
	note C_, 2
	note C_, 1
	rest 3
	note C_, 2
	note C_, 1
	rest 6
	note D#, 7
	rest 2
	duty_cycle 1
	volume_envelope $A, 1
	note A_, 2
	rest 1
	note A_, 2
	rest 1
	note A_, 2
	note G#, 1
	rest 2
	note G_, 1
	rest 3
	octave 4
	note C_, 1
	rest 4
	note C_, 1
	rest 2
	octave 3
	note A_, 1
	note B_, 1
	rest 2
	note G#, 3
	note G#, 1
	rest 1
	note G_, 1
	rest 2
	note B_, 1
	rest 2
	note B_, 1
	note G#, 2
	rest 3
	note B_, 1
	rest 2
	octave 4
	note C#, 1
	note D_, 2
	rest 1
	note D_, 2
	rest 1
	note D_, 2
	note C#, 1
	rest 2
	note C_, 1
	rest 2
	octave 3
	note G_, 1
	rest 5
	note A#, 1
	rest 2
	octave 4
	note C_, 1
	note C#, 3
	rest 2
	note C#, 1
	rest 3
	note C_, 1
	rest 5
	note F#, 2
	rest 1
	note F#, 2
	note F#, 1
	rest 2
	note C#, 1
	note D_, 2
	rest 1
	octave 3
	note A#, 1
	rest 1
	note B_, 1
	octave 4
	note C_, 2
	octave 3
	note A#, 1
	rest 2
	octave 4
	note C_, 1
	note C#, 2
	octave 3
	note A#, 2
	note B_, 2
	octave 4
	note C_, 2
	octave 3
	note A#, 1
	rest 2
	note A#, 1
	rest 3
	note A_, 1
	rest 2
	note A#, 2
	note A#, 1
	rest 2
	octave 4
	note D_, 1
	note D#, 2
	note D#, 3
	note D_, 1
	rest 2
	octave 3
	note G#, 2
	rest 5
	note A#, 2
	rest 1
	octave 4
	note D_, 2
	note D_, 1
	rest 3
	octave 3
	note A#, 2
	rest 1
	octave 4
	note D_, 2
	note D_, 1
	rest 9
	octave 3
	note A#, 2
	rest 1
	octave 4
	note C#, 2
	note C#, 1
	rest 3
	octave 3
	note A#, 2
	rest 1
	octave 4
	note C#, 2
	note C#, 1
	rest 9
	octave 3
	note F_, 1
	rest 4
	note F_, 1
	rest 6
	note F#, 1
	rest 4
	note F#, 1
	rest 6
	duty_cycle 0
	sound_loop 0, Music_Route228_Ch1_loop

Music_Route228_Ch2:
	note_type $8, $B, 2
	rest 9
	duty_cycle 1
	pitch_offset $0001
	octave 3
	note F_, 1
	rest 4
	note F_, 1
	rest 6
	note F#, 1
	rest 4
	note F#, 1
	rest 6
Music_Route228_Ch2_loop:
	note G#, 1
	rest 2
	octave 4
	note C_, 1
	rest 1
	note C_, 1
	rest 3
	octave 3
	note G#, 1
	rest 1
	note G#, 1
	rest 2
	note E_, 1
	note G_, 1
	rest 1
	note G_, 1
	note_type $E, $B, 5
	rest 1
	vibrato $06, $1, $4
	note_type $4, $B, 5
	note C#, 1
	note D#, 1
	note E_, 12
	note C#, 10
	note D#, 4
	rest 2
	note D#, 2
	note E_, 6
	note F_, 4
	octave 2
	note A_, 4
	rest 2
	octave 3
	note C_, 1
	note C#, 3
	rest 2
	note C#, 2
	octave 2
	note A#, 1
	note A_, 3
	rest 2
	note A#, 4
	octave 3
	note C_, 4
	rest 1
	note C#, 1
	note D_, 1
	note D#, 5
	note D_, 2
	note C#, 12
	rest 4
	note C_, 1
	note C#, 1
	note A_, 1
	note A#, 11
	note F#, 7
	rest 3
	note G#, 1
	note A_, 5
	note A_, 2
	note A#, 6
	note B_, 4
	octave 4
	note C_, 5
	octave 3
	note G#, 1
	note A_, 6
	note G#, 1
	note A_, 1
	octave 4
	note C_, 1
	note C#, 5
	note C_, 4
	note C#, 6
	note D_, 1
	note D#, 1
	note D_, 1
	note D#, 1
	note D_, 1
	note D#, 1
	note D_, 4
	rest 2
	octave 3
	note B_, 1
	octave 4
	note C_, 1
	octave 3
	note B_, 2
	note A#, 2
	note G#, 2
	note F_, 4
	note F#, 4
	rest 2
	note D#, 2
	note F#, 4
	note D#, 2
	note F#, 4
	octave 4
	note C#, 5
	note C_, 1
	note C#, 1
	note D#, 5
	note C_, 4
	octave 3
	note A#, 5
	note G#, 14
	rest 1
	note F_, 2
	note G#, 4
	note F_, 2
	note G#, 4
	note A#, 5
	note G#, 1
	note A#, 1
	note B_, 5
	octave 4
	note C#, 4
	octave 3
	note B_, 4
	note A#, 1
	note B_, 1
	note A#, 1
	note B_, 1
	note A#, 1
	note B_, 1
	note A#, 4
	note G#, 2
	note F#, 4
	note F_, 2
	note F#, 4
	note D#, 5
	rest 1
	note C#, 2
	octave 2
	note A_, 1
	note A#, 1
	note B_, 2
	octave 3
	note C_, 2
	note C#, 4
	note C_, 2
	octave 2
	note A#, 4
	octave 3
	note C#, 2
	note D_, 1
	note D#, 3
	note D#, 1
	note E_, 5
	note E_, 1
	note F_, 5
	octave 2
	note A#, 2
	octave 3
	note C_, 2
	note D#, 2
	note F_, 2
	note A#, 2
	octave 4
	note C_, 2
	note D#, 2
	note E_, 2
	note_type $C, $B, 5
	note F_, 6
	note_type $8, $B, 5
	rest 2
	duty_cycle 2
	volume_envelope $B, 2
	octave 3
	note A_, 1
	note A#, 1
	note B_, 1
	octave 4
	note C_, 2
	octave 3
	note A#, 2
	rest 1
	note_type $4, $B, 2
	note A#, 1
	note B_, 1
	octave 4
	note C_, 4
	note C_, 6
	octave 3
	note A#, 2
	rest 4
	note F_, 2
	octave 4
	note C_, 4
	note C_, 6
	octave 3
	note B_, 2
	note A#, 2
	note A_, 2
	note G#, 2
	note A#, 1
	note B_, 3
	rest 2
	note G_, 5
	rest 1
	note F_, 1
	note G_, 1
	note G#, 2
	note G_, 4
	rest 2
	note G_, 2
	note A#, 1
	note B_, 3
	octave 4
	note C_, 2
	note C#, 4
	note D_, 1
	note D#, 1
	note D_, 1
	note D#, 1
	note D_, 1
	note D#, 1
	note D_, 3
	octave 3
	note A#, 1
	octave 4
	note C_, 2
	note C#, 2
	note C#, 1
	note D_, 8
	note F#, 1
	note G_, 2
	rest 5
	note C#, 1
	note D_, 4
	note C#, 2
	note C#, 1
	note D_, 3
	note G_, 2
	rest 4
	note C_, 1
	note C#, 1
	note D_, 4
	octave 3
	note G_, 4
	note A#, 4
	octave 4
	note C_, 1
	note C#, 6
	note C_, 1
	note C#, 2
	note F#, 4
	rest 2
	octave 3
	note F#, 1
	note G#, 1
	note A#, 4
	note B_, 2
	note B_, 1
	octave 4
	note C_, 3
	note F_, 4
	octave 3
	note E_, 1
	note F_, 1
	note F#, 6
	note A#, 2
	octave 4
	note C_, 4
	octave 3
	note A#, 2
	note G_, 4
	rest 2
	note A#, 4
	rest 2
	note B_, 1
	octave 4
	note C_, 3
	octave 3
	note A#, 2
	octave 4
	note C_, 2
	octave 3
	note B_, 2
	note A#, 2
	note F#, 4
	note F#, 2
	note A#, 4
	rest 2
	note B_, 1
	octave 4
	note C_, 3
	octave 3
	note A#, 2
	rest 2
	note A#, 1
	octave 4
	note C_, 1
	note C#, 2
	note D_, 4
	rest 2
	octave 3
	note A#, 4
	rest 2
	note B_, 1
	octave 4
	note C_, 3
	octave 3
	note A#, 2
	octave 4
	note D_, 2
	note F_, 2
	note G_, 2
	note G#, 4
	note G#, 5
	note A#, 1
	note G#, 1
	note A#, 1
	note G#, 1
	note A#, 1
	note G#, 4
	note G_, 2
	rest 2
	octave 3
	note B_, 2
	octave 4
	note D_, 4
	note D_, 2
	note D#, 4
	rest 2
	note E_, 4
	note F_, 2
	rest 4
	note A_, 1
	note A#, 4
	rest 1
	note D_, 2
	note D#, 4
	note E_, 2
	note F_, 4
	note F_, 4
	octave 3
	note A_, 1
	note A#, 3
	octave 4
	note C#, 4
	note C#, 2
	note D#, 4
	rest 2
	note E_, 4
	note F_, 2
	rest 4
	note A_, 1
	note A#, 4
	rest 1
	note C_, 1
	note C#, 1
	note D#, 4
	note E_, 2
	note F_, 4
	octave 3
	note F_, 2
	rest 4
	note B_, 1
	volume_envelope $B, 5
	octave 4
	note C_, 5
	octave 3
	note B_, 4
	note_type $C, $B, 5
	note A#, 6
	rest 9
	note_type $6, $B, 5
	rest 1
	note_type $8, $B, 2
	duty_cycle 1
	vibrato $00, $0, $0
	sound_loop 0, Music_Route228_Ch2_loop

Music_Route228_Ch3:
	volume_envelope $1, $2
	note_type $8, $1, $2
	rest 6
	octave 2
	note F#, 2
	rest 1
	note F#, 2
	rest 3
	note F#, 2
	rest 1
	note F#, 1
Music_Route228_Ch3_loop:
	note F_, 2
	rest 1
	note F_, 2
	rest 3
	note F_, 2
	rest 1
	note F_, 1
	note A#, 2
	rest 1
	note A#, 2
	rest 3
	note A#, 2
	rest 1
	note A#, 1
	octave 3
	note C#, 2
	rest 1
	octave 2
	note A#, 2
	rest 1
	note A_, 2
	rest 1
	note G#, 2
	rest 1
	note F#, 2
	rest 1
	note F#, 2
	rest 1
	note F#, 2
	note F#, 1
	note C#, 2
	rest 1
	note F_, 2
	rest 1
	note F_, 2
	rest 1
	note F_, 2
	note F_, 1
	octave 1
	note A_, 2
	rest 1
	note A#, 2
	rest 1
	note A#, 2
	rest 1
	note A_, 2
	rest 1
	note A_, 2
	rest 1
	note G#, 2
	rest 1
	note G#, 2
	rest 1
	note G_, 2
	rest 1
	note G_, 2
	rest 1
	note F#, 2
	rest 1
	note F#, 2
	rest 1
	octave 2
	note F#, 2
	note F#, 1
	note E_, 2
	rest 1
	note F_, 2
	rest 1
	note F_, 2
	rest 1
	note F#, 2
	note F_, 1
	note A_, 1
	rest 1
	note A#, 1
	rest 2
	note A#, 1
	octave 1
	note A#, 2
	rest 1
	octave 2
	note F_, 2
	octave 1
	note A#, 2
	rest 1
	octave 2
	note F_, 2
	note F_, 1
	rest 1
	octave 1
	note A#, 2
	rest 1
	octave 2
	note D_, 2
	note D#, 1
	note F_, 2
	note D#, 1
	note D#, 2
	rest 1
	note D#, 2
	rest 1
	note A#, 2
	note D#, 1
	rest 2
	note A#, 1
	note G#, 2
	rest 1
	note G#, 2
	rest 1
	octave 1
	note G#, 2
	octave 2
	note D#, 1
	rest 2
	octave 1
	note G#, 1
	octave 2
	note C#, 2
	rest 1
	note C#, 2
	rest 1
	note G#, 2
	note C#, 1
	rest 2
	note G#, 1
	note A#, 2
	rest 1
	note A#, 2
	rest 1
	octave 1
	note A#, 2
	octave 2
	note G#, 1
	rest 2
	note F_, 1
	note D#, 2
	rest 1
	note D#, 2
	note A#, 1
	rest 2
	note A#, 1
	note D#, 2
	rest 1
	note E_, 2
	rest 1
	note E_, 2
	note A#, 1
	rest 2
	note A#, 1
	note E_, 2
	note F#, 1
	note F_, 2
	note F_, 1
	rest 3
	note F_, 2
	note F_, 1
	rest 6
	octave 1
	note F_, 8
	rest 1
	note A#, 2
	rest 1
	note A#, 2
	rest 3
	note A#, 2
	rest 1
	octave 2
	note F_, 1
	note A#, 2
	note F_, 1
	rest 2
	note F_, 1
	octave 1
	note A#, 2
	note A#, 1
	octave 2
	note F_, 2
	rest 1
	octave 1
	note G_, 2
	rest 1
	note G_, 2
	rest 3
	note G_, 2
	rest 1
	octave 2
	note D_, 1
	note F_, 2
	note D_, 1
	rest 2
	note D_, 1
	octave 1
	note G_, 2
	note G_, 1
	octave 2
	note D_, 2
	rest 1
	note C_, 2
	rest 1
	note C_, 2
	rest 3
	note C_, 2
	rest 1
	note G_, 1
	octave 3
	note C_, 2
	octave 2
	note G_, 1
	rest 2
	note G_, 1
	note C_, 2
	note C_, 1
	note G_, 2
	rest 1
	note F_, 2
	rest 1
	note F_, 2
	rest 3
	note F_, 2
	rest 1
	note A_, 1
	octave 3
	note C_, 2
	octave 2
	note F_, 1
	rest 2
	note F_, 1
	note F#, 2
	note F#, 1
	note F_, 2
	rest 1
	note D#, 2
	rest 1
	octave 1
	note A#, 2
	octave 2
	note D#, 1
	rest 2
	note A#, 2
	rest 2
	note D#, 2
	rest 1
	octave 1
	note A#, 2
	octave 2
	note D#, 1
	rest 2
	note A#, 2
	rest 2
	octave 1
	note A#, 2
	rest 1
	octave 2
	note F_, 2
	note A#, 1
	rest 2
	note D_, 1
	note A#, 2
	note A_, 1
	note G#, 2
	octave 1
	note B_, 1
	octave 2
	note G#, 2
	note G_, 1
	rest 2
	octave 1
	note B_, 1
	octave 2
	note D_, 2
	rest 1
	note C_, 1
	rest 2
	note D#, 2
	note C_, 1
	note G_, 2
	note G_, 1
	rest 2
	note C_, 1
	rest 2
	note C_, 1
	note D#, 2
	note C_, 1
	note G_, 2
	note G_, 1
	rest 2
	note C_, 1
	octave 1
	note A#, 1
	rest 2
	octave 2
	note D#, 2
	octave 1
	note A#, 1
	octave 2
	note F#, 2
	note F#, 1
	rest 2
	octave 1
	note A#, 1
	rest 2
	note A#, 1
	octave 2
	note D#, 2
	octave 1
	note A#, 1
	octave 2
	note F#, 2
	note F#, 1
	rest 1
	note G#, 1
	note A_, 1
	note A#, 2
	rest 1
	note F#, 2
	rest 3
	note F#, 2
	rest 1
	note F#, 1
	sound_loop 0, Music_Route228_Ch3_loop

Music_Route228_Ch4:
	toggle_noise 3
	drum_speed $8
	drum_note 9, 2
	drum_note 8, 1
	drum_note 7, 3
Music_Route228_Ch4_loop:
	drum_note 4, 3
	drum_note 4, 3
	drum_note 1, 2
	drum_note 4, 3
	drum_note 4, 1
	drum_note 4, 3
	drum_note 4, 3
	drum_note 1, 2
	drum_note 4, 1
	drum_note 1, 3
	drum_note 4, 3
	drum_note 4, 3
	drum_note 1, 2
	drum_note 4, 3
	drum_note 1, 1
	drum_note 4, 3
	drum_note 4, 3
	drum_note 1, 2
	drum_note 4, 1
	drum_note 1, 2
	drum_note 4, 1
	sound_loop 0, Music_Route228_Ch4_loop

