Music_TVStation:
	channel_count 4
	channel 1, Music_TVStation_Ch1
	channel 2, Music_TVStation_Ch2
	channel 3, Music_TVStation_Ch3
	channel 4, Music_TVStation_Ch4

Music_TVStation_Ch1:
	volume $7, $7
	stereo_panning TRUE, TRUE
	tempo $80
	duty_cycle 1
	pitch_offset $0002
	octave 2
	note_type $C, $A, 1
	note G_, 4
Music_TVStation_Ch1_loop:
	octave 3
	note A_, 2
	octave 5
	note C_, 1
	octave 4
	note B_, 1
	octave 5
	note C_, 2
	octave 4
	note A_, 1
	note G#, 1
	note A_, 2
	note F_, 1
	note E_, 1
	note F_, 2
	note E_, 1
	note D#, 1
	note E_, 2
	note D#, 2
	note E_, 2
	volume_envelope $A, 4
	note F_, 6
	note E_, 4
	note C_, 1
	octave 3
	note B_, 1
	octave 4
	note C_, 4
	octave 3
	note A_, 4
	note A_, 1
	note A_, 1
	octave 4
	note F_, 4
	note A_, 6
	note A_, 1
	note A_, 1
	note A_, 8
	duty_cycle 0
	volume_envelope $A, 1
	octave 2
	note G_, 2
	note G_, 2
	octave 3
	note E_, 2
	octave 2
	note G_, 2
	octave 3
	note F_, 2
	octave 2
	note G_, 2
	octave 3
	note G_, 2
	octave 2
	note G_, 2
	note A_, 2
	note A_, 2
	octave 3
	note A_, 2
	octave 2
	note A_, 2
	note G_, 2
	note G_, 2
	octave 3
	note F_, 2
	note D_, 2
	note C_, 2
	note C_, 2
	note G_, 2
	note C_, 2
	note G_, 2
	note C_, 2
	note C_, 2
	note F#, 2
	note F_, 2
	note C_, 2
	note C_, 2
	note C_, 2
	octave 2
	note B_, 2
	note B_, 2
	octave 3
	note F_, 4
	octave 2
	note G_, 2
	note G_, 2
	octave 3
	note D#, 2
	note E_, 2
	note F_, 2
	octave 2
	note G_, 2
	octave 3
	note G_, 2
	octave 2
	note G_, 2
	note A_, 2
	note A_, 2
	octave 3
	note G#, 2
	note A_, 2
	octave 2
	note G_, 2
	octave 3
	note E_, 2
	note F_, 2
	octave 2
	note G_, 2
	octave 3
	note C_, 2
	note F#, 2
	note G_, 2
	note C_, 2
	note G_, 2
	note C_, 2
	note C_, 2
	note F#, 2
	note F_, 2
	note C_, 2
	note C_, 2
	note F_, 2
	octave 2
	note B_, 2
	note B_, 2
	octave 3
	note E_, 4
	duty_cycle 2
	volume_envelope $A, 4
	octave 2
	note G_, 8
	note G_, 2
	note G_, 2
	note G_, 4
	note G_, 2
	note G_, 4
	note F#, 6
	note F#, 2
	note F#, 2
	note G#, 2
	note G#, 2
	octave 3
	note D#, 4
	octave 2
	note G#, 2
	note G#, 2
	octave 3
	note D_, 4
	note D#, 2
	note D#, 2
	note F_, 4
	note G_, 4
	note A#, 4
	duty_cycle 0
	volume_envelope $A, 1
	note D_, 2
	octave 2
	note G_, 2
	octave 3
	note D_, 2
	octave 2
	note G_, 2
	octave 3
	note C#, 2
	note C#, 2
	octave 2
	note G_, 2
	octave 3
	note D_, 4
	note D_, 2
	note F#, 2
	note G_, 2
	note A_, 2
	note G_, 1
	note_type $6, $A, 1
	note A_, 1
	note G_, 1
	note F#, 4
	octave 4
	note D_, 4
	octave 3
	note F#, 4
	note F#, 2
	octave 2
	note G_, 6
	octave 3
	note C#, 2
	note D_, 2
	note E_, 4
	note E_, 4
	octave 2
	note G_, 4
	octave 3
	note F#, 4
	octave 1
	note A_, 8
	octave 2
	note D_, 4
	note E_, 8
	note F#, 4
	note G_, 4
	note A_, 4
	note A#, 4
	note A#, 2
	note A#, 2
	note D_, 4
	note D_, 2
	note D_, 2
	note A#, 4
	note D_, 4
	note D_, 2
	note D_, 2
	note A#, 4
	note A_, 4
	note A_, 2
	note A_, 2
	octave 3
	note D_, 8
	note C_, 4
	octave 2
	note F_, 2
	note F_, 2
	note A#, 4
	note C_, 2
	note C_, 2
	note A_, 4
	note A_, 4
	note D#, 4
	note A_, 4
	note D#, 4
	note D#, 4
	note A_, 4
	note D#, 4
	note B_, 4
	note E_, 12
	volume_envelope $A, 4
	note_type $F, $A, 4
	note D_, 8
	volume_envelope $A, 1
	octave 3
	note_type $C, $A, 1
	note D_, 1
	note C#, 1
	note D_, 2
	note D_, 2
	note A_, 1
	note G#, 1
	note A_, 4
	note G_, 2
	note E_, 8
	note D_, 4
	note E_, 6
	note C_, 1
	octave 2
	note A_, 1
	octave 3
	note D_, 1
	note E_, 1
	note F_, 1
	note G_, 1
	note A_, 1
	note G#, 1
	note A_, 2
	note G_, 2
	note F_, 2
	note E_, 2
	rest 2
	note F_, 2
	rest 2
	note G_, 2
	rest 2
	octave 4
	note_type $C, $A, 1
	note C_, 1
	note D_, 1
	note F_, 1
	note G_, 3
	octave 3
	note A_, 2
	note C_, 2
	note A_, 4
	note G_, 2
	octave 2
	note B_, 2
	octave 3
	note G_, 4
	note G_, 2
	note C_, 2
	note G_, 2
	octave 2
	note G_, 2
	octave 3
	note C_, 1
	note C_, 3
	note C_, 2
	octave 2
	note F_, 2
	note F_, 4
	note F_, 2
	note G_, 2
	note G_, 2
	note D_, 4
	note C_, 4
	note G_, 4
	note E_, 4
	octave 3
	note F#, 2
	note G_, 2
	duty_cycle 1
	sound_loop 0, Music_TVStation_Ch1_loop

Music_TVStation_Ch2:
	duty_cycle 2
	pitch_offset $0001
	vibrato $10, $2, $4
	octave 3
	note_type $C, $B, 2
	note F#, 2
	note G_, 2
Music_TVStation_Ch2_loop:
	note A_, 2
	octave 4
	note C_, 1
	octave 3
	note B_, 1
	octave 4
	note C_, 6
	octave 3
	note A_, 2
	note B_, 2
	octave 4
	note C_, 2
	note E_, 2
	note D#, 2
	note E_, 2
	note F_, 6
	note E_, 4
	volume_envelope $B, 6
	note A_, 1
	note G#, 1
	note A_, 4
	note F_, 4
	note F_, 1
	note F_, 1
	note A_, 4
	octave 5
	note C_, 6
	note C_, 1
	note C_, 1
	note C_, 4
	note D_, 4
	duty_cycle 1
	octave 3
	note G_, 2
	octave 4
	note E_, 10
	note D_, 2
	note E_, 2
	note F_, 8
	note E_, 4
	octave 3
	note B_, 4
	octave 4
	note D_, 4
	note C_, 2
	octave 3
	note B_, 4
	note B_, 2
	octave 4
	note C_, 4
	note E_, 2
	octave 3
	note A_, 2
	octave 4
	note E_, 2
	note D_, 2
	duty_cycle 2
	octave 3
	note_type $6, $A, 1
	note G_, 1
	octave 4
	note G_, 1
	octave 5
	note G_, 1
	octave 4
	note G_, 1
	octave 3
	note G_, 1
	octave 4
	note G_, 1
	octave 5
	note G_, 1
	octave 4
	note G_, 1
	octave 3
	note G_, 1
	octave 4
	note G_, 1
	octave 5
	note G_, 1
	octave 4
	note G_, 1
	octave 3
	note G_, 1
	octave 4
	note G_, 1
	octave 5
	note G_, 1
	octave 4
	note G_, 1
	duty_cycle 0
	volume_envelope $B, 6
	octave 3
	note G_, 4
	note F#, 4
	note G_, 4
	octave 4
	note E_, 12
	note D_, 4
	note E_, 4
	note F_, 4
	note E_, 4
	note F_, 4
	note G_, 4
	note A_, 4
	octave 3
	note B_, 4
	octave 4
	note E_, 4
	octave 3
	note G_, 4
	octave 4
	note D_, 8
	note C_, 4
	octave 3
	note B_, 12
	octave 4
	note C_, 4
	note F#, 1
	note G_, 16
	rest 3
	duty_cycle 2
	volume_envelope $A, 1
	octave 6
	note D_, 1
	octave 5
	note D_, 1
	octave 6
	note D_, 1
	octave 5
	note D_, 1
	note G_, 4
	note G#, 1
	octave 4
	note G#, 1
	octave 5
	note G#, 1
	octave 4
	note G#, 1
	octave 5
	note G_, 4
	duty_cycle 1
	volume_envelope $B, 6
	octave 4
	note G_, 8
	note D#, 8
	note A#, 8
	note G_, 4
	note G#, 4
	note A#, 8
	octave 5
	note C_, 4
	octave 4
	note A_, 8
	note F#, 12
	note G#, 4
	note G#, 4
	note G_, 4
	note G#, 4
	note A#, 4
	note G#, 8
	note F_, 4
	note_type $C, $B, 6
	note G_, 16
	note G_, 2
	octave 5
	note_type $6, $B, 6
	note D_, 1
	note C#, 1
	note D_, 6
	note D_, 4
	note C#, 4
	note C_, 4
	note C#, 4
	octave 4
	note A_, 4
	octave 5
	note D_, 16
	octave 4
	note A_, 16
	note G_, 4
	octave 5
	note D_, 1
	note C#, 1
	note D_, 6
	note D_, 4
	note E_, 4
	note D_, 4
	note C#, 4
	octave 4
	note A_, 4
	octave 5
	note E_, 16
	note F#, 16
	octave 4
	note A#, 4
	octave 5
	note F_, 2
	note E_, 2
	note F_, 4
	note F_, 4
	note G_, 4
	note F#, 4
	note G_, 4
	note E_, 4
	note A_, 8
	note G_, 8
	note F_, 8
	note E_, 8
	note D#, 2
	rest 2
	note D#, 6
	rest 2
	note D#, 6
	rest 2
	note D_, 1
	note D#, 5
	rest 2
	note D#, 2
	rest 2
	note E_, 16
	rest 3
	note_type $1, $B, 6
	rest 5
	note_type $6, $B, 6
	rest 12
	note_type $1, $B, 6
	rest 1
	note_type $6, $B, 6
	octave 4
	note A_, 2
	rest 2
	note A_, 8
	note D_, 4
	octave 5
	note C_, 8
	octave 4
	note B_, 8
	note G_, 12
	note E_, 4
	octave 5
	note C_, 1
	note D_, 7
	note C_, 8
	octave 4
	note F_, 4
	note F_, 8
	note D_, 4
	note A_, 6
	note B_, 1
	note A_, 1
	note G_, 4
	note F_, 4
	note E_, 4
	rest 4
	note F_, 4
	rest 4
	note G_, 4
	rest 4
	octave 5
	note C_, 4
	rest 4
	duty_cycle 2
	volume_envelope $B, 2
	octave 4
	note A_, 4
	note F_, 4
	note E_, 4
	note D_, 12
	note D_, 2
	note E_, 2
	note F_, 2
	note G_, 2
	note G_, 4
	note E_, 4
	note D_, 4
	note C_, 4
	octave 3
	note G_, 4
	octave 4
	note C_, 4
	note D_, 4
	note E_, 4
	note F_, 4
	note D_, 4
	note F_, 4
	octave 5
	note C_, 4
	octave 4
	note B_, 4
	note A_, 4
	note G_, 4
	note F_, 4
	note_type $C, $B, 2
	note E_, 12
	octave 3
	note F#, 2
	note G_, 2
	sound_loop 0, Music_TVStation_Ch2_loop

Music_TVStation_Ch3:
	octave 1
	note_type $C, $1, $6
	note A_, 2
	rest 2
Music_TVStation_Ch3_loop:
	volume_envelope $1, $6
	octave 2
	note F#, 2
	rest 2
	note F#, 2
	rest 2
	note F_, 2
	rest 2
	note F_, 2
	rest 2
	note E_, 1
	rest 1
	note E_, 2
	rest 2
	octave 1
	note A_, 2
	rest 4
	octave 2
	note C#, 2
	note E_, 2
	octave 3
	note C_, 1
	octave 2
	note A_, 1
	note D_, 2
	rest 2
	note D_, 2
	note E_, 2
	note E_, 1
	note E_, 1
	note F_, 2
	rest 2
	note G_, 2
	rest 4
	note G_, 1
	note G_, 1
	note G_, 2
	rest 4
	note F_, 1
	note D_, 1
	note C_, 2
	rest 4
	note C_, 2
	octave 1
	note A_, 2
	rest 2
	note A_, 2
	rest 2
	octave 2
	note D_, 2
	rest 4
	note D_, 2
	octave 1
	note G_, 2
	rest 4
	note G_, 2
	octave 2
	note E_, 2
	rest 4
	note E_, 2
	note D#, 2
	rest 2
	note D#, 2
	rest 2
	note D_, 2
	rest 2
	note D_, 2
	rest 2
	note G_, 2
	octave 1
	note G_, 2
	rest 2
	note G_, 2
	octave 2
	note C_, 2
	rest 4
	note C_, 2
	octave 1
	note A_, 2
	rest 2
	note A_, 2
	rest 2
	octave 2
	note D_, 2
	rest 4
	note D_, 2
	octave 1
	note G_, 2
	rest 4
	note G_, 2
	octave 2
	note E_, 2
	rest 4
	note E_, 2
	note D#, 2
	rest 2
	note D#, 2
	rest 2
	note D_, 2
	rest 2
	note D_, 2
	rest 2
	note G_, 2
	octave 1
	note G_, 2
	rest 2
	note G_, 2
	octave 2
	note D#, 2
	rest 2
	note D#, 2
	rest 2
	note C_, 1
	rest 1
	note C_, 2
	rest 4
	octave 1
	note A_, 2
	rest 2
	note A_, 2
	rest 2
	octave 2
	note D_, 1
	rest 1
	note D_, 2
	rest 2
	note C_, 2
	note F_, 2
	rest 2
	note F_, 2
	rest 2
	octave 1
	note A#, 1
	rest 1
	note A#, 2
	rest 4
	octave 2
	note D#, 2
	rest 2
	note D_, 2
	rest 2
	note C_, 2
	rest 2
	octave 1
	note A#, 2
	rest 2
	octave 2
	note E_, 2
	rest 4
	note E_, 2
	octave 1
	note A_, 2
	rest 4
	note A_, 2
	octave 2
	note D_, 2
	rest 2
	note C#, 2
	rest 2
	octave 1
	note B_, 2
	note A_, 2
	rest 2
	note A_, 2
	octave 2
	note E_, 2
	rest 4
	note E_, 2
	octave 1
	note A_, 2
	rest 4
	note A_, 2
	octave 2
	note D_, 2
	rest 2
	note C#, 2
	rest 2
	octave 1
	note B_, 1
	rest 1
	note B_, 2
	rest 2
	note A_, 2
	octave 2
	note G_, 2
	rest 4
	note G_, 2
	note C_, 2
	rest 4
	note C_, 2
	note F_, 2
	rest 2
	note E_, 2
	rest 2
	note D_, 1
	rest 1
	note D_, 2
	rest 2
	note C_, 2
	octave 1
	note B_, 2
	rest 4
	note A_, 2
	note G#, 2
	rest 4
	note F#, 2
	note E_, 2
	rest 6
	note G_, 3
	rest 1
	octave 2
	note E_, 1
	rest 1
	note D#, 1
	rest 1
	volume_envelope $1, $5
	note D_, 5
	rest 1
	note D_, 1
	rest 1
	octave 1
	note G_, 5
	rest 1
	note G_, 1
	rest 1
	octave 2
	note C_, 5
	rest 1
	note C_, 1
	rest 1
	octave 1
	note A_, 1
	rest 1
	note A_, 5
	rest 1
	octave 2
	note D_, 5
	rest 1
	note D_, 3
	rest 1
	octave 1
	note G_, 1
	rest 1
	note G_, 2
	rest 2
	octave 2
	note C_, 2
	rest 2
	note D_, 2
	rest 2
	note E_, 2
	rest 2
	octave 1
	note A_, 5
	rest 1
	octave 2
	note D_, 1
	rest 1
	note D_, 3
	rest 1
	octave 1
	note G_, 5
	rest 1
	note B_, 3
	rest 1
	octave 2
	note C_, 1
	rest 1
	note C_, 3
	rest 1
	octave 1
	note A_, 5
	rest 1
	octave 2
	note C#, 1
	rest 1
	note D_, 1
	rest 1
	note D_, 3
	rest 1
	note D_, 1
	rest 1
	octave 1
	note G_, 3
	rest 1
	note G_, 3
	rest 1
	octave 2
	note C_, 3
	rest 1
	octave 1
	note B_, 3
	rest 1
	note A_, 3
	rest 1
	note A_, 3
	rest 1
	sound_loop 0, Music_TVStation_Ch3_loop

Music_TVStation_Ch4:
	drum_speed $C
	toggle_noise 3
	rest 4
Music_TVStation_Ch4_loop:
	rest 16
	rest 4
	drum_speed $6
	drum_note 12, 8
	drum_note 1, 1
	drum_note 1, 3
	drum_note 4, 4
	drum_note 12, 14
	drum_note 4, 2
	drum_note 1, 14
	drum_note 4, 2
	drum_note 1, 8
	drum_note 12, 8
	drum_note 1, 4
	drum_note 4, 4
	drum_note 4, 2
	drum_note 1, 4
	drum_note 4, 2
	drum_note 1, 1
	drum_note 1, 7
	drum_note 4, 12
	drum_note 4, 4
	drum_note 1, 8
	drum_note 4, 8
	drum_note 4, 12
	drum_note 4, 4
	drum_note 1, 12
	drum_note 4, 4
	drum_note 4, 12
	drum_note 4, 4
	drum_note 1, 8
	drum_note 1, 8
	drum_note 4, 8
	drum_note 4, 8
	drum_note 1, 4
	drum_note 4, 8
	drum_note 4, 4
	drum_note 4, 12
	drum_note 4, 4
	drum_note 1, 8
	drum_note 4, 8
	drum_note 4, 12
	drum_note 4, 4
	drum_note 1, 12
	drum_note 4, 4
	drum_note 4, 12
	drum_note 4, 4
	drum_note 1, 8
	drum_note 1, 8
	drum_note 4, 8
	drum_note 4, 8
	drum_note 1, 4
	drum_note 4, 8
	drum_note 4, 4
	drum_note 4, 8
	drum_note 1, 8
	drum_note 4, 4
	drum_note 4, 4
	drum_note 1, 8
	drum_note 4, 8
	drum_note 1, 8
	drum_note 4, 4
	drum_note 4, 4
	drum_note 1, 4
	drum_note 4, 4
	drum_note 4, 8
	drum_note 1, 8
	drum_note 4, 4
	drum_note 4, 4
	drum_note 1, 8
	drum_note 4, 8
	drum_note 1, 8
	drum_note 4, 4
	drum_note 4, 4
	drum_note 1, 4
	drum_note 4, 4
	drum_note 4, 12
	drum_note 4, 4
	drum_note 1, 12
	drum_note 4, 4
	drum_note 4, 8
	drum_note 4, 8
	drum_note 1, 4
	drum_note 4, 8
	drum_note 4, 4
	drum_note 4, 6
	drum_note 4, 6
	drum_note 4, 4
	drum_note 1, 6
	drum_note 4, 6
	drum_note 4, 4
	drum_note 4, 8
	drum_note 4, 8
	drum_note 1, 4
	drum_note 4, 8
	drum_note 1, 4
	drum_note 4, 6
	drum_note 4, 6
	drum_note 4, 4
	drum_note 1, 4
	drum_note 4, 2
	drum_note 1, 2
	drum_note 4, 4
	drum_note 1, 4
	drum_note 1, 8
	drum_note 4, 8
	drum_note 4, 4
	drum_note 1, 8
	drum_note 4, 12
	drum_note 4, 16
	drum_note 4, 4
	drum_note 4, 4
	drum_speed $C
	drum_note 1, 16
	drum_note 4, 6
	drum_note 4, 2
	drum_note 4, 4
	drum_note 1, 4
	drum_note 4, 6
	drum_note 4, 6
	drum_note 1, 4
	drum_note 4, 6
	drum_note 4, 4
	drum_note 4, 2
	drum_note 1, 16
	drum_note 12, 16
	rest 16
	rest 16
	rest 16
	rest 4
	sound_loop 0, Music_TVStation_Ch4_loop

