Music_SinnohSurfing:
	channel_count 3
	channel 1, Music_SinnohSurfing_Ch1
	channel 2, Music_SinnohSurfing_Ch2
	channel 3, Music_SinnohSurfing_Ch3

Music_SinnohSurfing_Ch1:
	tempo $A8
	volume $7, $7
	note_type $C, $A, 1
	duty_cycle 2
	pitch_offset $0002
	rest 12
Music_SinnohSurfing_Ch1_loop:
	octave 5
	note B_, 2
	note G_, 2
	note G_, 2
	note E_, 2
	note E_, 2
	note C_, 14
	note G_, 2
	note E_, 2
	note E_, 2
	note C_, 2
	note C_, 2
	octave 4
	note G_, 14
	octave 5
	note B_, 2
	note G_, 2
	note G_, 2
	note E_, 2
	note E_, 2
	note C_, 14
	note G_, 2
	note E_, 2
	note E_, 2
	note C_, 2
	note C_, 2
	octave 4
	note G_, 14
	octave 5
	note B_, 2
	note G_, 2
	note G_, 2
	note E_, 2
	note E_, 2
	note C_, 14
	note A_, 2
	note F_, 2
	note F_, 2
	note D_, 2
	note D_, 2
	octave 4
	note A_, 14
	octave 5
	note F_, 2
	note D_, 2
	note D_, 2
	octave 4
	note A_, 2
	note A_, 2
	note F_, 14
	octave 5
	note A_, 2
	note G_, 2
	note G_, 2
	note E_, 2
	note E_, 2
	note C#, 14
	note G_, 2
	note F_, 2
	note F_, 2
	octave 4
	note B_, 2
	note B_, 2
	note G_, 14
	volume_envelope $A, 7
	note B_, 16
	rest 8
	note G_, 12
	octave 5
	note C_, 4
	octave 4
	note B_, 4
	octave 5
	note D_, 4
	note C_, 4
	octave 4
	note G_, 4
	octave 5
	note C_, 4
	octave 4
	note B_, 4
	octave 5
	note C_, 4
	note D_, 4
	octave 4
	note A_, 12
	note B_, 4
	octave 5
	note C_, 4
	note D_, 4
	octave 4
	note A_, 12
	note A_, 4
	note B_, 4
	octave 5
	note C_, 4
	octave 4
	note G_, 12
	note E_, 8
	octave 3
	note A_, 4
	octave 4
	note A#, 4
	note A_, 4
	note C#, 4
	note D_, 8
	octave 3
	note A_, 4
	octave 4
	note F_, 8
	note D_, 4
	note G_, 8
	note C_, 4
	octave 3
	note G_, 8
	octave 4
	note C_, 4
	note G_, 8
	note C_, 4
	octave 3
	note G_, 8
	octave 4
	note G_, 4
	volume_envelope $8, 1
	duty_cycle 0
	octave 3
	note C_, 1
	note C_, 1
	octave 2
	note G_, 1
	note G_, 1
	octave 3
	note C_, 1
	note C_, 1
	note D_, 1
	note D_, 1
	note G_, 1
	note G_, 1
	octave 4
	note C_, 1
	note C_, 1
	octave 3
	note C_, 1
	note C_, 1
	octave 2
	note G#, 1
	note G#, 1
	octave 3
	note C_, 1
	note C_, 1
	note D_, 1
	note D_, 1
	note G#, 1
	note G#, 1
	octave 4
	note C_, 1
	note C_, 1
	octave 3
	note C_, 1
	note C_, 1
	octave 2
	note F_, 1
	note F_, 1
	octave 3
	note C_, 1
	note C_, 1
	note D_, 1
	note D_, 1
	note F_, 1
	note F_, 1
	note A_, 1
	note A_, 1
	note C_, 1
	note C_, 1
	octave 2
	note F_, 1
	note F_, 1
	octave 3
	note C_, 1
	note C_, 1
	note F_, 1
	note F_, 1
	note A_, 1
	note A_, 1
	octave 4
	note C_, 1
	note C_, 1
	octave 3
	note C_, 1
	note C_, 1
	octave 2
	note D_, 1
	note D_, 1
	octave 3
	note C_, 1
	note C_, 1
	note D_, 1
	note D_, 1
	note A_, 1
	note A_, 1
	octave 4
	note C_, 1
	note C_, 1
	octave 2
	note A_, 1
	note A_, 1
	note D_, 1
	note D_, 1
	note A_, 1
	note A_, 1
	octave 3
	note F#, 1
	note F#, 1
	note A_, 1
	note A_, 1
	octave 4
	note F#, 1
	note F#, 1
	octave 2
	note B_, 1
	note B_, 1
	note G_, 1
	note G_, 1
	note B_, 1
	note B_, 1
	octave 3
	note D_, 1
	note D_, 1
	note G_, 1
	note G_, 1
	note B_, 1
	note B_, 1
	octave 2
	note B_, 1
	note B_, 1
	note F_, 1
	note F_, 1
	note B_, 1
	note B_, 1
	octave 3
	note F_, 1
	note F_, 1
	note G_, 1
	note G_, 1
	note B_, 1
	note B_, 1
	note C_, 1
	note C_, 1
	note G_, 1
	note G_, 1
	octave 4
	note C_, 1
	note C_, 1
	note G_, 1
	note G_, 1
	octave 5
	note C_, 1
	note C_, 1
	note E_, 1
	note E_, 1
	octave 2
	note B_, 1
	note B_, 1
	octave 3
	note E_, 1
	note E_, 1
	note B_, 1
	note B_, 1
	octave 4
	note D_, 1
	note D_, 1
	note G#, 1
	note G#, 1
	octave 5
	note D_, 1
	note D_, 1
	octave 3
	note C_, 1
	note C_, 1
	note E_, 2
	note A_, 1
	note A_, 1
	octave 4
	note E_, 1
	note E_, 1
	note A_, 1
	note A_, 1
	octave 5
	note E_, 1
	note E_, 1
	octave 3
	note C_, 1
	note C_, 1
	note D#, 1
	note D#, 1
	note A_, 1
	note A_, 1
	octave 4
	note C_, 1
	note C_, 1
	note F#, 1
	note F#, 1
	octave 5
	note C_, 1
	note C_, 1
	octave 2
	note G_, 1
	note G_, 1
	note G_, 1
	note G_, 1
	octave 3
	note C_, 1
	note C_, 1
	note C_, 1
	note C_, 1
	note D_, 1
	note D_, 1
	note D_, 1
	note D_, 1
	note G_, 1
	note G_, 1
	note G_, 1
	note G_, 1
	octave 4
	note C_, 1
	note C_, 1
	note C_, 1
	note C_, 1
	note D_, 1
	note D_, 1
	note D_, 1
	note D_, 1
	octave 2
	note G_, 1
	note G_, 1
	note G_, 1
	note G_, 1
	note B_, 1
	note B_, 1
	note B_, 1
	note B_, 1
	octave 3
	note D_, 1
	note D_, 1
	note D_, 1
	note D_, 1
	note F_, 1
	note F_, 1
	note F_, 1
	note F_, 1
	note G_, 1
	note G_, 1
	note G_, 1
	note G_, 1
	octave 4
	note D_, 1
	note D_, 1
	note D_, 1
	note D_, 13
	volume_envelope $A, 1
	duty_cycle 2
	octave 5
	note B_, 2
	note G_, 2
	note G_, 2
	note E_, 2
	note E_, 2
	note C_, 14
	note G_, 2
	note E_, 2
	note E_, 2
	note C_, 2
	note C_, 2
	octave 4
	note G_, 14
	sound_loop 0, Music_SinnohSurfing_Ch1_loop

Music_SinnohSurfing_Ch2:
	note_type $C, $B, 2
	duty_cycle 1
	pitch_offset $0001
	octave 2
	note C_, 2
	octave 1
	note G_, 2
	note C_, 2
	note G_, 2
	octave 2
	note D_, 2
	note E_, 4
Music_SinnohSurfing_Ch2_loop:
	note G_, 2
	octave 3
	note D_, 2
	note E_, 2
	note G_, 2
	octave 4
	note C_, 2
	octave 2
	note C_, 2
	octave 1
	note G_, 2
	note C_, 2
	note G_, 2
	octave 2
	note D_, 2
	note E_, 4
	note G_, 2
	octave 3
	note D_, 2
	note E_, 2
	note G_, 2
	octave 4
	note C_, 2
	octave 2
	note C_, 2
	octave 1
	note G_, 2
	note C_, 2
	note G_, 2
	octave 2
	note D_, 2
	note E_, 4
	note G_, 2
	octave 3
	note D_, 2
	note E_, 2
	note G_, 2
	octave 4
	note C_, 2
	octave 2
	note C_, 2
	octave 1
	note G_, 2
	note C_, 2
	note G_, 2
	octave 2
	note D_, 2
	note E_, 4
	note G_, 2
	octave 3
	note D_, 2
	note E_, 2
	note G_, 2
	octave 4
	note C_, 2
	octave 2
	note C_, 2
	octave 1
	note G_, 2
	note C_, 2
	note G_, 2
	octave 2
	note C_, 2
	note E_, 4
	note G_, 2
	octave 3
	note C_, 2
	note E_, 2
	note G_, 2
	octave 4
	note C_, 2
	octave 2
	note D_, 2
	octave 1
	note A_, 2
	note C_, 2
	note A_, 2
	octave 2
	note D_, 2
	note F_, 4
	note A_, 2
	octave 3
	note C_, 2
	note D_, 2
	note F_, 2
	note A_, 2
	octave 2
	note D_, 2
	octave 1
	note A_, 2
	note D_, 2
	note A_, 2
	octave 2
	note D_, 2
	note F_, 4
	note A_, 2
	octave 3
	note C_, 2
	note D_, 2
	note F_, 2
	note A_, 2
	octave 2
	note C_, 2
	octave 1
	note G_, 2
	note C_, 2
	note G_, 2
	octave 2
	note D_, 2
	note E_, 4
	note G_, 2
	note A_, 2
	octave 3
	note C#, 2
	note G_, 2
	note A_, 2
	octave 2
	note C_, 2
	octave 1
	note A_, 2
	note D_, 2
	note A_, 2
	octave 2
	note C_, 2
	note D_, 4
	note F_, 2
	note G_, 2
	note B_, 2
	octave 3
	note F_, 2
	note G_, 2
	octave 2
	note C_, 2
	octave 1
	note G_, 2
	note C_, 2
	note G_, 2
	octave 2
	note D_, 2
	note E_, 4
	note G_, 2
	octave 3
	note D_, 2
	note E_, 2
	note G_, 2
	octave 4
	note C_, 2
	octave 2
	note C_, 2
	octave 1
	note G_, 2
	note C_, 2
	note G_, 2
	octave 2
	note D_, 2
	note E_, 4
	note G_, 2
	octave 3
	note D_, 2
	note E_, 2
	note G_, 2
	octave 4
	note C_, 2
	octave 3
	note C_, 4
	octave 4
	note E_, 4
	note C_, 4
	octave 3
	note E_, 4
	note B_, 4
	octave 4
	note E_, 4
	octave 3
	note F_, 4
	octave 4
	note C_, 4
	note F_, 4
	octave 3
	note D_, 4
	octave 4
	note D_, 4
	octave 3
	note A_, 4
	note G_, 4
	octave 4
	note D_, 4
	note F_, 4
	octave 2
	note B_, 4
	octave 3
	note B_, 4
	octave 4
	note D_, 4
	octave 3
	note E_, 4
	octave 4
	note D_, 4
	octave 3
	note B_, 4
	note C_, 4
	note B_, 4
	octave 4
	note D_, 8
	octave 3
	note E_, 4
	note A_, 4
	octave 4
	note G_, 4
	octave 3
	note A_, 4
	note E_, 8
	note D_, 4
	note A_, 4
	octave 4
	note F_, 4
	octave 3
	note A_, 4
	note D_, 8
	note D_, 4
	note G_, 4
	octave 4
	note D_, 4
	octave 3
	note G_, 4
	note C_, 8
	note C_, 4
	note G_, 4
	octave 4
	note D_, 4
	octave 3
	note G_, 4
	octave 2
	note B_, 4
	volume_envelope $8, 1
	duty_cycle 0
	octave 4
	note E_, 1
	note E_, 1
	note G_, 1
	note G_, 1
	octave 5
	note D_, 1
	note D_, 1
	note C_, 1
	note C_, 1
	octave 4
	note E_, 1
	note E_, 1
	octave 3
	note G_, 1
	note G_, 1
	octave 4
	note E_, 1
	note E_, 1
	note G#, 1
	note G#, 1
	octave 5
	note D_, 1
	note D_, 1
	note C_, 1
	note C_, 1
	octave 4
	note G#, 1
	note G#, 1
	octave 3
	note G#, 1
	note G#, 1
	octave 4
	note F_, 1
	note F_, 1
	note A_, 1
	note A_, 1
	octave 5
	note E_, 1
	note E_, 1
	note D_, 1
	note D_, 1
	octave 4
	note A_, 1
	note A_, 1
	note D_, 1
	note D_, 1
	note F_, 1
	note F_, 1
	note A_, 1
	note A_, 1
	octave 5
	note E_, 1
	note E_, 1
	note C_, 1
	note C_, 1
	octave 4
	note A_, 1
	note A_, 1
	note D_, 1
	note D_, 1
	note F#, 1
	note F#, 1
	note A_, 1
	note A_, 1
	octave 5
	note E_, 1
	note E_, 1
	note D_, 1
	note D_, 1
	octave 4
	note A_, 1
	note A_, 1
	note D_, 1
	note D_, 1
	note F#, 1
	note F#, 1
	note A_, 1
	note A_, 1
	octave 5
	note D_, 1
	note D_, 1
	note C_, 1
	note C_, 1
	octave 4
	note A_, 1
	note A_, 1
	note D_, 1
	note D_, 1
	note G_, 1
	note G_, 1
	note B_, 1
	note B_, 1
	octave 5
	note E_, 1
	note E_, 1
	note D_, 1
	note D_, 1
	octave 4
	note B_, 1
	note B_, 1
	note D_, 1
	note D_, 1
	note F_, 1
	note F_, 1
	note G_, 1
	note G_, 1
	octave 5
	note D_, 1
	note D_, 1
	octave 4
	note B_, 1
	note B_, 1
	note G_, 1
	note G_, 1
	note D_, 1
	note D_, 1
	note C_, 2
	note G_, 2
	note G_, 2
	note C_, 2
	octave 5
	note C_, 2
	note C_, 2
	octave 3
	note B_, 2
	octave 4
	note G#, 2
	note G#, 2
	octave 3
	note B_, 2
	octave 5
	note D_, 2
	note D_, 2
	note C_, 2
	octave 4
	note A_, 2
	note E_, 2
	note C_, 2
	octave 3
	note A_, 2
	note E_, 2
	octave 5
	note C_, 2
	octave 4
	note A_, 2
	note F#, 2
	note D#, 2
	note C_, 2
	octave 3
	note A_, 2
	volume_envelope $B, 2
	octave 5
	note C_, 4
	octave 4
	note G_, 4
	octave 5
	note C_, 4
	note G_, 4
	note C_, 4
	note G_, 4
	note D_, 4
	octave 4
	note F_, 4
	octave 5
	note D_, 4
	note G_, 4
	note D_, 4
	note G_, 4
	duty_cycle 1
	octave 2
	note C_, 2
	octave 1
	note G_, 2
	note C_, 2
	note G_, 2
	octave 2
	note D_, 2
	note E_, 4
	note G_, 2
	octave 3
	note D_, 2
	note E_, 2
	note G_, 2
	octave 4
	note C_, 2
	octave 2
	note C_, 2
	octave 1
	note G_, 2
	note C_, 2
	note G_, 2
	octave 2
	note D_, 2
	note E_, 4
	note G_, 2
	octave 3
	note D_, 2
	note E_, 2
	note G_, 2
	octave 4
	note C_, 2
	octave 2
	note C_, 2
	octave 1
	note G_, 2
	note C_, 2
	note G_, 2
	octave 2
	note D_, 2
	note E_, 4
	sound_loop 0, Music_SinnohSurfing_Ch2_loop

Music_SinnohSurfing_Ch3:
	note_type $C, $1, $1
	vibrato $14, $1, $6
	rest 12
Music_SinnohSurfing_Ch3_loop:
	rest 4
	rest 16
	rest 15
	note_type $6, $1, $1
	octave 5
	note A_, 1
	note A#, 1
	note_type $C, $1, $1
	note B_, 12
	note B_, 4
	octave 6
	note C_, 4
	note D_, 4
	octave 5
	note A_, 12
	note G_, 12
	note A_, 12
	note A_, 4
	note B_, 4
	octave 6
	note C_, 3
	note_type $6, $1, $1
	note C#, 1
	note D_, 1
	note_type $C, $1, $1
	note E_, 12
	note D_, 8
	note F_, 2
	note E_, 2
	octave 5
	note A_, 12
	note B_, 4
	octave 6
	note C_, 4
	note D_, 4
	note E_, 12
	note C#, 12
	note D_, 8
	octave 5
	note A_, 4
	note B_, 4
	note G_, 4
	octave 6
	note D_, 4
	note C_, 16
	note C_, 16
	note C_, 16
	octave 5
	note C_, 4
	octave 4
	note B_, 4
	octave 5
	note D_, 4
	note C_, 4
	octave 4
	note G_, 4
	octave 5
	note C_, 4
	octave 4
	note B_, 4
	octave 5
	note C_, 4
	note D_, 4
	octave 4
	note A_, 12
	note B_, 4
	octave 5
	note C_, 4
	note D_, 4
	octave 4
	note A_, 12
	note A_, 4
	note B_, 4
	octave 5
	note C_, 4
	octave 4
	note G_, 8
	note G_, 3
	note_type $6, $1, $1
	octave 5
	note F_, 1
	note F#, 1
	note_type $C, $1, $1
	note G_, 12
	note G_, 4
	note F_, 4
	note E_, 4
	note G_, 8
	note F_, 4
	octave 4
	note A_, 8
	note B_, 4
	octave 5
	note C_, 12
	note C_, 4
	octave 4
	note B_, 4
	octave 5
	note C_, 4
	note E_, 12
	note D_, 8
	octave 4
	note G_, 3
	note_type $6, $1, $1
	octave 5
	note A#, 1
	note B_, 1
	octave 6
	note C_, 16
	octave 5
	note G_, 8
	octave 6
	note E_, 12
	note F_, 4
	note E_, 8
	note D_, 16
	octave 5
	note F_, 8
	note_type $C, $1, $1
	note A_, 11
	note_type $6, $1, $1
	note A#, 1
	note B_, 1
	octave 6
	note C_, 16
	octave 5
	note F#, 8
	octave 6
	note D_, 12
	note E_, 4
	note D_, 8
	octave 5
	note B_, 16
	note D_, 8
	note_type $C, $1, $1
	note G_, 12
	note E_, 4
	note F_, 4
	note G_, 4
	note G#, 6
	note E_, 2
	octave 6
	note D_, 4
	note C_, 8
	octave 5
	note B_, 4
	octave 6
	note D_, 8
	note C_, 4
	octave 5
	note G_, 16
	note G_, 8
	note B_, 16
	note B_, 8
	octave 6
	note C_, 16
	note C_, 16
	note C_, 3
	octave 4
	rest 16
	rest 9
	sound_loop 0, Music_SinnohSurfing_Ch3_loop
