Music_MespritBattle:
	channel_count 4
	channel 1, Music_MespritBattle_Ch1
	channel 2, Music_MespritBattle_Ch2
	channel 3, Music_MespritBattle_Ch3
	channel 4, Music_MespritBattle_Ch4

Music_MespritBattle_Ch1:
	tempo $67
	volume $7, $7
	stereo_panning TRUE, TRUE
	pitch_offset $0002
	octave 5
	note_type $C, $1, 2
	note C_, 4
	volume_envelope $2, 2
	note C_, 4
	volume_envelope $3, 2
	note C_, 4
	volume_envelope $4, 2
	note C_, 4
	volume_envelope $5, 2
	note C_, 4
	volume_envelope $6, 2
	note C_, 4
	volume_envelope $7, 2
	note C_, 4
	volume_envelope $8, 2
	note C_, 4
	volume_envelope $9, 2
	note C_, 4
	volume_envelope $A, 2
	note C_, 4
	volume_envelope $B, 2
	note C_, 4
	volume_envelope $C, 2
	note C_, 4
	note C_, 4
	note C_, 4
	note C_, 4
	note C_, 4
	note C_, 4
	note C_, 4
	note C_, 4
	note C_, 4
	note C_, 4
	note C_, 4
	note C_, 4
	note C_, 4
	duty_cycle 2
	octave 4
	note C_, 1
	rest 1
	note C_, 1
	rest 1
	note G_, 1
	note F_, 1
	note G_, 1
	rest 3
	octave 5
	note C_, 1
	octave 4
	note A#, 1
	octave 5
	note C_, 1
	rest 3
	octave 4
	note C_, 1
	rest 1
	note C_, 1
	rest 1
	note G_, 1
	note F_, 1
	note G_, 1
	rest 3
	octave 5
	note C_, 1
	octave 4
	note A#, 1
	octave 5
	note C_, 1
	rest 3
	octave 4
	note C_, 1
	rest 1
	note C_, 1
	rest 1
	note G_, 1
	note F_, 1
	note G_, 1
	rest 3
	octave 5
	note C_, 1
	octave 4
	note A#, 1
	octave 5
	note C_, 1
	rest 3
	octave 4
	note C_, 1
	rest 1
	note C_, 1
	rest 1
	note G_, 1
	note F_, 1
	note G_, 1
	rest 3
	octave 5
	note C_, 1
	octave 4
	note A#, 1
	octave 5
	note C_, 1
	rest 3
	octave 4
	note C_, 1
	rest 1
	note C_, 1
	rest 1
	note G_, 1
	note F_, 1
	note G_, 1
	rest 3
	octave 5
	note C_, 1
	octave 4
	note A#, 1
	octave 5
	note C_, 1
	rest 3
	octave 4
	note C_, 1
	rest 1
	note C_, 1
	rest 1
	note G_, 1
	note F_, 1
	note G_, 1
	rest 3
	octave 5
	note C_, 1
	octave 4
	note A#, 1
	octave 5
	note C_, 1
	rest 3
	volume_envelope $C, 7
	pitch_slide 1, 7, F_
	octave 3
	note A_, 16
Music_MespritBattle_Ch1_loop:
	rest 16
	rest 16
	rest 16
	rest 16
	volume_envelope $C, 1
	note C_, 2
	octave 1
	note G_, 2
	note G_, 2
	octave 3
	note C_, 2
	octave 1
	note G_, 2
	note G_, 2
	octave 3
	note C_, 2
	octave 1
	note G_, 2
	note G_, 2
	octave 3
	note C_, 2
	note C_, 2
	octave 1
	note G_, 2
	note G_, 2
	octave 3
	note C_, 2
	note C_, 1
	note C_, 1
	octave 1
	note G_, 2
	note G_, 2
	note G_, 2
	octave 3
	note C_, 2
	octave 1
	note G_, 2
	octave 3
	note C_, 2
	octave 1
	note G_, 2
	note G_, 2
	octave 3
	note C_, 2
	octave 1
	note G_, 2
	octave 3
	note C_, 2
	octave 1
	note G_, 2
	note G_, 2
	octave 3
	note C_, 2
	octave 1
	note G_, 2
	note G_, 2
	octave 3
	note C_, 2
	duty_cycle 1
	volume_envelope $B, 6
	vibrato $06, $3, $6
	note G_, 4
	note B_, 4
	octave 4
	note C_, 4
	note F_, 2
	note D#, 2
	note D_, 8
	note C_, 4
	octave 3
	note G#, 4
	note G_, 4
	note B_, 2
	octave 4
	note C_, 2
	note F_, 4
	note D#, 4
	note D_, 16
	octave 3
	note G_, 4
	note B_, 4
	octave 4
	note C_, 4
	note F_, 2
	note D#, 2
	note D_, 8
	note C_, 4
	octave 3
	note G#, 4
	note G_, 4
	note B_, 2
	octave 4
	note C_, 2
	octave 3
	note A#, 4
	note F_, 4
	note G_, 16
	duty_cycle 2
	octave 2
	note G_, 6
	note D_, 4
	note G_, 2
	note D_, 4
	note E_, 16
	note G#, 6
	note D#, 4
	note G#, 2
	note D#, 4
	note F_, 16
	octave 3
	note G_, 6
	note D_, 4
	note G_, 2
	note D_, 4
	note E_, 16
	note G#, 6
	note D#, 4
	note G#, 2
	note D#, 4
	note F_, 16
	note G_, 4
	note B_, 4
	octave 4
	note C_, 4
	note F_, 2
	note D#, 2
	note D_, 8
	note C_, 4
	octave 3
	note G#, 4
	note G_, 4
	note B_, 2
	octave 4
	note C_, 2
	note F_, 4
	note D#, 4
	note D_, 16
	octave 3
	note G_, 4
	note B_, 4
	octave 4
	note C_, 4
	note F_, 2
	note D#, 2
	note D_, 8
	note C_, 4
	octave 3
	note G#, 4
	note G_, 4
	note B_, 2
	octave 4
	note C_, 2
	octave 3
	note A#, 4
	note F_, 4
	note G_, 15
	rest 3
	duty_cycle 0
	volume_envelope $1, 2
	octave 4
	note C_, 4
	volume_envelope $2, 2
	note C_, 4
	volume_envelope $3, 2
	note C_, 4
	volume_envelope $4, 2
	note C_, 4
	volume_envelope $5, 2
	note C_, 4
	volume_envelope $6, 2
	note C_, 4
	volume_envelope $7, 2
	note C_, 4
	volume_envelope $8, 2
	note C_, 4
	volume_envelope $9, 2
	note C_, 4
	volume_envelope $A, 2
	note C_, 4
	volume_envelope $B, 2
	note C_, 4
	volume_envelope $C, 2
	note C_, 4
	note C_, 4
	note C_, 4
	note C_, 4
	note C_, 4
	note C#, 4
	note C#, 4
	note C#, 4
	note C#, 4
	note C#, 4
	note C#, 4
	note C#, 4
	note C#, 4
	note C#, 4
	note C#, 4
	note C#, 4
	volume_envelope $A, 2
	note C#, 4
	volume_envelope $8, 2
	note C#, 4
	volume_envelope $6, 2
	note C#, 4
	volume_envelope $4, 2
	note C#, 4
	volume_envelope $2, 2
	note C#, 2
	volume_envelope $A, 6
	octave 3
	note G_, 4
	note B_, 4
	octave 4
	note C_, 4
	note F_, 2
	note D#, 2
	note D_, 8
	note C_, 4
	octave 3
	note G#, 4
	note G_, 4
	note B_, 2
	octave 4
	note C_, 2
	note F_, 4
	note D#, 4
	note D_, 16
	octave 3
	note G_, 4
	note B_, 4
	octave 4
	note C_, 4
	note F_, 2
	note D#, 2
	note D_, 8
	note C_, 4
	octave 3
	note G#, 4
	note G_, 4
	note B_, 2
	octave 4
	note C_, 2
	octave 3
	note A#, 4
	note F_, 4
	note G_, 16
	duty_cycle 1
	volume_envelope $8, 8
	note C_, 16
	volume_envelope $A, 2
	note C_, 16
	volume_envelope $8, 8
	note C_, 16
	volume_envelope $A, 2
	note C_, 16
	volume_envelope $8, 8
	note C_, 8
	octave 2
	note A#, 16
	octave 3
	note C_, 8
	octave 2
	note G_, 16
	volume_envelope $A, 2
	note A#, 16
	volume_envelope $8, 8
	note C_, 8
	octave 1
	note A#, 16
	note F_, 8
	note G_, 16
	volume_envelope $A, 2
	octave 2
	note C_, 16
	rest 16
	rest 16
	duty_cycle 0
	volume_envelope $1, 2
	octave 5
	note C_, 4
	volume_envelope $2, 2
	note C_, 4
	volume_envelope $3, 2
	note C_, 4
	volume_envelope $4, 2
	note C_, 4
	volume_envelope $5, 2
	note C_, 4
	volume_envelope $6, 2
	note C_, 4
	volume_envelope $7, 2
	note C_, 4
	volume_envelope $8, 2
	note C_, 4
	volume_envelope $9, 2
	note C_, 4
	volume_envelope $A, 2
	note C_, 4
	volume_envelope $B, 2
	note C_, 4
	volume_envelope $C, 2
	octave 4
	note A#, 4
	note A#, 4
	note A#, 4
	note A#, 4
	octave 5
	note C_, 4
	octave 4
	note G_, 4
	note G_, 4
	note G_, 4
	note G_, 4
	note G_, 4
	note A#, 4
	note A#, 4
	note A#, 4
	octave 5
	note C_, 4
	note C_, 4
	octave 4
	note A#, 4
	note A#, 4
	note A#, 4
	note A#, 4
	octave 5
	note C_, 4
	note C_, 4
	octave 4
	note G_, 4
	note G_, 4
	note G_, 4
	note G_, 4
	octave 5
	note C_, 4
	note C_, 4
	note C_, 4
	note C_, 4
	octave 5
	duty_cycle 2
	sound_loop 0, Music_MespritBattle_Ch1_loop

Music_MespritBattle_Ch2:
	pitch_offset $0001
	octave 4
	note_type $C, $1, 2
	note G_, 4
	volume_envelope $2, 2
	note G_, 4
	volume_envelope $3, 2
	note G_, 4
	volume_envelope $4, 2
	note G_, 4
	volume_envelope $5, 2
	note G_, 4
	volume_envelope $6, 2
	note G_, 4
	volume_envelope $7, 2
	note G_, 4
	volume_envelope $8, 2
	note G_, 4
	volume_envelope $9, 2
	note G_, 4
	volume_envelope $A, 2
	note G_, 4
	volume_envelope $B, 2
	note G_, 4
	volume_envelope $C, 2
	note G_, 4
	note G_, 4
	note G_, 4
	note G_, 4
	note G_, 4
	note G_, 4
	note G_, 4
	note G_, 4
	note G_, 4
	note G_, 4
	note G_, 4
	note G_, 4
	note G_, 4
	note G_, 4
	note G_, 4
	note G_, 4
	note G_, 4
	note G_, 4
	note G_, 4
	note G_, 4
	note G_, 4
	note G_, 4
	note G_, 4
	octave 5
	note C_, 2
	note G_, 2
	note D#, 2
	note G#, 2
	note D_, 2
	note A_, 2
	note C#, 2
	note E_, 2
	note C_, 2
	note G_, 2
	note D#, 2
	note G#, 2
	note D_, 2
	note A_, 2
	note C#, 2
	note E_, 2
	note C_, 2
	note G_, 2
	note D#, 2
	note G#, 2
	note D_, 2
	note A_, 2
	note C#, 2
	note E_, 2
	note C_, 2
	note G_, 2
	note D#, 2
	note G#, 2
	octave 2
	note D#, 4
	rest 12
Music_MespritBattle_Ch2_loop:
	rest 16
	rest 16
	rest 16
	rest 16
	rest 16
	rest 16
	rest 16
	rest 16
	duty_cycle 1
	volume_envelope $C, 7
	vibrato $08, $2, $4
	octave 4
	note C_, 4
	note E_, 4
	note F_, 4
	note A#, 2
	note G#, 2
	note G_, 8
	note F_, 4
	note C#, 4
	note C_, 4
	note E_, 2
	note F_, 2
	note A#, 4
	note G#, 4
	note G_, 16
	note C_, 4
	note E_, 4
	note F_, 4
	note A#, 2
	note G#, 2
	note G_, 8
	note F_, 4
	note C#, 4
	note C_, 4
	note E_, 2
	note F_, 2
	note C#, 4
	octave 3
	note A#, 4
	octave 4
	note C_, 16
	duty_cycle 2
	octave 3
	note G_, 6
	note D_, 4
	note G_, 2
	note D_, 4
	note E_, 16
	note G#, 6
	note D#, 4
	note G#, 2
	note D#, 4
	note F_, 16
	octave 4
	note G_, 6
	note D_, 4
	note G_, 2
	note D_, 4
	note E_, 16
	note G#, 6
	note D#, 4
	note G#, 2
	note D#, 4
	note F_, 16
	duty_cycle 0
	note C_, 4
	note E_, 4
	note F_, 4
	note A#, 2
	note G#, 2
	note G_, 8
	note F_, 4
	note C#, 4
	note C_, 4
	note E_, 2
	note F_, 2
	note A#, 4
	note G#, 4
	note G_, 16
	note C_, 4
	note E_, 4
	note F_, 4
	note A#, 2
	note G#, 2
	note G_, 8
	note F_, 4
	note C#, 4
	note C_, 4
	note E_, 2
	note F_, 2
	note C#, 4
	octave 3
	note A#, 4
	octave 4
	note C_, 16
	duty_cycle 2
	volume_envelope $B, 1
	octave 6
	note E_, 2
	octave 5
	note E_, 1
	note F_, 1
	note E_, 1
	note F_, 1
	note E_, 1
	note F_, 1
	note F#, 1
	note F_, 1
	note E_, 1
	note F_, 1
	note E_, 1
	note F_, 1
	note E_, 1
	note F_, 1
	note C_, 2
	octave 4
	note C_, 1
	note C#, 1
	note C_, 1
	note C#, 1
	note C_, 1
	note C#, 1
	note D_, 1
	note C#, 1
	note C_, 1
	note C#, 1
	note C_, 1
	note C#, 1
	note C_, 1
	note C#, 1
	octave 6
	note E_, 2
	octave 5
	note E_, 1
	note F_, 1
	note E_, 1
	note F_, 1
	note E_, 1
	note F_, 1
	note F#, 1
	note F_, 1
	note E_, 1
	note F_, 1
	note E_, 1
	note F_, 1
	note E_, 1
	note F_, 1
	note C_, 2
	octave 4
	note C_, 1
	note C#, 1
	note C_, 1
	note C#, 1
	note C_, 1
	note C#, 1
	note D_, 1
	note C#, 1
	note C_, 1
	note C#, 1
	note C_, 1
	note C#, 1
	note C_, 1
	note C#, 1
	octave 6
	note F_, 2
	octave 5
	note F_, 1
	note F#, 1
	note F_, 1
	note F#, 1
	note F_, 1
	note F#, 1
	note G_, 1
	note F#, 1
	note F_, 1
	note F#, 1
	note F_, 1
	note F#, 1
	note F_, 1
	note F#, 1
	note C#, 2
	octave 4
	note C#, 1
	note D_, 1
	note C#, 1
	note D_, 1
	note C#, 1
	note D_, 1
	note D#, 1
	note D_, 1
	note C#, 1
	note D_, 1
	note C#, 1
	note D_, 1
	note C#, 1
	note D_, 1
	octave 6
	note F_, 2
	octave 5
	note F_, 1
	note F#, 1
	note F_, 1
	note F#, 1
	note F_, 1
	note F#, 1
	note G_, 1
	note F#, 1
	note F_, 1
	note F#, 1
	note F_, 1
	note F#, 1
	note F_, 1
	note F#, 1
	note C#, 2
	octave 4
	note C#, 1
	note D_, 1
	note C#, 1
	note D_, 1
	note C#, 1
	note D_, 1
	note D#, 1
	note D_, 1
	note C#, 1
	note D_, 1
	note C#, 1
	note D_, 1
	note C#, 1
	note D_, 1
	duty_cycle 0
	volume_envelope $C, 7
	note C_, 4
	note E_, 4
	note F_, 4
	note A#, 2
	note G#, 2
	note G_, 8
	note F_, 4
	note C#, 4
	note C_, 4
	note E_, 2
	note F_, 2
	note A#, 4
	note G#, 4
	note G_, 16
	note C_, 4
	note E_, 4
	note F_, 4
	note A#, 2
	note G#, 2
	note G_, 8
	note F_, 4
	note C#, 4
	note C_, 4
	note E_, 2
	note F_, 2
	note C#, 4
	octave 3
	note A#, 4
	octave 4
	note C_, 16
	volume_envelope $A, 8
	note C_, 16
	volume_envelope $C, 2
	note C_, 4
	rest 12
	volume_envelope $A, 8
	note C_, 16
	volume_envelope $C, 2
	note C_, 4
	rest 12
	volume_envelope $A, 8
	note C_, 8
	octave 3
	note A#, 16
	octave 4
	note C_, 8
	octave 3
	note G_, 16
	volume_envelope $C, 2
	note A#, 4
	rest 12
	volume_envelope $A, 8
	note C_, 8
	octave 2
	note A#, 16
	note F_, 8
	note G_, 16
	volume_envelope $C, 2
	octave 3
	note C_, 4
	rest 12
	duty_cycle 1
	volume_envelope $9, 8
	octave 2
	note C_, 16
	volume_envelope $B, 2
	note C_, 16
	volume_envelope $9, 8
	note C_, 16
	volume_envelope $B, 2
	note C_, 16
	volume_envelope $9, 8
	note C_, 8
	octave 1
	note A#, 16
	octave 2
	note C_, 8
	octave 1
	note G_, 16
	volume_envelope $B, 2
	note A#, 16
	volume_envelope $9, 8
	octave 2
	note C_, 8
	octave 1
	note A#, 16
	note F_, 8
	note G_, 16
	volume_envelope $B, 2
	octave 2
	note C_, 16
	sound_loop 0, Music_MespritBattle_Ch2_loop

Music_MespritBattle_Ch3:
	note_type $C, $1, $5
	rest 16
	rest 16
	rest 16
	rest 16
	octave 2
	note C_, 2
	note G_, 2
	note D#, 2
	note G#, 2
	note D_, 2
	note A_, 2
	note C#, 2
	note E_, 2
	note C_, 2
	note G_, 2
	note D#, 2
	note G#, 2
	note D_, 2
	note A_, 2
	note C#, 2
	note E_, 2
	note C_, 2
	note G_, 2
	note D#, 2
	note G#, 2
	note D_, 2
	note A_, 2
	note C#, 2
	note E_, 2
	note C_, 2
	note G_, 2
	note D#, 2
	note G#, 2
	note D_, 2
	note A_, 2
	note C#, 2
	note E_, 2
	note C_, 2
	note G_, 2
	note D#, 2
	note G#, 2
	note D_, 2
	note A_, 2
	note C#, 2
	note E_, 2
	note C_, 2
	note G_, 2
	note D#, 2
	note G#, 2
	note D_, 2
	note A_, 2
	note C#, 2
	note E_, 2
	note C_, 2
	note G_, 2
	note D#, 2
	note G#, 2
	note D_, 2
	note A_, 2
	note C#, 2
	note E_, 2
	note C_, 2
	note G_, 2
	note D#, 2
	note G#, 2
	note D_, 2
	note A_, 2
	note C#, 2
	note E_, 2
	note C_, 2
	note C_, 2
	note C_, 2
	note C_, 2
	note C_, 2
	note C_, 2
	volume_envelope $1, $9
	octave 1
	note B_, 1
	octave 2
	note C_, 1
	note C_, 1
	note C_, 1
Music_MespritBattle_Ch3_loop:
	note C_, 6
	note C#, 2
	rest 2
	octave 1
	note A#, 4
	note G#, 1
	rest 1
	octave 2
	note C_, 6
	note C#, 2
	rest 2
	octave 1
	note A#, 4
	octave 2
	note C#, 1
	rest 1
	note C_, 6
	note C#, 2
	rest 2
	octave 1
	note A#, 4
	note G#, 1
	rest 1
	octave 2
	note C_, 6
	note C#, 2
	rest 2
	octave 1
	note A#, 4
	note G#, 1
	rest 1
	octave 2
	note C_, 6
	note C#, 2
	rest 2
	octave 1
	note A#, 4
	note G#, 1
	rest 1
	octave 2
	note C_, 6
	note C#, 2
	rest 2
	octave 1
	note A#, 4
	octave 2
	note C#, 1
	rest 1
	note C_, 6
	note C#, 2
	rest 2
	octave 1
	note A#, 4
	note G#, 1
	rest 1
	octave 2
	note C_, 6
	note C#, 2
	rest 2
	octave 1
	note A#, 1
	octave 2
	note C_, 1
	note C#, 1
	octave 1
	note A#, 1
	note G#, 1
	octave 2
	note C#, 1
	note C_, 6
	note C#, 2
	rest 2
	octave 1
	note A#, 4
	note G#, 1
	rest 1
	octave 2
	note C_, 6
	note C#, 2
	rest 2
	octave 1
	note A#, 4
	octave 2
	note C#, 1
	rest 1
	note C_, 6
	note C#, 2
	rest 2
	octave 1
	note A#, 4
	note G#, 1
	rest 1
	octave 2
	note C_, 6
	note C#, 2
	rest 2
	octave 1
	note A#, 4
	note G#, 1
	rest 1
	octave 2
	note C_, 6
	note C#, 2
	rest 2
	octave 1
	note A#, 4
	note G#, 1
	rest 1
	octave 2
	note C_, 6
	note C#, 2
	rest 2
	octave 1
	note A#, 4
	octave 2
	note C#, 1
	rest 1
	note C_, 6
	note C#, 2
	rest 2
	octave 1
	note A#, 4
	note G#, 1
	rest 1
	octave 2
	note C_, 6
	note C#, 2
	rest 2
	octave 1
	note A#, 1
	octave 2
	note C_, 1
	note C#, 1
	note D#, 1
	note F_, 1
	note F#, 1
	note C_, 6
	note C#, 2
	rest 2
	octave 1
	note A#, 4
	note G#, 1
	rest 1
	octave 2
	note C_, 6
	note C#, 2
	rest 2
	octave 1
	note A#, 4
	octave 2
	note C#, 1
	rest 1
	note C_, 6
	note C#, 2
	rest 2
	octave 1
	note A#, 4
	note G#, 1
	rest 1
	octave 2
	note C_, 6
	note C#, 2
	rest 2
	octave 1
	note A#, 4
	note G#, 1
	rest 1
	octave 2
	note C_, 6
	note C#, 2
	rest 2
	octave 1
	note A#, 4
	note G#, 1
	rest 1
	octave 2
	note C_, 6
	note C#, 2
	rest 2
	octave 1
	note A#, 4
	octave 2
	note C#, 1
	rest 1
	note C_, 6
	note C#, 2
	rest 2
	octave 1
	note A#, 4
	note G#, 1
	rest 1
	octave 2
	note C_, 6
	note C#, 2
	rest 2
	octave 1
	note A#, 2
	octave 2
	note C#, 1
	note D#, 1
	note F_, 1
	note F#, 1
	note C_, 6
	note C#, 2
	rest 2
	octave 1
	note A#, 4
	note G#, 1
	rest 1
	octave 2
	note C_, 6
	note C#, 2
	rest 2
	octave 1
	note A#, 4
	octave 2
	note C#, 1
	rest 1
	note C_, 6
	note C#, 2
	rest 2
	octave 1
	note A#, 4
	note G#, 1
	rest 1
	octave 2
	note C_, 6
	note C#, 2
	rest 2
	octave 1
	note A#, 4
	note G#, 1
	rest 1
	octave 2
	note C_, 6
	note C#, 2
	rest 2
	octave 1
	note A#, 4
	note G#, 1
	rest 1
	octave 2
	note C_, 6
	note C#, 2
	rest 2
	octave 1
	note A#, 4
	octave 2
	note C#, 1
	rest 1
	note C_, 6
	note C#, 2
	rest 2
	octave 1
	note A#, 4
	note G#, 1
	rest 1
	octave 2
	note C_, 6
	note C#, 2
	rest 2
	octave 1
	note A#, 4
	note G#, 1
	rest 1
	octave 2
	note C_, 6
	note C#, 2
	rest 2
	octave 1
	note A#, 4
	note G#, 1
	rest 1
	octave 2
	note C_, 6
	note C#, 2
	rest 2
	octave 1
	note A#, 4
	octave 2
	note C#, 1
	rest 1
	note C_, 6
	note C#, 2
	rest 2
	octave 1
	note A#, 4
	note G#, 1
	rest 1
	octave 2
	note C_, 6
	note C#, 2
	rest 2
	octave 1
	note A#, 4
	note G#, 1
	rest 1
	octave 2
	note C_, 6
	note C#, 2
	rest 2
	octave 1
	note A#, 4
	note G#, 1
	rest 1
	octave 2
	note C_, 6
	note C#, 2
	rest 2
	octave 1
	note A#, 4
	octave 2
	note C#, 1
	rest 1
	note C_, 6
	note C#, 2
	rest 2
	octave 1
	note A#, 4
	note G#, 1
	rest 1
	octave 2
	note C_, 6
	note C#, 2
	rest 2
	octave 1
	note A#, 4
	note G#, 1
	rest 1
	octave 2
	note C_, 6
	note C#, 2
	rest 2
	octave 1
	note A#, 4
	note G#, 1
	rest 1
	octave 2
	note C_, 6
	note C#, 2
	rest 2
	octave 1
	note A#, 4
	octave 2
	note C#, 1
	rest 1
	note C_, 6
	note C#, 2
	rest 2
	octave 1
	note A#, 4
	note G#, 1
	rest 1
	octave 2
	note C_, 6
	note C#, 2
	rest 2
	octave 1
	note A#, 4
	note G#, 1
	rest 1
	octave 2
	note C_, 6
	note C#, 2
	rest 2
	octave 1
	note A#, 4
	note G#, 1
	rest 1
	octave 2
	note C_, 6
	note C#, 2
	rest 2
	octave 1
	note A#, 4
	octave 2
	note C#, 1
	rest 1
	note C_, 6
	note C#, 2
	rest 2
	octave 1
	note A#, 4
	note G#, 1
	rest 1
	octave 2
	note C_, 6
	note C#, 2
	rest 2
	octave 1
	note A#, 4
	note G#, 1
	rest 1
	octave 2
	note C_, 6
	note C#, 2
	rest 2
	octave 1
	note A#, 4
	note G#, 1
	rest 1
	octave 2
	note C_, 6
	note C#, 2
	rest 2
	octave 1
	note A#, 4
	octave 2
	note C#, 1
	rest 1
	note C_, 6
	note C#, 2
	rest 2
	octave 1
	note A#, 4
	note G#, 1
	rest 1
	octave 2
	note C_, 6
	note C#, 2
	rest 2
	octave 1
	note A#, 4
	note G#, 1
	rest 1
	octave 2
	note C_, 6
	note C#, 2
	rest 2
	octave 1
	note A#, 4
	note G#, 1
	rest 1
	octave 2
	note C_, 6
	note C#, 2
	rest 2
	octave 1
	note A#, 4
	octave 2
	note C#, 1
	rest 1
	note C_, 6
	note C#, 2
	rest 2
	octave 1
	note A#, 4
	note G#, 1
	rest 1
	octave 2
	note C_, 6
	note C#, 2
	rest 2
	octave 1
	note A#, 4
	note G#, 1
	rest 1
	octave 2
	note C_, 6
	note C#, 2
	rest 2
	octave 1
	note A#, 4
	note G#, 1
	rest 1
	octave 2
	note C_, 6
	note C#, 2
	rest 2
	octave 1
	note A#, 4
	octave 2
	note C#, 1
	rest 1
	note C_, 6
	note C#, 2
	rest 2
	octave 1
	note A#, 4
	note G#, 1
	rest 1
	octave 2
	note C_, 6
	note C#, 2
	rest 2
	octave 1
	note A#, 4
	note G#, 1
	rest 1
	volume_envelope $1, $5
	octave 2
	note C_, 2
	note G_, 2
	note D#, 2
	note G#, 2
	note D_, 2
	note A_, 2
	note C#, 2
	note E_, 2
	note C_, 2
	note G_, 2
	note D#, 2
	note G#, 2
	note D_, 2
	note A_, 2
	note C#, 2
	note E_, 2
	note C_, 2
	note G_, 2
	note D#, 2
	note G#, 2
	note D_, 2
	note A_, 2
	note C#, 2
	note E_, 2
	note C_, 2
	note G_, 2
	note D#, 2
	note G#, 2
	note D_, 2
	note A_, 2
	note C#, 2
	note E_, 2
	note C_, 2
	note G_, 2
	note D#, 2
	note G#, 2
	note D_, 2
	note A_, 2
	note C#, 2
	note E_, 2
	note C_, 2
	note G_, 2
	note D#, 2
	note G#, 2
	note D_, 2
	note A_, 2
	note C#, 2
	note E_, 2
	note C_, 2
	note G_, 2
	note D#, 2
	note G#, 2
	note D_, 2
	note A_, 2
	note C#, 2
	note E_, 2
	note C_, 2
	note G_, 2
	note D#, 2
	note G#, 2
	note D_, 2
	note A_, 2
	note C#, 2
	note E_, 2
	note C_, 2
	note G_, 2
	note D#, 2
	note G#, 2
	note D_, 2
	note A_, 2
	note C#, 2
	note E_, 2
	note C_, 2
	note G_, 2
	note D#, 2
	note G#, 2
	note D_, 2
	note A_, 2
	note C#, 2
	note E_, 2
	note C_, 2
	note G_, 2
	note D#, 2
	note G#, 2
	note D_, 2
	note A_, 2
	note C#, 2
	note E_, 2
	note C_, 2
	note G_, 2
	note D#, 2
	note G#, 2
	note D_, 2
	note A_, 2
	note C#, 2
	note E_, 2
	volume_envelope $1, $9
	sound_loop 0, Music_MespritBattle_Ch3_loop

Music_MespritBattle_Ch4:
	drum_speed $C
	rest 16
	rest 16
	rest 16
	rest 16
	toggle_noise 3
	drum_note 4, 4
	drum_note 4, 4
	drum_note 4, 4
	drum_note 4, 4
	drum_note 4, 4
	drum_note 4, 4
	drum_note 4, 4
	drum_note 4, 2
	drum_speed $6
	drum_note 1, 1
	drum_note 1, 1
	drum_note 1, 1
	drum_note 1, 1
	drum_note 4, 4
	drum_note 4, 4
	drum_note 1, 4
	drum_note 4, 2
	drum_note 1, 2
	drum_note 4, 2
	drum_note 1, 2
	drum_note 4, 2
	drum_note 4, 2
	drum_note 1, 4
	drum_note 4, 1
	drum_note 4, 1
	drum_note 4, 1
	drum_note 4, 1
	drum_note 4, 4
	drum_note 4, 4
	drum_note 1, 4
	drum_note 4, 2
	drum_note 1, 2
	drum_note 4, 2
	drum_note 1, 2
	drum_note 4, 2
	drum_note 4, 2
	drum_note 1, 4
	drum_note 4, 2
	drum_note 1, 2
	drum_note 4, 4
	drum_note 4, 4
	drum_note 1, 4
	drum_note 4, 4
	drum_note 1, 4
	drum_note 4, 2
	drum_note 4, 2
	drum_note 1, 4
	drum_note 1, 1
	drum_note 1, 1
	drum_note 1, 1
	drum_note 1, 1
	drum_note 4, 4
	drum_note 4, 4
	drum_note 1, 4
	drum_note 4, 2
	drum_note 1, 2
	drum_note 4, 2
	drum_note 1, 2
	drum_note 4, 2
	drum_note 4, 2
	drum_note 1, 4
	drum_note 4, 2
	drum_note 1, 2
	drum_note 4, 4
	drum_note 4, 4
	drum_note 1, 4
	drum_note 4, 2
	drum_note 1, 2
	drum_note 4, 2
	drum_note 1, 2
	drum_note 4, 2
	drum_note 4, 2
	drum_note 1, 4
	drum_note 4, 1
	drum_note 4, 1
	drum_note 4, 1
	drum_note 4, 1
	drum_note 4, 4
	drum_note 4, 4
	drum_note 1, 4
	drum_note 4, 2
	drum_note 1, 2
	drum_note 4, 2
	drum_note 1, 2
	drum_note 4, 2
	drum_note 4, 2
	drum_note 1, 4
	drum_note 4, 2
	drum_note 1, 2
	drum_speed $C
	drum_note 12, 12
	drum_note 4, 1
	drum_note 4, 1
	drum_note 4, 1
	drum_note 4, 1
Music_MespritBattle_Ch4_loop:
	drum_note 4, 2
	drum_note 8, 2
	drum_note 4, 2
	drum_note 8, 2
	drum_note 4, 4
	drum_note 4, 4
	drum_note 4, 2
	drum_note 8, 2
	drum_note 4, 2
	drum_note 8, 2
	drum_note 4, 4
	drum_note 4, 2
	drum_note 8, 2
	drum_note 4, 2
	drum_note 8, 2
	drum_note 4, 2
	drum_note 8, 2
	drum_note 4, 4
	drum_note 4, 4
	drum_note 4, 2
	drum_note 8, 2
	drum_note 4, 2
	drum_note 8, 2
	drum_note 4, 4
	drum_note 4, 2
	drum_note 8, 2
	drum_note 4, 2
	drum_note 8, 2
	drum_note 4, 2
	drum_note 8, 2
	drum_note 4, 4
	drum_note 4, 4
	drum_note 4, 2
	drum_note 8, 2
	drum_note 4, 2
	drum_note 8, 2
	drum_note 4, 4
	drum_note 4, 2
	drum_note 8, 2
	drum_note 4, 2
	drum_note 8, 2
	drum_note 4, 2
	drum_note 8, 2
	drum_note 4, 4
	drum_note 4, 4
	drum_note 4, 2
	drum_note 8, 2
	drum_note 4, 2
	drum_note 8, 2
	drum_note 4, 4
	drum_note 4, 2
	drum_note 8, 2
	drum_note 4, 2
	drum_note 8, 2
	drum_note 4, 2
	drum_note 8, 2
	drum_note 4, 4
	drum_note 4, 4
	drum_note 4, 2
	drum_note 8, 2
	drum_note 4, 2
	drum_note 8, 2
	drum_note 4, 4
	drum_note 4, 2
	drum_note 8, 2
	drum_note 4, 2
	drum_note 8, 2
	drum_note 4, 2
	drum_note 8, 2
	drum_note 4, 4
	drum_note 4, 4
	drum_note 4, 2
	drum_note 8, 2
	drum_note 4, 2
	drum_note 8, 2
	drum_note 1, 4
	drum_note 4, 2
	drum_note 8, 2
	drum_note 4, 2
	drum_note 8, 2
	drum_note 4, 2
	drum_note 8, 2
	drum_note 4, 4
	drum_note 4, 4
	drum_note 4, 2
	drum_note 8, 2
	drum_note 4, 2
	drum_note 8, 2
	drum_note 4, 4
	drum_note 4, 2
	drum_note 8, 2
	drum_note 4, 2
	drum_note 8, 2
	drum_note 4, 2
	drum_note 8, 2
	drum_note 4, 4
	drum_note 4, 4
	drum_note 1, 2
	drum_note 8, 2
	drum_note 4, 2
	drum_note 8, 2
	drum_note 1, 4
	drum_note 4, 2
	drum_note 8, 2
	drum_note 4, 2
	drum_note 8, 2
	drum_note 4, 2
	drum_note 8, 2
	drum_note 4, 4
	drum_note 4, 4
	drum_note 4, 2
	drum_note 8, 2
	drum_note 4, 2
	drum_note 8, 2
	drum_note 4, 4
	drum_note 4, 2
	drum_note 8, 2
	drum_note 4, 2
	drum_note 8, 2
	drum_note 4, 2
	drum_note 8, 2
	drum_note 4, 4
	drum_note 4, 4
	drum_note 4, 2
	drum_note 8, 2
	drum_note 4, 2
	drum_note 8, 2
	drum_note 4, 4
	drum_note 4, 2
	drum_note 8, 2
	drum_note 4, 2
	drum_note 8, 2
	drum_note 4, 2
	drum_note 8, 2
	drum_note 4, 4
	drum_note 4, 4
	drum_note 4, 2
	drum_note 8, 2
	drum_note 4, 2
	drum_note 8, 2
	drum_note 4, 4
	drum_note 4, 2
	drum_note 8, 2
	drum_note 4, 2
	drum_note 8, 2
	drum_note 4, 2
	drum_note 8, 2
	drum_note 4, 4
	drum_note 4, 4
	drum_note 4, 2
	drum_note 8, 2
	drum_note 4, 2
	drum_note 8, 2
	drum_note 4, 4
	drum_note 4, 2
	drum_note 8, 2
	drum_note 4, 2
	drum_note 8, 2
	drum_note 4, 2
	drum_note 8, 2
	drum_note 4, 4
	drum_note 4, 4
	drum_note 4, 2
	drum_note 8, 2
	drum_note 4, 2
	drum_note 8, 2
	drum_note 4, 4
	drum_note 4, 2
	drum_note 8, 2
	drum_note 4, 2
	drum_note 8, 2
	drum_note 4, 2
	drum_note 8, 2
	drum_note 4, 4
	drum_note 4, 4
	drum_note 1, 2
	drum_note 8, 2
	drum_note 4, 2
	drum_note 1, 2
	drum_note 4, 4
	drum_note 1, 2
	drum_note 8, 2
	drum_note 4, 2
	drum_note 4, 2
	drum_note 4, 2
	drum_note 8, 2
	drum_note 4, 4
	drum_note 4, 4
	drum_note 4, 2
	drum_note 8, 2
	drum_note 4, 2
	drum_note 8, 2
	drum_note 4, 4
	drum_note 4, 2
	drum_note 8, 2
	drum_note 4, 2
	drum_note 8, 2
	drum_note 4, 2
	drum_note 8, 2
	drum_note 4, 4
	drum_note 4, 4
	drum_note 4, 2
	drum_note 8, 2
	drum_note 4, 2
	drum_note 8, 2
	drum_note 4, 4
	drum_note 4, 2
	drum_note 8, 2
	drum_note 4, 2
	drum_note 8, 2
	drum_note 4, 2
	drum_note 8, 2
	drum_note 4, 4
	drum_note 4, 4
	drum_note 4, 2
	drum_note 8, 2
	drum_note 4, 2
	drum_note 8, 2
	drum_note 4, 4
	drum_note 4, 2
	drum_note 8, 2
	drum_note 4, 2
	drum_note 8, 2
	drum_note 4, 2
	drum_note 8, 2
	drum_note 4, 4
	drum_note 4, 4
	drum_note 4, 2
	drum_note 8, 2
	drum_note 4, 2
	drum_note 8, 2
	drum_note 4, 4
	drum_note 4, 2
	drum_note 8, 2
	drum_note 4, 2
	drum_note 8, 2
	drum_note 4, 2
	drum_note 8, 2
	drum_note 4, 4
	drum_note 4, 4
	drum_note 4, 2
	drum_note 8, 2
	drum_note 4, 2
	drum_note 8, 2
	drum_note 4, 4
	drum_note 4, 2
	drum_note 8, 2
	drum_note 4, 2
	drum_note 8, 2
	drum_note 4, 2
	drum_note 8, 2
	drum_note 4, 4
	drum_note 4, 4
	drum_note 4, 2
	drum_note 8, 2
	drum_note 4, 2
	drum_note 8, 2
	drum_note 4, 4
	drum_note 4, 2
	drum_note 8, 2
	drum_note 4, 2
	drum_note 8, 2
	drum_note 4, 2
	drum_note 8, 2
	drum_note 4, 4
	drum_note 4, 4
	drum_note 4, 2
	drum_note 8, 2
	drum_note 4, 2
	drum_note 8, 2
	drum_note 4, 4
	drum_note 4, 2
	drum_note 8, 2
	drum_note 4, 2
	drum_note 8, 2
	drum_note 4, 2
	drum_note 8, 2
	drum_note 4, 4
	drum_note 4, 4
	drum_note 4, 2
	drum_note 8, 2
	drum_note 4, 2
	drum_note 8, 2
	drum_note 4, 4
	drum_note 4, 2
	drum_note 8, 2
	drum_note 4, 2
	drum_note 8, 2
	drum_note 4, 2
	drum_note 8, 2
	drum_note 4, 4
	drum_note 4, 4
	drum_note 4, 2
	drum_note 8, 2
	drum_note 4, 2
	drum_note 8, 2
	drum_note 4, 4
	drum_note 4, 2
	drum_note 8, 2
	drum_note 4, 2
	drum_note 8, 2
	drum_note 4, 2
	drum_note 8, 2
	drum_note 4, 4
	drum_note 4, 4
	drum_note 4, 2
	drum_note 8, 2
	drum_note 4, 2
	drum_note 8, 2
	drum_note 4, 4
	drum_note 4, 2
	drum_note 8, 2
	drum_note 4, 2
	drum_note 8, 2
	drum_note 4, 2
	drum_note 8, 2
	drum_note 4, 4
	drum_note 4, 4
	drum_note 4, 2
	drum_note 8, 2
	drum_note 4, 2
	drum_note 8, 2
	drum_note 4, 4
	drum_note 4, 2
	drum_note 8, 2
	drum_note 4, 2
	drum_note 8, 2
	drum_note 4, 2
	drum_note 8, 2
	drum_note 4, 4
	drum_note 4, 4
	drum_note 4, 2
	drum_note 8, 2
	drum_note 4, 2
	drum_note 8, 2
	drum_note 4, 4
	drum_note 4, 2
	drum_note 8, 2
	drum_note 4, 2
	drum_note 8, 2
	drum_note 4, 2
	drum_note 8, 2
	drum_note 4, 4
	drum_note 4, 4
	drum_note 4, 2
	drum_note 8, 2
	drum_note 4, 2
	drum_note 8, 2
	drum_note 4, 4
	drum_note 4, 2
	drum_note 8, 2
	drum_note 4, 2
	drum_note 8, 2
	drum_note 4, 2
	drum_note 8, 2
	drum_note 4, 4
	drum_note 4, 4
	drum_note 4, 2
	drum_note 8, 2
	drum_note 4, 2
	drum_note 8, 2
	drum_note 4, 4
	drum_note 4, 2
	drum_note 8, 2
	drum_note 4, 2
	drum_note 8, 2
	drum_note 4, 2
	drum_note 8, 2
	drum_note 4, 4
	drum_note 4, 4
	drum_note 4, 2
	drum_note 8, 2
	drum_note 4, 2
	drum_note 8, 2
	drum_note 4, 4
	drum_note 4, 2
	drum_note 8, 2
	drum_note 4, 2
	drum_note 8, 2
	drum_note 4, 2
	drum_note 8, 2
	drum_note 4, 4
	drum_note 4, 4
	drum_note 4, 2
	drum_note 8, 2
	drum_note 4, 2
	drum_note 8, 2
	drum_note 4, 4
	drum_note 4, 2
	drum_note 4, 2
	drum_note 4, 2
	drum_note 8, 2
	drum_note 4, 2
	drum_note 8, 2
	drum_note 4, 4
	drum_note 4, 4
	drum_note 4, 2
	drum_note 8, 2
	drum_note 4, 2
	drum_note 8, 2
	drum_note 4, 4
	drum_note 4, 2
	drum_note 8, 2
	drum_note 4, 2
	drum_note 8, 2
	drum_note 4, 2
	drum_note 8, 2
	drum_note 4, 4
	drum_note 4, 4
	drum_note 4, 2
	drum_note 8, 2
	drum_note 4, 2
	drum_note 8, 2
	drum_note 4, 4
	drum_note 4, 2
	drum_note 8, 2
	drum_note 4, 2
	drum_note 8, 2
	drum_note 4, 2
	drum_note 8, 2
	drum_note 4, 4
	drum_note 4, 4
	drum_note 4, 2
	drum_note 8, 2
	drum_note 4, 2
	drum_note 8, 2
	drum_note 4, 4
	drum_note 4, 2
	drum_note 8, 2
	drum_note 4, 2
	drum_note 8, 2
	drum_note 4, 2
	drum_note 8, 2
	drum_note 4, 4
	drum_note 4, 4
	drum_note 4, 2
	drum_note 8, 2
	drum_note 4, 2
	drum_note 8, 2
	drum_note 4, 4
	drum_note 4, 2
	drum_note 8, 2
	drum_note 4, 2
	drum_note 8, 2
	drum_note 4, 2
	drum_note 8, 2
	drum_note 4, 4
	drum_note 4, 4
	drum_note 4, 2
	drum_note 8, 2
	drum_note 4, 2
	drum_note 8, 2
	drum_note 4, 4
	drum_note 4, 2
	drum_note 8, 2
	drum_note 4, 2
	drum_note 8, 2
	drum_note 4, 2
	drum_note 8, 2
	drum_note 4, 4
	drum_note 4, 4
	drum_note 4, 2
	drum_note 8, 2
	drum_note 4, 2
	drum_note 8, 2
	drum_note 4, 4
	drum_note 8, 2
	drum_note 8, 2
	sound_loop 0, Music_MespritBattle_Ch4_loop
