Music_Poffins:
	channel_count 4
	channel 1, Music_Poffins_Ch1
	channel 2, Music_Poffins_Ch2
	channel 3, Music_Poffins_Ch3
	channel 4, Music_Poffins_Ch4

Music_Poffins_Ch1:
	tempo $D8
	volume $7, $7
	note_type $C, $B, 5
	duty_cycle 1
	pitch_offset $0002
	octave 3
	rest 16
Music_Poffins_Ch1_loop:
	rest 2
	octave 4
	note C_, 3
	octave 3
	note B_, 2
	note B_, 2
	note B_, 2
	note G_, 1
	note A_, 1
	note A_, 3
	note A_, 2
	note A_, 3
	note B_, 1
	octave 4
	note D_, 1
	note C_, 2
	note C_, 1
	octave 3
	note G_, 1
	note A_, 1
	octave 4
	note C_, 1
	note C#, 2
	octave 3
	note A#, 1
	octave 4
	note C_, 1
	note C_, 3
	octave 3
	note A_, 1
	note A#, 1
	note B_, 1
	octave 4
	note F_, 1
	note E_, 1
	note D#, 1
	note D_, 1
	note C#, 2
	note C#, 2
	note C#, 1
	note E_, 2
	note E_, 2
	note D#, 1
	note D#, 2
	octave 3
	note B_, 2
	note B_, 1
	octave 4
	note D_, 1
	note C#, 1
	note C_, 1
	octave 3
	note B_, 1
	note A_, 1
	note B_, 1
	octave 4
	note C_, 1
	octave 3
	note A_, 1
	octave 4
	note C_, 1
	note D_, 1
	note D#, 1
	note C_, 1
	note D_, 1
	note D#, 1
	note E_, 1
	note C_, 1
	note D_, 1
	note C_, 1
	octave 3
	note A#, 1
	note A_, 1
	note G_, 1
	note G#, 1
	note A_, 1
	octave 4
	note C_, 1
	note D_, 1
	octave 3
	note A_, 1
	octave 4
	note C_, 1
	note D_, 1
	note D#, 1
	note C_, 1
	octave 3
	note B_, 1
	octave 4
	note C_, 1
	octave 3
	note G_, 1
	note A_, 1
	note A#, 1
	octave 4
	note C_, 1
	note D_, 1
	note C_, 1
	note E_, 1
	note E_, 1
	note C_, 1
	note E_, 1
	note E_, 1
	note C_, 1
	note C_, 1
	note D#, 1
	note E_, 1
	octave 3
	note B_, 1
	note G_, 1
	note A#, 1
	note A_, 1
	octave 4
	note F_, 1
	note C_, 1
	note C#, 1
	note C_, 1
	octave 3
	note A_, 1
	note G_, 1
	note F_, 1
	note D#, 1
	note G_, 1
	note A_, 1
	octave 4
	note C_, 2
	octave 3
	note A#, 2
	note A#, 2
	note G_, 1
	note A_, 1
	note B_, 1
	octave 4
	note E_, 2
	note E_, 3
	note E_, 2
	note E_, 1
	note D_, 1
	note C_, 1
	octave 3
	note G_, 1
	note A#, 2
	octave 4
	note F_, 2
	note C#, 1
	note D#, 2
	note D#, 2
	note E_, 1
	note E_, 2
	note C_, 2
	octave 3
	note B_, 2
	note G_, 1
	note A#, 1
	note A#, 2
	note B_, 1
	sound_loop 0, Music_Poffins_Ch1_loop

Music_Poffins_Ch2:
	note_type $C, $A, 5
	duty_cycle 2
	pitch_offset $0001
	octave 5
	rest 16
Music_Poffins_Ch2_loop:
	octave 4
	note G_, 2
	note E_, 1
	note F#, 2
	note D#, 2
	note F_, 2
	note D_, 2
	note E_, 2
	note D_, 1
	note C_, 1
	octave 3
	note B_, 1
	note A_, 1
	note A_, 1
	octave 4
	note C_, 1
	octave 3
	note A_, 1
	octave 4
	note C_, 1
	note E_, 2
	note G_, 9
	octave 3
	note A_, 1
	note A_, 1
	octave 4
	note C_, 1
	octave 3
	note A_, 1
	note B_, 1
	octave 4
	note D_, 1
	note A_, 1
	volume_envelope $A, 2
	note G_, 2
	volume_envelope $A, 5
	note F#, 1
	note F_, 1
	note E_, 5
	note E_, 1
	note F_, 1
	note F#, 1
	note G_, 1
	note A_, 1
	note G#, 1
	note A_, 1
	note C_, 9
	note A_, 4
	note G#, 3
	note G_, 9
	note A_, 2
	note A_, 2
	note G#, 1
	note G#, 2
	note G_, 6
	note G_, 1
	note A_, 1
	note B_, 1
	octave 5
	note C_, 2
	octave 4
	note A_, 1
	octave 5
	note C_, 2
	octave 4
	note G#, 2
	octave 5
	note C_, 2
	octave 4
	note G_, 2
	note A_, 1
	note A#, 1
	note A_, 1
	note E_, 1
	note F_, 1
	note A_, 1
	note G#, 1
	note G_, 1
	note A_, 1
	note D#, 1
	note C_, 1
	note D_, 1
	note C_, 2
	note E_, 1
	note D#, 1
	note E_, 1
	note G_, 1
	octave 5
	note C_, 1
	note D_, 1
	note C#, 1
	note C_, 2
	octave 4
	note A_, 1
	octave 5
	note C_, 2
	octave 4
	note G#, 2
	octave 5
	note C_, 2
	octave 4
	note G_, 2
	note A#, 1
	note A_, 1
	note G#, 1
	note A_, 1
	octave 5
	note C_, 1
	note D#, 1
	note C_, 1
	note D_, 1
	note D#, 1
	note E_, 1
	note C_, 1
	note D_, 1
	note C_, 9
	sound_loop 0, Music_Poffins_Ch2_loop

Music_Poffins_Ch3:
	note_type $C, $1, $2
	octave 2
	rest 12
	octave 3
	note C_, 1
	octave 2
	note C_, 1
	note E_, 1
	note D#, 1
Music_Poffins_Ch3_loop:
	note D_, 1
	rest 2
	note D_, 1
	note G_, 1
	note G_, 1
	rest 1
	note C_, 1
	rest 1
	note C_, 1
	rest 1
	note A_, 1
	rest 1
	note G_, 1
	note F_, 1
	note E_, 1
	note D_, 1
	rest 2
	note D_, 1
	note G_, 1
	note A_, 1
	rest 1
	note C_, 1
	rest 1
	note C_, 1
	note G_, 1
	note B_, 1
	note A_, 1
	note G_, 1
	note F_, 1
	note E_, 1
	note D_, 1
	rest 2
	note G_, 1
	rest 1
	note G_, 1
	note A_, 1
	note B_, 1
	octave 3
	note C_, 1
	octave 2
	note B_, 1
	note A#, 1
	note A_, 1
	rest 1
	note A_, 1
	rest 1
	note E_, 1
	note F_, 1
	rest 1
	note F_, 1
	rest 1
	note G_, 1
	note G_, 1
	rest 1
	note C_, 1
	rest 1
	octave 3
	note C_, 1
	octave 2
	note G_, 1
	note F_, 1
	note E_, 1
	note C_, 1
	note E_, 1
	note D#, 1
	note D_, 2
	rest 1
	note D_, 1
	note G_, 2
	rest 1
	note G_, 1
	note C_, 2
	rest 1
	note C_, 1
	note C#, 2
	rest 1
	note C#, 1
	note D_, 2
	rest 1
	note D_, 1
	note G_, 2
	rest 1
	note G_, 1
	note C_, 2
	rest 1
	note C_, 1
	note E_, 2
	rest 1
	note E_, 1
	note F_, 1
	note F_, 1
	rest 1
	octave 3
	note C_, 1
	note C_, 1
	octave 2
	note F_, 1
	rest 1
	octave 3
	note C_, 1
	note C_, 1
	octave 2
	note E_, 1
	note G_, 1
	note B_, 1
	note A#, 1
	note C#, 1
	rest 1
	note C#, 1
	note F_, 1
	rest 1
	note F_, 1
	rest 1
	note G_, 1
	note G_, 1
	rest 1
	note C_, 1
	rest 1
	note C_, 1
	rest 1
	note C_, 1
	note E_, 1
	note G_, 1
	note A#, 1
	note C_, 1
	note F_, 1
	rest 1
	note C_, 1
	note F_, 1
	rest 1
	note F_, 1
	note G_, 1
	note F_, 1
	note E_, 1
	rest 1
	note E_, 1
	note A#, 1
	rest 1
	note A_, 1
	note G#, 1
	note A_, 1
	note D_, 1
	note D_, 1
	note F_, 1
	note G#, 1
	note G_, 1
	note G_, 1
	rest 1
	note C_, 1
	rest 1
	note C_, 1
	rest 1
	note C_, 1
	note G_, 1
	note C_, 1
	note F_, 1
	note E_, 1
	sound_loop 0, Music_Poffins_Ch3_loop

Music_Poffins_Ch4:
	toggle_noise 4
	drum_speed $C
	drum_note 6, 2
	drum_note 7, 1
	drum_note 8, 1
	drum_note 6, 2
	drum_note 7, 1
	drum_note 8, 1
	drum_note 6, 2
	drum_note 7, 1
	drum_note 8, 1
	drum_note 6, 2
	drum_note 7, 1
	drum_note 8, 1
Music_Poffins_Ch4_loop:
	drum_note 6, 2
	drum_note 7, 1
	drum_note 8, 1
	drum_note 6, 2
	drum_note 7, 1
	drum_note 8, 1
	drum_note 6, 2
	drum_note 7, 1
	drum_note 8, 1
	drum_note 6, 2
	drum_note 7, 1
	drum_note 8, 1
	drum_note 6, 2
	drum_note 7, 1
	drum_note 8, 1
	drum_note 6, 2
	drum_note 7, 1
	drum_note 8, 1
	drum_note 6, 2
	drum_note 7, 1
	drum_note 8, 1
	drum_note 6, 2
	drum_note 7, 1
	drum_note 8, 1
	drum_note 6, 2
	drum_note 7, 1
	drum_note 8, 1
	drum_note 6, 2
	drum_note 7, 1
	drum_note 8, 1
	drum_note 6, 2
	drum_note 7, 1
	drum_note 8, 1
	drum_note 6, 2
	drum_note 7, 1
	drum_note 8, 1
	drum_note 6, 2
	drum_note 7, 1
	drum_note 8, 1
	drum_note 6, 2
	drum_note 7, 1
	drum_note 8, 1
	drum_note 6, 2
	drum_note 7, 1
	drum_note 8, 1
	drum_note 6, 2
	drum_note 7, 1
	drum_note 8, 1
	drum_note 3, 1
	drum_note 3, 1
	drum_note 12, 1
	drum_note 3, 1
	drum_note 3, 1
	drum_note 12, 1
	drum_note 3, 1
	drum_note 3, 1
	drum_note 12, 1
	drum_note 3, 1
	drum_note 3, 1
	drum_note 12, 1
	drum_note 3, 1
	drum_note 3, 1
	drum_note 12, 1
	drum_note 3, 1
	drum_note 3, 1
	drum_note 3, 1
	drum_note 12, 1
	drum_note 3, 1
	drum_note 3, 1
	drum_note 12, 1
	drum_note 3, 1
	drum_note 3, 1
	drum_note 12, 1
	drum_note 3, 1
	drum_note 3, 1
	drum_note 12, 1
	drum_note 3, 1
	drum_note 3, 1
	drum_note 12, 1
	drum_note 3, 1
	drum_note 3, 1
	drum_note 3, 1
	drum_note 12, 1
	drum_note 3, 1
	drum_note 3, 1
	drum_note 12, 1
	drum_note 3, 1
	drum_note 3, 1
	drum_note 12, 1
	drum_note 3, 1
	drum_note 3, 1
	drum_note 12, 1
	drum_note 3, 1
	drum_note 3, 1
	drum_note 12, 1
	drum_note 3, 1
	drum_note 3, 1
	drum_note 3, 1
	drum_note 12, 1
	drum_note 3, 1
	drum_note 3, 1
	drum_note 12, 1
	drum_note 3, 1
	drum_note 3, 1
	drum_note 12, 1
	drum_note 3, 1
	drum_note 3, 1
	drum_note 12, 1
	drum_note 3, 1
	drum_note 3, 1
	drum_note 12, 1
	drum_note 3, 1
	drum_note 6, 2
	drum_note 7, 1
	drum_note 8, 1
	drum_note 6, 2
	drum_note 7, 1
	drum_note 8, 1
	drum_note 6, 2
	drum_note 7, 1
	drum_note 8, 1
	drum_note 6, 2
	drum_note 7, 1
	drum_note 8, 1
	drum_note 6, 2
	drum_note 7, 1
	drum_note 8, 1
	drum_note 6, 2
	drum_note 7, 1
	drum_note 8, 1
	drum_note 6, 2
	drum_note 7, 1
	drum_note 8, 1
	drum_note 6, 2
	drum_note 7, 1
	drum_note 8, 1
	sound_loop 0, Music_Poffins_Ch4_loop
