Music_LookChampion:
	channel_count 3
	channel 1, Music_LookChampion_Ch1
	channel 2, Music_LookChampion_Ch2
	channel 3, Music_LookChampion_Ch3

Music_LookChampion_Ch1:
	tempo $5F
	volume $7, $7
	stereo_panning TRUE, TRUE
	note_type $B, $0, 0
	rest 4
	duty_cycle 1
	pitch_offset $0002
	octave 3
	note_type $C, $A, 6
	note B_, 8
	note_type $A, $A, 6
	note B_, 10
	note B_, 10
	note A#, 7
	note_type $1, $A, 6
	note A#, 6
	note_type $A, $A, 6
	note_type $8, $A, 2
	note A#, 2
	note A#, 2
	note A#, 4
	note G_, 2
	note G_, 4
	note E_, 2
	note E_, 4
	note C#, 2
	note C#, 4
	octave 2
	note E_, 2
	note E_, 4
	note A#, 2
	note A#, 4
Music_LookChampion_Ch1_loop:
	octave 3
	note F#, 2
	note F#, 10
	note B_, 2
	note B_, 10
	note A#, 2
	note A#, 10
	note B_, 2
	note B_, 10
	note B_, 2
	note B_, 10
	octave 4
	note D_, 2
	note D_, 10
	note C#, 2
	note C#, 10
	note E_, 2
	note E_, 10
	note D_, 2
	note D_, 10
	note E_, 2
	note E_, 10
	note D_, 2
	note D_, 10
	note D_, 2
	note D_, 10
	note D_, 2
	note D_, 10
	note E_, 2
	note E_, 10
	note D_, 2
	note D_, 10
	note C#, 2
	note C#, 10
	note D_, 2
	note D_, 10
	note C#, 2
	note C#, 10
	note C#, 2
	note C#, 10
	octave 3
	note A#, 2
	note A#, 10
	note A#, 2
	note A#, 10
	note F#, 2
	note F#, 10
	note F#, 2
	note F#, 10
	note F#, 2
	note F#, 10
	note F#, 2
	note F#, 14
	note G_, 2
	note G_, 4
	note F#, 2
	note F#, 4
	note E_, 2
	note E_, 4
	note D_, 2
	note D_, 4
	note C#, 2
	note C#, 4
	octave 2
	note B_, 2
	note B_, 4
	note A#, 2
	note A#, 4
	note B_, 2
	note B_, 4
	octave 3
	note C#, 2
	note D_, 2
	note D_, 2
	note D_, 2
	note A#, 6
	note A#, 10
	note G_, 2
	note G_, 4
	note F#, 2
	note F#, 4
	note E_, 2
	note E_, 4
	note D_, 2
	note D_, 4
	note C#, 2
	note C#, 4
	octave 2
	note B_, 2
	note B_, 4
	note A#, 2
	note A#, 4
	note B_, 2
	note B_, 4
	octave 3
	note C#, 2
	note C#, 4
	note D_, 2
	note D_, 4
	note E_, 2
	note D_, 2
	note D_, 2
	note D_, 2
	note C#, 6
	note A_, 2
	note A_, 2
	note A_, 2
	note G#, 6
	octave 4
	note D_, 2
	note D_, 2
	note D_, 2
	note C#, 6
	octave 3
	note D_, 6
	octave 2
	note A#, 6
	rest 16
	rest 16
	rest 16
	rest 16
	rest 16
	rest 16
	rest 16
	rest 16
	rest 16
	rest 16
	rest 16
	rest 16
	rest 6
	octave 3
	note A#, 2
	note A#, 4
	note G_, 2
	note G_, 4
	note E_, 2
	note E_, 4
	note C#, 2
	note C#, 4
	octave 2
	note E_, 2
	note E_, 4
	note A#, 2
	note A#, 4
	octave 3
	sound_loop 0, Music_LookChampion_Ch1_loop

Music_LookChampion_Ch2:
	note_type $B, $0, 0
	rest 4
	duty_cycle 1
	pitch_offset $0001
	octave 4
	note_type $A, $B, 6
	note F#, 10
	note_type $C, $B, 6
	note G_, 8
	note F_, 8
	note F#, 8
	octave 5
	note_type $8, $B, 2
	note E_, 2
	octave 4
	note A#, 2
	octave 5
	note C#, 2
	octave 4
	note F#, 2
	note A#, 2
	note C#, 2
	note F#, 2
	note G_, 2
	note F#, 2
	note E_, 2
	octave 3
	note A#, 2
	octave 4
	note C#, 2
	octave 3
	note F#, 2
	note A#, 2
	note F#, 2
	note G_, 2
	note A_, 2
	octave 4
	note F#, 2
Music_LookChampion_Ch2_loop:
	note E_, 2
	note C#, 2
	octave 3
	note A#, 8
	octave 4
	note D_, 2
	note D_, 10
	note C#, 2
	note C#, 10
	note E_, 2
	note E_, 10
	note D_, 2
	note D_, 10
	note F#, 2
	note F#, 10
	note E_, 2
	note E_, 10
	note G_, 2
	note G_, 10
	note F#, 2
	note F#, 10
	note A_, 2
	note A_, 10
	note G_, 2
	note G_, 10
	note F#, 2
	note F#, 10
	note G_, 2
	note G_, 10
	note G_, 2
	note G_, 10
	note F#, 2
	note F#, 10
	note F_, 2
	note F_, 10
	note F#, 2
	note F#, 10
	note F#, 2
	note F#, 10
	note E_, 2
	note E_, 10
	note D_, 2
	note D_, 10
	note C#, 2
	note C#, 10
	octave 3
	note B_, 2
	note B_, 10
	note A#, 2
	note A#, 10
	octave 4
	note C#, 2
	note C#, 10
	octave 3
	note B_, 2
	note B_, 10
	octave 5
	note F#, 2
	note G_, 2
	note C#, 2
	note E_, 2
	octave 4
	note A#, 2
	note F#, 2
	note C#, 2
	octave 3
	note B_, 2
	octave 4
	note C#, 2
	octave 3
	note F#, 2
	note A#, 2
	octave 4
	note C#, 2
	note F#, 2
	note A#, 2
	octave 5
	note C#, 2
	note E_, 2
	note D_, 2
	note C#, 2
	octave 4
	note A#, 2
	octave 5
	note C#, 2
	octave 4
	note G_, 2
	note F#, 2
	note G_, 2
	note F#, 2
	note_type $E, $B, 2
	note E_, 1
	note_type $8, $B, 2
	note D_, 2
	note_type $9, $B, 2
	note C#, 2
	octave 3
	note_type $8, $B, 2
	note B_, 2
	note B_, 2
	note B_, 2
	octave 4
	note F#, 12
	octave 3
	note F#, 2
	note A#, 2
	octave 4
	note C#, 2
	note E_, 2
	note F#, 2
	note G_, 2
	note C#, 2
	octave 3
	note B_, 2
	octave 4
	note C#, 2
	octave 3
	note F#, 2
	note A#, 2
	octave 4
	note C#, 2
	note F#, 2
	note A#, 2
	octave 5
	note C#, 2
	note E_, 2
	note F#, 2
	note C#, 2
	octave 4
	note A#, 2
	octave 5
	note C#, 2
	octave 4
	note G_, 2
	note F#, 2
	note F_, 2
	note F#, 2
	note_type $E, $B, 2
	note A#, 1
	octave 5
	note_type $8, $B, 2
	note C#, 2
	octave 4
	note_type $9, $B, 2
	note E_, 2
	note_type $8, $B, 2
	note F#, 2
	note G_, 2
	note E_, 2
	note C#, 2
	note D_, 2
	octave 3
	note A#, 2
	note B_, 2
	note B_, 2
	note B_, 2
	note A#, 6
	octave 4
	note F#, 2
	note F#, 2
	note F#, 2
	note F_, 6
	note B_, 2
	note B_, 2
	note B_, 2
	note A#, 6
	note F#, 2
	note G_, 2
	note E_, 2
	octave 3
	note A#, 2
	octave 4
	note C#, 2
	octave 3
	note F#, 2
	octave 4
	note D_, 2
	octave 3
	note B_, 2
	note F#, 2
	octave 4
	note D_, 2
	octave 3
	note B_, 2
	note F#, 2
	octave 4
	note C#, 2
	octave 3
	note B_, 2
	note G_, 2
	octave 4
	note C#, 2
	octave 3
	note B_, 2
	note G_, 2
	octave 4
	note E_, 2
	note C#, 2
	octave 3
	note G_, 2
	octave 4
	note E_, 2
	note C#, 2
	octave 3
	note G_, 2
	octave 4
	note D_, 2
	octave 3
	note B_, 2
	note F#, 2
	octave 4
	note D_, 2
	octave 3
	note B_, 2
	note F#, 2
	note B_, 2
	note F#, 2
	note C#, 2
	note B_, 2
	note F#, 2
	note C#, 2
	note A#, 2
	note E_, 2
	note C#, 2
	note A#, 2
	note E_, 2
	note C#, 2
	octave 4
	note C#, 2
	octave 3
	note F#, 2
	note D_, 2
	octave 4
	note C#, 2
	octave 3
	note F#, 2
	note D_, 2
	note B_, 2
	note F#, 2
	note D_, 2
	note B_, 2
	note F#, 2
	note D_, 2
	octave 4
	note D_, 2
	octave 3
	note B_, 2
	note F#, 2
	octave 4
	note D_, 2
	octave 3
	note B_, 2
	note F#, 2
	octave 4
	note E_, 2
	note C#, 2
	octave 3
	note G_, 2
	octave 4
	note C#, 2
	octave 3
	note G_, 2
	note F#, 2
	octave 4
	note F#, 2
	note C#, 2
	octave 3
	note G_, 2
	octave 4
	note F#, 2
	note C#, 2
	octave 3
	note G_, 2
	octave 4
	note E_, 2
	octave 3
	note B_, 2
	note F#, 2
	octave 4
	note D_, 2
	octave 3
	note B_, 2
	note F#, 2
	note B_, 2
	note F#, 2
	note C#, 2
	note A#, 2
	note F#, 2
	note C#, 2
	octave 4
	note E_, 2
	octave 3
	note A#, 2
	note G_, 2
	octave 4
	note C#, 2
	octave 3
	note G_, 2
	note E_, 2
	octave 4
	note C#, 2
	octave 3
	note F#, 2
	note D_, 2
	octave 4
	note C#, 2
	octave 3
	note F#, 2
	note D_, 2
	note B_, 2
	note F#, 2
	note D_, 2
	note B_, 2
	note F#, 2
	note D_, 8
	octave 4
	note F#, 2
	note G_, 2
	note F#, 2
	note E_, 2
	note F#, 2
	note E_, 2
	note D_, 2
	note E_, 2
	note D_, 2
	note C#, 2
	note D_, 2
	note C#, 2
	octave 3
	note A#, 2
	note B_, 2
	note A#, 2
	note F#, 2
	note A#, 2
	octave 4
	note F#, 2
	sound_loop 0, Music_LookChampion_Ch2_loop

Music_LookChampion_Ch3:
	volume_envelope $1, $6
	octave 2
	note_type $C, $1, $6
	note F#, 1
	note_type $4, $1, $6
	rest 1
	note F#, 3
	rest 1
	note F#, 3
	rest 1
	note F#, 12
	note F_, 3
	rest 1
	note F_, 3
	rest 1
	note F_, 3
	rest 1
	note F_, 12
	note C#, 3
	rest 1
	note C#, 3
	rest 1
	note C#, 3
	rest 1
	note C#, 12
	note F#, 3
	rest 1
	note F#, 3
	rest 1
	note F#, 3
	rest 1
	note F#, 12
	note F#, 16
	rest 16
	rest 16
	rest 16
	rest 16
	rest 16
Music_LookChampion_Ch3_loop:
	octave 1
	note B_, 4
	octave 2
	note F#, 4
	note B_, 4
	octave 3
	note D_, 4
	octave 2
	note B_, 4
	note F#, 4
	octave 1
	note B_, 4
	octave 2
	note F#, 4
	note B_, 4
	octave 3
	note C#, 4
	octave 2
	note B_, 4
	note F#, 4
	octave 1
	note B_, 4
	octave 2
	note F#, 4
	note B_, 4
	octave 3
	note E_, 4
	octave 2
	note B_, 4
	note F#, 4
	octave 1
	note B_, 4
	octave 2
	note F#, 4
	note B_, 4
	octave 3
	note D_, 4
	octave 2
	note B_, 4
	note F#, 4
	octave 1
	note B_, 4
	octave 2
	note F#, 4
	note B_, 4
	octave 3
	note D_, 4
	octave 2
	note B_, 4
	note F#, 4
	octave 1
	note B_, 4
	octave 2
	note F#, 4
	note B_, 4
	octave 3
	note C#, 4
	octave 2
	note B_, 4
	note F#, 4
	octave 1
	note B_, 4
	octave 2
	note F#, 4
	note B_, 4
	octave 3
	note E_, 4
	octave 2
	note B_, 4
	note F#, 4
	octave 1
	note B_, 4
	octave 2
	note F#, 4
	note B_, 4
	octave 3
	note D_, 4
	octave 2
	note B_, 4
	note F#, 4
	note E_, 4
	note B_, 4
	octave 3
	note E_, 4
	note G_, 4
	note E_, 4
	octave 2
	note B_, 4
	note E_, 4
	note B_, 4
	octave 3
	note E_, 4
	note F#, 4
	note E_, 4
	octave 2
	note B_, 4
	note E_, 4
	note B_, 4
	octave 3
	note E_, 4
	note A_, 4
	note E_, 4
	octave 2
	note B_, 4
	note E_, 4
	note B_, 4
	octave 3
	note E_, 4
	note G_, 4
	note E_, 4
	octave 2
	note B_, 4
	octave 1
	note B_, 4
	octave 2
	note F#, 4
	note B_, 4
	octave 3
	note D_, 4
	octave 2
	note B_, 4
	note F#, 4
	octave 1
	note B_, 4
	octave 2
	note F#, 4
	note B_, 4
	octave 3
	note E_, 4
	octave 2
	note B_, 4
	note F#, 4
	octave 1
	note B_, 4
	octave 2
	note F#, 4
	note B_, 4
	octave 3
	note D_, 4
	octave 2
	note B_, 4
	note F#, 4
	octave 1
	note B_, 4
	octave 2
	note F#, 4
	note B_, 4
	octave 3
	note C#, 4
	octave 2
	note B_, 4
	note F#, 4
	octave 1
	note F#, 4
	octave 2
	note C#, 4
	note F#, 4
	note A#, 4
	note F#, 4
	note C#, 4
	octave 1
	note F#, 4
	octave 2
	note C#, 4
	note F#, 4
	note B_, 4
	note F#, 4
	note C#, 4
	octave 1
	note F#, 4
	octave 2
	note C#, 4
	note F#, 4
	note A#, 4
	note F#, 4
	note C#, 4
	octave 1
	note F#, 4
	octave 2
	note C#, 4
	note F#, 4
	octave 3
	note C#, 4
	octave 2
	note F#, 4
	note C#, 4
	octave 1
	note B_, 4
	octave 2
	note F#, 4
	note B_, 4
	octave 3
	note D_, 4
	octave 2
	note B_, 4
	note F#, 4
	octave 1
	note B_, 4
	octave 2
	note F#, 4
	note B_, 4
	octave 3
	note C#, 4
	octave 2
	note A#, 4
	note F#, 4
	octave 1
	note B_, 4
	octave 2
	note F#, 4
	note B_, 4
	octave 3
	note E_, 5
	octave 2
	note B_, 3
	note F#, 4
	octave 1
	note B_, 4
	octave 2
	note F#, 4
	note B_, 4
	octave 3
	note D_, 4
	octave 2
	note B_, 4
	note F#, 4
	note F#, 4
	note F#, 16
	rest 16
	rest 16
	rest 16
	rest 16
	rest 16
	rest 16
	rest 4
	note G_, 3
	rest 1
	note G_, 3
	rest 1
	note G_, 3
	rest 1
	note F#, 12
	note F#, 4
	note F#, 16
	rest 16
	rest 16
	rest 16
	rest 16
	rest 16
	rest 16
	rest 16
	rest 12
	note G_, 3
	rest 1
	note G_, 3
	rest 1
	note G_, 3
	rest 1
	note F#, 12
	octave 3
	note D_, 3
	rest 1
	note D_, 3
	rest 1
	note D_, 3
	rest 1
	note C#, 12
	note G_, 3
	rest 1
	note G_, 3
	rest 1
	note G_, 3
	rest 1
	note_type $C, $1, $6
	note F#, 12
	octave 2
	note_type $8, $1, $6
	note B_, 2
	octave 3
	note F#, 2
	note B_, 2
	octave 4
	note C#, 2
	octave 3
	note B_, 2
	note F#, 2
	octave 2
	note B_, 2
	octave 3
	note G_, 2
	note B_, 2
	octave 4
	note D_, 2
	octave 3
	note B_, 2
	note G_, 2
	octave 2
	note A#, 2
	octave 3
	note E_, 2
	note A#, 2
	note B_, 2
	note A#, 2
	note E_, 2
	octave 2
	note B_, 2
	octave 3
	note F#, 2
	note B_, 2
	octave 4
	note C#, 2
	octave 3
	note B_, 2
	note F#, 2
	octave 2
	note F#, 2
	octave 3
	note C#, 2
	note F#, 2
	note G_, 2
	note F#, 2
	note C#, 2
	octave 2
	note F#, 2
	octave 3
	note C#, 2
	note F#, 2
	note A#, 2
	note F#, 2
	note C#, 2
	octave 2
	note B_, 2
	octave 3
	note F#, 2
	note B_, 2
	octave 4
	note C#, 2
	octave 3
	note B_, 2
	note F#, 2
	octave 2
	note B_, 2
	octave 3
	note F#, 2
	note B_, 2
	octave 4
	note C#, 2
	octave 3
	note B_, 2
	note F#, 2
	octave 2
	note B_, 2
	octave 3
	note F#, 2
	note B_, 2
	octave 4
	note C#, 2
	octave 3
	note B_, 2
	note F#, 2
	note C#, 2
	note G_, 2
	note B_, 2
	octave 4
	note C#, 2
	octave 3
	note B_, 2
	note G_, 2
	octave 2
	note A#, 2
	octave 3
	note E_, 2
	note A#, 2
	note B_, 2
	note A#, 2
	note E_, 2
	octave 2
	note B_, 2
	octave 3
	note F#, 2
	note B_, 2
	octave 4
	note C#, 2
	octave 3
	note B_, 2
	note F#, 2
	octave 2
	note F#, 2
	octave 3
	note C#, 2
	note F#, 2
	note G_, 2
	note F#, 2
	note C#, 2
	octave 2
	note F#, 2
	octave 3
	note C#, 2
	note G_, 2
	note A#, 2
	note F#, 2
	note C#, 2
	octave 2
	note B_, 2
	octave 3
	note F#, 2
	note B_, 2
	octave 4
	note C#, 2
	octave 3
	note B_, 2
	note F#, 2
	octave 2
	note B_, 2
	octave 3
	note F#, 2
	note B_, 2
	octave 4
	note C#, 2
	octave 3
	note B_, 2
	note F#, 2
	octave 2
	note_type $C, $1, $6
	note F#, 16
	note F#, 16
	note_type $4, $1, $6
	sound_loop 0, Music_LookChampion_Ch3_loop

